/* XPM */
static char *result[] = {
/* columns rows colors chars-per-pixel */
"64 64 175 2 ",
"   c #9B3227",
".  c #9B352A",
"X  c #A9362A",
"o  c #AD382B",
"O  c #A7372B",
"+  c #B33A2D",
"@  c #BA3C2F",
"#  c #A63D32",
"$  c #B73D30",
"%  c #BD3E30",
"&  c #C23F31",
"*  c #AA4136",
"=  c #A6453B",
"-  c #B64134",
";  c #B5473B",
":  c #C54132",
">  c #CD4334",
",  c #C94738",
"<  c #C64A3D",
"1  c #C84A3C",
"2  c #D44535",
"3  c #D94737",
"4  c #DE4939",
"5  c #E54B3C",
"6  c #EC4D3C",
"7  c #F34F3E",
"8  c #9A534B",
"9  c #985149",
"0  c #A94C42",
"q  c #B24D42",
"w  c #BC4E43",
"e  c #A4574F",
"r  c #AD564C",
"t  c #A8544B",
"y  c #B25146",
"u  c #B2564C",
"i  c #BE594E",
"p  c #BD5347",
"a  c #A95C54",
"s  c #B55D53",
"d  c #BA5D53",
"f  c #9C625C",
"g  c #AA625A",
"h  c #B5655C",
"j  c #B76157",
"k  c #9B6C67",
"l  c #9E7672",
"z  c #9E7975",
"x  c #977D7B",
"c  c #9C7C79",
"v  c #AE6760",
"b  c #AE6B64",
"n  c #A56F69",
"m  c #AE6F69",
"M  c #A66C66",
"N  c #B26C65",
"B  c #BA6F68",
"V  c #B16F68",
"C  c #A4726D",
"Z  c #AE726B",
"A  c #B8756F",
"S  c #AB7771",
"D  c #A27B76",
"F  c #A97B76",
"G  c #A47D79",
"H  c #A57874",
"J  c #B67C76",
"K  c #C54E41",
"L  c #C35245",
"P  c #C35448",
"I  c #DA5548",
"U  c #EF5C4E",
"Y  c #FF5342",
"T  c #F25B4C",
"R  c #C6675E",
"E  c #C9675E",
"W  c #D7665A",
"Q  c #EA6153",
"!  c #E06659",
"~  c #D86C61",
"^  c #D16E65",
"/  c #C9736B",
"(  c #C27871",
")  c #C26B63",
"_  c #DFBC2F",
"`  c #DDBB33",
"'  c #D7B83B",
"]  c #D8B939",
"[  c #D4B63F",
"{  c #E5BF26",
"}  c #E2BE2B",
"|  c #FECC01",
" . c #F5C70F",
".. c #F6C80D",
"X. c #FBCB0C",
"o. c #EDC31B",
"O. c #F2C513",
"+. c #F6C912",
"@. c #FCCD13",
"#. c #FFD015",
"$. c #FFD21D",
"%. c #E7C023",
"&. c #E8C122",
"*. c #FFD323",
"=. c #FFD42B",
"-. c #FFD633",
";. c #FFD739",
":. c #FFD83D",
">. c #BFAC5F",
",. c #9F817E",
"<. c #A5827E",
"1. c #AD817D",
"2. c #BBAA65",
"3. c #B5A76D",
"4. c #B7A86C",
"5. c #B8A969",
"6. c #AFA477",
"7. c #ABA27D",
"8. c #B2A573",
"9. c #CCB24B",
"0. c #CFB447",
"q. c #D1B544",
"w. c #C5AF56",
"e. c #C2AD5B",
"r. c #C7B052",
"t. c #C8B052",
"y. c #FFD943",
"u. c #FFDB4C",
"i. c #FFDD54",
"p. c #FFDE5C",
"a. c #FFDF63",
"s. c #FFE066",
"d. c #FFE16C",
"f. c #FFE375",
"g. c #FFE57E",
"h. c #758C8E",
"j. c #768E90",
"k. c #799194",
"l. c #898989",
"z. c #9E8582",
"x. c #9D8987",
"c. c #9C8D8B",
"v. c #9C938E",
"b. c #9F9C8F",
"n. c #9A9493",
"m. c #9C9A93",
"M. c #999999",
"N. c #949494",
"B. c #A48682",
"V. c #A18986",
"C. c #A98A87",
"Z. c #A59F86",
"A. c #A29D8B",
"S. c #A8A182",
"D. c #A7A085",
"F. c #849EA1",
"G. c #FFE78A",
"H. c #FFE88F",
"J. c #FFE581",
"K. c #FFE994",
"L. c #FFEB9E",
"P. c #FFEDA6",
"I. c #FFEEAA",
"U. c #FFEFB1",
"Y. c #FFF0B4",
"T. c #FFF2BD",
"R. c #FFF3C4",
"E. c #FFF4CC",
"W. c #FFF6D4",
"Q. c #FFF7D9",
"!. c #FFF8DF",
"~. c #FFFAE3",
"^. c #FFFBEB",
"/. c #FFFCF3",
"(. c #FFFFFF",
/* pixels */
"h.h.h.l.J ~ ! T Y Y Y Y Y Y Y Y Y Y Y Y Y Y Y Y Y Y T T Q Q Q P P Q Q Q Q Q U T T 7 Y Y Y Y Y Y Y Y Y Y Y Y Y Y U W W A l.h.h.h.",
"h.j.( Y Y Y Y Y Y Y Y Y Y Y Y Y Y Y Y Y Y Y 7 T Q ~ 1.C.n.m.A.A.A.A.A.A.m.n.C.( ~ Q Y Y Y Y Y Y Y Y Y Y Y Y Y Y Y 7 Y 7 Y B h.h.",
"j./ Y Y 7 5 3 3 > > > > > > > > > > > > > > 1 h B.n.Z.8.5.e.9.9.9.9.9.9.e.5.8.A.n.<.s < > > > > > > > > > > > > 4 3 5 7 Y Y ) h.",
"x.Y Y 4 > > > > > > > > > > > > > > > > , i <.b.8.q.{ +.| =.y.i.i.i.i.;.=.X.+.{ q.3.M.<.h < > > > > > > > 2 > > > > > > 4 Y Y x ",
"^ Y 6 > > > > > > > > > > > > > > > > 1 h B.M.w.{ X.-.f.I.R.E.W.W.W.W.R.T.L.f.$.X.o.9.Z.V.Z < > > > > > > > > > > > > > > 6 Y ^ ",
"T Y 2 > > > > > > > > > > > > > > > 1 V c.A.q.O.$.a.T.~.(.(.(.(.(.(.(.(.(./.!.T.J.-. .' 8.n.Z < > > > > > > > > > > > > > 2 Y U ",
"Y Y > > > > > > > > > > > > > > > < Z M.6.%.| f.^.(.(.(.(.(.(.(.(.(.(.(.(.(.(.(.(.(.J.X...0.m.<.P > > > > > > > > > > > > > Y Y ",
"Y Y > > > > > > > > > > > > > > > C v.r.O.=.I.(.(.(.(.(.(.(.(.(.(.(.(.(.(.(.(.(.(.(.(.I.:.#.w.A.V.< > > > > > > > > > > > > Y Y ",
"Y Y > > > > > > > > > > > > > > i v.8.O.*.L.(.(.(.(.(.(.(.(.(.(.(.(.(.(.(.(.(.(.(.(.(./.T.u.O.w.A.V > > > > > > > > > > > > Y Y ",
"Y Y > > > > > > > > > > > > > 1 B.7._ $.H.^.(.(.(.(.(.(.(.(.(.(.(.(.(.(.(.(.(.(.(.(.(.(.(.Y.$.o.3.v.K > > > > > > > > > > > Y Y ",
"Y Y > > > > > > > > > > > > > G M.q.X.L./.(.(.(.(.(.(.(.(.(.(.(.(.(.(.(.(.(.(.(.(.(.(.(.(./.K.*.` M.S 1 > > > > > > > > > > Y Y ",
"Y Y > > > > > > > > > > > > P n.A.+.-.~.(.(.(.(.(.(.(.(.(.Y.d.i.i.i.i.d.P./.(.(.(.(.(.(.(.(.!.i.+.S.c.j > > > > > > > > > > Y Y ",
"Y Y > > > > > > > > > > > , S M.%.=.I.(.(.(.(.(.(.(.(.^.X.| | | | | | | | ;.E.(.(.(.(.(.(.(.(.W.y.O.M.<.L > > > > > > > > > Y Y ",
"Y Y > > > > > > > > > > > h c.5.| s./.(.(.(.(.(.(.(./.d.| _ 6.M.M.M.M.4.` | u.^.(.(.(.(.(.(.(.(.g.| 2.v.N > > > > > > > > > 7 Y ",
"Y Y > > > > > > > > > > < F m.o.| W.(.(.(.(.(.(.(./.a.@.q.M.x.c l F D x.M._ X.K.^.(.(.(.(.(.(.(.~.@.] A.<.< 2 > > > > > > > Y Y ",
"> > o o o o o o o o o o e x.6.| -.(.(.(.(.(.(.(./.R.$.o.m.N.8 .     . 8 c.8.&.:.R.(.(.(.(.(.(.(.(.a.o.3.v.0 o o o o o o o o > > ",
"> > o o o o o o o o o o l M.q.| E.(.(.(.(.(.(.(.!.d.X.>.M.8 .           9 v.5. .d.~.(.(.(.(.(.(.(.Q.X.' n.a # o o o o o o o > > ",
"Y Y > > > > > > > > > 1 B.A.} -./.(.(.(.(.(.(.(.R.-._ 6.,.- @ @ $ + @ $ + D D.o.-.R.(.(.(.(.(.(.(./.=.%.7.S K 2 > > > > > > Y Y ",
"Y Y > > > > > > > > > P c.>.o.P.(.(.(.(.(.(.(.^.G.| >.M.; $ : > > > > & @ a M.q.| G.(.(.(.(.(.(.(.(.d. .t.c.d > > > > > > > Y Y ",
"Y Y > > > > > > > > > d n.q.X.^.(.(.(.(.(.(.(.!.p.+.8.,.$ $ > > > > > > & q z.e.o.a.(.(.(.(.(.(.(.(.L.| ' M.d 2 > > > > > > Y Y ",
"Y Y > > > > > > > > , N A.} =.(.(.(.(.(.(.(.(.Y.$.{ Z.n $ > > > > > > > > ; C S.{ $.(.(.(.(.(.(.(.(.T.=.{ b.Z 1 > > > > > > Y Y ",
"Y Y > > > > > > > > K S 6.&.u.(.(.(.(.(.(.(.(.P.| _ m.g & > > > > > > > > : g m.` | ^.(.(.(.(.(.(.(.W.u.o.S.G < > > > > > > Y Y ",
"Y Y > > > > > > > > p B.e.O.f.(.(.(.(.(.(.(.(.g.X.0.c.u > > > > > > > 2 > : u n.0...Y.(.(.(.(.(.(.(.~.f. .6.x.K > > > > > > Y Y ",
"Y Y > > > > > > > > d c.0...G.(.(.(.(.(.(.(.(.s.o.e.z.p > > > > > > > > > > y c.e.O.K.(.(.(.(.(.(.(./.K.| 3.n.L > > > > > > Y Y ",
"Y Y > > > > > > > > d M.] | P.(.(.(.(.(.(.(.(.s.o.2.D w > > > > > > > > > > w x.5.o.g.(.(.(.(.(.(.(./.P.| 2.M.P > > > > > > Y Y ",
"Y Y > > > > > > > > h m.` #.Y.(.(.(.(.(.(.(.(.i.&.6.C K > > > > > > > > > > K z.6.%.:.(.(.(.(.(.(.(.(.T.*.t.b.P > > > > > > Y Y ",
"Y Y > > > > > > 2 , N A.{ =.T.(.(.(.(.(.(.(.(.=.{ S.M < > > > > > > > > > > < <.S.%.:.(.(.(.(.(.(.(.(.R.=.9.A.P > > > > > > Y Y ",
"Y Y > > > > > > > 1 V A.{ -.R.(.(.(.(.(.(.(.(.=.{ Z.g < > > > > > > > > > > < G D.} =.(.(.(.(.(.(.(.(.R.-.q.Z.P > > > > > > Y Y ",
"Y Y > > > > > > > 1 S Z.&.u.W.(.(.(.(.(.(.(.(.$._ m.h : > > > > > > > > > > : G m.` X.(.(.(.(.(.(.(.(.W.u.] S.P > > > > > > Y Y ",
"Y Y > > > > > > > < F 7.o.i.W.(.(.(.(.(.(.(.(.| ` M.s > > > > > > > > > > > > G M.` | (.(.(.(.(.(.(.(.W.i.` S.P > > > > > > Y Y ",
"Y Y > > > > > > > 1 F 7.o.i.W.(.(.(.(.(.(.(.(.| ` M.s > > > > > > > > > > > > F M.` | (.(.(.(.(.(.(.(.W.i.` 7.P > > > > > > Y Y ",
"> > o o o o o o o * z S.o.i.W.(.(.(.(.(.(.(.(.| ` M.e o o o o o o o o o o o o z M.` | (.(.(.(.(.(.(.(.W.i.` 7.0 o o o o o o > > ",
"> > o o o o o o o * z 7.o.i.W.(.(.(.(.(.(.(.(.| ` M.e o o o o o o o o o o o o H M.` | (.(.(.(.(.(.(.(.W.i.` 7.0 o o o o o o > > ",
"Y Y > 2 > > > > > < F S.o.i.W.(.(.(.(.(.(.(.(.| ` M.N , > > > @ @ > > > > > > F M.` | (.(.(.(.(.(.(.(.W.i.` 7.P > > > > > > Y Y ",
"Y Y > > > > > > > 1 F 7.o.i.W.(.(.(.(.(.(.(.(.| ` M.N 1 > > > @ @ > > > > > > F M.` | (.(.(.(.(.(.(.(.W.i.` S.P > > > > > > Y Y ",
"Y Y > > > > > > > < S S.o.u.W.(.(.(.(.(.(.(.(.#.` M.N , > > 2 @ @ > > > > > , <.M.` | (.(.(.(.(.(.(.(.W.i.] S.P > > > > > > Y Y ",
"Y Y > > > > > > > , Z A.&.-.R.(.(.(.(.(.(.(.(.*.{ Z.V < > > > @ @ 2 > > > > 1 B.Z.} $.(.(.(.(.(.(.(.(.R.-.q.D.P > > > > > > Y Y ",
"Y Y > > > > > > > , m A.%.=.R.(.(.(.(.(.(.(.(.=.{ S.F K > > > @ @ > > > > > 1 <.S.{ ;.(.(.(.(.(.(.(.(.T.=.9.A.P > > > > > > Y Y ",
"Y Y > > > > > > > , g A.} $.Y.(.(.(.(.(.(.(.(.i.{ Z.F L > > > @ @ > > > > > K B.7.{ :.(.(.(.(.(.(.(.(.Y.@.t.b.P > > > > > > Y Y ",
"Y Y > > > > > > > , d M.] | I.(.(.(.(.(.(.(.(.a.o.5.F L > > > @ @ > > > > > L V.4.o.d.(.(.(.(.(.(.(.(.P.| 5.M.P > > > > > > Y Y ",
"Y Y > > > > > > > > d n.q.| K.(.(.(.(.(.(.(.(.d.O.>.<.P > > > @ @ > > > > > P V.2.O.G.(.(.(.(.(.(.(./.K.| 4.M.P > > > > > > Y Y ",
"Y Y > > > > > > > > p z.r. .f.(.(.(.(.(.(.(.(.f...t.V.d > > > @ @ > > > > > i n.9...I.(.(.(.(.(.(.(.~.f. .6.v.P > > > > > > Y Y ",
"Y Y > > > > > > > > w c 2.o.i.(.(.(.(.(.(.(.(.L.| ' n.j > > > @ @ > > > > > d M.] | ^.(.(.(.(.(.(.(.W.u.o.7.,.< > > > > > > Y Y ",
"Y Y > > > > > > > > < n 6.%.=.(.(.(.(.(.(.(.(.I.X.{ b.N > > 2 @ @ > > > > < V A.} X.(.(.(.(.(.(.(.(.R.=.{ A.C < > > > > > > Y Y ",
"Y Y > > > > > > > > : j M.` | ^.(.(.(.(.(.(.(.E.u.o.7.<.> > 2 @ @ 2 2 & 2 L <.4.&.u.(.(.(.(.(.(.(.(.L.| ] M.g , > > > > > > Y Y ",
"Y Y > > > > > > > > : u n.9...U.(.(.(.(.(.(.(.~.f.| 4.n., > > @ & & 2 & 2 d n.t.+.f.(.(.(.(.(.(.(.(.f...0.N.s > > > > > > > Y Y ",
"Y Y > > > > > > > > > w x.6.o.i.(.(.(.(.(.(.(.(.Y.*.' S.m > > @ @ 2 & 2 > S A.{ $.Y.(.(.(.(.(.(.(.(.;.&.6.c w > > > > > > > Y Y ",
"> > o o o o o o o o o O c m.] #.^.(.(.(.(.(.(.(.Q.i.o.4.n.= o o o o o o # c.8. .i.W.(.(.(.(.(.(.(.^.X.] v.k = o o o o o o o > > ",
"> > o o o o o o o o o X f c.>.| g.(.(.(.(.(.(.(.(.Y.@.} M.x.= o o o X * c 7._ *.I.(.(.(.(.(.(.(.(.J.O.2.n.8 O o o o o o o o > > ",
"Y Y > > > > > > > > 2 > r z.A.| *./.(.(.(.(.(.(.(.~.y.X.>.M.<.N j j h <.N.0.| d.~.(.(.(.(.(.(.(./.*.} Z.x.q : > > > > > > > Y Y ",
"Y Y > > > > > > > > > & @ n n.' | I.(.(.(.(.(.(.(.(.!.u.| ' m.M.M.M.M.b.] | =.W.(.(.(.(.(.(.(.(.I.| e.n.C : > > > > > > > > Y Y ",
"Y Y > > > > > > > > > > % r z.Z.| p./.(.(.(.(.(.(.(.(.~.=.| &.q.9.9.q.O.| $.K.(.(.(.(.(.(.(.(./.i.| A.x.r : > > > > > > > > Y Y ",
"Y Y > > > > > > > > > > : - b M.>.#.f.(.(.(.(.(.(.(.(.(./.g.y.=.=.=.=.;.d.^.(.(.(.(.(.(.(.(./.f.$.2.n.n @ > > > > > > > > > Y Y ",
"Y Y > > > > > > > > > > > @ q n.m.o.=.E.(.(.(.(.(.(.(.(.(.(.W.I.I.I.I.E.(.(.(.(.(.(.(.(.(./.P.=.o.b.,.y @ > > > > > > > > > Y Y ",
"Y Y > > > > > > > > > > > & @ f M.8.%.y.R.(.(.(.(.(.(.(.(.(.(.(.(.(.(.(.(.(.(.(.(.(.(.(.(.R.=.%.3.M.r $ : > > > > > > > > > Y Y ",
"Y Y > > > > > > > > > > > > & # C M.4.O.i.R.(.(.(.(.(.(.(.(.(.(.(.(.(.(.(.(.(.(.(.(.(.(.E.p.o.2.m.C - % > > > > > > > > > > Y Y ",
"Y Y > > > > 2 > > > 2 > > > & o * z.b.` #.i./.(.(.(.(.(.(.(.(.(.(.(.(.(.(.(.(.(.(.(.(.E.u.@.r.b.z.; @ : > > > > > > > > > > Y Y ",
"Y Y 2 > > > > > > > > > > > > o O r c.v.0...$.W.(.(.(.(.(.(.(.(.(.(.(.(.(.(.(.(.(.(.T.#. .0.M.c.0 @ & > > > > > > > > > > 2 Y Y ",
"! Y 3 > > > > > > > > > > > > + o @ 0 z.v.5.o.$.d.Y.~./.(.(.(.(.(.(.(.(.(.(./.~.Y.f.| _ 5.n.D = O $ > > > > > > > > > > > 4 Y ! ",
"/ Y 7 > > > > > > > > > > > > @ @ % $ r ,.n.4.{ +.*.g.I.E.!.~.^.^.^.~.^.~.R.P.s.*.+.` 6.n.G ; O X : > > > > > > > > > > > 7 Y / ",
"N.Y Y 4 > > > > > > > > > > > @ @ & @ @ y C M.7.0.{ ..X.u.d.g.g.g.g.J.J.d.-.@.O.{ 0.b.c.l y @ O + > > > > > > > > > > , 4 Y Y N.",
"k.B Y Y 5 2 > > > > > > > > 2 @ @ > : @ @ - r c n.A.8.e.' o.o.o.o.o.o.o.o.q.e.8.A.v.C 0 - @ @ + @ > > > > > > > > > 2 6 Y Y ( F.",
"h.h.E Y Y Y Y Y Y Y Y Y Y Y Y & > Y Y 6 5 5 5 I R J V.m.S.8.8.8.8.8.8.8.8.Z.m.C.A R I 5 5 5 7 > > Y Y Y Y Y Y Y Y Y Y Y Y E k.h.",
"h.h.h.x W Y Y Y Y Y Y Y Y Y Y 2 > Y Y Y 7 5 5 5 5 I I ) A <.C.B.C.C.B.B.1.A R I I 5 5 5 5 7 Y > > Y Y Y Y Y Y Y Y Y Y W x h.h.h."
};
