/* XPM */
static char *result[] = {
/* columns rows colors chars-per-pixel */
"64 64 142 2 ",
"   c #AD382B",
".  c #B33A2E",
"X  c #BA3C2F",
"o  c #B63E32",
"O  c #BD3E30",
"+  c #C03F31",
"@  c #A84A3F",
"#  c #B64134",
"$  c #BB4235",
"%  c #B64338",
"&  c #B5493D",
"*  c #C54132",
"=  c #CD4334",
"-  c #C64C3F",
";  c #C9483A",
":  c #D44535",
">  c #D94737",
",  c #DE4939",
"<  c #EC4D3C",
"1  c #F24F3E",
"2  c #B24C41",
"3  c #AE554B",
"4  c #B05147",
"5  c #A35E56",
"6  c #AC5B52",
"7  c #BB5D53",
"8  c #AA625B",
"9  c #B5645C",
"0  c #B86359",
"q  c #9F706B",
"w  c #977D7B",
"e  c #9E7F7B",
"r  c #A76862",
"t  c #B26A62",
"y  c #BA6F68",
"u  c #A5726D",
"i  c #AC756F",
"p  c #A27772",
"a  c #A17A76",
"s  c #AA7B75",
"d  c #A57F7B",
"f  c #B47771",
"g  c #BA7D77",
"h  c #C54F42",
"j  c #C35245",
"k  c #EE5C4E",
"l  c #FF5342",
"z  c #F65748",
"x  c #F25B4C",
"c  c #CC685F",
"v  c #DE6457",
"b  c #D5665B",
"n  c #D6685D",
"m  c #E46356",
"M  c #E16659",
"N  c #C26B63",
"B  c #D26E64",
"V  c #D86B60",
"C  c #C9736B",
"Z  c #C07670",
"A  c #C17872",
"S  c #DDBB33",
"D  c #D5B73E",
"F  c #D7B83B",
"G  c #D8B939",
"H  c #E5BF27",
"J  c #E1BD2C",
"K  c #FECC02",
"L  c #F6C70D",
"P  c #FBCB0B",
"I  c #EEC319",
"U  c #F3C612",
"Y  c #F6C810",
"T  c #FFCF12",
"R  c #FFD015",
"E  c #FED11C",
"W  c #E7C024",
"Q  c #E9C022",
"!  c #FFD222",
"~  c #FFD42A",
"^  c #FFD633",
"/  c #FFD83F",
"(  c #BFAC5F",
")  c #9E827F",
"_  c #A3807D",
"`  c #BCAB64",
"'  c #B6A76D",
"]  c #B7A86C",
"[  c #B9A968",
"{  c #AAA17F",
"}  c #B2A672",
"|  c #CCB24C",
" . c #D0B446",
".. c #C5AF56",
"X. c #C2AE5B",
"o. c #C7B053",
"O. c #C8B051",
"+. c #FFD940",
"@. c #FFDB4C",
"#. c #FFDD55",
"$. c #FFDF5F",
"%. c #FFDF61",
"&. c #FFE063",
"*. c #FFE16B",
"=. c #FFE375",
"-. c #FFE57F",
";. c #758C8E",
":. c #768E90",
">. c #799194",
",. c #868585",
"<. c #8C8D8D",
"1. c #9C8481",
"2. c #9C8987",
"3. c #9D8E8B",
"4. c #9E958E",
"5. c #939595",
"6. c #9B9592",
"7. c #9C9A93",
"8. c gray60",
"9. c #A18985",
"0. c #B08480",
"q. c #A69F87",
"w. c #A2948C",
"e. c #A19D8C",
"r. c #A8A181",
"t. c #849EA1",
"y. c #FFE785",
"u. c #FFE78A",
"i. c #FFE991",
"p. c #FFEB9D",
"a. c #FFEEAA",
"s. c #FFF0B4",
"d. c #FFF2BD",
"f. c #FFF3C4",
"g. c #FFF5CD",
"h. c #FFF6D4",
"j. c #FFF7D8",
"k. c #FFF8DB",
"l. c #FFF9E4",
"z. c #FFFBEC",
"x. c #FFFCF2",
"c. c #FFFFFF",
/* pixels */
";.;.;.<.g n v k l l l l l l l l l l l l l l l l l l l l l l l = = l l l l z m m m m m m m m k l l l l l l l l l k v n f ,.:.:.;.",
";.:.Z l l l l l l l l l l l l l l l l l l l l l l l l l l l l = = l l z V w.e.e.e.e.7.e.e.e.7.8.M l l l l 1 l l l l l l l y ;.;.",
";.C l l 1 < > > = = = = = = = = = = = = = = = = = = = = = = = X X = h t 9.[ o.| | | | | | | ` e.t = = = = = = = > > , 1 l l N ;.",
"9.l l , = = = = = = = = = = = = = = = = = = = = = = = = = = = O X = t 4.{ H P T R R R R T K S { s = = = = = = = = = = = < 1 1 ) ",
"B l < = = = = = = = = = = = = = = = = = = = = = = = = = = = = o % 0 w.{ G P @.=.-.-.-.-.*.T S { i = = = = = = = = = = = * < l B ",
"k l : = = = = = = = = = = = = = = = = = = = = = = = = = = = = 6 _ 7.O.I T i.l.c.c.c.c.c.h.~ S { i = = = = = = = = = = = = : l k ",
"l l = = = = = = = = = = = = = = = = = = = = = = = = = = = - t 2.7.O.U E y.z.c.c.c.c.c.c.h.~ S { i = = = = = = = = = = = = = l l ",
"l l = = = = = = = = = = = = = = = = = = = = = = = = = = 0 s 4.{ D L ^ p.l.c.c.c.c.c.c.c.h.~ S r.i = = = = = = = = = = = = = l l ",
"l l = = = = = = = = = = = = = = = = = = = = = = = = j i 6.7.X.K K ~ x.c.c.c.c.c.c.c.c.c.h.~ S { i = = = = = = = = = = = = = l l ",
"l l = = = = = = = = = = = = = = = = = = = = = = = 9 3.8.{ S P K @.c.c.c.c.c.c.c.c.c.c.c.h.~ S { i = = = = = = = = = = = = = l l ",
"l l = = = = = = = = = = = = = = = = = = = = j 9 2.e.}  .Y R @.h.c.c.c.c.c.c.c.c.c.c.c.c.h.~ S { i = = = = = = = = = = = = = l l ",
"l l = = = = = = = = = = = = = = = = = = j 9 s 8.r.o.Q T +.y.j.c.c.c.c.c.c.c.c.c.c.c.c.c.h.~ S { i = = = = = = = = = = = = = l l ",
"l l = = = = = = = = = = = = = = = ; j 0 _ 6.e.]  .P ! &.g.x.c.c.c.c.c.c.c.c.c.c.c.c.c.c.h.~ S { i = = = = = = = = = = = = = l l ",
"l l = = = = = = = = = = = = = = - 9 _ 6.q.[ | L R #.p.z.c.c.c.c.c.c.c.c.c.c.c.c.c.c.c.c.h.~ S { i = = = = = = = = = = = = = l l ",
"l l = = = = = = = = = = = = = = 9 7.{ | Q L E -.d.x.c.c.c.c.c.c.c.c.c.c.c.c.c.c.c.c.c.c.h.~ S { i = = = = = = = = = = = = = l l ",
"= =                             5 e...Y E &.a.z.c.c.c.c.c.c.c.c.c.c.c.c.c.c.c.c.c.c.c.c.h.~ S { u                           = = ",
"= =                             @ 3.` P @.f.x.c.c.c.c.c.c.c.c.c.c.c.c.c.c.c.c.c.c.c.c.c.h.~ S { q       .                   = = ",
"l l = = = = = = = = = = = = = X $ u r.G T s.c.c.c.c.c.c.c.c.c.c.c.g.g.z.c.c.c.c.c.c.c.c.h.~ S { u * = = = = = = = = = = = = l 1 ",
"l l = = = = = = = = = = = = = X . 6 6.` K u.z.c.c.c.c.c.c.c.c.g./ K T =.c.c.c.c.c.c.c.c.h.~ S { u = = = = = = = = = = = = = l l ",
"l l = = = = = = = = = = = = = X . & a { I ^ f.c.c.c.c.c.k.s.%.K U G L +.k.c.c.c.c.c.c.c.h.~ S { u = = = = = = = = = = = = = l l ",
"l l = = = = = = = = = = = = = X X # 8 4.S P p.c.c.c.z.g.=.! Y J ( 7.I +.h.c.c.c.c.c.c.c.h.~ S { u = = = = = = = = = = = = = l l ",
"l l = = = = = = = = = = = = = X X * 3 2...U $.c.x.d.i.@.Y W | e.5.8.I +.h.c.c.c.c.c.c.c.h.~ S { u = = = = = = = = = = = = = l l ",
"l l = = = = = = = = = = = = = X X * & u { H ! d.u.~ P I  .{ 7.2.6.8.I +.h.c.c.c.c.c.c.c.h.~ S { u = = = = = = = = = = = = = l l ",
"l l = = = = = = = = = = = = : X X * O 6 4...L T Y  .[ { 4.) 8 @ ) 8.I +.h.c.c.c.c.c.c.c.h.~ S { u = = = = = = = = = = = = = l l ",
"l l = = = = = = = = = = = = = X X * * & 2.{ F | [ r.5.1.8 2 # X e 8.I +.h.c.c.c.c.c.c.c.h.~ S { u = = = = = = = = = = = = = l l ",
"l l = = = = = = = = = = = = = X X : = $ w 7.{ 4.6.p 8 3 # X o X e 8.I +.h.c.c.c.c.c.c.c.h.~ S { u = = = = = = = = = = = = = l l ",
"l l = = = = = = = = = = = = = X o = = * # 6 r 3 X o X . X X X + _ 8.I +.h.c.c.c.c.c.c.c.h.~ S { u = = = = = = = = = = = = = l l ",
"l l = = = = = = = = = = = = = X X = = * X X o X X . X X X X = = d 8.I +.h.c.c.c.c.c.c.c.h.~ S { u = = = = = = = = = = = = = l l ",
"l l = = = = = = = = = = = = = X X = = * * X X X X X X O = = = = _ 8.I +.h.c.c.c.c.c.c.c.h.~ S { u = = = = = = = = = = = = = l l ",
"l l = = = = = = = = = = = = = X X = = = * X X * + * = = = = = = _ 8.I +.h.c.c.c.c.c.c.c.h.~ S { u = = = = = = = = = = = = = l l ",
"l l = = = = = = = = = = = = = O X = = = = * * * = = = = = = = = _ 8.I +.h.c.c.c.c.c.c.c.h.~ S { u = = = = = = = = = = = = = l l ",
"= =                                                             w 8.I +.h.c.c.c.c.c.c.c.h.~ S { u                           = = ",
"+ :               X               + . . . +       .   .   .     e 8.I +.h.c.c.c.c.c.c.c.h.~ S { q                           = = ",
"1 1 + : + : + : + > + : + : + : + + + , + + + < + : + > + : + X e 8.I +.h.c.c.c.c.c.c.c.h.~ S { i = = = = = = = = = = = = = l l ",
"1 1 : + > : + > : + : + > : + > + , , + + , + + : + : + : : + + e 8.I / h.c.c.c.c.c.c.c.h.~ S { i = = = = = = = = = = = = = l l ",
"l l > + : + : + + : > + : + : + , + + + , + + < + > + : : + : X e 8.I / h.c.c.c.c.c.c.c.h.~ S { i = = = = = = = = = = = = = l l ",
"l l + + : + : : > : + > : + : : + > + > + + + + > + > + = = = X e 8.I +.h.c.c.c.c.c.c.c.h.~ S { i = = = = = = = = = = = = = l l ",
"l l , + > + + > : + + : > + + > > + > + < + < + + > + > = = = X e 8.I +.h.c.c.c.c.c.c.c.h.~ S { i = = = = = = = = = = = = = l l ",
"l l + + + : : + + : : + + : : + + > + , + > + > + + > + = = = X d 8.I +.h.c.c.c.c.c.c.c.h.~ S { i = = = = = = = = = = = = = l l ",
"l l + , : > + : > + : > : > + : > + > + > + > + > < + > = = = X e 8.I +.h.c.c.c.c.c.c.c.h.~ S r.i = = = = = = = = = = = = = l l ",
"l l : : + > + > + > : + > : + > + > + > + > + > = = = = = = = X e 8.I +.h.c.c.c.c.c.c.c.h.~ S { i = = = = = = = = = = = = = l l ",
"l l + : : + > + : + + : : + : + , + > + > + > + = = = = = = = X e 8.I +.h.c.c.c.c.c.c.c.h.~ S { i = = = = = = = = = = = = = l l ",
"l l + : + > + > > : : > + + : : + > + > > + : + = = = = = = = X e 8.I +.h.c.c.c.c.c.c.c.h.~ S { i = = = = = = = = = = = = = l l ",
"l l : + > + > + + : + + > : + > > + > + + > + > = = = = = = = X ) 8.I +.h.c.c.c.c.c.c.c.h.~ S { i = = = = = = = = = = = = = l l ",
"l l > + + > + > : + > : > + : > + : > + > + > + = = = = = = : X e 7.I +.h.c.c.c.c.c.c.c.h.~ S { i = = = = = = = = = = = = = l l ",
"l l + > > + > + + : : + : : + + > + : > + > : > = = = = = = = X e 8.I +.h.c.c.c.c.c.c.c.h.~ S { i = = = = = = = = = = = = = l l ",
"l l + + + + + > + > + + + : + : : + + + + + + : = = = = = = = X e 8.I +.h.c.c.c.c.c.c.c.h.~ S { i = = = = = = = = = = = = = l l ",
"= = . . X   . X     X     X       X   X X     X                 w 8.I +.h.c.c.c.c.c.c.c.h.~ S { u                           = = ",
"= =                                                             w 8.I +.h.c.c.c.c.c.c.c.h.~ S { q                           = = ",
"l l = = = = = = = = = = = = + O X = = = = = = = = = = = = = = = d 8.I +.h.c.c.c.c.c.c.c.h.~ S { u = = = = = = = = = = = = = l l ",
"l l = = = = = = = = = = : + : O X = = = = = = = = = = = = = = = _ 8.I +.h.c.c.c.c.c.c.c.h.~ S { u = = = = = = = = = = = = = l l ",
"l l = = = = = = = = = = : : + O X = = = = = = = = = = = = = = = _ 8.I +.h.c.c.c.c.c.c.c.h.~ S r.u = = = = = = = = = = = = = l l ",
"l l = = = = = = > + > + + + : + X : = = = = = = = = = = = = = = _ 8.I +.h.c.c.c.c.c.c.c.h.~ S { u = = = = = = = = = = = = = l l ",
"l l = = = = = = + > + > : : + X X = = = = = = = = = = = = = = = _ 8.I +.h.c.c.c.c.c.c.c.h.~ S { u = = = = = = = = = = = = = l l ",
"l l = = = = = = > + + + + > : + X = = = = = = = = = = = = = = = d 8.I +.h.c.c.c.c.c.c.c.h.~ S { u = = = = = = = = = = = = = l l ",
"l l = = = = = = + < < + > + + X X = = = = = = = = = = = = = = = _ 8.I +.h.c.c.c.c.c.c.c.h.~ S { u = = = = = = = = = = = = = l l ",
"l l + > + > + > + + + , + + + + X = = = = = = = = = = = = = = = _ 8.I +.h.c.c.c.c.c.c.c.h.~ S { u = = = = = = = = = = = = = l l ",
"l l < + > + > + + < + < + < + + X = = = = = = = = = = = = = = = _ 8.I +.h.c.c.c.c.c.c.c.h.~ S { u = = = = = = = = = = = = : l l ",
"v l < + + < + > + + + + + , , + X = = = = = = = = = = = = = = = _ 8.I +.h.c.c.c.c.c.c.c.h.~ S { u = = = = = = = = = = = = , l v ",
"C l l + + + > + < + < + > + + + X = = = = = = = = = = = = = = = _ 8.I +.h.c.c.c.c.c.c.c.h.~ S { u = = = = = = = = = = = = 1 l C ",
"5.l l , + + + > : + + : + > + + X : = = = = = = = = = = = = = = _ 8.I ! *.-.-.-.y.-.-.y.*.R S { u = = = = = = = = = = = , l l 5.",
">.y l l z : > + : : : + > + + + o = = = = = = = = = = = = = = = _ 8.I K T R R R R T T T T K S r.u = = = = = = = = = : < l l Z t.",
";.;.c l l l l l l l l l l l l + = l l l l l l l l l l l l l l l _ 8.X.| | | | | | | | | | | ` e.i l l l l l l l l l l l l c >.:.",
";.;.;.w b l l l l l l l l l l + = l l l l l l l l l l l l l l l n 8.8.8.8.8.8.8.8.8.8.8.8.8.8.5.9 l l l l l l l l l l b w ;.;.;."
};
