/* XPM */
static char *result[] = {
/* columns rows colors chars-per-pixel */
"64 64 171 2 ",
"   c #9B3227",
".  c #9B3529",
"X  c #9A392F",
"o  c #A23529",
"O  c #AA372A",
"+  c #AD382B",
"@  c #B93C2F",
"#  c #B1392C",
"$  c #B73F32",
"%  c #BC3D30",
"&  c #C13F31",
"*  c #9A4339",
"=  c #A7473D",
"-  c #B64235",
";  c #B5463A",
":  c #B8483B",
">  c #C54032",
",  c #CD4334",
"<  c #C64B3D",
"1  c #C8493C",
"2  c #C94739",
"3  c #D44535",
"4  c #D94737",
"5  c #DE4939",
"6  c #EC4D3C",
"7  c #F24F3E",
"8  c #994C43",
"9  c #985048",
"0  c #A84C42",
"q  c #B04C41",
"w  c #AE554C",
"e  c #AE594F",
"r  c #A75047",
"t  c #B45146",
"y  c #B15349",
"u  c #BF574B",
"i  c #BF584D",
"p  c #AB5D54",
"a  c #BB5D53",
"s  c #B15A50",
"d  c #A9635B",
"f  c #B5645B",
"g  c #B7635A",
"h  c #9B6B66",
"j  c #98716D",
"k  c #9C7773",
"l  c #977D7B",
"z  c #9D7F7C",
"x  c #A76A63",
"c  c #AD6D66",
"v  c #B26A63",
"b  c #BA6F68",
"n  c #AE736C",
"m  c #B0706A",
"M  c #A37671",
"N  c #A37B76",
"B  c #AA7A74",
"V  c #A57E7A",
"C  c #A87D79",
"Z  c #BA7B75",
"A  c #C54F42",
"S  c #C35145",
"D  c #C05549",
"F  c #EF5C4E",
"G  c #FF5342",
"H  c #F25B4C",
"J  c #F65646",
"K  c #EE5E50",
"L  c #CB685F",
"P  c #D8665B",
"I  c #E16659",
"U  c #C56D64",
"Y  c #D26E64",
"T  c #D96B60",
"R  c #C7736B",
"E  c #D17067",
"W  c #C17A73",
"Q  c #C07670",
"!  c #DCBB33",
"~  c #D5B73F",
"^  c #D7B83B",
"/  c #E5BF26",
"(  c #E2BE2B",
")  c #FECC02",
"_  c #F6C70E",
"`  c #F6C80D",
"'  c #FCCC0B",
"]  c #EDC31A",
"[  c #EFC417",
"{  c #F2C613",
"}  c #F6C912",
"|  c #FCCD11",
" . c #F1C61C",
".. c #FFD015",
"X. c #FFD21D",
"o. c #EFCC09",
"O. c #E7C023",
"+. c #E9C121",
"@. c #FFD322",
"#. c #FFD52C",
"$. c #FFD633",
"%. c #FFD739",
"&. c #FFD93E",
"*. c #BFAC5F",
"=. c #9D817E",
"-. c #A5827D",
";. c #B4827D",
":. c #BCAA65",
">. c #B5A76F",
",. c #B8A969",
"<. c #ACA27C",
"1. c #AFA477",
"2. c #B2A673",
"3. c #CCB24C",
"4. c #D2B543",
"5. c #C5AF56",
"6. c #C2AD5B",
"7. c #C9B150",
"8. c #C7B052",
"9. c #FFD941",
"0. c #FFDB4C",
"q. c #FFDD54",
"w. c #FFDE5D",
"e. c #FFDF63",
"r. c #FFE064",
"t. c #FFE16B",
"y. c #FFE375",
"u. c #FFE57F",
"i. c #758C8E",
"p. c #768E90",
"a. c #799194",
"s. c #898989",
"d. c #9D8481",
"f. c #9D8885",
"g. c #9D8C8B",
"h. c #9C918E",
"j. c #9F9B8E",
"k. c #949393",
"l. c #9A9392",
"z. c #9D9B92",
"x. c gray60",
"c. c #A28582",
"v. c #A08986",
"b. c #AB8985",
"n. c #A28C8A",
"m. c #B28480",
"M. c #A69F86",
"N. c #A29D8A",
"B. c #A09591",
"V. c #A6A085",
"C. c #A9A180",
"Z. c #849EA1",
"A. c #FFE785",
"S. c #FFE78A",
"D. c #FFE88E",
"F. c #FFE993",
"G. c #FFEB9C",
"H. c #FFEDA4",
"J. c #FFEEAD",
"K. c #FFEFB2",
"L. c #FFF2BE",
"P. c #FFF0B4",
"I. c #FFF2C2",
"U. c #FFF4CB",
"Y. c #FFF6D4",
"T. c #FFF7D9",
"R. c #FFF8DE",
"E. c #FFFAE4",
"W. c #FFFBEB",
"Q. c #FFFCF3",
"!. c #FFFFFF",
/* pixels */
"i.i.i.s.Z P I K G G G G G G G G G G G G G J H I Y W ;.b.b.b.b.c.c.b.b.m.Z E T K G G G G G G G G G G G G G G G G F P P n s.i.i.i.",
"i.p.W G G G G G G G G G G G G G G G G K T Z m.B.N.<.1.2.2.2.2.2.2.2.2.1.V.V.B.n.Y I K G G G G G G G G G G G G G G 7 G G G b i.i.",
"i.R G G J 5 4 4 , , , , , , , , , 1 a B z.M.2.:.3.! O.] ] ] ] ] ] ] ] +.^ 4.*.C.z.g.n u 1 , , , , , , , , , , , 5 4 6 7 G G U i.",
"v.G G 5 , , , , , , , , , , , , D v n.N.,.^ ] ' ) ..#.$.9.9.0.9.&.#.#.X.' ) ' O.,.<.z.c.v A , , , , , , , , , , , , & , 5 G G l ",
"Y G 6 , , , , , , , , , , , u n g.z.5./ ` ..9.y.J.I.Y.T.W.W.Q.W.W.Y.Y.U.P.G.y.&.' ] ! 2.z.n.a , , , , , , , , , , , , , , 6 G Y ",
"H G 3 , , , , , , , , , 2 i -.l.<.! } ' 9.J.U.E.!.!.!.!.!.!.!.!.!.!.!.!.!.!.E.U.F.9.| +.5.N.c.i , , , , , , , , , , , , , 3 G F ",
"G G , , , , , , , , , 1 f -.N.6.+.) $.S.U.!.!.!.!.!.!.!.!.!.!.!.!.!.!.!.!.!.!.!.W.U.A.X.{ 5.x.c.S , , , , , , , , , , , , , G G ",
"G G , , , , , , , , < V x.M./ ) ' H.!.!.!.!.!.!.!.!.!.!.!.!.!.!.!.!.!.!.!.!.!.!.!.!.!.U.%.) *.x.N A , , , , , , , , , , , , G G ",
"G G , , , , , , , , -.z.2./ ) X.W.!.!.!.!.!.!.!.!.!.!.!.!.!.!.!.!.!.!.!.!.!.!.!.!.!.!.!.Y.9.) :.l.v , , , , , , , , , , , , G G ",
"G G , , , , , , , , x.*._ ' u.E.!.!.!.!.!.!.!.!.!.!.!.!.!.!.!.!.!.!.!.!.!.!.!.!.!.!.!.!.!.T.X.) <.n.S , , , , , , , , , , , G G ",
"G G , , , , , , , , z.6.} @.U.!.!.!.!.!.!.!.!.!.!.!.E.T.Y.Y.Y.Y.T.Q.!.!.!.!.!.!.!.!.!.!.!.!.D.) 3.l.g , , , , , , , , , , , G G ",
"G G , , , , , , , , c.M.4.| F.W.!.!.!.!.!.!.!.!.W.H.y.w.q.q.q.q.w.D.I.E.!.!.!.!.!.!.!.!.!.!.Q.@./ N.n A , , , , , , , , , , G G ",
"G G , , , , , , , , e f.V.^ X.G.!.!.!.!.!.!.E.G.9.' { / ! ! ! ! / { ..0.U.!.!.!.!.!.!.!.!.!.!.F.{ 6.g.i , , , , , , , , , , G G ",
"G G , , , , , , , , $ x l.2.{ $.Q.!.!.!.W.G.q.@.' / >.1.M.<.<.<.1.,.4.] 0.U.!.!.!.!.!.!.!.!.!.E.' ^ z.f , , , , , , , , , , G G ",
"G G , , , , , , , , $ q k z.^ ` D.!.!.T.u.@.{ ! :.1.x.l.z N N M d.z.M.8.' t.!.!.!.!.!.!.!.!.!.!.@./ z.m 1 , , , , , , , , , G G ",
", , + + + + + + + + o . * k V.! ) J.S...) 3.M.x.x.j X           . 8 d.x.! ) Y.!.!.!.!.!.!.!.!.!.q.] C.k = + + + + + + + + + , , ",
", , + + + + + + % # # O o 8 l.<.) ` ) _ 3.z.k.k .                   9 g.:.] t.!.!.!.!.!.!.!.!.!.t.{ 1.d.r + + + + + + + + + , , ",
"G G , , , , , , & 4 & & % % x g.3.` ~ C.k.N 0 $ @ @ @ @ @ $ % @ @ $ - x N.( X.!.!.!.!.!.!.!.!.!.A._ 2.f.D , , , , , , , , , G G ",
"G G , , , , , , 4 & 4 & & & q k z.3.M.g.M ; % % @ @ & % & & & & > @ $ p x.! ) !.!.!.!.!.!.!.!.!.u._ 2.v.i , , , , , , , , , G G ",
"G G , , , , , , & 4 & 4 & & & r k.z.f.x ; @ @ @ & & , , , , 3 3 , , > s x.! ) !.!.!.!.!.!.!.!.!.u._ 2.v.D , , , , , , , , , G G ",
"G G , , , , , , 4 & 4 & 4 & & O r e 0 $ $ @ & & , , , , , , , , , , 2 f z.! ' !.!.!.!.!.!.!.!.!.t.{ 1.c.D , , , , , , , , , G G ",
"G G , , , , , , & 4 & 4 & & & # o @ % @ @ & & 3 , , , , , , , , , , 1 c M./ #.!.!.!.!.!.!.!.!.!.0.] C.N S , , , , , , , , , G G ",
"G G , , , , , , 4 & 4 & 4 & & % O $ % % & & 3 3 , , , , , , , , , , u V :.] t.!.!.!.!.!.!.!.!.!.@./ N.x 1 , , , , , , , , , G G ",
"G G , , , , , , & 4 & 4 & 4 & % O @ & 3 3 , 3 & , , , , , , , , , < v j.( ) U.!.!.!.!.!.!.!.!.R.) 4.l.s > , , , , , , , , , G G ",
"G G , , , , , , , , , , & 3 3 & @ 3 & 3 4 & 4 & 4 & 4 & , , , , , a l.1.{ &.!.!.!.!.!.!.!.!.!.&.[ *.-.t , , , , , , , , , , G G ",
"G G , , , , , , , , , , 3 & & & % & 4 & & 4 & 4 & 4 & 4 , , , , u h.<.! @.P.!.!.!.!.!.!.!.!.F.) ^ N.d - , , , , , , , , , , G G ",
"G G , , , , , , , , , , 3 3 & @ & 4 & 4 4 & 4 & 4 & 4 & , , , u -.C.^ ' A.E.!.!.!.!.!.!.!.Q.@.' ,.g.y > , , , , , , , , , , G G ",
"G G , , , , , , , , , , & 3 3 @ % & 4 & & 4 & 4 & 4 & 4 , , A m.z.3.' %.T.!.!.!.!.!.!.!.!.K.) ] j.V - > , , , , , , , , , , G G ",
"G G , , , , , , , , , 3 , , 3 % % & & & 4 & & & 4 & 3 & 3 D -.x.4.` 9.L.!.!.!.!.!.!.!.!.L.9._ 2.d.w % , , , , , , , , , , , G G ",
"G G , , , , , , , , , , , , & @ & & 6 & & 4 6 & & 4 & 3 a m.l.5.} %.K.!.!.!.!.!.!.!.!.E.w.' 8.x.h - > , , , , , , , , , , , G G ",
"G G , , , , , , , , , , , , , % & & & & 4 & & & 6 & & A V l.2.{ ) H.Q.!.!.!.!.!.!.!.!.F.X.] N.k.= % > , , , , , , , , , , , G G ",
", , + + + + + + + + + + + + + + # # % # # # & # O # q C z.5.{ | L.!.!.!.!.!.!.!.!.!.I.@.{ 2.x.9 . o + + + + + + + + + + + + , , ",
", , + + + + + + + + + + + + + + + + + + + + + + + + l z.4.' ' U.!.!.!.!.!.!.!.!.!.T.t.) *.z.h     + + + + + + + + + + + + + , , ",
"G G , , , , , , , , , , , , , , , , , , , , , , D -.N.3.' &.I.!.!.!.!.!.!.!.!.!.U.q.' 6.N.k @ % & , , , , , , , , 3 , , , , G G ",
"G G , , , , , , , , , , , , , , , , , , , , , S -.z.3.} q.I.!.!.!.!.!.!.!.!.!.W.r.} ! N.d.w @ & , , , , , , , , , , , , , , G G ",
"G G , , , , , , , , , , , , , , , , , , , , u B x.,.} #.U.!.!.!.!.!.!.!.!.!.W.F.} ~ C.d.e $ % & , , , , , , , , , , , , , , G G ",
"G G , , , , , , , , , , , , , , , , , , , g c.z.4.` 0.I.!.!.!.!.!.!.!.!.!.Y.9.) 5.N.g.w $ @ , , , , , , , , , , , , , , , , G G ",
"G G , , , , , , , , , , , , , , , , , , u c.l.6.' &.U.!.!.!.!.!.!.!.!.!.Y.e.) 4.N.g.d $ @ & , , , , , , , , , , , , , , , , G G ",
"G G , , , , , , , , , , , , , , , , , u V z.*.] &.U.!.!.!.!.!.!.!.!.!.R.q...^ V.g.d - @ & , , , , , , , , , , , , , , , , , G G ",
"G G , , , , 3 , , , , , , , , , , , i f.z.4.` &.!.!.!.!.!.!.!.!.!.!.U.&.) 4.x.x.r @ @ & , , , , , , , , , , , , , , , , , , G G ",
"G G , , , , , , , , , , , , , , , , c.z.,.' &.U.!.!.!.!.!.!.!.!.!.U.&.) ~ M.h.= % $ @ , , , , , , , , , , , , , , , , , , , G G ",
"G G , , , , , , , , , , , , , , 1 n N.3.' t.T.!.!.!.!.!.!.!.!.!.U.#.` ^ j.d.; $ @ > , , , , , , , , , , , , , , , , , , , , G G ",
"G G , , , , , , , , , , , , , , v x.5.` #.U.!.!.!.!.!.!.!.!.!.U.&.{ 4.<.d.w @ % @ , , , , , , , , , , , , , , , , , , , , , G G ",
"G G , , , , , , , , , , , , , D k.<.] X.A.!.!.!.!.!.!.!.!.!.E.&.) 3.j.g.w $ @ % , , , , , , , , , , , , , , , , , , , , , , G G ",
"G G , , , , , , , , , , , , S C z.+.@.F.Q.!.!.!.!.!.!.!.!.Y.w.) 5.z.d.w $ $ & , , , , , , , , , , & 3 & , , , , , , , , , , G G ",
"G G , , , , , , , , , , , , v l.5.) e.E.!.!.!.!.!.!.!.!.Y.r...4.j.d.w $ @ & , , , , , , , , , , , 3 3 3 , , , , , , , , , , G G ",
"G G , , , , , , , , , , , S c.M.{ ' I.!.!.!.!.!.!.!.!.Q.t...O.V.l.w $ % & , , , , , , , , , , , & 3 & 3 , , , , , , , , , , G G ",
", , + + + + + + + + + O O d x.~ ) u.!.!.!.!.!.!.!.!.Q.G.) ! C.k.*   .   + + O + + + + + + + + + # + + + + + + + + + + + + + , , ",
", , + + + + + + + + + + 0 =.2.] @.!.!.!.!.!.!.!.!.!.J.@.O.1.x.* . . o + + + + + + + + + + + + + + + + + + + + + + + + + + + , , ",
"G G , , , , , , , , , 1 f z.! ' L.!.!.!.!.!.!.!.!.R...] 1.x.z y y y i i D u u u i i D i u u u y t D D D A , , , , , , , , , G G ",
"G G , , , , , , , , , S B <.] @.!.!.!.!.!.!.!.!.!.u.' 3.x.x.g.d.f.f.v.v.v.v.v.v.v.v.v.v.v.v.v.f.f.v.n.n.B g , , , , , , , , G G ",
"G G , , , , , , , , , D g.>.` e.!.!.!.!.!.!.!.!.!.$.{ 3.2.2.2.2.2.2.2.2.2.2.2.2.2.2.2.2.2.2.2.2.2.2.2.1.z.c., , , , , , , , G G ",
"G G , , , , , , , , , v z.5.' H.!.!.!.!.!.!.!.!.!.S.) _ _ ` ` ` ` ` ` ` ` ` ` ` ` ` ` ` ` ` ` ` _ _ ` O.2.c., , , , , , , , G G ",
"G G , , , , , , , , 1 n M.~ #.I.!.!.!.!.!.!.!.!.!.W.D.u.u.u.u.u.u.u.u.u.u.u.u.u.u.u.u.u.u.u.u.u.A.y.X.] 2.c., , , , , , , , G G ",
"G G , , , , , , , , 1 B V.! 0.U.!.!.!.!.!.!.!.!.!.!.Q.W.W.W.W.W.W.E.W.W.W.W.W.W.W.W.W.W.W.W.W.W.W.Y.%.] 2.c., , , , , , , , G G ",
"G G , , , , , , , , A c.1.] t.R.!.!.!.!.!.!.!.!.!.!.!.!.!.!.!.!.!.!.!.!.!.!.!.!.!.!.!.!.!.!.!.!.!.W.&.] 2.c., , , , , , , , G G ",
"G G , , , , , , , , A v.2.] u.W.!.!.!.!.!.!.!.!.!.!.!.!.!.!.!.!.!.!.!.!.!.!.!.!.!.!.!.!.!.!.!.!.!.W.&.] 2.c., , , , , , , , G G ",
"G G 3 , , , , , , , A v.2.] u.W.!.!.!.!.!.!.!.!.!.!.!.!.!.!.!.!.!.!.!.!.!.!.!.!.!.!.!.!.!.!.!.!.!.W.9.] 2.c., , , , , , , 3 G G ",
"I G 4 , , , , , , , A v.2.] u.W.!.!.!.!.!.!.!.!.!.!.!.!.!.!.!.!.!.!.!.!.!.!.!.!.!.!.!.!.!.!.!.!.!.W.9.] 2.c., , , , , , , 5 G I ",
"R G 7 , , , , , , , A v.2.[ u.W.!.!.!.!.!.!.!.!.!.!.!.!.!.!.!.!.!.!.!.!.!.!.!.!.!.!.!.!.!.!.!.!.!.W.9.] 2.c., , , , , , , 7 G R ",
"k.G G 5 , , , , , , A v.2.] &.y.u.u.u.u.u.u.u.u.u.u.u.u.u.u.u.A.u.u.u.A.u.u.u.u.A.u.u.u.u.u.u.u.u.y.X.[ 2.c., , , , , , 5 G G k.",
"a.b G G 6 3 , , , , A c.2.[ ' | ....................................| ..............................) ] 2.c., , , , 3 6 G G W Z.",
"i.i.U G G G G G G G J ;.V.5.3.3.3.3.3.3.3.3.3.3.3.3.3.3.3.3.3.3.3.3.3.3.3.3.3.3.3.3.3.3.3.3.3.3.3.3.3.6.V.b.G G G G G G G L p.p.",
"i.i.i.l P G G G G G J R x.z.z.N.z.z.j.z.z.z.j.z.z.j.z.z.z.z.N.z.z.z.z.N.z.z.z.z.z.N.z.z.z.z.z.z.z.N.z.z.l.b G G G G G P l i.i.i."
};
