/* XPM */
static char *result[] = {
/* columns rows colors chars-per-pixel */
"64 64 178 2 ",
"   c #9B3227",
".  c #9C352A",
"X  c #9A3A2F",
"o  c #A9362A",
"O  c #AD382B",
"+  c #B53A2E",
"@  c #B93C2F",
"#  c #AC3D31",
"$  c #B73E31",
"%  c #BD3E30",
"&  c #C13F31",
"*  c #9A453B",
"=  c #A7463B",
"-  c #B74134",
";  c #B54438",
":  c #B7483C",
">  c #C54133",
",  c #CD4334",
"<  c #CA4638",
"1  c #C9493B",
"2  c #C64A3C",
"3  c #D44535",
"4  c #D94737",
"5  c #DE4939",
"6  c #E54B3C",
"7  c #EB4D3C",
"8  c #F24F3E",
"9  c #F5503F",
"0  c #994D44",
"q  c #A84D43",
"w  c #B14D43",
"e  c #A75047",
"r  c #A3554D",
"t  c #AF544A",
"y  c #AE584F",
"u  c #B2544A",
"i  c #BE564B",
"p  c #BE594E",
"a  c #B05046",
"s  c #A35C54",
"d  c #AB5C54",
"f  c #BB5D53",
"g  c #98635E",
"h  c #A9625A",
"j  c #BC6056",
"k  c #B6655C",
"l  c #B86258",
"z  c #9C6863",
"x  c #9E6E69",
"c  c #977D7B",
"v  c #9C7E7B",
"b  c #9D7874",
"n  c #99706B",
"m  c #A66962",
"M  c #AA6963",
"N  c #A36963",
"B  c #B26C64",
"V  c #BA6F68",
"C  c #AE726C",
"Z  c #A4736D",
"A  c #A47E7A",
"S  c #A67974",
"D  c #B57A74",
"F  c #BC7069",
"G  c #C44E41",
"H  c #C35144",
"J  c #C15448",
"K  c #DD5244",
"L  c #D6594C",
"P  c #CF5F54",
"I  c #E04E40",
"U  c #EF5C4E",
"Y  c #FF5342",
"T  c #F25B4C",
"R  c #CB665C",
"E  c #D7665A",
"W  c #E16659",
"Q  c #E86154",
"!  c #C26B63",
"~  c #D56D63",
"^  c #CA736B",
"/  c #D07066",
"(  c #C07B74",
")  c #C07670",
"_  c #DFBC2F",
"`  c #DDBB33",
"'  c #D4B73F",
"]  c #D7B83B",
"[  c #D8B939",
"{  c #E5BF26",
"}  c #E2BE2B",
"|  c #FECC01",
" . c #F6C70E",
".. c #F6C80D",
"X. c #FCCC0B",
"o. c #EDC31B",
"O. c #F2C513",
"+. c #FECF10",
"@. c #FACC14",
"#. c #FFD015",
"$. c #FFD11D",
"%. c #E7C024",
"&. c #E8C022",
"*. c #FFD324",
"=. c #FFD42A",
"-. c #FFD634",
";. c #FFD738",
":. c #FFD83E",
">. c #BFAC5F",
",. c #9F817E",
"<. c #A5827E",
"1. c #AE817C",
"2. c #BA807B",
"3. c #BCAA64",
"4. c #B5A76E",
"5. c #B7A86C",
"6. c #B9A969",
"7. c #AFA477",
"8. c #ABA27D",
"9. c #B2A573",
"0. c #CCB24C",
"q. c #CFB447",
"w. c #D2B543",
"e. c #C5AF56",
"r. c #C2AE5B",
"t. c #C7B053",
"y. c #C8B051",
"u. c #FFD943",
"i. c #FFDB4D",
"p. c #FFDD54",
"a. c #FFDF5E",
"s. c #FFDF63",
"d. c #FFE064",
"f. c #FFE16B",
"g. c #FFE372",
"h. c #FFE57E",
"j. c #758C8E",
"k. c #768E90",
"l. c #799194",
"z. c #898989",
"x. c #9E8582",
"c. c #9D8886",
"v. c #9C8D8B",
"b. c #9C918F",
"n. c #9F9B8F",
"m. c #9B9391",
"M. c #9C9A93",
"N. c #999999",
"B. c #939595",
"V. c #A48683",
"C. c #A18987",
"Z. c #A08C8A",
"A. c #AB8683",
"S. c #A69F86",
"D. c #A29D8B",
"F. c #A1958C",
"G. c #A7A084",
"H. c #A8A082",
"J. c #849EA1",
"K. c #FFE684",
"L. c #FFE78A",
"P. c #FFE88F",
"I. c #FFE994",
"U. c #FFEB9D",
"Y. c #FFECA4",
"T. c #FFEEAC",
"R. c #FFEFB1",
"E. c #FFF0B5",
"W. c #FFF2BD",
"Q. c #FFF3C3",
"!. c #FFF4CC",
"~. c #FFF6D4",
"^. c #FFF7D9",
"/. c #FFF8DE",
"(. c #FFF9E3",
"). c #FFFBEC",
"_. c #FFFCF3",
"`. c #FFFFFF",
/* pixels */
"j.j.j.z.D ~ W T Y Y Y Y Y Y Y Y Y Y Y 9 Y Y T T Q ^ ( ( D ( ( C D D ) / ~ U U Y Y Y Y Y Y Y Y Y Y Y Y Y Y Y Y Y U E E D z.j.j.j.",
"j.k.) Y Y Y Y Y Y Y Y Y Y Y Y Y Y Y Y T W ^ 2.A.F.D.H.H.8.8.H.8.8.8.S.D.M.M.A.^ U T Y Y Y Y Y Y Y Y Y Y Y Y Y Y Y Y Y Y 9 V j.j.",
"k.^ Y Y Y 4 4 4 , , , , , , , , , < p B F.N.D.S.5.q.` ` ` ` ` ` ` ` [ q.r.5.G.M.V.B J < , , , , , , , , , , , , 4 4 6 8 Y Y ! j.",
"c.Y Y 5 , , , , , , , , , , , H C <.b.G.r.] { o...| $.u.p.p.d.p.p.i.=.X.| | &.[ 5.n.Z.S H , , , , , , , , , , , , , > , 5 Y Y v ",
"/ Y 7 , , , , , , , , , , < l A m.D.t._ O.| $.i.P.T.W.!.~.~.^.~.~.!.Q.T.K.p.X.| o._ 9.b.S J , , , , , , , , , , , , , , , 7 Y ~ ",
"T Y 3 , , , , , , , , , H B Z.S.0.} O.X.p.K.W.!.).`.`.`.`.`.`.`.`.`.`.`.).~.T.h.*.| { e.D.A < > , , , , , , , , , , , , , 3 Y U ",
"Y Y , , , , , , , , , f N.N.e.O.| X.K./.`.`.`.`.`.`.`.`.`.`.`.`.`.`.`.`.`.`.`.`.`.W.X.| y.D.m.< , , , , , , , , , , , , , , Y Y ",
"Y Y , , , , , , , , , f m.3.| *.T._.`.`.`.`.`.`.`.`.`.`.`.`.`.`.`.`.`.`.`.`.`.`.`.`.!.p.X.[ D.b.H , , , , , , , , , , , , , Y Y ",
"Y Y , , , , , , , , , G V.8.O.u._.`.`.`.`.`.`.`.`.`.`.`.`.`.`.`.`.`.`.`.`.`.`.`.`.`._.!.;...r.N.C 1 , , , , , , , , , , , , Y Y ",
"Y Y 3 , , , , , , , , < M n.` X.!.`.`.`.`.`.`.`.`.`.`.`.`.`.`.`.`.`.`.`.`.`.`.`.`.`.`.`.R.;.O.7.C.f , , , , , , , , , , , , Y Y ",
"Y Y , , , , , , , , , > a <.4.o.-._.`.`.`.`.`.`._.(.~.~.~.~.~.~.(._.`.`.`.`.`.`.`.`.`.`.`.Q.| o.M.A 1 , , , , , , , , , , , Y Y ",
"Y Y , , , , , , , , , > - m n.] | Y.`.`.`.`.~.L.d.i.:.u.:.u.u.:.p.K.W.`.`.`.`.`.`.`.`.`.`._.u.| 8.Z.H , , , , , , , , , , , Y Y ",
"Y Y , , , , , , , , , , % w c.9.| X._.`.).L.| | | ..{ { { { { {  .| | =._.`.`.`.`.`.`.`.`.`.!.| w.N.l , , , , , , , , , , , Y Y ",
"Y Y , , , , , , , , , , > $ A N.O.| I.I.#.| | [ 8.M.N.N.N.N.N.N.M.4.O.| i.(.`.`.`.`.`.`.`.`.`.$.} S.C 1 , , , , , , , , , , Y Y ",
"Y Y , , , , , , , , , , > & y c.9.| | O.[ t.n.m.A Z m m m m m z b c.D.q...i.).`.`.`.`.`.`.`.`.h.o.3.<.J , , , , , , , , , , Y Y ",
", , O O O O O O O O O O O o . n N._ _ >.n.b.,.z X               . 0 m.N.} $.W._.`.`.`.`.`.`.`.W...0.c.e O O O O O O O O O O , , ",
", , O O O O O O @ + O O O O o * N.D.n.b.g 0 X                       0 N.6...L.).`.`.`.`.`.`.`.).| ] M.r O O O O O O O O O O , , ",
"Y Y , , , , , , & 4 & 3 3 & & O x x.A h ; + @ + @ @ @ % % @ % @ @ @ $ c.8.} d.^.`.`.`.`.`.`.`.`.| ` N.j , , , , , , , , , , Y Y ",
"Y Y , , , , , , 4 & 4 & 3 3 & O o @ @ @ @ @ + % , , , , , , , , > > @ m 8.` p.~.`.`.`.`.`.`.`.`.| ` N.j , , , , , , , , , , Y Y ",
"Y Y , , , , , , & 4 & 4 & 3 3 + o + + @ @ & > , , , , , , , , 3 , 3 @ N 8.` p.~.`.`.`.`.`.`.`.`.| ` v.f , , , , , , , , , , Y Y ",
"Y Y , , , , , , 4 & 4 & 3 & & @ O @ % & > , , , , , , , , , , , , , , ,.7.o.g.(.`.`.`.`.`.`.`.T. .t.x.i > , , , , , , , , , Y Y ",
"Y Y , , , , , , & 4 & 4 & 3 3 @ @ > & > 3 , , , , , , , , , , , , , i v.3...I._.`.`.`.`.`.`.`.d.o.6.S G , , , , , , , , , , Y Y ",
"Y Y , , , , , , 4 & 4 & 4 & & & @ , , , , , , , , , , , , , , , 2 k v.M.{ $.!.`.`.`.`.`.`.`.~.+.` D.d > , , 3 , , , , , , , Y Y ",
"Y Y , , , , , , & 4 & 4 & 4 3 @ @ , , , , , G G H H H H H J l B <.Z.M.w.@.a.).`.`.`.`.`.`.`.f.| t.m.u > , , , , , , , , , , Y Y ",
"Y Y , , , , , , , , , , , , , @ @ , , , 1 l <.<.<.<.V.<.<.V.c.m.M.9.[ | p.!.`.`.`.`.`.`.`.!.#.| S.V.; , , , , , , , , , , , Y Y ",
"Y Y , , , , , , , , , , , , , @ @ 3 , , B m.8.9.9.9.9.9.9.6.q.] ..| | i._.`.`.`.`.`.`.`.!.;.| 5.c.d & & , , , , , , , , , , Y Y ",
"Y Y , , , , , , , , , , , , 3 @ @ , , , B b.{ | +.+.+.#.#.#.=.-.i.h./.`.`.`.`.`.`.`._.W.-.X.r.N.z - & 3 , , , , , , , , , , Y Y ",
"Y Y , , , , , , , , , , , , , @ @ , , , B b.{ | f.h.h.K.h.h.T.W._.`.`.`.`.`.`.`.`.).Y.u. .] N.x.= % , , , , , , , , , , , , Y Y ",
"Y Y , , , , , , , , , , 3 , , @ @ 3 & 3 B Z.{ | ~.`.`.`.`.`.`.`.`.`.`.`.`.`.`.`.`.U.$. .q.8.c.r o & , , , , , , , , , , , , Y Y ",
"Y Y , , , , , , , , , , , , , @ & & 3 & B m.{ | ~.`.`.`.`.`.`.`.`.`.`.`.`.`.`.`.~.#.o.e.M.m.s o O > , , , , , , , , , , , , Y Y ",
"Y Y , , , , , , , , , , , , , @ @ 3 & 3 B m.{ | ~.`.`.`.`.`.`.`.`.`.`.`.`.`.`.`./.*...%.5.n.<.r + > , , , , , , , , , , , , Y Y ",
", , O O O O O O O O O O O O O O O O + O N v.{ | ~.`.`.`.`.`.`.`.`.`.`.`.`.`.`.`.`.).p.X.| %.M.N.h O O O O O O O O O O O O O , , ",
", , O O O + O O O O O O O O O O O O O O N b.{ | ~.`.`.`.`.`.`.`.`.`.`.`.`.`.`.`.`.`._.!.=.| o.M.c.s O O O O O O O O O O O O , , ",
"Y Y , , , , , , , , , , , , , , , , , , B b.{ | U.W.Q.!.~.~.~.^._.`.`.`.`.`.`.`.`.`.`.`.).I.+.O.H.Z.J < , , , , , , , , , , Y Y ",
"Y Y , , , , , , , , , , , , , , , , , , M b.{ | *.=.=.u.p.p.p.p.I.R.!._.`.`.`.`.`.`.`.`.`._.g.+.w.H.<.J , , , , , , , , , , Y Y ",
"Y Y , , , , , , , , , , , , , , , , , 3 B b.>.0.0.0.0.[ ` _ o.O.| X.*.u.U._.`.`.`.`.`.`.`.`._.U.| ] D.S 2 , , , , , , , , , Y Y ",
"Y Y , , , , , , , , , , , , , , , , , , i c.n.D.D.D.D.G.S.8.9.4.3.3.' ..*.f.(.`.`.`.`.`.`.`.`.).-.O.8.m.H , , , , , , , , , Y Y ",
"Y Y , , , , , , , , , , , , , , , , , , < u m m m m m Z S S S c B.N.S.5.o.X.g.^.`.`.`.`.`.`.`.`.K.X.r.M.B , , , , , , , , , Y Y ",
"Y Y , , , , , , , , , , , , , , , , , , & % + @ @ $ $ $ @ + @ o o w Z N.n.0.| p.`.`.`.`.`.`.`.`.~.i.} 8.V., , , , , , , , , Y Y ",
"Y Y , , , , , , , , , , , , , , , , , , & % $ @ @ + @ @ @ + @ o o @ @ t ,.n.` X.!.`.`.`.`.`.`.`._.I...6.N., , , , , , , , , Y Y ",
"Y Y , , , , , , , , , , 3 , , , , , , , , & & @ & & & % @ % & O o @ @ @ d c.r.O.s.`.`.`.`.`.`.`.`.E.X.t.M., , , , , , , , , Y Y ",
"Y Y , , , , , , , , , , , , , , , , , , , , , , & , & , > & & + O % @ @ ; m D.} +.`.`.`.`.`.`.`.`.Q.$.w.n., , , , , , , , , Y Y ",
"Y Y , , , , , , , , , , , , , , , , , , , , , , , , , , 3 , , @ @ , > > $ u M.q.| ~.`.`.`.`.`.`.`.~.=.[ G.< , , , , , , , , Y Y ",
"Y Y , , , , , , , , , , , , , , , , , , , , , , , , , , , , , @ @ , , > & a m.0.| W.`.`.`.`.`.`.`.~.=.` D., , , , , , , , , Y Y ",
"Y Y , , , , , , , , , , , , , , , , , , , , , , , , , , , , , % @ 3 , , , u m.0.| W.`.`.`.`.`.`.`.~.=.` D., , , , , , , , , Y Y ",
"Y Y , , , , , , , , , , , , , , , , , , , , , , , , , , , , , % @ , , , , j N.] | /.`.`.`.`.`.`.`.~.=.` D., , , , , , , , , Y Y ",
"Y Y , , , , , , , , , , , < H J , , , , , , , , , , , , , , , $ @ , , , H A 7.%.=.`.`.`.`.`.`.`.`.Q.$.q.D., , , , , , , , , Y Y ",
", , O O O O O O O O O O O q v v s q O O O O O O O O O O O O O O O O O # N b.q. .L.`.`.`.`.`.`.`.`.E.X.t.M.O O O O O O O O O , , ",
", , O O O O O O O O O O = b S.7.N.v.b N e = o O O o O O O O O o O O r v m.7.O.=._.`.`.`.`.`.`.`._.I...5.m.O O O O O O O O O , , ",
"Y Y , , , , , , , , , , J F.r.} ' >.D.m.V.<.C k f H G H G G H i k D C.N.3.` $.P.`.`.`.`.`.`.`.`.(.f.%.7.v , , , , , , , , , Y Y ",
"Y Y , , , , , , , , , , k M.} | | | | { 3.8.N.N.N.N.N.N.M.N.N.N.N.N.7.` | X.T._.`.`.`.`.`.`.`.`.W.*.0.D.m , , , , , , , , , Y Y ",
"Y Y , , , , , , , , , 1 C S.{ =.R.s.+.| | | o.w.r.9.9.9.9.9.9.4.t.%.| | -.T.`.`.`.`.`.`.`.`.`.`.h.| 4.N.w , , , , , , , , , Y Y ",
"Y Y , , , , , , , , , G <.7.O.f.`.`._.~.I.d.:.u.=.*.#.#.#.#.$.*.;.u.g.E._.`.`.`.`.`.`.`.`.`.`.^.$.} D.A : , , , , , , , , , Y Y ",
"Y Y , , , , , , , , , H v.6.| P.`.`.`.`.`.`.~.~.T.U.h.h.h.h.L.Y.W.(.`.`.`.`.`.`.`.`.`.`.`.`.).s.O.e.m.h - , , , , , , , , , Y Y ",
"Y Y , , , , , , , , , f D.0.$.W.`.`.`.`.`.`.`.`.`.`.`.`.`.`.`.`.`.`.`.`.`.`.`.`.`.`.`.`.`.).i.| q.M.m ; > , , , , , , , , , Y Y ",
"Y Y , , , , , , , , , B H.] u.!.`.`.`.`.`.`.`.`.`.`.`.`.`.`.`.`.`.`.`.`.`.`.`.`.`.`.`.`.(.h.| { S.c.w % , 3 , , , , , , , , Y Y ",
"Y Y , , , , , , , , , <.9.o.s.(.`.`.`.`.`.`.`.`.`.`.`.`.`.`.`.`.`.`.`.`.`.`.`.`.`.`.`.(.s.$.{ 7.v.m % & > , , , , , , , , , Y Y ",
"Y Y 3 , , , , , , , , m.r.| Y.`.`.`.`.`.`.`.`.`.`.`.`.`.`.`.`.`.`.`.`.`.`.`.`.`.`.`.P.$.| [ N.N.s $ & & 3 , , , , , , , , 3 Y Y ",
"W Y 3 > , , , , , , , n.y.O.X.:.L.E.~.).`.`.`.`.`.`.`.`.`.`._.`.`.`.`.`._./.!.E.s.*.X.%.6.n.x.r o $ & 3 , , , , , , , , , 4 Y W ",
"^ Y Y , , , , , , , , m.7.y.} o...+.p.K.Y.W.W.~./.).(.).).).).).)./.~.W.I.f.u.#.| o.w.7.b.,.t o o & > , , , , , , , , , , 8 Y ^ ",
"B.Y Y 5 , , , , , , , m c.m.S.9.q.` &.O.X.$.=.p.f.h.h.h.K.h.h.h.K.s.p.*.| ..O.%.w.6.M.c.Z w $ o O & 3 & , , , , , 3 3 > 6 Y Y B.",
"l.F Y Y 7 3 , , , , , $ w a M b m.N.S.7.4.3.0.[ &.o.o.o.o.o.o.o.o.{ ` ' >.7.8.D.N.v h w $ @ @ + @ , 3 3 , , , , , > 3 7 Y Y D J.",
"j.j.! Y Y Y Y Y Y Y Y 6 6 6 K w y ! D A.m.M.D.H.7.9.9.9.9.9.9.9.9.9.8.S.M.v.1.D P L I 6 6 6 7 & & Y Y Y Y Y Y Y Y Y Y Y Y R l.j.",
"j.j.j.c E Y Y Y Y Y Y 7 6 6 6 $ $ 5 K L L P ! D A.V.A.V.V.V.V.V.V.A.D V R L K K 6 6 6 6 6 Y Y 3 3 Y Y Y Y Y Y Y Y Y Y E v j.j.j."
};
