/* XPM */
static char *result[] = {
/* columns rows colors chars-per-pixel */
"64 64 171 2 ",
"   c #9C3428",
".  c #9A3C32",
"X  c #A8362A",
"o  c #AD382B",
"O  c #A13428",
"+  c #B93C2F",
"@  c #B63E31",
"#  c #BF3F31",
"$  c #C13F31",
"%  c #B74437",
"&  c #B84337",
"*  c #B4493E",
"=  c #A9473C",
"-  c #C54133",
";  c #CD4334",
":  c #CA4739",
">  c #C64B3D",
",  c #C8493C",
"<  c #D44535",
"1  c #D94737",
"2  c #DE4939",
"3  c #EC4D3C",
"4  c #F24F3E",
"5  c #98554D",
"6  c #A74F46",
"7  c #B04E43",
"8  c #A4574E",
"9  c #AE544B",
"0  c #AD584F",
"q  c #B15349",
"w  c #BE574C",
"e  c #BF584C",
"r  c #BD5145",
"t  c #AD5A51",
"y  c #A45C54",
"u  c #BA5E54",
"i  c #B15B52",
"p  c #A7665F",
"a  c #A9635B",
"s  c #B96157",
"d  c #B7645B",
"f  c #B86158",
"g  c #B5685F",
"h  c #9E706A",
"j  c #977D7B",
"k  c #9E7773",
"l  c #A16660",
"z  c #A66A64",
"x  c #AF6E66",
"c  c #A56E68",
"v  c #B26D65",
"b  c #B16F68",
"n  c #BA6F68",
"m  c #AD736D",
"M  c #A57974",
"N  c #A67974",
"B  c #BC7D77",
"V  c #B57F79",
"C  c #B47771",
"Z  c #C54E41",
"A  c #C0554A",
"S  c #DD5649",
"D  c #D45C50",
"F  c #ED5C4E",
"G  c #FF5342",
"H  c #F15C4D",
"J  c #F55242",
"K  c #E65E51",
"L  c #C5685F",
"P  c #CB685F",
"I  c #CC6157",
"U  c #D5665B",
"Y  c #D6685D",
"T  c #DD695E",
"R  c #DE6457",
"E  c #E16659",
"W  c #C26B63",
"Q  c #D46E63",
"!  c #D86B60",
"~  c #C9736B",
"^  c #C07670",
"/  c #C17872",
"(  c #DDBB33",
")  c #D5B73E",
"_  c #D8B939",
"`  c #D6B83C",
"'  c #E5BF26",
"]  c #E3BE2A",
"[  c #FFCC00",
"{  c #F5C70F",
"}  c #F6C80D",
"|  c #FCCC0C",
" . c #ECC21D",
".. c #F1C514",
"X. c #F6C912",
"o. c #FECE11",
"O. c #F1C618",
"+. c #FBCE1B",
"@. c #FFD015",
"#. c #FFD11D",
"$. c #E7C023",
"%. c #E9C122",
"&. c #FFD324",
"*. c #FFD42B",
"=. c #FFD634",
"-. c #FFD83F",
";. c #BFAC5F",
":. c #9C817E",
">. c #A4827E",
",. c #BBAA65",
"<. c #B5A76E",
"1. c #B6A86C",
"2. c #AFA477",
"3. c #AAA17F",
"4. c #B2A673",
"5. c #CCB24C",
"6. c #D0B446",
"7. c #C5AF57",
"8. c #C2AD5B",
"9. c #C7B052",
"0. c #FFD943",
"q. c #FFDB4D",
"w. c #FFDD54",
"e. c #FFDF5F",
"r. c #FFE063",
"t. c #FFE26D",
"y. c #FFE373",
"u. c #FFE57F",
"i. c #758C8E",
"p. c #768E90",
"a. c #799194",
"s. c #898989",
"d. c #9D8684",
"f. c #9D8987",
"g. c #978F8E",
"h. c #9C8D8B",
"j. c #9E938E",
"k. c #9F9C8F",
"l. c #9A9493",
"z. c #9D9B93",
"x. c gray60",
"c. c #939595",
"v. c #A28683",
"b. c #A18A87",
"n. c #A18A88",
"m. c #AC8A87",
"M. c #B08480",
"N. c #A69F86",
"B. c #A19D8C",
"V. c #A7A084",
"C. c #A8A083",
"Z. c #849EA1",
"A. c #FFE681",
"S. c #FFE78A",
"D. c #FFE88F",
"F. c #FFE995",
"G. c #FFEB9D",
"H. c #FFEDA5",
"J. c #FFEEAA",
"K. c #FFEFB1",
"L. c #FFF0B4",
"P. c #FFF2BE",
"I. c #FFF5CD",
"U. c #FFF3C4",
"Y. c #FFF6D3",
"T. c #FFF7D9",
"R. c cornsilk",
"E. c #FFF9E3",
"W. c #FFFBEA",
"Q. c #FFFCF3",
"!. c #FFFFFF",
/* pixels */
"i.i.i.s.B ! R H G G G G G G G G G G G G G G G G G G G G G G G ; ; G G H ! Q Q Q Q Q Q Q Q Q Q Q E H G G G G G G F R Y C s.i.i.i.",
"i.p./ G G G G G G G G G G G G G G G G G G G G G G G G G G G G ; ; J ! m.k.B.B.B.B.B.B.B.B.B.B.B.z./ H G G G G G G G G G 4 n i.i.",
"i.~ G G J 2 1 1 ; ; ; ; ; ; ; ; ; ; ; ; ; ; ; ; ; ; ; ; ; ; ; + # u v.B.8.5.5.5.5.5.5.5.5.5.5.5.4.b.u ; ; ; ; ; 1 1 2 4 G G W i.",
"b.G G 2 ; ; ; ; ; ; ; ; ; ; ; ; ; ; ; ; ; ; ; ; ; ; ; ; ; ; ; + * >.k.,.X.o.@.@.@.@.@.@.o.@.| [ 5.b.s ; ; ; ; ; ; ; ; ; 2 G G j ",
"Q G 3 ; ; ; ; ; ; ; ; ; ; ; ; ; ; ; ; ; ; ; ; ; ; ; ; ; ; ; ; q v.B.7.O.r.J.P.P.P.P.U.P.P.P.u.[ 5.b.u ; ; ; ; ; ; ; ; ; ; 3 G Q ",
"F G < ; ; ; ; ; ; ; ; ; ; ; ; ; ; ; ; ; ; ; ; < ; ; ; ; ; ; Z d.x.,.O.=.Y.!.!.!.!.!.!.!.!.!.J.[ 5.b.u ; ; ; ; ; ; ; ; ; ; < G F ",
"G G ; ; ; ; ; ; ; ; ; ; ; ; ; ; ; ; ; ; ; ; ; ; ; ; ; ; ; , b x.N.%.=.K.!.!.!.!.!.!.!.!.!.!.J.[ 5.b.u ; ; ; ; ; ; ; ; ; ; ; G G ",
"G G ; ; ; ; ; ; ; ; ; ; ; ; ; ; ; ; ; ; ; ; ; ; ; ; ; ; : N l.3.| 0.U.!.!.!.!.!.!.!.!.!.!.!.J.[ 5.b.u < ; ; ; ; ; ; ; ; ; ; G G ",
"G G ; ; ; ; ; ; ; ; ; ; ; ; ; ; ; ; ; ; ; ; ; ; ; ; ; ; m l.z. .[ P.!.!.!.!.!.!.!.!.!.!.!.!.J.[ 5.b.u ; ; ; ; ; ; ; ; ; ; ; G G ",
"G G ; ; ; ; ; ; ; ; ; ; ; ; ; ; ; ; ; ; ; ; ; ; ; ; : s l.2.( #.G.!.!.!.!.!.!.!.!.!.!.!.!.!.J.[ 5.b.u ; ; ; ; ; ; ; ; ; ; ; G G ",
"G G ; ; ; ; ; ; ; ; ; ; ; ; < ; ; ; ; ; ; ; ; ; ; ; A >.N._ X.F.!.!.!.!.!.!.!.!.!.!.!.!.!.!.J.[ 5.b.u ; ; ; ; ; ; ; ; ; ; ; G G ",
"G G ; ; ; ; ; ; ; ; ; ; ; ; ; ; ; ; ; ; ; ; ; ; ; > m j.6.X.w.!.!.!.!.!.!.!.!.!.!.!.!.!.!.!.J.[ 5.b.u ; ; ; ; ; ; ; ; ; ; ; G G ",
"G G ; ; ; ; ; ; ; ; ; ; ; ; ; ; ; ; ; ; ; ; ; ; ; m k.,.} r.T.!.!.!.!.!.!.!.!.!.!.!.!.!.!.!.J.[ 5.b.s < ; ; ; ; ; ; ; ; ; ; G G ",
"G G ; ; ; ; ; ; ; ; ; ; ; ; ; ; ; ; ; ; ; ; ; ; u j.4.] -.P.!.!.!.!.!.!.!.!.!.!.!.!.!.!.!.!.J.[ 5.b.u ; ; ; ; ; ; ; ; ; ; ; G G ",
"G G ; ; ; ; ; ; ; ; ; ; ; ; ; ; ; ; ; ; ; ; ; Z b.C.) +.H.Q.!.!.!.!.!.!.!.!.!.!.!.!.!.!.!.!.J.[ 5.b.u ; ; ; ; ; ; ; ; ; ; ; G G ",
"; ; o o o o o o o o o o o o o o o o o o o o o g.x.) | r.!.!.!.!.!.!.!.!.!.!.!.!.!.!.!.!.!.!.J.[ 5.d.8 o o o o o o o o o o o ; ; ",
"; ; o o o o o o o o o o o o o o o o o o o o p c.2.| q.R.!.!.!.!.!.!.R.y.F.W.!.!.!.!.!.!.!.!.J.[ 5.d.8 o o o o o o o o o o o < ; ",
"G G ; ; ; ; ; ; ; ; ; ; ; ; < + + ; ; ; , v h.4...w.R.!.!.!.!.!.!.K.*.[ [ F.Q.!.!.!.!.!.!.!.J.[ 5.b.s ; ; ; ; ; ; ; ; ; ; ; G G ",
"G G ; ; ; ; ; ; ; ; ; ; ; ; ; + + $ < ; u n.B.' [ H.!.!.!.!.!.!.W.w.} ' | u.W.!.!.!.!.!.!.!.J.[ 5.b.u ; ; ; ; ; ; ; ; ; ; ; G G ",
"G G ; ; ; ; ; ; ; ; ; ; ; ; ; + + < < , v.z.8.[ 0.!.!.!.!.!.!.!.G.| ( 8.} u.W.!.!.!.!.!.!.!.J.[ 5.b.u ; ; ; ; ; ; ; ; ; ; ; G G ",
"G G ; ; ; ; ; ; ; ; ; ; ; ; < + @ ; : g l.7...q.E.!.!.!.!.!.!.G.o.( 3.4.} u.W.!.!.!.!.!.!.!.J.[ 5.b.u ; ; ; ; ; ; ; ; ; ; ; G G ",
"G G ; ; ; ; ; ; ; ; ; ; ; ; ; + + ; w v.1.' | U.!.!.!.!.!.!.R.&.[ <.z.4.} u.W.!.!.!.!.!.!.!.J.[ 5.b.u ; ; ; ; ; ; ; ; ; ; ; G G ",
"G G ; ; ; ; ; ; ; ; ; ; ; ; ; + + , m k._ [ w.!.!.!.!.!.!.Q.u.[ _ z.c.2.} u.W.!.!.!.!.!.!.!.J.[ 5.b.s ; ; ; ; ; ; ; ; ; ; ; G G ",
"G G ; ; ; ; ; ; ; ; ; ; ; ; ; + + b z.,.[ q.I.!.!.!.!.!.!.y.| ' x.g.g.4.} u.W.!.!.!.!.!.!.!.J.[ 5.n.u ; ; ; ; ; ; ; ; ; ; ; G G ",
"G G ; ; ; ; ; ; ; ; ; ; ; ; ; # + n.2.%.#.P.!.!.!.!.!.!.G.&.} k.x.z d.4.} A.W.!.!.!.!.!.!.!.J.[ 5.b.u ; ; ; ; ; ; ; ; ; ; ; G G ",
"G G ; ; ; ; ; ; ; ; ; ; ; ; ; @ N 3._ o.H.Q.!.!.!.!.!.I.*.} 8.l.z q d.4.} u.W.!.!.!.!.!.!.!.J.[ 5.b.u ; ; ; ; ; ; ; ; ; ; ; G G ",
"G G ; ; ; ; ; ; ; ; ; ; ; ; ; t x.9.| 0.E.!.!.!.!.!.E.y.| ` C.k @ q b.4.} u.W.!.!.!.!.!.!.!.J.[ 5.b.u ; ; ; ; ; ; ; ; ; ; ; G G ",
"G G ; ; ; ; ; ; ; ; ; ; ; ; , d.B. .&.F.!.!.!.!.!.Q.H.@.] 4.j.7 + q d.4.} u.W.!.!.!.!.!.!.!.J.[ 5.b.u ; ; ; ; ; ; ; ; ; ; ; G G ",
"G G ; ; ; ; ; ; ; ; ; ; ; ; b x._ @.u.Q.!.!.!.!.!.J.&...2.j.a + + e b.4.} u.W.!.!.!.!.!.!.!.J.[ 5.b.s < ; ; ; ; ; ; ; ; ; ; G G ",
"G G ; ; ; ; ; ; ; ; ; ; ; u b.4.| q.T.!.!.!.!.!.!.w.| ` k.M * + ; e b.4.} u.W.!.!.!.!.!.!.!.J.[ 5.b.u ; ; ; ; ; ; ; ; ; ; ; G G ",
"G G ; ; ; ; ; ; ; ; ; ; Z M z.] [ G.!.!.!.!.!.!.P.o.' 2.d.8 @ $ ; e d.4.} u.W.!.!.!.!.!.!.!.J.[ 5.b.u ; ; ; ; ; ; ; ; ; ; ; G G ",
"; ; o o o o o o o o o o h l.;.[ *.!.!.!.!.!.!.W.|  .1.x.5   O o o 6 d.4.} u.W.!.!.!.!.!.!.!.J.[ 5.d.8 o o o o o o o o o o o ; ; ",
"; ; o o o o o + o o o = d.N.] [ I.!.!.!.!.!.!.y.[ 5.x.j . O X o o 6 d.4.} u.W.!.!.!.!.!.!.!.J.[ 5.d.8 o o o o o o o o o o o ; ; ",
"G G ; ; ; ; ; ; ; ; > b k.) | D.!.!.!.!.!.!.I.[ ..B.b.0 + $ ; @ + e b.4.} A.W.!.!.!.!.!.!.!.J.[ 5.d.s ; ; ; ; ; ; ; ; ; ; < G G ",
"G G ; ; ; ; ; ; ; ; e f.,. .&.Q.!.!.!.!.!.W.t.[ 8.g.c @ $ $ ; # + A b.4.} u.W.!.!.!.!.!.!.!.J.[ 5.n.u ; ; ; ; ; ; ; ; ; ; ; G G ",
"G G ; ; ; ; ; ; ; Z m z.( | u.!.!.!.!.!.!.P.*.' z.:.q & , : , * & u d.4.} u.W.!.!.!.!.!.!.!.J.[ 5.n.d , , , : : ; ; ; ; ; ; G G ",
"G G ; ; ; ; ; ; : d l.4.X.w.Y.!.!.!.!.!.E.w.X.N.x.n.v.>.v.>.>.M M b.l.4.} u.W.!.!.!.!.!.!.!.J.[ 5.l.b.>.>.>.M b ; ; ; ; ; ; G G ",
"G G ; ; ; ; ; ; Z >.B.5.@.H.Q.!.!.!.!.!.K.*.' 3.C.3.3.3.3.3.3.3.C.3.3.;.| u.W.!.!.!.!.!.!.!.J.[ ) C.3.3.3.C.B.x.; ; ; ; ; ; G G ",
"G G ; ; ; ; ; ; A l.4.%.r.R.!.!.!.!.!.!.H.&.} ' ' ' ' ' ' ' ' ' $.$.]  .[ F.Q.!.!.!.!.!.!.!.U.[ ..$.$.] $.$.5.V.; ; ; ; ; ; G G ",
"G G ; ; ; ; ; ; f B.5.o.P.!.!.!.!.!.!.!.Q.F.w.-.-.-.-.-.-.-.-.-.0.0.-.-.t.Y.!.!.!.!.!.!.!.!.!.q.-.-.0.-.*.| ( V.; ; ; ; ; ; G G ",
"G G ; ; ; ; ; ; d B.5.@.U.!.!.!.!.!.!.!.!.!.!.!.!.!.!.!.!.!.!.!.!.!.!.!.!.!.!.!.!.!.!.!.!.!.!.!.!.!.!.!.J.*.( B.; ; ; ; ; ; G G ",
"G G ; ; ; ; ; ; d B.5.@.P.!.!.!.!.!.!.!.!.!.!.!.!.!.!.!.!.!.!.!.!.!.!.!.!.!.!.!.!.!.!.!.!.!.!.!.!.!.!.!.J.*.( B.; ; ; ; ; ; G G ",
"G G ; ; ; ; ; ; d B.5.@.P.!.!.!.!.!.!.!.!.!.!.!.!.!.!.!.!.!.!.!.!.!.!.!.!.!.!.!.!.!.!.!.!.!.!.!.!.!.!.!.J.*.( V.; ; ; ; ; ; G G ",
"G G ; ; ; ; ; ; g B.5.@.P.!.!.!.!.!.!.!.!.!.!.!.!.!.!.!.!.!.!.!.!.!.!.!.!.!.!.!.!.!.!.!.!.!.!.!.!.!.!.!.J.*.( B.; ; ; ; ; ; G G ",
"G G ; ; ; ; ; ; d B.5.@.P.!.!.!.!.!.!.!.!.!.!.!.!.!.!.!.!.!.!.!.!.!.!.!.!.!.!.!.!.!.!.!.!.!.!.!.!.!.!.!.J.*.( B.; ; ; ; ; ; G G ",
"G G ; ; ; ; ; ; d z.5.@.P.!.!.!.!.!.!.!.!.!.!.!.!.!.!.!.!.!.!.!.!.!.!.!.!.!.!.!.!.!.!.!.!.!.!.!.!.!.!.!.J.*.( V.; ; ; ; ; ; G G ",
"G G ; ; ; ; ; ; d V.5.| u.J.J.J.J.J.J.J.J.J.J.J.J.J.J.J.J.J.J.J.J.J.J.L.Y.Q.!.!.!.!.!.!.!.!.!.Y.P.J.J.J.y.@.( B.; ; ; ; ; ; G G ",
"; ; o o o o o o y B.5.[ [ [ [ [ [ [ [ [ [ [ [ [ [ [ [ [ [ [ [ [ [ [ [ [ @.L.!.!.!.!.!.!.!.!.W.[ [ [ [ [ [ [ ( B.o o o o o o ; ; ",
"; ; o o o o o o 8 z.4.5.5.5.5.5.9.5.5.5.5.5.5.5.5.5.5.5.5.5.5.5.5.5.5._ [ S.W.!.!.!.!.!.!.!.L.[ ' 5.5.5.5.5.,.z.o o o o o o ; ; ",
"G G ; ; ; ; ; ; r >.h.d.d.d.h.d.f.f.d.f.f.f.f.f.f.f.f.f.f.f.f.f.d.h.l.4.X.A.W.!.!.!.!.!.!.!.J.[ 5.l.g.f.f.f.f.h.; ; ; ; ; ; G G ",
"G G ; ; ; ; ; ; - 9 t 0 t t t 8 8 0 0 0 t 0 0 0 0 0 t t 0 0 0 0 t z h.2.} A.W.!.!.!.!.!.!.!.J.[ 5.j.c t 8 t t 7 ; ; ; ; ; ; G G ",
"G G ; ; ; ; ; ; - @ + + + + + X X + @ + @ @ @ + # + @ @ + # @ + + 9 d.4.} u.W.!.!.!.!.!.!.!.J.[ 5.d.t + + + + + ; ; ; ; ; ; G G ",
"G G ; ; ; ; ; ; - + + + + + + X X + + + + + + # @ + @ + + + @ + + q b.4.} u.W.!.!.!.!.!.!.!.J.[ 5.f.t + + + + + ; ; ; ; ; ; G G ",
"G G ; ; ; ; ; ; ; $ # + @ # # o + $ $ # # # # $ $ # $ $ $ $ $ $ + q d.4.} u.W.!.!.!.!.!.!.!.J.[ 5.n.t # # # # # ; ; ; ; ; ; G G ",
"G G ; ; ; ; ; ; ; ; ; ; - ; ; + # $ < $ $ $ $ < $ < $ $ $ < $ $ ; e b.4.} u.W.!.!.!.!.!.!.!.J.[ 5.n.u ; ; - ; ; ; ; ; ; ; ; G G ",
"G G ; ; ; ; ; ; ; ; ; ; ; ; ; + $ $ < $ < < 1 $ < $ < < < $ < < ; e b.4.} u.W.!.!.!.!.!.!.!.J.[ 5.b.u ; ; ; ; ; ; ; ; ; ; ; G G ",
"G G ; ; ; ; ; ; ; ; ; ; ; ; ; + + $ < < < $ $ 1 ; ; ; ; ; ; ; ; ; e b.4.} u.W.!.!.!.!.!.!.!.J.[ 5.b.u ; ; ; ; ; ; ; ; ; ; ; G G ",
"G G < ; ; ; ; ; ; ; ; ; ; ; ; + $ $ < $ < < < $ ; ; ; ; ; ; ; ; ; e b.4.} u.W.!.!.!.!.!.!.!.J.[ 5.b.u ; ; ; ; ; ; ; ; ; ; < G G ",
"E G 1 ; ; ; ; ; ; ; ; ; ; ; ; + + < ; ; $ < < < ; ; ; ; ; ; ; ; ; e d.4.} u.W.!.!.!.!.!.!.!.J.[ 5.b.u ; ; ; ; ; ; ; ; ; ; 2 G E ",
"~ G 4 ; ; ; ; ; ; ; ; ; ; ; < + + ; ; ; < $ $ < ; ; ; ; ; ; ; ; ; e d.4.} r.J.P.P.P.P.U.P.P.u.[ 5.b.u ; ; ; ; ; ; ; ; ; ; 4 G ~ ",
"c.G G 2 ; ; ; ; ; ; < < ; ; ; + # ; ; ; ; ; ; ; ; ; ; ; ; ; ; ; < A b.<.} | @.@.o.@.@.@.@.@.| [ 5.b.u ; ; ; ; ; ; ; ; ; 2 G G c.",
"a.n G G 3 < ; ; ; < $ $ ; ; ; + @ ; ; ; ; ; ; ; ; ; ; ; ; ; ; ; ; A b.N.9.5.5.5.5.5.5.5.5.5.5.5.4.b.u ; ; ; ; ; ; ; < 3 G G / Z.",
"i.i.W G G G G G G G G G G G 4 < ; G G G G G G G G G G G G G G G G K >.k.B.B.B.B.B.B.B.B.B.B.B.B.z.M.K G G G G G G G G G G W p.p.",
"i.i.i.j U G G G G G G G G G G < ; G G G G G G G G G G G G G G G G G S I L L L L L L L L L W L a t D J G G G G G G G G U j i.i.i."
};
