/* XPM */
static char *result[] = {
/* columns rows colors chars-per-pixel */
"64 64 176 2 ",
"   c #9B3227",
".  c #A9362A",
"X  c #AD382B",
"o  c #A7382C",
"O  c #B93C2F",
"+  c #B53A2E",
"@  c #A93E33",
"#  c #B73E31",
"$  c #BD3E30",
"%  c #C13F31",
"&  c #A9463B",
"*  c #A7483D",
"=  c #A64036",
"-  c #B54336",
";  c #B6483C",
":  c #C54133",
">  c #CD4334",
",  c #C54B3E",
"<  c #C8493B",
"1  c #CB4638",
"2  c #D44535",
"3  c #D94737",
"4  c #DE4939",
"5  c #E54B3B",
"6  c #EC4D3C",
"7  c #F24F3E",
"8  c #995750",
"9  c #A64E45",
"0  c #B34D43",
"q  c #BC4E42",
"w  c #AD554B",
"e  c #AA534A",
"r  c #B15147",
"t  c #BF584C",
"y  c #B9564B",
"u  c #AC5B52",
"i  c #A45B53",
"p  c #BB5E54",
"a  c #B15A51",
"s  c #9F645E",
"d  c #A9635B",
"f  c #A7665F",
"g  c #BB6056",
"h  c #B6655C",
"j  c #9F6660",
"k  c #9C6B66",
"l  c #977D7B",
"z  c #9C7E7B",
"x  c #9F7975",
"c  c #A76962",
"v  c #A46B66",
"b  c #B26B63",
"n  c #BA6F68",
"m  c #AC736D",
"M  c #A3726C",
"N  c #BC716A",
"B  c #A47671",
"V  c #AB7771",
"C  c #A17A76",
"Z  c #AA7B76",
"A  c #A97E79",
"S  c #A47F7B",
"D  c #B67771",
"F  c #B67D77",
"G  c #C44E42",
"H  c #C35144",
"J  c #C0554A",
"K  c #DD5244",
"L  c #D6584B",
"P  c #CE5D52",
"I  c #E04F40",
"U  c #EF5A4C",
"Y  c #FF5342",
"T  c #F05C4D",
"R  c #CB685F",
"E  c #C9665C",
"W  c #D9665A",
"Q  c #E76255",
"!  c #E06659",
"~  c #C36B62",
"^  c #D36D63",
"/  c #C9736B",
"(  c #C7776F",
")  c #C07872",
"_  c #DFBC2F",
"`  c #DCBB33",
"'  c #D4B63F",
"]  c #D7B83B",
"[  c #D8B939",
"{  c #E5BF26",
"}  c #E2BD2B",
"|  c #FECC01",
" . c #F6C70E",
".. c #F6C80D",
"X. c #FCCC0B",
"o. c #EFC417",
"O. c #EEC319",
"+. c #F2C513",
"@. c #FDCE11",
"#. c #FFD015",
"$. c #FFD21D",
"%. c #E7C023",
"&. c #E9C021",
"*. c #FFD323",
"=. c #FFD42B",
"-. c #FFD634",
";. c #FFD739",
":. c #FFD83D",
">. c #BFAC5F",
",. c #9E817D",
"<. c #A4827E",
"1. c #AC827E",
"2. c #BBAA65",
"3. c #B5A76E",
"4. c #B7A86C",
"5. c #B9A969",
"6. c #AFA477",
"7. c #ACA27C",
"8. c #B2A673",
"9. c #CCB24C",
"0. c #D2B543",
"q. c #C5AF57",
"w. c #C1AD5C",
"e. c #C7B053",
"r. c #C8B052",
"t. c #FFD941",
"y. c #FFDA4A",
"u. c #FFDD54",
"i. c #FFDF5E",
"p. c #FFDF61",
"a. c #FFE064",
"s. c #FFE16C",
"d. c #FFE373",
"f. c #FFE57E",
"g. c #758C8E",
"h. c #768E90",
"j. c #799194",
"k. c #898989",
"l. c #9D8683",
"z. c #9B8886",
"x. c #9C8D8B",
"c. c #978F8E",
"v. c #9C918F",
"b. c #9F9A8E",
"n. c #9B9392",
"m. c #9D9A94",
"M. c #999999",
"N. c #939595",
"B. c #A38582",
"V. c #A18986",
"C. c #AB8985",
"Z. c #A78986",
"A. c #A69F86",
"S. c #A19D8C",
"D. c #A09890",
"F. c #A7A084",
"G. c #A8A082",
"H. c #849EA1",
"J. c #FFE78A",
"K. c #FFE88E",
"L. c #FFEA93",
"P. c #FFEB9E",
"I. c #FFEEAC",
"U. c #FFEDA6",
"Y. c #FFEFB1",
"T. c #FFF0B4",
"R. c #FFF2BE",
"E. c #FFF3C4",
"W. c #FFF4CB",
"Q. c #FFF6D4",
"!. c #FFF7DA",
"~. c #FFF8DD",
"^. c #FFF9E3",
"/. c #FFFBEB",
"(. c #FFFDF4",
"). c #FFFFFF",
/* pixels */
"g.g.g.k.F ^ ! T Y Y Y Y Y Y Y Y Q ( C.C.C.C.C.C.C.C.C.C.C.C.C.B.B.C.C.C.C.C.C.C.C.C.C.C.C.C.C.C.C.C.) W Y Y Y Y T W W D k.g.g.g.",
"g.h.) Y Y Y Y Y Y Y Y Y Y Y Y Y F D.8.8.8.8.8.8.8.8.8.8.8.8.8.8.8.8.8.8.8.8.8.8.8.8.8.8.8.8.8.8.8.6.S.C.Q Y Y Y Y Y Y Y Y n g.g.",
"g./ Y Y Y 3 3 3 > > > > > > 1 H <.G.O.O.o.O.O.O.O.O.O.O.O.O.O.O.O.O.O.O.O.O.O.O.O.O.o.o.O.O.O.o.O.%.6.V.t > > > 3 3 4 7 Y Y n g.",
"V.Y Y 4 > > > > > > > > > > > H B.7.| @.t.t.t.t.:.t.t.:.:.t.t.:.t.t.t.:.t.t.:.t.t.t.:.:.:.t.t.:.*...8.V.J > > > > > > > 5 Y 7 l ",
"^ Y 6 > > > > > > > > > > > > t B.7.| ;./././././././././././././././././././././././././././.Q.d...8.z.t > > > > > > > > 6 7 ^ ",
"T Y 2 > > > > > > > > > > > > t V.4.| i.).).).).).).).).).).).).).).).).).).).).).).).).).).)./.J...3.V.t > > > > > > > > 2 Y T ",
"Y Y > > > > > > > > > > > > > p V.2.| f.).).).).).).).).).).).).).).).).).).).).).).).).).).)./.f...8.V.t > > > > > > > > > Y Y ",
"Y Y > > > > > > > > > > > > > p V.5.| f.).).).).).).).).).).).).).).).).).).).).).).).).).).)./.f...8.V.t > > > > > > > > > Y Y ",
"Y Y > > > > > > > > > > > > > p V.w.| f.).).).).).).).).).).).).).).).).).).).).).).).).).).)./.f...8.V.t > > > > > > > > > Y Y ",
"Y Y > 2 > > > > > > > > > > 1 h x.9.| E.).).).).).).).).).).).).).).).).).).).).).).).).).).)./.f...8.V.t > > > > > > > > > Y Y ",
"Y Y > > > > > > > > > > > > > b n.9.| R.).).).).).).).(.Q.R.E.R.R.R.R.R.R.R.E.R.R.R.R.R.R.R.R.I.i...8.V.t > > > > > > > > > Y Y ",
"Y Y > > > > > > > > > > > > 1 b n.0.| R.).).).).).).).P.u.=.=.=.=.=.=.=.=.=.=.=.=.=.=.=.=.=.=.=.#...8.z.t > > > > > > > > > Y Y ",
"Y Y > > > > > > > > > > > > > m n.[ | /.).).).).).).Q.X.+.9.9.9.9.9.9.9.9.9.9.9.9.9.9.9.9.9.9.9.9.r.F.z.t > > > > > > > > > Y Y ",
"Y Y > > > > > > > > > > > > > Z M.` | ).).).).).).).T.| %.S.b.F.S.S.S.S.S.S.S.S.S.S.S.S.S.b.S.S.S.S.m.B G > > > > > > > > > Y Y ",
"Y Y > > > > > > > > > > > > > Z M.` | ).).).).).).).K.| 0.n.z f s c c c c c c c c c c c c c c c c f d 0 1 > > > > > > > > > Y Y ",
"> > X X X X X X X X X X X X o x S.} X.).).).).).).).f.| 9.x.8                                         . . X X X X X X X X X > > ",
"> > X X X X X X X X X X X X & ,.7.{ :.).).).).).).).f.| 9.z.8                                         o . X X X X X X X X X > > ",
"Y Y > > > > > > > > > > > > H <.G.{ :.).).).).).).).y.| 4.l.w $ O : O O $ $ $ $ % % O % O % % X . O O : > > > > > > > > > > Y 7 ",
"Y Y > > > > > > > > > > > > t l.6.{ u.).).).).).).).:.| 8.<.q : > > : > > > : > > % % > > > % O + > > > > > > > > > > > > > Y Y ",
"Y Y > > > > > > > > > > > > p l.5.O.f.).).).).).).).=.| 6.<.q > > > > > > > > > > 2 > > > > 2 O O > > > > > > > > > > > > > Y Y ",
"Y Y > > > > > > > > > > > > g x.w.+.J.).).).).).).).| | m.<., > > > > > > > > > > > > > > > > O O > > > > > > > > > > > > > Y Y ",
"Y Y > > > > > > > > > > > > b x.e.+.I.).).).).).).).| | M.B.y G 1 > > > > > > > > > > > > > > O O > > > > > > > > > > > > > Y Y ",
"Y Y > > > > > > > > > > > > b n.9...E.).).).).).).^.| +.M.n.B.<.<.m b p , > > > > > > > > > 2 O O > > > > > > > > > > > > > Y Y ",
"Y Y > > > > > > > > > > > > m n.` | /.).).).).).).~.| +.9.q.4.6.m.M.M.M.M.M.m p 1 > > > > > > O O 2 > > > > > > > > > > > > Y Y ",
"Y Y > > > > > > > > > > > > A M.` | ).).).).).).).).=.| | | | | | +.` e.8.M.M.M.n.b < > > > > O O > > > > > > > > > > > > > Y Y ",
"Y Y > > > > > > > > > > > > A S.{ @.).).).).).).).).(.T.U.P.d.a.t.-.*.#.| | { 9.5.A.v.<.J < > O O > > > > > > > > > > > > > Y Y ",
"Y Y > > > > > > > > > > > 1 <.7.{ =.).).).).).).).).).).).).).).^.R.P.f.u.:.$.| ..' 2.A.x.m H $ O 2 > > > > > > > > > > > > Y Y ",
"Y Y > > > > > > > > > > > , B.6.%.=.).).).).).).).).).).).).).).).).).).).W.K.i.;.X...] 7.m.V 0 O > > > > > > > > > > > > > Y Y ",
"Y Y > > > > > > > > > 2 > H Z.5.O.y.).).).).).).).).).).).).).).).).).).).).).).^.I.i.@.+.[ S.,.u > > > > > > > > > > > > > Y Y ",
"Y Y > > > > > > > > > > > H V.2.O.u.).).).).).).).).).).).).).).).).).).).).).).).).!.P.$.| q.S.B.h > > > > > > > > > > > > Y Y ",
"Y Y > > > > > > > > > > > J x.e. .s.).).).).).).).).).).).).).).).).).).).).).).).).).(.R.$.o.q.S.B.H > > > > > > > > > > > Y Y ",
"> > X X X X X X X X X X X 9 v.9...a.R.R.R.R.W.(.).).).).).).).).).).).).).).).).).).).).).).:...' m.x * X X X X X X X X X X > > ",
"> > X X X X X X X X X X . e n.[ | | | | | | | | | | :.d.K.Q.).).).).).).).).).).).).).).).).I.$. .q.M.s = X X X X X X X X X > > ",
"Y Y > > > > > > > > > > > p M.5.9.9.9.9.9.9.9.9.9.0.` &.+...X.;.a.P.E.).).).).).).).).).).).).R.;.O.G.v.p 1 2 > > > > > > > Y Y ",
"Y Y > > > > > > > > > > > H S x.n.v.v.v.v.n.v.v.v.n.M.8.>.0.[ %.+.@.;.T.~.).).).).).).).).).).(.L.@.w.m.V < > > > > > > > > Y Y ",
"Y Y > > > > > > > > > > > : r d c c c c c c c f c v C l.x.N.m.7.q.[ o.#.s.E.).).).).).).).).).).W.y.` 7.V.H > > > > > > > > Y Y ",
"Y Y > > > 2 > > > > > > > % O O + + O O O O O O O + - ; r w d k l.n.7.9...#.K.(.).).).).).).).).).U. .2.m.h > > > > > > > > Y Y ",
"Y Y > > > > > > > > > > > > O O O O $ + O O O O + $ O + $ + # @ 9 f l.S.5.+.*.U.).).).).).).).).).E.$.' A.V > > > > > > > > Y Y ",
"Y Y > > > > > > > > > > > > : O O O $ $ O O - O O O O O $ + + . o - r ,.M.3.+.t.E.).).).).).).).).^.;.{ 8.x.> > > > > > > > Y Y ",
"Y Y > > > > > > > > > > > > > > > > > 1 > > 2 > > > > : $ $ + . . + O O B M.w.| u.).).).).).).).).).u.| 5.n.> > > > > > > > Y Y ",
"Y Y > > > > > > > > > > > > > > > > > > > > > > > > > > > > > + . + O + + z.3.+.:.^.).).).).).).).).i.| 2.m.> > > > > > > > Y Y ",
"Y Y > > > > > > > > > > > > > > > > > > > > > > > > > > > > 2 O O > : O O f G.] *.W.).).).).).).).).f.#.9.D.> > > > > > > > Y Y ",
"Y Y > > > > > > > > > > > > > > > > > > > > > > > > > > > > > O O > > : O w b.9.#.E.).).).).).).).).J.#.9.S.> > > > > > > > Y Y ",
"Y Y > > > > > > > > > > > > > > > > > > > > > > > > > > > > > $ O > > > : w b.9.#.R.).).).).).).).).f.#.9.m.> > > > > > > > Y Y ",
"Y Y > > > > > > > > > > > > > > > > > > > 2 > > > > > > > > > $ O 2 > > > a F.0.#.R.).).).).).).).).f.#.9.m.> > > > > > > > Y Y ",
"Y Y > > > > > > > > > > > > > > > > > > > > > > > > > > > > > $ O > > > > m 7.` $.W.).).).).).).).).a.| w.m.> > > > > > > > Y Y ",
"Y Y > > > > > > > > > > > > 1 > > > > > > > > > > > > > > > > $ O > > > H v.4.o.-.!.).).).).).).).).u.| 5.z.> > > > > > > > Y Y ",
"> > X X X X X X X X X X 9 z.x.k * X X X X X X X X X X X X . X X X X X & c.M.` X.s.).).).).).).).)./.;.O.8.l X X X X X X X X > > ",
"> > X X X X X X X X X & M M.M.M.M.l.i @ X X X X X X X X X X X X X X i M.M.7.| ;.R.).).).).).).).).W.*.] G.k . X X X X X X X > > ",
"Y Y > > > > > > > > > J V.8.{ [ 2.8.b.n.V.A V h g g g g g g g h Z V.n.7.9.| y.T.).).).).).).).).(.P.X.w.D.u > > > > > > > > Y Y ",
"Y Y > > > > > > > > > g n.4.| X.@.{ e.5.7.7.G.m.M.M.M.M.M.M.M.M.F.6.5.{ | ;.R.).).).).).).).).).Q.u.%.6.x.0 > > > > > > > > Y Y ",
"Y Y > > > > > > > > 1 b m.w.X.u.u.:.*...{ ` ] w.5.2.2.5.2.2.2.>.0.{ ..*.u.R.).).).).).).).).).(.U.@.9.S.B - > > > > > > > > Y Y ",
"Y Y > > > > > > > > < V A.] ;.W.)./.E.I.K.s.y.$.| | | | | | X.=.t.s.P.W.(.).).).).).).).).).).Y.=.o.7.x.u : > > > > > > > > Y Y ",
"Y Y > > > > > > > 2 G B.6.{ i.!.).).).).(./.W.R.I.I.I.I.U.I.Y.R.W.^.(.).).).).).).).).).).).Q.u...] m.M ; : > > > > > > > > Y Y ",
"Y Y > > > > > > > > J n.8.+.f./.).).).).).).).).).).).).).).).).).).).).).).).).).).).).).).s.X.O.8.,.w - > > > > > > > > > Y Y ",
"Y Y > > > > > > > > p m.>.| I.).).).).).).).).).).).).).).).).).).).).).).).).).).).).)./.i.| { 7.n.w # % > > > > > > > > > Y Y ",
"Y Y > > > > > > > > b S.9.#.E.).).).).).).).).).).).).).).).).).).).).).).).).).).).)./.=.| &.3.M.B + O : > > > > > > > > > Y Y ",
"Y Y 2 > > > > > > > <.7.%.-.Q.).).).).).).).).).).).).).).).).).).).).).).).).)./.E.s.$. .` A.c.s - O : > > > > > > > > > 2 Y Y ",
"! Y 3 > > > > > > > x.8.+.*.L.I.E.!.(.).).).).).).).).).).).).).).).).).)./.!.R.J.=.| o.r.S.l.f @ O $ > > > > > > > > > > 4 Y ! ",
"/ Y 7 > > > > > > > n.6.{ +...X.-.a.P.R.E.Q.!./.).).).).).).).).).(./.E.T.J.i.*.X.O._ 2.N.l.u o . O > > > > > > > > > > > 7 Y / ",
"N.Y Y 4 1 > > > > > b v.b.7.4.w.0.%.| #.$.=.=.y.y.u.u.u.u.u.u.u.u.y.:.*.X.| &.[ q.7.b.,.u ; O . X : > > > > > > > > > > 4 Y Y N.",
"j.N Y Y 6 2 > > > > ; w c S n.m.F.6.5.9.0.} &.+.| | | | | | | | | ..+._ 9.5.8.7.b.z d r # O + X + > > > > > > > > > 2 6 Y Y ) H.",
"g.g.R Y Y Y Y Y Y Y 5 5 K L E d M 1.v.b.A.7.6.4.5.5.5.2.2.5.2.2.5.4.8.G.S.n.1.D E L K 5 5 5 6 : > Y Y Y Y Y Y Y Y Y Y Y Y R j.g.",
"g.g.g.l W Y Y Y Y Y 5 5 5 5 5 $ - K P ~ N F Z.V.m.M.M.M.M.M.M.M.v.V.Z F E L K K 5 5 5 5 5 7 Y > > Y Y Y Y Y Y Y Y Y Y W l g.g.g."
};
