/* XPM */
static char *result[] = {
/* columns rows colors chars-per-pixel */
"64 64 179 2 ",
"   c #9B3227",
".  c #9A3C32",
"X  c #A7372B",
"o  c #A9362A",
"O  c #AD382B",
"+  c #A73B2F",
"@  c #B93C2F",
"#  c #B63A2E",
"$  c #A63E33",
"%  c #B73E31",
"&  c #BE3E30",
"*  c #C03F31",
"=  c #9D473D",
"-  c #A9463B",
";  c #B54235",
":  c #B3463A",
">  c #B34A3E",
",  c #B94538",
"<  c #C54132",
"1  c #CD4334",
"2  c #CA4739",
"3  c #C64B3E",
"4  c #C8493C",
"5  c #D44535",
"6  c #D94737",
"7  c #DE4939",
"8  c #E54B3C",
"9  c #EB4D3C",
"0  c #F34F3E",
"q  c #99544C",
"w  c #B24D42",
"e  c #BB4D41",
"r  c #AF544B",
"t  c #AE584F",
"y  c #A4584F",
"u  c #B05046",
"i  c #BF574C",
"p  c #BE594D",
"a  c #B05248",
"s  c #AD5C53",
"d  c #BC5C52",
"f  c #A74A40",
"g  c #9F655F",
"h  c #A9635B",
"j  c #B6655C",
"k  c #B8635A",
"l  c #9C7975",
"z  c #977D7B",
"x  c #9F7F7C",
"c  c #9C7773",
"v  c #996D67",
"b  c #A66A63",
"n  c #A76B65",
"m  c #B26B64",
"M  c #BA6F68",
"N  c #AE726B",
"B  c #A6726C",
"V  c #A27A76",
"C  c #A97A75",
"Z  c #A37E7A",
"A  c #A67A75",
"S  c #B57A74",
"D  c #BC726B",
"F  c #C54E41",
"G  c #C45144",
"H  c #C0554A",
"J  c #DA5447",
"K  c #E14F40",
"L  c #FF5342",
"P  c #F15B4D",
"I  c #EF5A4C",
"U  c #CB685F",
"Y  c #C9655B",
"T  c #D8675B",
"R  c #E06659",
"E  c #E76255",
"W  c #C26B63",
"Q  c #D16E65",
"!  c #D86B61",
"~  c #CA736B",
"^  c #C27771",
"/  c #DFBC2F",
"(  c #DDBB33",
")  c #D5B73E",
"_  c #D7B83B",
"`  c #D8B939",
"'  c #E5BF26",
"]  c #E2BD2B",
"[  c #FECC02",
"{  c #F6C70E",
"}  c #F6C80D",
"|  c #FCCC0C",
" . c #EFC417",
".. c #EDC31B",
"X. c #F2C513",
"o. c #F6C813",
"O. c #FDCE12",
"+. c #F8CB18",
"@. c #FFD015",
"#. c #FFD11D",
"$. c #E7C023",
"%. c #E9C121",
"&. c #FFD323",
"*. c #FFD42B",
"=. c #FFD633",
"-. c #FFD73A",
";. c #FFD83E",
":. c #BFAC5F",
">. c #9E817E",
",. c #97807D",
"<. c #A4827E",
"1. c #B8817C",
"2. c #BCAA64",
"3. c #B5A76E",
"4. c #B7A86C",
"5. c #B9A969",
"6. c #AFA477",
"7. c #ADA37B",
"8. c #B2A573",
"9. c #CFB447",
"0. c #CCB24B",
"q. c #D2B543",
"w. c #C6AF55",
"e. c #C2AE5B",
"r. c #C7B054",
"t. c #C9B052",
"y. c #FFD943",
"u. c #FFDB4D",
"i. c #FFDD54",
"p. c #FFDE5B",
"a. c #FFDF61",
"s. c #FFE065",
"d. c #FFE16B",
"f. c #FFE374",
"g. c #FFE57E",
"h. c #758C8E",
"j. c #768E90",
"k. c #799194",
"l. c #898989",
"z. c #9E8683",
"x. c #9D8987",
"c. c #9C8D8B",
"v. c #968D8C",
"b. c #9C928E",
"n. c #9F9B8E",
"m. c #9A9493",
"M. c #9D9A93",
"N. c gray60",
"B. c #939595",
"V. c #A28582",
"C. c #A18986",
"Z. c #AB8985",
"A. c #A88986",
"S. c #A69F86",
"D. c #A1948A",
"F. c #A29E8B",
"G. c #B38681",
"H. c #A7A084",
"J. c #A8A182",
"K. c #849EA1",
"L. c #FFE684",
"P. c #FFE78A",
"I. c #FFE88E",
"U. c #FFE993",
"Y. c #FFEB9B",
"T. c #FFECA4",
"R. c #FFEEAB",
"E. c #FFEFB1",
"W. c #FFF0B4",
"Q. c #FFF2BC",
"!. c #FFF3C5",
"~. c #FFF5CC",
"^. c #FFF6D4",
"/. c #FFF7D9",
"(. c #FFF8DE",
"). c #FFFAE4",
"_. c #FFFBEB",
"`. c #FFFCF3",
"'. c #FFFFFF",
/* pixels */
"h.h.h.l.S ! R P L L L L L L L L L L L L L L L L L L L L L L L 1 1 L L L P P E ! Q ^ 1.Z.Z.Z.Z.Z.Z.G.! L L L L L I T T S l.h.h.h.",
"h.j.^ L L L L L L L L L L L L L L L L L L L L L L L L L L L L 1 1 E T ~ 1.Z.M.M.F.H.7.8.8.8.8.8.7.M.1.P L L L L L 0 L 0 0 M h.h.",
"j.~ L L 0 8 6 6 1 1 1 1 1 1 1 1 1 1 1 1 1 1 1 1 1 1 1 1 1 1 2 w t V.m.n.S.8.8.t.0.q.] .... . . ._ H.<.3 1 1 1 1 7 6 8 0 L L W h.",
"x.L L 7 1 1 1 1 1 1 1 1 1 1 1 1 1 1 1 1 1 1 1 1 1 1 1 1 2 H m V m.H.3.e.q.' o.[ | O.#.*.=.-.y.@.$.7.<.3 1 1 1 1 1 1 1 1 8 L 0 x ",
"Q L 9 1 1 1 1 1 1 1 1 1 1 1 1 1 1 1 1 1 1 1 1 1 1 1 4 k C b.n.6.9.%.| [ O.=.p.U.W.Q.!.^./.)._.-.$.J.C.G 1 1 5 1 1 1 1 1 1 9 0 Q ",
"P L 5 1 1 1 1 1 1 1 1 1 1 1 1 1 1 1 1 1 1 1 1 1 1 F C c.D.2.` %.| &.i.L.W.!./.`.'.'.'.'.'.'.'.d...8.C.G 1 1 1 1 1 1 1 1 1 5 L P ",
"L L 1 1 1 1 1 1 1 1 1 1 1 1 1 1 1 1 1 1 1 1 1 1 j V.D.3.q. .| *.P.Q.^._.'.'.'.'.'.'.'.'.'.'.'.g. .5.C.G 1 1 1 1 1 1 1 1 1 1 L L ",
"L L 1 1 1 1 1 1 1 1 1 1 1 1 1 1 1 1 1 1 1 1 F A N.n...[ [ s.^.'.'.'.'.'.'.'.'.'.'.'.'.'.'.'.'.g. .5.C.G 1 1 1 1 1 1 1 1 1 1 L L ",
"L L 1 1 1 1 1 1 1 1 1 1 1 1 1 1 1 1 1 1 1 H <.m.:.| [ =.T.'.'.'.'.'.'.'.'.'.'.'.'.'.'.'.'.'.'.g.X.w.m.H 1 1 1 1 1 1 1 1 1 1 L L ",
"L L 1 1 1 1 1 1 1 1 1 1 1 1 1 1 1 1 1 2 d D.7.) [ -.R._.'.'.'.'.'.'.'.'.'.'.'.'.'.'.'.'.'.'.'.Q.} 0.m.H 1 1 1 1 1 1 1 1 1 1 L L ",
"L L 1 1 1 1 1 1 1 1 1 1 5 1 1 1 1 1 2 k <.8.] O.i.!.'.'.'.'.'.'.'.'.'.'.'.'.'.'.'.`.).^.~.!.W.g.} 9.b.H 1 1 1 1 1 1 1 1 1 1 L L ",
"L L 1 1 1 1 1 1 1 1 1 1 1 1 1 1 1 1 k C.S.] o.i._.'.'.'.'.'.'.'.'.'.'.'.'.).^.Q.R.U.f.p.;.*.| [ [ ` m.k 1 1 1 1 1 1 1 1 1 1 L L ",
"L L 1 1 1 1 1 1 1 1 1 1 1 1 1 1 1 i c.6./ O.L.).'.'.'.'.'.'.'.'.'.'._.Q.s.;.&.O. .` r.5.2.2.2.5.5.8.m.p 1 1 1 1 1 1 1 1 1 1 L L ",
"L L 1 1 1 1 1 1 1 1 1 1 1 1 1 1 3 V.J.` O.g.(.'.'.'.'.'.'.'.'.'.'.T.p.=.O.%.9.:.6.7.M.N.N.N.N.N.N.m.B F 1 1 1 1 1 1 1 1 1 1 L L ",
"L L 1 1 1 1 1 1 1 1 1 1 1 1 1 2 m N.q.{ y.).'.'.'.'.'.'.'.'.'._.f.&.} $.e.8.S.N.m.x b s s s s t t r w * 1 1 1 1 1 1 1 1 1 1 L L ",
"1 1 O O O O O O O O O O O O o b b.8.[ u.(.'.'.'.'.'.'.'.'.'.T.*.[ / 8.N.N.v.v =                 X     o O O O O O O O O O O 1 1 ",
"1 1 O O O O O O O O O O O O - z.M...=.W.'.'.'.'.'.'.'.'.'.U.#.[ q.N.N.v.g .                           o O O O * # O # # O * * * ",
"L L 1 1 1 1 1 1 1 1 1 1 1 2 Z M.w.[ T.'.'.'.'.'.'.'.'._.I.O.$.5.m.>.h > O & # # @ & @ & * * * O O * * 1 8 * * * * * * 8 * * L 0 ",
"L L 1 1 1 1 1 1 1 1 1 1 1 p b.7.] =.`.'.'.'.'.'.'.'.`.Y.&.] 3.M.V u @ @ # @ @ & * * 1 1 1 1 1 @ & 1 5 1 * 6 * 6 6 * * * 1 1 L L ",
"L L 1 1 1 1 1 1 1 1 1 1 3 N N.0.o.T.'.'.'.'.'.'.'.'.R.=.X.3.b.>.: # @ @ @ * < 1 1 5 1 1 1 1 1 @ & 1 1 1 6 * 6 * * 8 8 * 1 1 L L ",
"L L 1 1 1 1 1 1 1 1 1 1 d b.6.$.y.'.'.'.'.'.'.'.'._.&.X.e.m.n : & @ ; < 1 1 1 1 1 1 1 1 1 1 1 @ # * * 6 * 6 * 6 1 1 1 1 1 1 L L ",
"L L 1 1 1 1 1 1 1 1 1 3 N M.9.+.I.'.'.'.'.'.'.'.'.P.} q.F.c w ; > w e F G F 1 1 1 1 1 1 1 1 1 @ & 5 6 * 6 * 6 * 1 1 1 1 1 1 L L ",
"L L 1 1 1 1 1 1 1 1 1 i V.H...y.!.'.'.'.'.'.'.'.(.&.$.7.N.x.V x <.<.<.<.<.<.C C m d F 1 1 1 1 @ & 5 * 6 * 6 * 6 1 1 1 1 1 1 L L ",
"L L 1 1 1 1 1 1 1 1 1 j N.4.| U.`.'.'.'.'.'.'.'.p.[ e.N.N.N.F.6.8.8.8.8.8.H.N.N.N.m.m.C 3 1 1 & @ * 6 * 6 * 6 * 1 1 1 1 1 1 L L ",
"L L 1 1 1 1 1 1 1 1 2 N M.t.#.Q.'.'.'.'.'.'.'.'.| [ 6.J.w. .[ [ [ [ [ [ [ [ [ | q.5.F.N.x.m 3 & & 1 1 1 1 1 1 1 1 1 1 1 1 1 L L ",
"L L 1 1 1 1 1 1 1 1 G c.6.$.d.).'.'.'.'.'.'.'.'.&.[ } | &.y.u.f.g.P.L.g.f.p.y.&.@.[ X.q.3.F.c.s , 1 1 1 1 1 1 1 1 1 1 1 1 1 L L ",
"L L 1 1 1 1 1 1 1 1 H m.4.o.U.`.'.'.'.'.'.'.'.'.U.y.u.d.Y./.'.'.'.'.'.'.'.`.).R.g.i.-.@.X.0.8.m.h F 1 1 1 1 1 1 1 1 1 1 1 1 L L ",
"L L 1 1 1 1 1 1 1 1 j M.e.| W.'.'.'.'.'.'.'.'.'.'.^._.'.'.'.'.'.'.'.'.'.'.'.'.'.'.`.!.g.=.| ' 8.b.m F 1 1 1 1 1 1 1 1 1 1 1 L L ",
"L L 1 1 1 1 1 1 1 1 N H._ &.~.'.'.'.'.'.'.'.'.'.'.'.'.'.'.'.'.'.'.'.'.'.'.'.'.'.'.'.'.'./.Y.=.{ :.M.C F 1 1 1 1 1 1 1 1 1 1 L L ",
"L L 1 1 1 1 1 1 1 1 Z 7.] =./.'.'.'.'.'.'.'.'.'.'.'.'.'.'.'.'.'.'.'.'.'.'.'.'.'.'.'.'.'.'._.W.#.' 3.m.k 2 1 1 1 1 1 1 1 1 1 L L ",
"L L 1 1 1 1 1 1 1 1 C.8...;.).'.'.'.'.'.'.'.'.'.'.'.'.'.'.'.'.'.'.'.'.'.'.'.'.'.'.'.'.'.'.'.'.T.| ] 8.V.p 1 1 1 1 1 1 1 1 1 L L ",
"1 1 O O O O O O O O N.5.| u.'.'.'.'.'.'.'.'.'.'.'.'.'.'.'.'.'.'.'.'.'.'.'.'.'.'.'.'.'.'.'.'.'.'.f.[ ] n.l - O O O O O O O O 1 1 ",
"1 1 O O O O O O O O M.5.[ i.'.'.'.'.'.'.'.'.'.'.).P.y.#.[ [ [ [ [ [ @.;.g./.'.'.'.'.'.'.'.'.'.'.~.u.[ 5.m.y O O O O O O O O 1 1 ",
"L L 1 1 1 1 1 1 1 1 M.e.| d.'.'.'.'.'.'.'.'./.d.[ o.%.] ( ( ( ( ( ( ( $. .| =.R._.'.'.'.'.'.'.'.'.Q.*./ 7.<.F 1 1 1 1 1 1 1 L L ",
"L L 1 1 1 1 1 1 1 1 M.9.@.g.'.'.'.'.'.'.'.'.U.&.] w.8.F.m.N.N.N.M.N.N.7.e.`  .| R.'.'.'.'.'.'.'.'.).g.X.4.m.i 1 1 1 1 1 1 1 L L ",
"L L 1 1 1 1 1 1 1 1 M.0.@.g.'.'.'.'.'.'.'.'.g.@.8.N.c.Z V V A l l V A <.m.M.2.[ ;.).'.'.'.'.'.'.'.'.W.O.r.M.m 1 1 1 1 1 1 1 L L ",
"L L 1 1 1 1 1 1 1 1 M.0.@.g.'.'.'.'.'.'.'.'.g.@.8.N.r % % # & X X & % : r V b.9.[ g.`.'.'.'.'.'.'.'./.*.] 7.V.1 1 1 1 1 1 1 L L ",
"L L 1 1 1 1 1 1 1 1 M.0.@.g.'.'.'.'.'.'.'.'.L.O.3.N.w % # & # X X # # & % r z.F.X.;.~.'.'.'.'.'.'.'.`.u.} 4.M.1 1 1 1 1 1 1 L L ",
"L L 1 1 1 1 1 1 1 1 M.0.@.g.'.'.'.'.'.'.'.'.g.#.8.N.: % * & @ o X # & # % % b M.9.#.U.'.'.'.'.'.'.'.'.s.| e.M.1 1 1 1 1 1 1 L L ",
"L L 1 1 1 1 1 1 1 1 M.0.@.g.'.'.'.'.'.'.'.'.g.O.8.N.e * * 5 * @ @ 1 1 * & % ; N.n.[ i.'.'.'.'.'.'.'.'.g.@.0.M.1 1 1 1 1 1 1 L L ",
"L L 1 1 1 1 1 1 1 1 M.e.| d.'.'.'.'.'.'.'.'.Y.&.0.N.F 1 1 1 5 & @ 1 1 1 1 * & m.N.{ y.(.'.'.'.'.'.'.'.R.*.( F.1 1 1 1 1 1 1 L L ",
"L L 1 1 1 1 1 1 1 1 N.5.[ i.'.'.'.'.'.'.'.'.E.*.0.N.i 1 1 1 * % @ 1 1 1 1 1 & x N...y.^.'.'.'.'.'.'.'.R.*.( F.1 1 1 1 1 1 1 L L ",
"L L 1 1 1 1 1 1 1 1 m.5.| u.'.'.'.'.'.'.'.'.!.=.0.N.k 1 1 1 1 & @ 1 1 1 1 1 < x N...;.^.'.'.'.'.'.'.'.R.&.( S.1 1 1 1 1 1 1 L L ",
"L L 1 1 1 1 1 1 1 1 z.8...-.).'.'.'.'.'.'.'.).y.) N.m 1 1 1 1 & @ 1 1 1 1 1 1 z.N.X.y./.'.'.'.'.'.'.'.T.*.( F.1 1 1 1 1 1 1 L L ",
"L L 1 1 1 1 1 1 1 1 V 7.] *.^.'.'.'.'.'.'.'.'.p.} M.C 4 1 1 5 @ @ 5 1 1 1 1 4 m.F.[ i.'.'.'.'.'.'.'.'.P.#.q.n.1 1 1 1 1 1 1 L L ",
"L L 1 1 1 1 1 1 1 1 n F.q.#.!.'.'.'.'.'.'.'.'.L.[ 7.V.p 1 1 1 @ @ 1 1 1 1 1 H N.5.O.g.'.'.'.'.'.'.'.'.d.| 0.M.1 1 1 1 1 1 1 L L ",
"L L 1 1 1 1 1 1 1 1 s M.:.| R.'.'.'.'.'.'.'.'.E.[ _ b.N 1 1 1 @ @ 5 * 5 1 1 j N.( *.E.'.'.'.'.'.'.'.`.u.| 2.c.1 1 1 1 1 1 1 L L ",
"1 1 O O O O O O O O = v.3.o.f.).'.'.'.'.'.'.'.'.| [ S.x.y O O O O O O O O - x 8.[ u.`.'.'.'.'.'.'.'./.=...6.,.O O O O O O O 1 1 ",
"1 1 O O O O O O O O $ z 7._ ;.~.'.'.'.'.'.'.'.'.g.[ 9.N.>.$ O O O O O O - l m.' [ g.'.'.'.'.'.'.'.'.Q.| q.H.v o O O O O O O 1 1 ",
"L L 1 1 1 1 1 1 1 1 < h B.:.| I.`.'.'.'.'.'.'.'.`.i.X.t.S.<.k H G G H j c.H.t.[ =.`.'.'.'.'.'.'.'.(.d.} 5.m.t 1 1 1 1 1 1 1 L L ",
"L L 1 1 1 1 1 1 1 1 1 a x.7.X.u.^.'.'.'.'.'.'.'.'.^.&.o.9.J.m.V.C C Z b.8.q.{ *.Q.'.'.'.'.'.'.'.'.W.*.` 7.c.> 1 1 1 1 1 1 5 L L ",
"L L 1 1 1 1 1 1 1 1 1 : B n.] O.Y.'.'.'.'.'.'.'.'.'.U.&.| _ 5.7.J.7.6.2.' | &.R.'.'.'.'.'.'.'.'.).g.[ e.M.n , 1 1 1 1 1 1 5 0 L ",
"L L 1 1 1 1 1 1 1 1 1 @ u x.5...*.`.'.'.'.'.'.'.'.'.`.~.I.&.} X.....X.| y.I.^.'.'.'.'.'.'.'.'.'.Y.@.' S.>.u < 1 1 1 1 1 1 1 L L ",
"L L 1 1 1 1 1 1 1 1 1 < ; h n.q.| I.'.'.'.'.'.'.'.'.'.'._.Q.P.a.i.i.p.L.~._.'.'.'.'.'.'.'.'.'.`.;.{ w.b.h ; < 1 1 1 1 1 1 1 L L ",
"L L 1 1 1 1 1 1 1 1 1 1 @ u c.6.' #.~.'.'.'.'.'.'.'.'.'.'.'._./.^.^./.).'.'.'.'.'.'.'.'.'.'.'.P.O.` S.V : @ 1 1 1 1 1 1 1 1 L L ",
"L L 1 1 1 1 1 1 1 1 1 1 < # b b.7.[ =.W.'.'.'.'.'.'.'.'.'.'.'.'.'.'.'.'.'.'.'.'.'.'.'.'.'.'.U.[ ( n.x.w @ < 1 1 1 1 1 1 1 1 L L ",
"L L 1 1 1 1 1 1 1 1 1 1 1 @ ; c m.8.[ -.!.'.'.'.'.'.'.'.'.'.'.'.'.'.'.'.'.'.'.'.'.'.'.'.`.I.#.} H.m.b @ @ 1 1 1 1 1 1 1 1 1 L L ",
"L L 5 1 1 1 1 1 1 1 1 1 1 < @ + g m.w. .O.P.^.`.'.'.'.'.'.'.'.'.'.'.'.'.'.'.'.'.'.'.`.!.p.+.' S.c.h ; @ 1 1 1 1 1 1 1 1 1 5 L L ",
"R L 6 1 1 1 1 1 1 1 1 1 1 1 * o + l F.:.$.O.i.T.).'.'.'.'.'.'.'.'.'.'.'.'.'.'.'.`./.T.u.o./ 3.m.g : @ < 1 1 1 1 1 1 1 1 1 6 L R ",
"~ L 0 1 1 1 1 1 1 1 1 1 1 1 < O X : x m.8.] } @.f.R.^.).`.'.'.'.'.'.'.'.'.`._.!.U.p.#.X.0.7.m.c $ # @ 1 1 1 1 1 1 1 1 1 1 0 L ~ ",
"B.L L 7 1 1 1 1 1 1 1 1 1 1 1 # O % : h V.F.3.q.o.[ *.;.i.g.g.g.g.g.g.g.s.i.y.#.| ' 0.6.M.>.s X o @ 1 1 1 1 1 1 1 1 1 1 8 L L B.",
"k.M L L 9 5 1 1 1 1 1 1 1 1 1 @ # # % % r V m.F.4.t.] X.| O.@.@.@.@.@.@.[ [ X.` 2.6.n.m.b u ; o o 1 1 1 1 1 1 1 1 1 5 9 0 L ^ K.",
"h.h.U L L L L L L L L L L L L 1 1 0 8 8 8 J Y S m.M.7.4.5.0.0.9.0.0.0.0.w.2.3.S.M.V.D Y K 8 8 @ < L L L L L L L L L L L L U k.h.",
"h.h.h.z T L L L L L L L L L L 1 < L L 8 8 8 8 J J W S D.M.M.M.M.M.M.M.n.M.m.C.S Y J K 8 8 8 8 < 1 L L L L L L L L L L T z h.h.h."
};
