/* XPM */
static char *result[] = {
/* columns rows colors chars-per-pixel */
"64 64 167 2 ",
"   c #9B3227",
".  c #9C3429",
"X  c #9A3F35",
"o  c #A33529",
"O  c #A9372A",
"+  c #AD382B",
"@  c #B53A2E",
"#  c #BA3C2F",
"$  c #A63D32",
"%  c #BD3E30",
"&  c #C13F31",
"*  c #9A4036",
"=  c #B54236",
"-  c #BA4235",
";  c #B44539",
":  c #B4493D",
">  c #C54132",
",  c #CD4334",
"<  c #CA4739",
"1  c #C64C3E",
"2  c #C84A3C",
"3  c #D44535",
"4  c #D94737",
"5  c #DE4939",
"6  c #ED4D3D",
"7  c #F24F3E",
"8  c #9A4E46",
"9  c #A64E44",
"0  c #B44D41",
"q  c #A5564D",
"w  c #AD564D",
"e  c #AE554B",
"r  c #B05046",
"t  c #B0544A",
"y  c #BE594D",
"u  c #AE5B52",
"i  c #A15952",
"p  c #BB5E54",
"a  c #98635E",
"s  c #AB635B",
"d  c #B5675F",
"f  c #B7655C",
"g  c #986E6A",
"h  c #9C716C",
"j  c #977D7B",
"k  c #997976",
"l  c #A66B65",
"z  c #AC6F68",
"x  c #A86A64",
"c  c #B26B63",
"v  c #BA6F68",
"b  c #A2726D",
"n  c #AD726C",
"m  c #BD7068",
"M  c #A47671",
"N  c #AB7671",
"B  c #A37A75",
"V  c #A97A74",
"C  c #A07E7B",
"Z  c #A97D79",
"A  c #B87B75",
"S  c #C64E41",
"D  c #C35145",
"F  c #C0574C",
"G  c #D15B4F",
"H  c #EF5A4C",
"J  c #FF5342",
"K  c #F05C4D",
"L  c #F75545",
"P  c #CB685F",
"I  c #D5665B",
"U  c #DA665A",
"Y  c #E06659",
"T  c #E46356",
"R  c #C56B62",
"E  c #D16E65",
"W  c #D86B60",
"Q  c #C9736B",
"!  c #C37770",
"~  c #C17872",
"^  c #DFBC2E",
"/  c #DDBB33",
"(  c #D9B939",
")  c #D6B73D",
"_  c #E5BF26",
"`  c #E2BD2A",
"'  c #FECC01",
"]  c #F5C70F",
"[  c #FECD0D",
"{  c #F6C80C",
"}  c #EFC417",
"|  c #EDC31A",
" . c #F3C612",
".. c #F6C810",
"X. c #FDCE11",
"o. c #FFD015",
"O. c #FFD21F",
"+. c #E7C023",
"@. c #E9C121",
"#. c #FFD221",
"$. c #FFD42B",
"%. c #FFD633",
"&. c #FFD73A",
"*. c #FFD83C",
"=. c #BFAC5F",
"-. c #9B827F",
";. c #A3807D",
":. c #BCAA65",
">. c #B4A76F",
",. c #B6A86C",
"<. c #B9A969",
"1. c #ABA27D",
"2. c #B2A673",
"3. c #CCB24C",
"4. c #D1B544",
"5. c #C3AE59",
"6. c #C6AF55",
"7. c #C8B051",
"8. c #C7B053",
"9. c #FFD941",
"0. c #FFDB4E",
"q. c #FFDD54",
"w. c #FFDF5E",
"e. c #FFE064",
"r. c #FFE16B",
"t. c #FFE374",
"y. c #FFE57F",
"u. c #758C8E",
"i. c #768E90",
"p. c #799194",
"a. c #898989",
"s. c #9D8583",
"d. c #9E8886",
"f. c #9B8D8C",
"g. c #9B928E",
"h. c #9F9C8F",
"j. c #9A9493",
"k. c #9C9A93",
"l. c gray60",
"z. c #939595",
"x. c #A28582",
"c. c #A18886",
"v. c #B18682",
"b. c #A69F86",
"n. c #A29D8B",
"m. c #A8A181",
"M. c #A7A084",
"N. c #849EA1",
"B. c #FFE786",
"V. c #FFE78A",
"C. c #FFE88E",
"Z. c #FFEA94",
"A. c #FFEB9D",
"S. c #FFEDA4",
"D. c #FFEEAA",
"F. c #FFEFB2",
"G. c #FFF0B4",
"H. c #FFF2BC",
"J. c #FFF3C3",
"K. c #FFF5CC",
"L. c #FFF6D4",
"P. c #FFF7D9",
"I. c #FFF8DF",
"U. c #FFFAE4",
"Y. c #FFFBEC",
"T. c #FFFCF3",
"R. c #FFFFFF",
/* pixels */
"u.u.u.a.A W Y K J L v.l.l.l.l.l.l.l.l.l.l.l.l.l.l.l.l.l.l.l.l.l.l.l.l.l.l.l.l.l.l.l.l.l.l.l.l.l.l.l.l.l.l.l.T J K U I A a.u.u.u.",
"u.i.~ J J J J J J ! M.5.3.3.3.3.3.3.3.3.3.3.3.3.3.3.3.3.3.3.3.3.3.3.3.3.3.3.3.3.3.3.3.3.3.3.3.3.3.3.3.3.5.b.A J J J J J 7 m u.u.",
"u.Q J J 7 5 4 4 , ;.2.} ' X.o.o.o.o.o.o.o.o.o.o.o.X.o.o.o.o.o.o.o.o.o.o.o.X.o.o.o.o.o.o.o.o.o.o.o.o.X.' } 2.;., 4 4 5 7 J J R u.",
"c.J J 5 , , , , , ;.2.} #.r.y.B.y.y.y.y.y.y.y.y.y.y.y.B.y.y.y.y.y.y.y.y.y.y.y.B.y.y.y.y.y.y.y.y.y.B.r.#.| 2.;., , , , , 5 J J j ",
"E J 6 , , , , , , ;.2.| 9.L.R.R.R.R.R.R.R.R.R.R.R.R.R.R.R.R.R.R.R.R.R.R.R.R.R.R.R.R.R.R.R.R.R.R.R.R.L.9.| 2.;., , , , , , 6 7 W ",
"K J 4 , , , , , , ;.2.} 9.L.R.R.R.R.R.R.R.R.R.R.R.R.R.R.R.R.R.R.R.R.R.R.R.R.R.R.R.R.R.R.R.R.R.R.R.R.L.9.} 2.;., , , , , , 3 J K ",
"J J , , , , , , , ;.2.| 9.L.R.R.R.R.R.R.R.R.R.R.R.R.R.R.R.R.R.R.R.R.R.R.R.R.R.R.R.R.R.R.R.R.R.R.R.R.L.9.| 2.;., , , , , , , J J ",
"J J , , , , , , , ;.2.| 9.L.R.R.R.R.R.R.R.R.R.R.R.R.R.R.R.R.R.R.R.R.R.R.R.R.R.R.R.R.R.R.R.R.R.R.R.R.L.*.} 2.;., , , , , , , J J ",
"J J , , , , , , , ;.2.} *.L.R.R.R.R.R.R.R.R.R.R.R.R.R.R.R.R.R.R.R.R.R.R.R.R.R.R.R.R.R.R.R.R.R.R.R.R.L.9.| 2.;., , , , , , , J J ",
"J J , , , , , , , ;.2.| 9.L.R.R.R.R.R.R.R.R.R.R.R.R.R.R.R.R.R.R.R.R.R.R.R.R.R.R.R.R.R.R.R.R.R.R.R.R.L.*.| 2.;., , , , , , , J J ",
"J J , , , , , , , ;.2.| $.C.D.D.D.D.D.D.D.D.D.D.D.D.D.D.D.D.D.D.D.D.D.D.D.H.U.R.R.R.R.R.R.R.R.R.R.R.S.$.| 2.;., , , , , , , J J ",
"J J , , , , , , , ;.2.} ' ' ' ' ' ' ' ' ' ' ' ' ' ' ' ' ' ' ' ' ' ' ' ' ' O.Z.R.R.R.R.R.R.R.R.R.R.U.9...4.n.V , , , , , , , J J ",
"J J , , , , , , , Z 1.4./ / / / / / / / / / / / / / / / / / / / / / / / / ' q.T.R.R.R.R.R.R.R.R.Y.Z.X.( m.f.0 , , , , , , , J J ",
"J J , , , , , , , s j.l.l.l.l.l.l.l.l.l.l.l.l.l.l.l.l.l.l.l.l.l.l.l.l.l.2.' r.T.R.R.R.R.R.R.R.T.F.%.` 2.g.l % , , , , , , , J J ",
"J J , , , , , , , - w u u u u u u u u u u u u u u u u u u u u i q B j.1. .o.P.R.R.R.R.R.R.R.R.H.$.} 2.g.x = % , , , , , , , J J ",
", , + + + + + + + o                                           . * k g.+.' V.R.R.R.R.R.R.R.R.R.q. .4.k.g * . O + + + + + + + , , ",
", , + + + + + + + o                             . .         . . a f.,.' 0.Y.R.R.R.R.R.R.R.R.J.o.` 1.-.8 . o + + + + + + + + , , ",
"J J , , , , , , , , # # @ # # O O @ # # @ # # @ @ % @ % % @ @ 0 f.1.+.[ Y.R.R.R.R.R.R.R.R.Y.o.+.1.g.t @ % > , , , , , , , , J J ",
"J J , , , , , , , , , , , , , # # , , , , , , , , , , , , , 1 c l.) ' F.R.R.R.R.R.R.R.R.R.*.' 8.l.;.= # > , , , , , , , , , J J ",
"J J , , , , , , , , , , , , , # # , , , , , , , , , , , , , p f.5.} 0.R.R.R.R.R.R.R.R.R.D.' | k.k r # > , , , , , , , , , , J J ",
"J J , , , , , , , , , , , , , # # , , , , , , , , , , , , S N h.^ o.S.R.R.R.R.R.R.R.R.P.q.{ :.d.i # > > 3 , , , , , , , , , J J ",
"J J , , , , , , , , , , , , , # # , , , , , , , , , , , , f c.2. .w.P.R.R.R.R.R.R.R.T.C.O./ l.h $ % > , , , , , , , , , , , J J ",
"J J , , , , , , , , , , , , , # # , , , , , , , , , , , , V h.7.#.D.T.R.R.R.R.R.R.R.K.9...1.l.9 O & , , , , , , , , , , , , J J ",
"J J , , , , , , , , , , , , , # # , , , , , , , , , , , D k.:...y.Y.R.R.R.R.R.R.R.T.e.[ 4.l.l + + , , , , , , , , , , , , , J J ",
"J J , , , , , , , , , , , , , # # , , , , , , , , , , , n b.) X.G.R.R.R.R.R.R.R.R.F.$.| 2.f.: + # , , , , , , , , , , , , , J J ",
"J J , , , , , , , , , , , , , # # , , , , , , , , , , D j.<. .%.I.R.R.R.R.R.R.R.T.e.X.8.h.l @ @ # , , , , , , , , , , , , , J J ",
"J J , , , , , , , , , , , , 3 # # , , , , , , , , , , n l.( o.t.R.R.R.R.R.R.R.R.K.O._ 2.f.@ # # # , , , , , , , , , , , , , J J ",
"J J , , , , , , , , , , , , , # # , , , , , , , , , S l.l.' %.H.R.R.R.R.R.R.R.T.Z.' 5.k.h # > # # , , , , , , , , , , , , , J J ",
"J J , , , , , , , , , , , , , # # 3 , , , , , , , , N l.:.' w.R.R.R.R.R.R.R.R.L.q._ 1.f.t # , # # , , , , , , , , , , , , , J J ",
"J J , , , , , , , , , , , , , # # , , , , , , , , 2 j.h.| %.G.R.R.R.R.R.R.R.T.Z.[ :.k.x ; > , # # , , , , , , , , , , , , , J J ",
"J J , , , , , , , , , , , , , # # , , , , , , , , f l.:.' w.T.R.R.R.R.R.R.R.K.0.| m.f.w % , , # # , , , , , , , , , , , , , J J ",
", , + + + + + + + + + + + + + + + + + + + + + + + h k._ ' S.R.R.R.R.R.R.R.R.S.X.` k.g * O + + + + + + + + + + + + + + + + + , , ",
", , + + + + + + + + + + + + + + + + + + + + + + q s.2.' o.T.R.R.R.R.R.R.R.R.9.} :.f.8 o O + + + + + + + + + + + + + + + + + , , ",
"J J , , , , , , , , , , , , , , , , , , , , , , z j.4.' t.R.R.R.R.R.R.R.R.Y.X./ M.M 0 & , , , , , , , , , , , , , , , , , , J J ",
"J J , , , , , , , , , , , , , 3 , , , , , , , D C k...[ L.R.R.R.R.R.R.R.R.V.] 8.j.u - & , , , , , , , , , , , , , , , , , , J J ",
"J J , , , , , , , , , , , , , , , , , , , , , c c.<.' r.R.R.R.R.R.R.R.R.R.[ ` b.x.: & , , , , , , , , , , , , , , , , , , , J J ",
"J J , , , , , , , , , , , , , , , , , , , , , Z l.3.' J.R.R.R.R.R.R.R.R.A.' 4.l.C - , , , , , , , , , , , , , , , , , , , , J J ",
"J J , , , , , , , , , , , , , , , , , 3 , , 1 x.h.+.o.R.R.R.R.R.R.R.R.R.0.' ,.f.s & , , , , , , , , , , , , , , , , , , , , J J ",
"J J , , , , , , , , , , , , , , , , , , , , F j.5. .r.R.R.R.R.R.R.R.R.K.'  .l.C 0 & , , , , , , , , , , , , , , , , , , , , J J ",
"J J , , , , , , , , , , , , , , , , , , , 2 d l.( ' F.R.R.R.R.R.R.R.R.r.' 4.j.l % , , , , , , , , , , , , , , , , , , , , , J J ",
"J J , , , , , , , , , , , , , , , , , , , S V m._ [ Y.R.R.R.R.R.R.R.R.O.' >.d.q & , , , , , , , , , , , , , , , , , , , , , J J ",
"J J , , , , , , , , , , , , , , , , , , , y g.6. .*.R.R.R.R.R.R.R.R.L.' | l.B - > 3 , , , , , , , , , , , , , , , , , , , , J J ",
"J J , , , , , , , , , , , , , , , , , , < d k.( ' t.R.R.R.R.R.R.R.R.Z.' 7.l.l % , , , , , , , , , , , , , , , , , , , , , , J J ",
"J J , , , , , , , , , , , , , , , , , , S V b.+.' S.R.R.R.R.R.R.R.R.r.' 1.l.e > , , , , , , , , , , , , , , , , , , , , , , J J ",
"J J , , , , , , , , , , , , , , , , , , y x.1. .$.J.R.R.R.R.R.R.R.Y.0.| l.j.- , , , , , , , , , , , , , , , , , , , , , , , J J ",
"J J , , , , , , , , , , , , , , , , , , f l.<.' r.I.R.R.R.R.R.R.R.D.$.=.l.b % , , , , , , , , , , , , , , , , , , , , , , , J J ",
"J J , , , , , , , , , , , , , , , , , 2 n n.8.' A.R.R.R.R.R.R.R.R.y.o.b.l.q > , , , , , , , , , , , , , , , , , , , , , , , J J ",
", , + + + + + + + + + + + + + + + + + 9 -.1./ %.J.R.R.R.R.R.R.R.T.0.| l.j.. O + O + + + + + + + + + + + + + + + + + + + + + , , ",
", , + + + + + + + + + + + + + + + + + q g.2.} r.I.R.R.R.R.R.R.R.J.&./ l.k O + @ + @ + @ + @ + + + + + + + + + + + + + + + + , , ",
"J J , , , , , , , , , , , , , # # , , d k.=.' Z.T.R.R.R.R.R.R.R.A.#.7.l.u & & 4 & 3 & 4 & 3 & # % , , , , , , , , , , , , , J J ",
"J J , , , , , , , , , , , , , # # , , N M.4.o.H.R.R.R.R.R.R.R.R.r...<.l.; & 4 & 3 & 4 & 3 & 3 # # , , , , , , , , , , , , , J J ",
"J J , , , , , , , , , , , , , # # , , ;.1.` $.L.R.R.R.R.R.R.R.T.q.| 2.d.% 3 & 4 3 3 & 4 & 4 & # # , , , , , , , , , , , , , J J ",
"J J , , , , , , , , , , , , , # # , , f.2.| &.U.R.R.R.R.R.R.R.U.&.` 1.M & 4 3 & & 4 & 4 3 & 3 % # , , , , , , , , , , , , , J J ",
"J J , , , , , , , , , , , , 3 # # , 2 l.<.' 0.R.R.R.R.R.R.R.R.P.$.4.n.s & & & 4 3 & 4 & 3 & , % # , , , , , , , , , , , , , J J ",
"J J , , , , , , , , , , , , , # # , y n.3.[ t.R.R.R.R.R.R.R.R.H.o.5.k.r & 4 & 4 & 4 & 4 3 3 3 # # 3 & , , , , , , , , , , , J J ",
"J J , , , , , , , , , , , , , # # , c m.) #.Z.R.R.R.R.R.R.R.R.G.[ :.l.# 4 & 4 & 4 & 4 & & 3 & # # , 3 , , , , , , , , , , , J J ",
"J J , , , , , , , , , , , , , # # , V 1._ %.G.R.R.R.R.R.R.R.R.A.} 2.f.& , , , , , , , , , , , # # , , , , , , , , , , , , , J J ",
"J 7 3 , , , , , , , , , , , , # # , s.2.} &.K.R.R.R.R.R.R.R.Y.B.+.2.x.> , , 3 , , , , , , , , # # , , , , , , , , , , , , 3 J J ",
"Y J 5 , , , , , , , , , , , , # # , j.,.{ 9.U.R.R.R.R.R.R.R.U.t./ 1.C > , , , , , , , , , , , # # , , , , , , , , , , , , 4 J Y ",
"Q J 7 , , , , , , , , , , , , # # < l.:.' %.S.D.D.D.D.D.D.D.C.*.) m.M , , , , , , , , , , , , # # , , , , , , , , , , , , 7 J Q ",
"z.J J 5 & 3 , , , , , , , , , # # D l.6.' [ $.$.$.$.$.$.$.$.#.[ 3.n.z , , , , , , , , , , , , # # , , , , , , , , , , , 6 J J z.",
"p.v J J 6 3 , , , , , , , , 3 # % F l.:./ / / / / / / / / / / / :.n.x , , , , , , , , , , , , # # , , , , , , , , , 3 6 J J ~ p.",
"u.u.P J J J J J J J J J J J 7 3 , L f.h.1.m.1.1.m.1.1.1.1.m.m.m.n.j.E J J J J J J J J J J J J , , J J J J J J J J J J J J R p.i.",
"u.u.u.j I J J J J J J J J J J , , J 5 R m m m m m m v v m m m m R G 7 7 J J J J J J J J J J J , , J J J J J J J J J J I j u.i.i."
};
