/* XPM */
static char *result[] = {
/* columns rows colors chars-per-pixel */
"64 64 182 2 ",
"   c #9C3227",
".  c #9C372C",
"X  c #A13428",
"o  c #A9362A",
"O  c #A7392D",
"+  c #AD382B",
"@  c #B93C2F",
"#  c #B73C2F",
"$  c #B73E31",
"%  c #BD3E30",
"&  c #A63D33",
"*  c #C23F31",
"=  c #9D433A",
"-  c #A74236",
";  c #B64236",
":  c #BC4033",
">  c #B44539",
",  c #B2493D",
"<  c #BD4538",
"1  c #C54132",
"2  c #CD4334",
"3  c #CA4738",
"4  c #C74B3E",
"5  c #C8493C",
"6  c #C1473A",
"7  c #D44535",
"8  c #D94737",
"9  c #DE4939",
"0  c #E44B3C",
"q  c #EB4D3C",
"w  c #F24F3E",
"e  c #995048",
"r  c #A34C43",
"t  c #B14E43",
"y  c #BC4C40",
"u  c #A3534A",
"i  c #AE544B",
"p  c #AC594F",
"a  c #BE574B",
"s  c #B6554B",
"d  c #A15B54",
"f  c #AC5C53",
"g  c #A35F58",
"h  c #B45A50",
"j  c #BC5D52",
"k  c #A5635C",
"l  c #A9645D",
"z  c #B5655C",
"x  c #B96258",
"c  c #986A64",
"v  c #9C746F",
"b  c #977D7B",
"n  c #9C7D7A",
"m  c #9B7975",
"M  c #AC6760",
"N  c #A56A64",
"B  c #A76E68",
"V  c #B26B64",
"C  c #BF6E66",
"Z  c #BA6F68",
"A  c #A4716C",
"S  c #AD736D",
"D  c #BF7068",
"F  c #A27671",
"G  c #AB7670",
"H  c #A57B76",
"J  c #A97A75",
"K  c #A17D79",
"L  c #B67771",
"P  c #B77C77",
"I  c #C44E42",
"U  c #DF4F41",
"Y  c #C35145",
"T  c #DA5447",
"R  c #D05E53",
"E  c #CD5F54",
"W  c #E04F40",
"Q  c #FF5342",
"!  c #F25B4B",
"~  c #EF5A4C",
"^  c #CA675D",
"/  c #DF675B",
"(  c #D7665A",
")  c #E06659",
"_  c #C36B63",
"`  c #D36D64",
"'  c #D96B60",
"]  c #C9736B",
"[  c #C07A73",
"{  c #C07670",
"}  c #DFBC2F",
"|  c #DCBB34",
" . c #D5B63E",
".. c #D7B83B",
"X. c #D8B939",
"o. c #E5BF26",
"O. c #E2BE2A",
"+. c #FECC01",
"@. c #F5C70E",
"#. c #F6C80D",
"$. c #FCCB0B",
"%. c #EFC417",
"&. c #EDC31B",
"*. c #F2C513",
"=. c #FECE11",
"-. c #FDCF18",
";. c #FFD015",
":. c #FFD11C",
">. c #E9C021",
",. c #FFD322",
"<. c #FFD42B",
"1. c #FFD632",
"2. c #FFD739",
"3. c #FFD83D",
"4. c #BFAC5F",
"5. c #9E817E",
"6. c #A3817E",
"7. c #BCAA64",
"8. c #B5A76E",
"9. c #B7A86C",
"0. c #B9A969",
"q. c #AFA477",
"w. c #ACA27C",
"e. c #B2A673",
"r. c #CFB447",
"t. c #CCB24B",
"y. c #D1B544",
"u. c #C5AF56",
"i. c #C2AE5B",
"p. c #C8B052",
"a. c #C7B053",
"s. c #FFD943",
"d. c #FFDB4D",
"f. c #FFDD54",
"g. c #FFDE5B",
"h. c #FFE064",
"j. c #FFE26D",
"k. c #FFE373",
"l. c #FFE57D",
"z. c #758C8E",
"x. c #799194",
"c. c #768E90",
"v. c #898989",
"b. c #9C8583",
"n. c #9D8885",
"m. c #9C8D8B",
"M. c #968785",
"N. c #9D958F",
"B. c #9E9A8E",
"V. c #9A9493",
"C. c #9D9A93",
"Z. c #999999",
"A. c #939595",
"S. c #A48683",
"D. c #A18A86",
"F. c #A88884",
"G. c #A59F86",
"H. c #A19D8B",
"J. c #A4958C",
"K. c #B08783",
"L. c #A7A084",
"P. c #A9A181",
"I. c #849EA1",
"U. c #FFE684",
"Y. c #FFE88E",
"T. c #FFE78A",
"R. c #FFEA94",
"E. c #FFEB9D",
"W. c #FFEDA4",
"Q. c #FFEEAB",
"!. c #FFEFB1",
"~. c #FFF0B4",
"^. c #FFF2BD",
"/. c #FFF3C4",
"(. c #FFF5CC",
"). c #FFF6D4",
"_. c #FFF7DA",
"`. c #FFF8DE",
"'. c #FFFAE4",
"]. c #FFFBEB",
"[. c #FFFCF3",
"{. c #FFFFFF",
/* pixels */
"z.z.z.v.P ' ) ! Q Q Q Q Q Q Q Q Q Q Q Q Q Q ! ) [ K.Z.Z.C.C.B.C.B.B.C.C.C.Z.K.[ / ! Q Q Q Q Q Q Q Q Q Q Q Q Q Q ~ / ( L v.z.z.z.",
"z.c.[ Q Q Q Q Q Q Q Q Q Q Q Q Q Q Q Q Q ! ' P J.w.e.7.u.t.t.t.t.t.t.t.r.i.0.e.w.J.P ' ! Q Q Q Q Q Q Q Q Q Q Q Q Q Q Q Q Q Z z.z.",
"z.] Q Q Q 8 8 8 2 2 2 2 2 2 2 2 2 2 4 j S N.P.9.O.&.$.;.:.,.<.<.:.;.;.$.+.+.&.>.7.G.J.S j 3 2 2 2 2 2 2 2 2 2 2 8 8 9 w Q Q C z.",
"D.Q Q 9 2 2 2 2 2 2 2 2 2 2 2 2 2 4 V n.H.7...*.:.2.g.j.U.E.Q.W.l.l.k.h.f.s.<.;.&. .7.B.S.V 3 2 2 2 2 2 2 2 2 2 2 2 2 2 0 Q w b ",
"` Q q 2 2 2 2 2 2 2 2 2 2 2 2 2 a S.G.i.O.$.,.g./.'.{.{.{.{.{.{.{.{.{.{.{.].).Q.f.=.$.| 7.H.H Y 2 2 2 2 2 2 2 2 2 2 2 2 1 q w ' ",
"~ Q 7 2 2 2 2 2 2 2 2 2 2 2 2 Y S.C.y.*.$.h.!.).{.{.{.{.{.{.{.{.{.{.{.{.{.{.{.{.(.E.d.$.%.r.Z.K 5 2 2 2 2 2 2 2 2 2 2 2 2 8 Q ! ",
"Q Q 2 2 2 2 2 2 2 2 2 2 2 2 Y D.Z.O.+.3./.{.{.{.{.{.{.{.{.{.{.{.{.{.{.{.{.{.{.{.{.{.{.E.,.+.} Z.H I 2 2 2 2 2 2 2 2 2 2 2 2 Q Q ",
"Q Q 2 2 2 2 2 2 2 2 2 2 2 5 S.Z.| +.f.].{.{.{.{.{.{.{.{.{.{.{.{.{.{.{.{.{.{.{.{.{.{.{.{.^.2.+...V.S 2 2 2 2 2 2 2 2 2 2 2 2 Q Q ",
"Q Q 2 2 2 2 2 2 2 2 2 2 5 V H.r.+.g.].{.{.{.{.{.{.{.{.{.{.{.{.{.{.{.{.{.{.{.{.{.{.{.{.{.{.).,.+.7.V.j 2 2 2 2 2 2 2 2 2 2 2 Q Q ",
"Q Q 2 2 2 2 2 2 2 2 2 3 j D.7.&.s.`.{.{.{.{.{.{.{.{.{.]./.^.^./.^././.).{.{.{.{.{.{.{.{.{.{.W.;.O.L.J I 7 2 2 2 2 2 2 2 2 2 Q Q ",
"Q Q 2 2 2 2 2 2 2 2 2 I G H.O.=.(.{.{.{.{.{.{.{.{.{.(.T.1.<.<.<.<.<.<.f.).{.{.{.{.{.{.{.{.{.{.k.*.u.V.x 3 2 2 2 2 2 2 2 2 2 Q Q ",
"Q Q 2 2 2 2 2 2 2 2 2 x V.0.+.k.{.{.{.{.{.{.{.{.{.R.,.+.X.t.t.t.t.t.y.&.1.Y.{.{.{.{.{.{.{.{.{.].<.O.H.J Y 2 2 2 2 2 2 2 2 2 Q Q ",
"Q Q 2 2 2 2 2 2 2 2 5 S H.t.<.~.{.{.{.{.{.{.{.{.^.,.#. .w.H.H.H.B.H.L.9.&.,.Q.{.{.{.{.{.{.{.{.{.h.*.w.D.Y 3 2 2 2 2 2 2 2 2 Q Q ",
"Q Q 2 2 2 2 2 2 2 2 Y n.e.>.k.'.{.{.{.{.{.{.{.).+.+.w.Z.b.A f r r p H Z.w.} +.(.{.{.{.{.{.{.{.{.Q.+.7.Z.z 2 2 2 2 2 2 2 2 2 Q Q ",
"Q Q 2 2 2 2 7 2 2 2 a Z.7.+.W.{.{.{.{.{.{.{.{.h.+.y.Z.n , # # o o # > N A.p.+.<.{.{.{.{.{.{.{.{./.<.t.H.V 5 2 2 2 2 2 2 2 2 Q Q ",
"2 2 + + + + + + + + k H.r.;./.{.{.{.{.{.{.{.`.s.*.C.b =               . v N.&.+./.{.{.{.{.{.{.{.(.s...L.F - + + + + + + + + 2 2 ",
"2 2 + + + + + + + + N L...,.(.{.{.{.{.{.{.{.^.2.| Z.c       X X X X     e M.y.+.W.{.{.{.{.{.{.{.).f.| w.m - + + + + + + + + 2 2 ",
"Q Q 2 2 2 2 2 2 2 2 S P.| <.).{.{.{.{.{.{.{.Q.<.t.Z.f # * 1 1 1 2 1 1 % , 6.7.+.Y.{.{.{.{.{.{.{.).f.| P.J 5 7 2 2 2 2 2 2 2 Q Q ",
"Q Q 2 2 2 2 2 2 2 2 G w.| <.).{.{.{.{.{.{.{.Q.<.r.Z.l 1 2 2 2 2 2 2 2 1 i 6.e.+.l.{.{.{.{.{.{.{.(.s...L.H 5 2 2 2 2 2 2 2 2 Q Q ",
"Q Q 2 2 2 2 2 2 2 2 G w.| <.).{.{.{.{.{.{.{.~.<.O.Z.V 2 2 2 2 2 2 2 2 2 h n.u.+.R.{.{.{.{.{.{.{./.<.r.H.G 4 2 2 2 2 2 2 2 2 Q Q ",
"Q Q 2 2 2 2 2 2 2 2 S H.y.:./.{.{.{.{.{.{.{.].d.+.w.S.a 2 2 2 2 2 2 2 2 S V.| +.^.{.{.{.{.{.{.{.E.+.7.Z.M 3 2 2 2 2 2 2 2 2 Q Q ",
"Q w 7 2 2 2 2 2 2 2 z H.t.$.^.{.{.{.{.{.{.{.{.k.+.O.V.H 5 2 2 2 2 2 2 5 6.B.+.+.].{.{.{.{.{.{.{.g.@.q.m.s 1 2 2 2 2 2 2 2 2 Q Q ",
"Q Q 2 2 2 2 2 2 2 2 s V.9.#.Y.[.{.{.{.{.{.{.{._.:.+.u.C.G a 3 2 2 2 5 z N.r.+.h.{.{.{.{.{.{.{.`.;.O.H.A y 2 2 2 2 2 2 2 2 2 Q Q ",
"Q Q 2 2 2 2 2 2 2 2 y n.w.O.f.).{.{.{.{.{.{.{.{.U.:.o.7.B.K x 4 2 4 z D.8.>.,.).{.{.{.{.{.{.{.j.@.p.V.l 3 2 2 2 2 2 2 2 2 2 Q Q ",
"Q Q 2 2 2 2 2 2 2 2 6 A H.t.:.W.{.{.{.{.{.{.{.{.[.R.-.*.7.H.N.V j V N.G.} =.Y.{.{.{.{.{.{.{./.$.| w.K t 1 2 2 2 2 2 2 2 2 2 Q Q ",
"Q Q 2 2 2 2 2 2 2 2 2 f m.w.*.1.].{.{.{.{.{.{.{.{.{.W.2.@.>.t.H.V.B.9.O.-.l.{.{.{.{.{.{.{._.,.+.w.V.f % 1 2 2 2 2 2 2 2 2 2 Q Q ",
"Q Q 2 2 2 2 2 2 2 2 1 , A C.y.#.h.[.{.{.{.{.{.{.{.{.].^.d.$.@.O.i.t.&.=.U.`.{.{.{.{.{.{.].l.+.t.V.K > * 2 7 2 2 2 2 2 2 2 2 Q Q ",
"Q Q 2 2 2 2 2 2 2 2 1 1 i 5.w.} =.j.{.{.{.{.{.{.{.{.{.{.).R.d.+.*.@.:.h.'.{.{.{.{.{.{.].l.:...H.b.f % * 2 2 2 2 2 2 2 2 2 2 Q Q ",
"Q Q 2 2 2 2 2 2 2 2 2 1 # i N.C.&.+.k.[.{.{.{.{.{.{.{.{.{.{.{.`.l.Y.(.{.{.{.{.{.{.{._.1.+.| Z.Z.u # * 2 2 2 2 2 2 2 2 2 2 2 Q Q ",
"Q Q 2 2 2 2 2 2 2 2 2 2 * # l b.H.| =.d./.{.{.{.{.{.{.{.{.{.{.{.{.{.{.{.{.{.{.{.{.Q.+.*.u.B.N.u o % 1 2 2 2 2 2 2 2 2 2 2 2 Q Q ",
"Q Q 2 2 2 2 2 2 2 2 7 1 1 @ # d N.G.} $.d.'.{.{.{.{.{.{.{.{.{.{.{.{.{.{.{.{.{.{.[.W.;.O.9.B.n.r + * 2 2 2 2 2 2 2 2 2 2 2 2 Q Q ",
"2 2 + + + + + + + + + + + X   . M.Z.7.@.<.).{.{.{.{.{.{.{.{.{.{.{.{.{.{.{.{.{.{.{.).h.=.>.i.Z.b - + + + + + + + + + + + + + 2 2 ",
"2 2 + + + + + + + + + + + o - c Z.e.%.-.k.[.{.{.{.{.{.{.{.{.{.{.{.{.{.{.{.{.{.{.{.{.].R.1.$. .B.5.d o + + + + + + + + + + + 2 2 ",
"Q Q 2 2 2 2 2 2 2 2 2 2 2 4 J V.4.>.,.U._.{.{.{.{.{.{.[.~.(.[.{.{.{.{.{.{.{.{.{.{.{.{.].Q.s.#. .B.S.Y 2 2 2 2 2 2 2 2 2 2 2 Q Q ",
"Q Q 2 2 7 2 2 2 2 2 2 2 4 V V.9.%.+.Y.'.{.{.{.{.{.{.(.h.1.3.g.Q.].{.{.{.{.{.{.{.{.{.{.{.[./.,.@.4.C.S Y 2 2 2 2 2 2 2 2 2 2 Q Q ",
"Q Q 2 2 2 2 2 2 2 2 7 5 V Z.t.@.$.).{.{.{.{.{.{.{.].:.$. .o.+.+.+.g.(.{.{.{.{.{.{.{.{.{.{.{.].1.$.y.Z.V 5 2 2 2 2 2 2 2 2 2 Q Q ",
"Q Q 2 2 2 2 2 2 2 2 2 z N.e.*.:.(.{.{.{.{.{.{.{.Q.:.O.8.V.V.G.i.} %.+.1.W.'.{.{.{.{.{.{.{.{.{.].<.*.e.V.x 2 2 2 2 2 2 2 2 2 Q Q ",
"Q Q 2 2 2 2 2 2 2 2 Y 6.G.y.;.U.{.{.{.{.{.{.{.).,.#.0.Z.n A n m.C.4.| %.:.l.`.{.{.{.{.{.{.{.{.{.T.=.t.B.J 4 2 2 2 2 2 2 2 2 Q Q ",
"Q Q 2 2 2 2 2 2 2 2 z V.9.&.h._.{.{.{.{.{.{.].l.+. .C.m.t $ , k n V.B.7.o.$.j.`.{.{.{.{.{.{.{.{.(.s.>.q.N.Y 2 2 2 2 2 2 2 2 Q Q ",
"Q Q 2 2 2 2 2 2 2 2 n.P.X.<.).{.{.{.{.{.{.{.R.:.X.C.n.p $ # # o O f A N.G.t.+.2.].{.{.{.{.{.{.{.[.W.=.4.C.z 2 2 2 2 2 2 2 2 Q Q ",
"Q Q 2 2 2 2 2 2 2 2 C.7.#.s.].{.{.{.{.{.{.].f.$.q.Z.l ; # # % o o ; , l N.G.>.+.E.{.{.{.{.{.{.{.{.(.:.X.G.S 2 2 2 2 2 2 2 2 Q Q ",
"Q Q 2 2 2 2 2 2 2 2 C.t.$.k.{.{.{.{.{.{.{.~.1.%.Z.n.> % * 1 * + o # # > A V.8.+.g.].{.{.{.{.{.{.{.'.2.o.q.S.2 2 2 2 2 2 2 2 Q Q ",
"Q Q 2 2 2 2 2 2 2 2 H.| 1.~.{.{.{.{.{.{.{.U.-.y.Z.k $ % 2 2 2 @ # @ # # # l Z.y.:.R.{.{.{.{.{.{.{.[.d.@.9.m.2 2 2 2 2 2 2 2 Q Q ",
"Q Q 2 2 2 2 2 2 2 2 L.o.s.).{.{.{.{.{.{.{.g.+.i.V.t % 2 2 2 2 @ @ 2 1 @ # > Z.w.=.k.{.{.{.{.{.{.{.{.f.+.7.Z.2 2 2 2 2 2 2 2 Q Q ",
"Q Q 2 2 2 2 2 2 2 2 P.*.f.{.{.{.{.{.{.{.{.f.+.7.Z.$ * 2 2 2 7 @ @ 7 2 1 * @ Z.Z.+.f.{.{.{.{.{.{.{.{.f.+.7.Z.2 2 2 2 2 2 2 2 Q Q ",
"Q Q 7 2 2 2 2 2 2 2 w.+.f.{.{.{.{.{.{.{.{.g.+.7.Z.% 7 2 2 7 * @ @ 2 2 2 1 @ Z.Z.+.f.{.{.{.{.{.{.{.{.f.+.7.Z.2 2 2 2 2 2 2 2 Q Q ",
"Q Q 2 2 2 2 2 2 2 2 q.+.f.{.{.{.{.{.{.{.{.k.;.y.Z.a 2 7 7 * 2 @ @ 2 2 7 7 6 Z.G.+.g.{.{.{.{.{.{.{.{.d.+.0.Z.2 2 2 2 2 2 2 2 Q Q ",
"2 2 + + + + + + + + P.*.s.'.{.{.{.{.{.{.{.E.,.} Z.v + + + + + + + + + + + k Z.p.-.l.{.{.{.{.{.{.{.].s.*.8.N.+ + + + + + + + 2 2 ",
"2 2 + + + + + + + + L.>.2./.{.{.{.{.{.{.{.(.2.@.H.V.u O + + + + + + + + u 5.C.&.1.~.{.{.{.{.{.{.{.`.1.o.q.5.+ + + + + + + + 2 2 ",
"Q Q 2 2 2 2 2 2 2 2 H.y.,.R.{.{.{.{.{.{.{.{.E.,.&.w.V.S.I 2 2 2 2 2 4 M V.Z.} +.l.{.{.{.{.{.{.{.{./.-.X.L.A 2 2 2 2 2 2 2 2 Q Q ",
"Q Q 2 2 2 2 2 2 2 2 V.7.+.g.{.{.{.{.{.{.{.{.{.k.+.@.L.Z.V.b.S.K 6.S.V.Z.C.r.+.$.].{.{.{.{.{.{.{.{.W.+.p.B.h 2 2 2 2 2 2 2 2 Q Q ",
"Q Q 2 2 2 2 2 2 2 2 b.q.} <.).{.{.{.{.{.{.{.{.{.l.,.@.| i.9.e.e.e.e.0.t.%.-.k.`.{.{.{.{.{.{.{.{.(.d.%.e.m.t 2 2 2 2 2 2 2 2 Q Q ",
"Q Q 2 2 2 2 2 2 2 2 l B.a.$.E.[.{.{.{.{.{.{.{.{.{.W.2.;.+.@.%.%.&.&.$.$.1.j.[.{.{.{.{.{.{.{.{.{.R.=.y.L.F < 2 2 2 2 2 2 2 2 Q Q ",
"Q Q 2 2 2 2 2 2 2 2 t S.P.| ,.W.{.{.{.{.{.{.{.{.{.{.'.^.R.l.U.l.l.l.Y.~.`.[.{.{.{.{.{.{.{.{.{.`.,.*.q.n.i 1 2 2 2 2 2 2 2 2 Q Q ",
"Q Q 2 2 2 2 2 2 2 2 ; N B.0.@.1.'.{.{.{.{.{.{.{.{.{.{.{.[.].].'.].].].{.{.{.{.{.{.{.{.{.{.{.[.h.$.X.N.N > 1 2 2 2 2 2 2 2 2 Q Q ",
"Q Q 2 2 2 2 2 2 2 2 % t K H.X.$.d.).{.{.{.{.{.{.{.{.{.{.{.{.{.{.{.{.{.{.{.{.{.{.{.{.{.{.{.[.k.$.O.w.6.i % 2 2 2 2 2 2 2 2 2 Q Q ",
"Q Q 2 2 2 2 2 2 2 2 1 # t 6.C.y.+.+.!.{.{.{.{.{.{.{.{.{.{.{.{.{.{.{.{.{.{.{.{.{.{.{.{.{.).f.+.$.G.m.t @ 1 2 2 2 2 2 2 2 2 2 Q Q ",
"Q Q 7 2 2 2 2 2 2 2 2 : # p N.Z.X.+.-.j.`.{.{.{.{.{.{.{.{.{.{.{.{.{.{.{.{.{.{.{.{.{.{.R.,.+.&.w.V.B $ * 1 2 2 2 2 2 2 2 2 7 Q Q ",
") Q 8 2 2 2 2 2 2 2 2 1 % % f m Z.9.o.$.;.l.!.(.[.{.{.{.{.{.{.{.{.{.{.{.{.{.].].^.T.2.$.&.r.C.m.d $ % 1 2 2 2 2 2 2 2 2 2 9 Q ) ",
"] Q w 2 2 2 2 2 2 2 2 2 1 # # r 5.A.q. .&.+.:.3.E.~.(._.'.].].].].].'.'.(.~.T.U.<.+.*.X.e.N.b.d o # 1 1 2 2 2 2 2 2 2 2 2 w Q ] ",
"A.Q Q 9 2 2 2 2 2 2 2 2 2 * % o & p n N.P.4.r.>.+.$.,.1.s.3.s.s.3.s.3.1.,.;.#.O.y.7.w.C.n.l > o o * 2 2 2 2 2 2 2 2 2 2 9 Q Q A.",
"x.Z Q Q q 7 2 2 2 2 2 2 2 1 % o o $ t l n C.H.w.4.t.X.o.%.&.%.%.%.%.%.o.X.r.9.w.H.Z.n.l i ; # o + 1 2 2 2 2 2 2 2 2 7 q Q Q [ I.",
"z.z._ Q Q Q Q Q Q Q Q Q Q Q Q % # 0 0 U T _ L F.Z.L.w.w.e.e.e.e.e.e.e.e.P.H.Z.D.P D R W 0 0 0 % 1 Q Q Q Q Q Q Q Q Q Q Q Q ^ x.z.",
"z.z.z.b ( Q Q Q Q Q Q Q Q Q Q 2 1 q 0 0 0 W U T ^ _ P 6.F.S.F.S.S.S.S.F.P C E T U W 0 0 0 0 w 2 2 Q Q Q Q Q Q Q Q Q Q ( b z.z.z."
};
