/* XPM */
static char *result[] = {
/* columns rows colors chars-per-pixel */
"64 64 184 2 ",
"   c #9B3227",
".  c #9E3529",
"X  c #A53629",
"o  c #A9362A",
"O  c #AD382B",
"+  c #A1392E",
"@  c #B93C2F",
"#  c #B1392C",
"$  c #A93C31",
"%  c #B73E31",
"&  c #BE3E30",
"*  c #C13F31",
"=  c #9A4036",
"-  c #B64134",
";  c #BB4235",
":  c #B54A3E",
">  c #B6473B",
",  c #AA4337",
"<  c #C54132",
"1  c #CD4334",
"2  c #CA4739",
"3  c #C64C3E",
"4  c #C9493B",
"5  c #C14538",
"6  c #D44535",
"7  c #D94737",
"8  c #DE4939",
"9  c #E54B3B",
"0  c #ED4D3D",
"q  c #F24F3E",
"w  c #99544C",
"e  c #9A5149",
"r  c #A94C42",
"t  c #B34D42",
"y  c #BC4E42",
"u  c #A4554C",
"i  c #AE554C",
"p  c #AB5349",
"a  c #B05046",
"s  c #BF574C",
"d  c #BE584D",
"f  c #AC5C53",
"g  c #A15E57",
"h  c #BB5E54",
"j  c #B15B52",
"k  c #996059",
"l  c #A7635C",
"z  c #AA635C",
"x  c #AC6057",
"c  c #BA6157",
"v  c #B6635A",
"b  c #B8635A",
"n  c #9C6C67",
"m  c #977D7B",
"M  c #9D7E7B",
"N  c #A66A64",
"B  c #A56E68",
"V  c #AE6D66",
"C  c #B36A62",
"Z  c #BA6F68",
"A  c #BE6F67",
"S  c #A4726D",
"D  c #AE726C",
"F  c #B6726B",
"G  c #AC7671",
"H  c #A27A75",
"J  c #A97B76",
"K  c #A37E7A",
"L  c #A67A75",
"P  c #BD7D76",
"I  c #B57771",
"U  c #C54E41",
"Y  c #C35144",
"T  c #C05549",
"R  c #D8574A",
"E  c #E14E40",
"W  c #EA5C4E",
"Q  c #FF5342",
"!  c #F25B4C",
"~  c #F75040",
"^  c #CB655C",
"/  c #D8675B",
"(  c #EA6153",
")  c #E06659",
"_  c #E46356",
"`  c #D26E64",
"'  c #D86B60",
"]  c #CA736B",
"[  c #C7766E",
"{  c #C17771",
"}  c #CA6E65",
"|  c #DFBC2F",
" . c #DDBB33",
".. c #D5B73E",
"X. c #D7B83B",
"o. c #D8B939",
"O. c #E2BE2A",
"+. c #E6BF26",
"@. c #FECC02",
"#. c #F6C70D",
"$. c #F6C80D",
"%. c #FCCC0C",
"&. c #EDC31B",
"*. c #EFC417",
"=. c #F2C513",
"-. c #FDCE12",
";. c #F9CC17",
":. c #FFD015",
">. c #FFD11C",
",. c #E7C023",
"<. c #E9C021",
"1. c #FFD323",
"2. c #FFD42B",
"3. c #FFD634",
"4. c #FFD739",
"5. c #FFD83E",
"6. c #BFAC5F",
"7. c #9F817E",
"8. c #A4817D",
"9. c #B5837E",
"0. c #BCAA65",
"q. c #B5A76E",
"w. c #B7A86C",
"e. c #B9A869",
"r. c #AFA477",
"t. c #ACA27D",
"y. c #B2A573",
"u. c #CCB24C",
"i. c #D2B542",
"p. c #C5AF56",
"a. c #C2AD5C",
"s. c #C7B053",
"d. c #C9B151",
"f. c #FFD943",
"g. c #FFDB4E",
"h. c #FFDD54",
"j. c #FFDE5C",
"k. c #FFE063",
"l. c #FFE16C",
"z. c #FFE374",
"x. c #FFE57E",
"c. c #758C8E",
"v. c #768E90",
"b. c #799194",
"n. c #898989",
"m. c #9C8583",
"M. c #9D8987",
"N. c #9C8D8B",
"B. c #9D928E",
"V. c #9E998E",
"C. c #9A9492",
"Z. c #9D9A93",
"A. c #999999",
"S. c #939595",
"D. c #A28582",
"F. c #A18986",
"G. c #AB8985",
"H. c #A18C8A",
"J. c #AA8581",
"K. c #B28581",
"L. c #A69F86",
"P. c #A29D8B",
"I. c #A8A182",
"U. c #A7A084",
"Y. c #849EA1",
"T. c #FFE684",
"R. c #FFE78A",
"E. c #FFE88E",
"W. c #FFE994",
"Q. c #FFEB9D",
"!. c #FFEDA5",
"~. c #FFEEAB",
"^. c #FFEFB1",
"/. c #FFF0B5",
"(. c #FFF1BB",
"). c #FFF3C4",
"_. c #FFF4CB",
"`. c #FFF6D3",
"'. c #FFF7D9",
"]. c #FFF8DE",
"[. c #FFFAE4",
"{. c #FFFBEB",
"}. c #FFFCF4",
"|. c #FFFFFF",
/* pixels */
"c.c.c.n.P ' / ! Q Q Q Q Q Q Q Q Q Q Q Q Q Q ! ! ( ` P 9.G.G.G.F.D.G.G.K.P ] / ( ! Q Q Q Q Q Q Q Q Q Q Q Q Q Q Q ! / / I n.c.c.c.",
"c.v.{ Q Q Q Q Q Q Q Q Q Q Q Q Q Q Q Q Q Q _ [ K.Z.P.I.r.y.y.y.y.y.y.y.r.t.P.Z.H.K.` _ ! Q Q Q Q Q Q Q Q Q Q Q Q Q Q Q q Q Z c.c.",
"v.] Q Q q 9 7 7 1 1 1 1 1 1 1 1 1 1 1 3 c 8.V.t.e.u. .<.*.*.&.&.&.&.&.&.| i.p.q.t.B.D.V Y 2 1 1 1 1 1 1 1 1 1 1 7 7 9 0 Q Q } c.",
"M.Q Q 8 1 1 1 1 1 1 1 1 1 1 1 1 1 1 T V B.U.6.| #.%.2.4.f.h.h.g.f.5.4.3.>.:.%.=. .0.t.V.L c 3 1 1 1 1 1 1 1 1 1 1 1 1 1 8 Q q m ",
"` Q 0 1 1 1 1 1 1 1 1 1 1 1 1 1 1 v H.V.e.,.%.>.z./.'.[.{.|.|.}.{.{.[.'._.(.!.l.>.%.*.o.r.C.8.s 1 1 1 1 1 1 1 1 1 1 1 1 1 0 Q ` ",
"! Q 6 1 1 1 1 1 1 1 1 1 1 1 1 1 c H.t.u.&.$.g.!.[.|.|.|.|.|.|.|.|.|.|.|.|.|.|.].(.k.>.@.,.e.V.8.Y 1 1 1 1 1 1 1 1 1 1 1 1 6 Q ! ",
"Q Q 1 1 1 1 1 1 1 1 1 1 1 1 2 b D.Z. .#.1.W.`.}.|.|.|.|.|.|.|.|.|.|.|.|.|.|.|.|.|.'.~.h.%.&.p.C.D Y 1 1 1 1 1 1 1 1 1 1 1 1 Q Q ",
"Q Q 1 1 1 1 1 1 1 1 1 1 1 1 C N.P.=.%.g.[.|.|.|.|.|.|.|.|.|.|.|.|.|.|.|.|.|.|.|.|.|.|.|.l.:.@.o.C.D 2 1 1 1 1 1 1 1 1 1 1 1 Q Q ",
"Q Q 1 1 1 1 1 1 1 1 1 1 1 U D.Z...@.g.].|.|.|.|.|.|.|.|.|.|.|.|.|.|.|.|.|.|.|.|.|.|.|.|.|.R.>.@.t.N.C 1 1 1 1 1 1 1 1 1 1 1 Q Q ",
"Q Q 1 1 1 1 1 1 1 1 1 1 3 D Z.u.#.5.{.|.|.|.|.|.|.|.|.|.|.|.|.|.|.|.|.|.|.|.|.|.|.|.|.|.|.|.Q.%.i.P.F.T 1 1 1 1 1 1 1 1 1 1 Q Q ",
"Q Q 1 1 1 1 1 1 1 1 1 2 c N.y.&.>.(.|.|.|.|.|.|.|.|.|.}.`.^.~.~.~.~./._.{.|.|.|.|.|.|.|.|.|.{.f.*.0.Z.v 2 1 1 1 1 1 1 1 1 1 Q Q ",
"Q Q 1 1 1 1 1 1 6 1 1 Y J Z.o.-.l.|.|.|.|.|.|.|.|.|.{.~.g.%.@.@.@.@.:.5.Q.[.|.|.|.|.|.|.|.|.|.(.:. .U.D.T 1 1 1 1 1 1 1 1 1 Q Q ",
"Q Q 1 1 1 1 1 1 1 1 2 b C.w.$.j.'.|.|.|.|.|.|.|.|.[.g.>.<.a.0.0.0.0.d.,.;.g./.|.|.|.|.|.|.|.|.|.z.%.i.C.D 3 1 1 1 1 1 1 1 1 Q Q ",
"Q Q 1 1 1 1 1 1 1 1 4 G P.u.>.!.}.|.|.|.|.|.|.|.}.g.$.o.y.Z.A.A.A.Z.P.r.O.%.3.].|.|.|.|.|.|.|.|.(.2.&.t.H.T 1 1 1 1 1 1 1 1 Q Q ",
"Q Q 1 1 1 1 1 1 1 1 U M.r.<.h.`.|.|.|.|.|.|.|.|.T.%.i.I.C.H N g u x S M.r. .#.h.}.|.|.|.|.|.|.|.{.z.$.w.C.C 2 1 1 1 1 1 1 1 Q Q ",
"1 1 O O O O O O O O p Z.p.@.Q.|.|.|.|.|.|.|.|.`.@.=.A.m.e             = m.Z. .@.j.|.|.|.|.|.|.|.|.).3...L.7., O O O O O O O 1 1 ",
"1 1 O O O O O O O O n U.i.>.).|.|.|.|.|.|.|.|.l.@.e.C.n                 w M.r.@.-.}.|.|.|.|.|.|.|.].l.&.r.N.r O O O O O O O 1 1 ",
"Q Q 1 1 1 1 1 1 1 1 D.y.*.4.[.|.|.|.|.|.|.|._.4.<.A.M : @ @ @ * * * & % - B C.O.@.~.|.|.|.|.|.|.|.|.!.%.s.Z.b 1 1 1 1 1 1 1 Q Q ",
"Q Q 1 1 1 1 1 1 1 1 C.e.%.g.}.|.|.|.|.|.|.|.!.1.u.A.N @ @ * 1 1 1 1 < * % i M.e.@.x.|.|.|.|.|.|.|.|.).>.i.U.D 1 1 1 1 1 1 1 Q Q ",
"Q Q 1 1 1 1 1 1 1 6 Z.6.@.j.|.|.|.|.|.|.|.|.E.>.6.A.p & * 6 1 1 1 1 1 1 & > H P.%.h.}.|.|.|.|.|.|.|.'.3.O.t.K 1 1 1 1 1 1 1 Q Q ",
"Q Q 1 1 1 1 1 1 1 1 V.d.-.z.|.|.|.|.|.|.|.|.z.%.t.A.: < 1 1 1 1 1 1 1 1 < @ N A. .3.).|.|.|.|.|.|.|.{.f.#.q.C.1 1 1 1 1 1 1 Q Q ",
"Q Q 1 1 1 1 1 1 1 1 V.u.:.x.|.|.|.|.|.|.|.|.j.@.Z.A.; 1 1 1 1 1 1 1 1 1 1 < f Z.d.1.!.|.|.|.|.|.|.|.|.h.@.0.A.1 1 1 1 1 1 1 Q Q ",
"Q Q 1 1 1 1 1 1 1 1 Z.u.:.x.|.|.|.|.|.|.|.|.h.@.A.A.5 1 1 1 1 1 1 1 1 1 1 1 j A.e.>.R.|.|.|.|.|.|.|.|.z.%.s.Z.1 1 1 1 1 1 1 Q Q ",
"Q Q 1 1 1 1 1 1 1 1 Z.u.:.x.|.|.|.|.|.|.|.|.j.%.L.A.U 1 1 6 1 1 1 1 1 1 1 1 y A.y.;.x.|.|.|.|.|.|.|.|.x.:.u.Z.2 1 1 1 1 1 1 Q Q ",
"Q Q 1 1 1 1 1 1 1 1 Z.d.%.l.|.|.|.|.|.|.|.|.x.:.e.A.s 1 1 1 1 1 1 1 1 1 1 1 y A.A.@.h.|.|.|.|.|.|.|.|.Q.1.o.P.1 1 1 1 1 1 1 Q Q ",
"Q Q 1 1 1 1 1 1 1 1 A.0.@.g.|.|.|.|.|.|.|.|.~.2. .A.V 2 1 1 1 1 1 1 1 1 1 1 3 A.A.@.h.|.|.|.|.|.|.|.|.~.2. .P.1 1 1 1 1 1 1 Q Q ",
"Q Q 1 1 1 1 1 1 1 1 C.w.#.f.{.|.|.|.|.|.|.|.`.f.#.L.D.T 1 1 1 1 1 1 1 1 1 1 1 C.A.@.h.|.|.|.|.|.|.|.|.~.2. .U.2 1 1 1 1 1 1 Q Q ",
"Q Q 1 1 1 1 1 1 1 1 K y.<.2.'.|.|.|.|.|.|.|.}.z.@...P.K h 2 1 1 1 1 1 1 1 1 4 A.A.@.h.|.|.|.|.|.|.|.|.~.2. .P.1 1 1 1 1 1 1 Q Q ",
"Q Q 1 1 1 1 1 1 1 1 N L.i.%./.|.|.|.|.|.|.|.|.[.>.@.d.P.N.L C c h c h c V G 8.A.A.@.h.|.|.|.|.|.|.|.|.~.2. .L.1 1 1 1 1 1 1 Q Q ",
"Q Q 1 1 1 1 1 1 1 1 i C.p.%.T.{.|.|.|.|.|.|.|.|.^.3.=...y.C.N.F.F.F.F.M.N.A.P.a...%.k.|.|.|.|.|.|.|.|.~.2. .P.1 1 1 1 1 1 1 Q Q ",
"Q Q 1 1 1 1 1 1 1 1 t m.r.,.4._.|.|.|.|.|.|.|.|.|.).3.@.&...a.0.e.0.0.6.u.i. .=.%.4.(.|.|.|.|.|.|.|.|.~.2. .P.1 1 1 1 1 1 1 Q Q ",
"1 1 O O O O O O O O + k A.0.@.j.'.|.|.|.|.|.|.|.|.|.|.).h.@.@.@.@.@.@.@.@.@.%.f.E.|.|.|.|.|.|.|.|.|.|.W.1.o.P.O O O O O O O 1 1 ",
"1 1 O O O O O O O O X e m.U.<.%.Q.|.|.|.|.|.|.|.|.|.|.|.|.{._.(.x.x.x.W.)._.{.|.|.|.|.|.|.|.|.|.|.|.|.x.:.u.Z.O O O O O O O 1 1 ",
"Q Q 1 1 6 * 6 6 1 6 * ; f B.e.&.;.~.}.|.|.|.|.|.|.|.|.|.|.|.|.|.|.|.|.|.|.|.|.|.|.|.|.|.|.|.|.|.|.|.|.z.-.d.Z.1 1 1 1 1 1 1 Q Q ",
"Q Q * 6 * 6 6 * 1 1 1 & : S C.u.$.1.(.}.|.|.|.|.|.|.|.|.|.|.|.|.|.|.|.|.|.|.|.|.|.|.|.|.|.|.|.|.|.|.|.j.%.p.A.1 1 1 1 1 1 1 Q Q ",
"Q Q 6 6 * 6 6 * 1 1 1 < % r M.P.u.%.4.Q.[.|.|.|.|.|.|.|.|.|.|.|.|.|.|.|.|.|.|.|.|.|.|.|.|.|.|.|.|.|.|.h.@.e.A.1 1 1 1 1 1 1 Q Q ",
"Q Q 1 1 1 1 1 6 1 1 1 * @ @ i 7.B.0.*.%.f.!.{.|.|.|.|.|.|.|.|.|.|.|.|.|.|.|.|.|.|.|.|.|.|.|.|.|.|.|.[.4.=.y.N.1 1 1 1 1 1 1 Q Q ",
"Q Q 1 1 1 1 6 * 1 1 6 6 1 @ - a M Z.0. .#.1.h.R.~.].|.|.|.|.|.|.|.|.|.|.|._.Q.h.h._.|.|.|.|.|.|.|.|.`.2.O.r.K 1 1 1 1 1 1 1 Q Q ",
"Q Q 1 1 1 1 1 1 1 1 * 6 1 * @ @ t L C.t.a.+.%.>.2.f.l.T.E.~.~.~.!.~.~.Q.j.5.1.@.@.E.|.|.|.|.|.|.|.|.).>.i.L.B 1 1 1 1 1 1 1 Q Q ",
"Q Q 1 1 1 1 1 1 1 1 1 1 1 1 * @ % % i m.A.A.V.r.i.&.@.@.@.@.@.@.@.@.@.@.%.+.u.p.@.R.|.|.|.|.|.|.|.}.Q.@.a.A.f 2 1 1 1 1 1 1 Q Q ",
"Q Q 1 1 1 1 1 1 1 1 1 1 1 1 < * @ @ @ - i m.A.A.A.A.t.e.s.u.u.u.u.u.s.r.Z.A.A.&.@.(.|.|.|.|.|.|.|.[.z.=.q.Z.a 1 1 1 1 1 1 1 Q Q ",
"Q Q 1 1 1 1 1 1 1 1 1 1 1 1 1 1 * @ @ @ % % > a l H m.m.M.M.M.M.m.M.M.m.C.Z.y.@.2.|.|.|.|.|.|.|.|.).2.o.I.8.: 1 1 1 1 1 1 1 Q Q ",
"Q Q 1 1 1 1 1 1 1 1 1 1 6 1 1 1 1 1 @ @ @ @ % % @ @ t a i i f u u f i i m.C.u.@.W.|.|.|.|.|.|.|.}.Q.%.a.Z.B 5 1 1 1 1 1 1 1 Q Q ",
"Q Q 1 1 1 1 1 1 1 1 1 1 1 1 1 1 1 1 1 * @ % @ @ @ @ @ % % % % o o % % i N.y.&.1.{.|.|.|.|.|.|.|.'.k.#.y.Z.f < 1 1 1 1 1 1 1 Q Q ",
"Q Q 1 1 1 1 1 1 1 1 1 1 1 1 1 1 1 1 1 1 1 < * * & % @ @ @ @ % X o % f 7.r.| ;._.|.|.|.|.|.|.|.|.!.-.O.P.H : 1 1 1 1 1 1 1 1 q Q ",
"Q Q 1 1 1 1 1 1 1 1 1 1 1 1 1 1 1 1 1 1 1 1 1 1 < < < * & & * o # x D.L. .%.h.|.|.|.|.|.|.|.|.|.j.#.u.C.x ; 1 1 1 1 1 1 1 1 Q Q ",
"Q Q 1 1 1 1 1 1 1 1 1 1 1 1 1 1 1 1 1 1 1 1 1 1 1 1 1 1 1 1 1 % N M.L...%.f.).|.|.|.|.|.|.|.|.{.:.,.r.m.a < 1 1 1 1 1 1 1 1 Q Q ",
"1 1 O O O O O O O O O O O O O O O O O O O O O O O O o O O o p m A.w.&.%.l.].|.|.|.|.|.|.|.|.|.5.=.a.C.w . o O O O O O O O O 1 1 ",
"1 1 O O O O O O O O O O O O O O # O O O O O O O O O O $ u m.A.A.y.#.%.g.{.|.|.|.|.|.|.|.|.|._.@.o.Z.m.= X O O O O O O O O O 1 1 ",
"Q Q 1 1 1 1 1 1 1 1 1 1 1 1 1 & t Y Y T T h h h C V F.B.L.y.d.O.%.g.!.}.|.|.|.|.|.|.|.|.|._.f.$.r.N.l % * 1 1 1 1 1 1 1 1 1 Q Q ",
"Q Q 1 1 1 1 1 1 1 1 1 1 1 1 T l S J K D.F.B.Z.P.P.I.q.a.X.*.%.1.h._.|.|.|.|.|.|.|.|.|.|.'.h.%.u.C.S > * 1 1 1 1 1 1 1 1 1 1 Q Q ",
"Q Q 1 1 1 1 1 1 1 1 1 1 1 1 G C.U.I.t.r.y.w.6.d.i.| =.%.:.4.h.Q.}.|.|.|.|.|.|.|.|.|.|.}.l.:.<.Z.M t % < 1 1 1 1 1 1 1 1 1 1 Q Q ",
"Q Q 1 1 1 1 1 1 1 1 1 1 1 2 D.P.X.&.*.=.#.%.%.1.2.h.x.!./.[.}.|.|.|.|.|.|.|.|.|.|.|.`.l.%.O.r.C.r % & 1 1 1 1 1 1 1 1 1 1 1 Q Q ",
"Q Q 1 1 1 1 1 1 1 1 1 1 1 2 K Z.| @.x.T.x.W.~.(.(.'.[.|.|.|.|.|.|.|.|.|.|.|.|.|.|._.h.;.O.w.V.g O % 1 1 1 1 1 1 1 1 1 1 1 1 Q Q ",
"Q Q 1 1 1 1 1 1 1 1 1 1 1 1 J A. .@.{.{.{.}.|.|.|.|.|.|.|.|.|.|.|.|.|.|.|.|.|.|.'.f.%.<.r.C.S o o * 1 1 1 1 1 1 1 1 1 1 1 1 Q Q ",
"Q Q 1 1 1 1 1 1 1 1 1 1 1 6 J A. .@.|.|.|.|.|.|.|.|.|.|.|.|.|.|.|.|.|.|.|.|.}.j.@.#.i.P.N.g % o O 1 1 1 1 1 1 1 1 1 1 1 1 1 Q Q ",
"Q Q 1 1 1 1 1 1 1 1 1 1 1 1 J A. .@.|.|.|.|.|.|.|.|.|.|.|.|.|.|.|.|.|.|.}.(.5.@.@.0.A.C.i % @ o & 1 1 1 1 1 1 1 1 1 1 1 1 1 Q Q ",
"Q Q 6 1 1 1 1 1 1 1 1 1 1 1 J A. .@.|.|.|.|.|.|.|.|.|.|.|.|.|.|.|.'.^.T.1.$.&.u.L.H.L t @ % * @ @ 1 1 1 1 1 1 1 1 1 1 1 1 6 Q Q ",
") Q 7 1 1 1 1 1 1 1 1 1 * 6 J A.o.@.}.|.|.|.|.|.|.|.|.|.|.{.`./.Q.h.1.%.&.i.0.C.m.g > @ @ * * @ @ * 1 1 1 1 1 1 1 1 1 1 1 7 Q ) ",
"] Q q 1 1 1 1 1 1 1 1 1 6 * V C.u.@.'.|.|.|.|.|.}.{.'.)./.T.h.>.@.#.,.X.y.V.M.H i @ @ * & * 6 % * 6 1 1 1 1 1 1 1 1 1 1 1 q Q ] ",
"S.Q Q 7 1 1 1 1 1 1 1 1 6 6 V N.u.@.l.x.x.x.k.h.g.5.2.>.%.=.O.u.e.y.L.B.H x a % @ @ @ * * 6 * & @ 6 * 7 1 1 1 1 1 6 1 1 9 Q Q S.",
"b.Z Q Q 0 6 1 1 1 1 1 2 * 6 z M.a.@.-.:.:.:.%.%.%.*.| i.d.w.t.P.N.M B f : - @ % % % * * 7 * 6 * @ * 7 * 1 1 1 1 1 * 6 0 Q Q P Y.",
"v.v.^ Q Q Q Q Q Q Q Q Q Q Q ' M.I.u.u.u.u.u.d.6.e.y.t.L.Z.B.J.F ^ R R 9 9 9 9 9 ~ ~ Q Q Q Q Q * * Q Q Q Q Q Q Q Q Q Q Q Q ^ v.c.",
"c.v.v.m / Q Q Q Q Q Q Q Q Q W M.Z.Z.Z.P.Z.V.V.A.H.8.I Z ^ R R E 9 9 9 9 9 9 q q Q Q Q Q Q Q Q 6 6 Q Q Q Q Q Q Q Q Q Q / m c.c.c."
};
