/* XPM */
static char *result[] = {
/* columns rows colors chars-per-pixel */
"64 64 81 1 ",
"  c #758C8E",
". c #829592",
"X c #A9997D",
"o c #BE9667",
"O c #C39762",
"+ c #D49453",
"@ c #D9944E",
"# c #D39353",
"$ c #C19460",
"% c #BC9465",
"& c #A39377",
"* c #828D86",
"= c #768E90",
"- c #AD9876",
"; c #AE906A",
": c #758D8F",
"> c #D6924D",
", c #D28F4B",
"< c #D08E4B",
"1 c #CD8C4A",
"2 c #A08F72",
"3 c #8C9993",
"4 c #CC9356",
"5 c #B9986D",
"6 c #D5914C",
"7 c #A29880",
"8 c #CD9558",
"9 c #CF8D4A",
"0 c #AA733C",
"q c #BB7F42",
"w c #C18345",
"e c #B57B40",
"r c #AF773E",
"t c #CD8B49",
"y c #D6914C",
"u c #B2793F",
"i c #D08D4A",
"p c #AC753D",
"a c #C48546",
"s c #D38F4B",
"d c #C78747",
"f c #B87D41",
"g c #BE8143",
"h c #CA8948",
"j c #D99550",
"k c #DA9957",
"l c #D89A5C",
"z c #DA9855",
"x c #CF9153",
"c c #DC9E60",
"v c #D19458",
"b c #CF9051",
"n c #CD8D4C",
"m c #C28446",
"M c #D09254",
"N c #D2975C",
"B c #BC8146",
"V c #C68B50",
"C c #CE9358",
"Z c #B87D42",
"A c #986735",
"S c #BD854B",
"D c #B97D42",
"F c #B28B5C",
"G c #BB7F43",
"H c #B68956",
"J c #A78F6E",
"K c #BE8144",
"L c #8C9B95",
"P c #B97E42",
"I c #7A9295",
"U c #9C896A",
"Y c #BD8044",
"T c #A39274",
"R c #849EA1",
"E c #A08866",
"W c #789092",
"Q c #888B7C",
"! c #AB875E",
"~ c #BD844A",
"^ c #AA865D",
/* pixels */
"   .XoO+@@@@@@@@@@@@@@@@@@@@@@@@@@@@@@@@@@@@@@@@@@@@@@@@#$%&*   ",
" =-+@@@@@@@@@@@@@@@@@@@@@@@@@@@@@@@@@@@@@@@@@@@@@@@@@@@@@@@@@;  ",
":-@@>,<11111111111111111111111111111111111111111111111111<,>@@2 ",
"3@@,11111111111111111111111111111111111111111111111111111111<@4 ",
"5@611111111111111111111111111111111111111111111111111111111116@7",
"O@<1111111111111111111111111111111111111111111111111111111111<@o",
"8@911111110000000000000000000000000000000000000000000011111119@8",
"@@111111110000000000000000000000000000000qwwwwwwwwwe0011111111@@",
"@@1111111100000000000000000000000000000rt@@@@@@@@@@w0011111111@@",
"@@111111110000000000000000000000000000wy@@@@@@@@@@@w0011111111@@",
"@@1111111100000000000000000000000000ui@@@@@@@@@@@@@w0011111111@@",
"@@11111111000000000000000000000000pa@@@@@@@@@@@@@@@w0011111111@@",
"@@1111111100000000000000000000000es@@@@@@@@@@@@@@@@w0011111111@@",
"@@11111111000000000000000000000pd@@@@@@@@@@@@@@@@@@w0011111111@@",
"@@1111111100000000000000000000fy@@@@@@@@@@@@@@@@@@tr0011111111@@",
"@@11111111000000000000000000rt@@@@@@@@@@@@@@@@@@yg000011111111@@",
"@@1111111100000000000000000gy@@@@@@@@@@@@@@@@@@hp0000011111111@@",
"@@11111111000000000000000ui@@@@@@@@@@@@@@@@@@sf000000011111111@@",
"@@111111110000000000000pw@@@@@@@@@@@@@@@@@@@ap0000000011111111@@",
"@@11111111000000000000es@@@@@@@@@@@@@@@@@@se000000000011111111@@",
"@@111111110000000000pd@@@@@@@@@@@@@@@@@@@w00000000000011111111@@",
"@@11111111000000000fy@@@@@@@@@@@@@@@@@@tu000000000000011111111@@",
"@@111111110000000rh@@@@@@@@@@@@@@@@@@yg00000000000000011111111@@",
"@@11111111000000gy@@@@@@@@@@@@@@@@@@hr000000000000000011111111@@",
"@@111111110000ut@@@@@@@@@@@@@@@@@@yf00000000000000000011111111@@",
"@@11111111000w@@@@@@@@@@@@@@@@@@@ap000000000000000000011111111@@",
"@@1111111100w@@@@@@@@@@@@@@@@@@se00000000000000000000011111111@@",
"@@1111111100w@@@@@@@@@@@@@@@@@w0000000000000000000000011111111@@",
"@@1111111100w@@@@@@@@@@@@@@@iu00000000000000000000000011111111@@",
"@@1111111100w@@@@@@@@@@@@@yg0000000000000000000000000011111111@@",
"@@1111111100w@@@@@@@@@@@@tr00000000000000000000000000011111111@@",
"@@1111111100w@@@@@@@@@@yf0000000000000000000000000000011111111@@",
"@@1111111100ewwwwwwwwwwp00000000000000000000000000000011111111@@",
"@@111111110000000000000000000000000000000000000000000011111111@@",
"j@111111111111111111111111111111111111111111111111111111111111@j",
"k@111111111111111111111111111111111111111111111111111111111111@k",
"lz111111111111111111111111111111111111111111111111111111111111zl",
"xcvbn111111111111111111111111111111111111111111111111111111nbvcx",
"mMNNNNNNNNNNNNNNNNNNNNNNNNNNNNNNNNNNNNNNNNNNNNNNNNNNNNNNNNNNNNMm",
"mmBVCNNNNNNNNNNNNNNNNNNNNNNNNNNNNNNNNNNNNNNNNNNNNNNNNNNNNNNCVBmm",
"mmZZZZZZZZZZZZZZZZZZZZZZZZZZZZZZZZZZZZZZZZZZZZZZZZZZZZZZZZZZZZmm",
"mmZZZZZZZZZZZZZZZZZZZZZZZZZZZZZZZZZZZZZZZZZZZZZZZZZZZZZZZZZZZZmm",
"mmZZZZZZZZZZZZZZZZZZZZZZZZZZZZZZZZZZZZZZZZZZZZZZZZZZZZZZZZZZZZmm",
"mmZZZZZZZZAAAAAAAAAAAAAAAAAAAAAAAAAAAAAAAAAAAAAAAAAAAAZZZZZZZZmm",
"mmZZZZZZZZAAAAAAAAAAAAAAAAAAAAAAAAAAAAAAAAAAAAAAAAAAAAZZZZZZZZmm",
"mmZZZZZZZZAAAAAAAAAAAAAAAAAAAAAAAAAAAAAAAAAAAAAAAAAAAAZZZZZZZZmm",
"mmZZZZZZZZAAAAAAAAAAAAAAAAAAAAAAAAAAAAAAAAAAAAAAAAAAAAZZZZZZZZmm",
"mmZZZZZZZZAAAAAAAAAAAAAAAAAAAAAAAAAAAAAAAAAAAAAAAAAAAAZZZZZZZZmm",
"mmZZZZZZZZAAAAAAAAAAAAAAAAAAAAAAAAAAAAAAAAAAAAAAAAAAAAZZZZZZZZmm",
"mmZZZZZZZZAAAAAAAAAAAAAAAAAAAAAAAAAAAAAAAAAAAAAAAAAAAAZZZZZZZZmm",
"mmZZZZZZZZAAAAAAAAAAAAAAAAAAAAAAAAAAAAAAAAAAAAAAAAAAAAZZZZZZZZmm",
"mmZZZZZZZZAAAAAAAAAAAAAAAAAAAAAAAAAAAAAAAAAAAAAAAAAAAAZZZZZZZZmm",
"mmZZZZZZZZAAAAAAAAAAAAAAAAAAAAAAAAAAAAAAAAAAAAAAAAAAAAZZZZZZZZmm",
"mmZZZZZZZZAAAAAAAAAAAAAAAAAAAAAAAAAAAAAAAAAAAAAAAAAAAAZZZZZZZZmm",
"mmZZZZZZZZAAAAAAAAAAAAAAAAAAAAAAAAAAAAAAAAAAAAAAAAAAAAZZZZZZZZmm",
"mmZZZZZZZZAAAAAAAAAAAAAAAAAAAAAAAAAAAAAAAAAAAAAAAAAAAAZZZZZZZZmm",
"mmZZZZZZZZAAAAAAAAAAAAAAAAAAAAAAAAAAAAAAAAAAAAAAAAAAAAZZZZZZZZmm",
"SmDZZZZZZZAAAAAAAAAAAAAAAAAAAAAAAAAAAAAAAAAAAAAAAAAAAAZZZZZZZZmm",
"FmGZZZZZZZZZZZZZZZZZZZZZZZZZZZZZZZZZZZZZZZZZZZZZZZZZZZZZZZZZZGmH",
"JmKZZZZZZZZZZZZZZZZZZZZZZZZZZZZZZZZZZZZZZZZZZZZZZZZZZZZZZZZZZKmJ",
"LmmPZZZZZZZZZZZZZZZZZZZZZZZZZZZZZZZZZZZZZZZZZZZZZZZZZZZZZZZZPmmL",
"IUmwYPZZZZZZZZZZZZZZZZZZZZZZZZZZZZZZZZZZZZZZZZZZZZZZZZZZZZPYwmTR",
"  EmmmmmmmmmmmmmmmmmmmmmmmmmmmmmmmmmmmmmmmmmmmmmmmmmmmmmmmmmmEW:",
"   Q!Smmmmmmmmmmmmmmmmmmmmmmmmmmmmmmmmmmmmmmmmmmmmmmmmmmmm~^Q   "
};
