/* XPM */
static char *result[] = {
/* columns rows colors chars-per-pixel */
"64 64 100 2 ",
"   c #758C8E",
".  c #7C9597",
"X  c #849EA1",
"o  c #819A9D",
"O  c #758D8F",
"+  c #778E90",
"@  c #7D9598",
"#  c #829B9D",
"$  c #8DA8AA",
"%  c #8FABAD",
"&  c #93B0B2",
"*  c #97B5B7",
"=  c #A0C0C2",
"-  c #839C9F",
";  c #7A9194",
":  c #7B9396",
">  c #768E90",
",  c #829B9E",
"<  c #7C9497",
"1  c #9EBDBE",
"2  c #95B3B5",
"3  c #88A2A4",
"4  c #7A9294",
"5  c #7E9699",
"6  c #9BBABC",
"7  c #9AB9BB",
"8  c #94B2B4",
"9  c #8EABAD",
"0  c #9EBEC0",
"q  c #88A3A5",
"w  c #778E91",
"e  c #839D9F",
"r  c #90ACAE",
"t  c #8BA7A9",
"y  c #89A4A6",
"u  c #86A1A4",
"i  c #95B3B6",
"p  c #80989B",
"a  c #7B9295",
"s  c #8DA9AB",
"d  c #9EBEBF",
"f  c #9DBCBE",
"g  c #91AEB0",
"h  c #8AA5A7",
"j  c #788F91",
"k  c #7A9295",
"l  c #80999C",
"z  c #7C9396",
"x  c #768D8F",
"c  c #7E9799",
"v  c #789092",
"b  c #7F989B",
"n  c #82A4A1",
"m  c #70A593",
"M  c #5DA586",
"N  c #3EA76F",
"B  c #25A85D",
"V  c #57A681",
"C  c #69A58F",
"Z  c #91ADAF",
"A  c #778F91",
"S  c #76A498",
"D  c #4AA678",
"F  c #31A766",
"G  c #37A76A",
"H  c #63A58A",
"J  c #85A0A1",
"K  c #26AE60",
"L  c #29BA67",
"P  c #2BC36C",
"I  c #27B162",
"U  c #25AA5E",
"Y  c #2BA761",
"T  c #788F92",
"R  c #9BBABB",
"E  c #28B564",
"W  c #2BC06A",
"Q  c #2ECC71",
"!  c #2CC56D",
"~  c #2ABC68",
"^  c #26AC5F",
"/  c #99B8B9",
"(  c #8DA9AA",
")  c #2DC96F",
"_  c #799193",
"`  c #9DBDBE",
"'  c #50A67C",
"]  c #2ABE69",
"[  c #8EAAAD",
"{  c #2CC76E",
"}  c #27B363",
"|  c #7CA49C",
" . c #86A0A2",
".. c #44A673",
"X. c #90ADB0",
"o. c #8DA8AB",
"O. c #44A975",
"+. c #3BB472",
"@. c #28B765",
"#. c #3AB270",
/* pixels */
"      . X X X X X X X o O     + @ @ @ @ @ # $ % & * * * * = = = = = = = = * * & % -       ; @ @ @ @ @ @ @ @ @ @ @ @ @ :         ",
"  > o X X X X X X X X X , O     < @ @ & 1 = = = = = = = = = = = = = = = = = = = = = = 2 3 # @ @ @ @ @ @ @ @ @ @ @ @ @ @ 4       ",
"O o X X X X X X X X X X X o     5 & 1 = = = 6 7 * 8 8 8 8 9 9 9 9 9 9 9 9 8 8 2 7 0 = = = = * q @ @ @ @ @ @ @ @ @ @ @ @ @ w     ",
"o X X X X X X X X X X X X X e 2 = = = * r t y y y y y y y y y y y y y y y y y y y y t & 6 = = = * q @ @ @ @ @ @ @ @ @ @ @ 4     ",
"X X X X X X X X X X X X u i = = 0 * r y y y y y y y y y y y y y y y y y y y y y y y y y y t & 0 = = 2 p @ @ @ @ @ @ @ @ @ a   o ",
"X X X X X X X X X X X s d = f g y y y y y y y y y y y y y y y y y y y y y y y y y y y y y y y y & 0 = 1 h @ @ @ @ @ @ @ @ j k X ",
"X X X X X X X X X X i = = 8 h y y y y y y y y y y y y y y y y y y y y y y y y y y y y y y y y y y h 2 = = % @ @ @ @ @ @ :   l X ",
"X X X X X X X X X i = 0 r y y y y y y y y y y y y y y y y y y y y y y y y y y y y y y y y y y y y y y 8 = = $ @ @ @ @ z x   c X ",
"X X X X X X X X i = 7 t y y y y y y y y y y y y y y y y y y y y y y y y y y y y y y y y y y y y y y y y 9 0 = & @ @ < x     v X ",
"X X X X X X X i = * y y y y y y y y y y y y y y y y y y y y y y y y y y y y y y y y y y y y y y y y y y y h 6 = & < w         b ",
", X X X X X i = * y y y y y y y y y y y y y n m M N N N N B B B B B B B N V V C n y y y y y y y y y y y y y y * = Z           O ",
"A X X X X % = * y y y y y y y y y y y y S D F B B B B B B B B B B B B B B B B B B G H n y y y y y y y y y y y y * = J           ",
"  k X X h d * y y y y y y y y y y y y N B B B B K L L L L P P P P P P P L I I U B B B Y V n y y y y y y y y y y y * 1 # a a T   ",
"    : X R 6 y y y y y y y y y y y C F B B E W Q Q Q Q Q Q Q Q Q Q Q Q Q Q Q Q Q ! ~ ^ B B F S y y y y y y y y y y y 6 / @ @ @ < ",
"z x   ( 0 t y y y y y y y y y y V B B L ) Q Q Q Q Q Q Q Q Q Q Q Q Q Q Q Q Q Q Q Q Q Q P I B B M y y y y y y y y y y t 0 $ @ @ @ ",
"@ < _ ` r y y y y y y y y y y ' B ^ ] Q Q Q Q Q Q Q Q Q Q Q Q Q Q Q Q Q Q Q Q Q Q Q Q Q Q W U B V y y y y y y y y y y r 1 p @ @ ",
"@ @ [ 7 y y y y y y y y y y D B I ) Q Q Q Q Q Q Q Q Q Q Q Q Q Q Q Q Q Q Q Q Q Q Q Q Q Q Q Q { K B H y y y y y y y y y y 7 % @ @ ",
"@ @ 1 t y y y y y y y y y M B } Q Q Q Q Q Q Q Q Q Q Q Q Q Q Q Q Q Q Q Q Q Q Q Q Q Q Q Q Q Q Q Q } B m y y y y y y y y y t 1 @ @ ",
"@ h * y y y y y y y y y | B E Q Q Q Q Q Q Q Q Q Q Q Q Q Q Q Q Q Q Q Q Q Q Q Q Q Q Q Q Q Q Q Q Q ) K Y n y y y y y y y y y * h @ ",
"@ 2 t y y y y y y y y y N K Q Q Q Q Q Q Q Q Q Q Q Q Q Q Q Q Q Q Q Q Q Q Q Q Q Q Q Q Q Q Q Q Q Q Q ) K N y y y y y y y y y t 2 @ ",
"@ 7 y y y y y y y y y m U { Q Q Q Q Q Q Q Q Q Q Q ! ~ L L I I I I I I } W P Q Q Q Q Q Q Q Q Q Q Q Q ! U m y y y y y y y y y 7 @ ",
" .g y y y y y y y y y N ] Q Q Q Q Q Q Q Q Q ) ] U B B B B B B B B B B B B B B I ] Q Q Q Q Q Q Q Q Q Q L ..y y y y y y y y y g  .",
"% h y y y y y y y y n ^ Q Q Q Q Q Q Q Q Q ! K B B B B B B B B B B B B B B B B B B I ) Q Q Q Q Q Q Q Q ) U | y y y y y y y y h % ",
"X.y y y y y y y y y H ] Q Q Q Q Q Q Q Q ) U B B B B B B B B B B B B B B B B B B B B U ) Q Q Q Q Q Q Q Q ] M y y y y y y y y y X.",
"o.y y y y y y y y y O.Q Q Q Q Q Q Q Q ) K B B B B B B B B B B B B B B B B B B B B B B K Q Q Q Q Q Q Q Q ) D y y y y y y y y y o.",
"g y y y y y y y y y +.Q Q Q Q Q Q Q Q } B B B B B B B B B B B B B B B B B B B B B B B B @.Q Q Q Q Q Q Q Q #.y y y y y y y y y g ",
"9 y y y y y y y y y ] Q Q Q Q Q Q Q { B B B B B B B B B B B B B B B B B B B B B B B B B B { Q Q Q Q Q Q Q ~ y y y y y y y y y 9 ",
"h y y y y y y y y y P Q Q Q Q Q Q Q @.B B B B B B B B B B B B B B B B B B B B B B B B B B L Q Q Q Q Q Q Q P y y y y y y y y y h ",
"y y y y y y y y y y Q Q Q Q Q Q Q Q ^ B B B B B B B B B B B B B B B B B B B B B B B B B B I Q Q Q Q Q Q Q ) y y y y y y y y y y ",
"y y y y y y y y y y Q Q Q Q Q Q Q Q B B B B B B B B B B B B B B B B B B B B B B B B B B B B Q Q Q Q Q Q Q Q y y y y y y y y y y ",
"y y y y y y y y y y Q Q Q Q Q Q Q Q B B B B B B B B B B B B B B B B B B B B B B B B B B B B Q Q Q Q Q Q Q Q y y y y y y y y y y ",
"y y y y y y y y y y Q Q Q Q Q Q Q Q B B B B B B B B B B B B B B B B B B B B B B B B B B B B Q Q Q Q Q Q Q Q y y y y y y y y y y ",
"y y y y y y y y y y Q Q Q Q Q Q Q Q B B B B B B B B B B B B B B B B B B B B B B B B B B B B Q Q Q Q Q Q Q Q y y y y y y y y y y ",
"y y y y y y y y y y Q Q Q Q Q Q Q Q B B B B B B B B B B B B B B B B B B B B B B B B B B B B Q Q Q Q Q Q Q Q y y y y y y y y y y ",
"y y y y y y y y y y Q Q Q Q Q Q Q Q B B B B B B B B B B B B B B B B B B B B B B B B B B B B Q Q Q Q Q Q Q Q y y y y y y y y y y ",
"y y y y y y y y y y Q Q Q Q Q Q Q Q B B B B B B B B B B B B B B B B B B B B B B B B B B B B Q Q Q Q Q Q Q Q y y y y y y y y y y ",
"y y y y y y y y y y Q Q Q Q Q Q Q Q B B B B B B B B B B B B B B B B B B B B B B B B B B B B Q Q Q Q Q Q Q Q y y y y y y y y y y ",
"y y y y y y y y y y Q Q Q Q Q Q Q Q B B B B B B B B B B B B B B B B B B B B B B B B B B B B Q Q Q Q Q Q Q Q y y y y y y y y y y ",
"y y y y y y y y y y Q Q Q Q Q Q Q Q B B B B B B B B B B B B B B B B B B B B B B B B B B B B Q Q Q Q Q Q Q Q y y y y y y y y y y ",
"y y y y y y y y y y Q Q Q Q Q Q Q Q B B B B B B B B B B B B B B B B B B B B B B B B B B B B Q Q Q Q Q Q Q Q y y y y y y y y y y ",
"y y y y y y y y y y Q Q Q Q Q Q Q Q B B B B B B B B B B B B B B B B B B B B B B B B B B B B Q Q Q Q Q Q Q Q y y y y y y y y y y ",
"y y y y y y y y y y Q Q Q Q Q Q Q Q B B B B B B B B B B B B B B B B B B B B B B B B B B B B Q Q Q Q Q Q Q Q y y y y y y y y y y ",
"y y y y y y y y y y Q Q Q Q Q Q Q Q B B B B B B B B B B B B B B B B B B B B B B B B B B B B Q Q Q Q Q Q Q Q y y y y y y y y y y ",
"y y y y y y y y y y Q Q Q Q Q Q Q Q B B B B B B B B B B B B B B B B B B B B B B B B B B B B Q Q Q Q Q Q Q Q y y y y y y y y y y ",
"y y y y y y y y y y Q Q Q Q Q Q Q Q B B B B B B B B B B B B B B B B B B B B B B B B B B B B Q Q Q Q Q Q Q Q y y y y y y y y y y ",
"y y y y y y y y y y Q Q Q Q Q Q Q Q B B B B B B B B B B B B B B B B B B B B B B B B B B B B Q Q Q Q Q Q Q Q y y y y y y y y y y ",
"y y y y y y y y y y Q Q Q Q Q Q Q Q B B B B B B B B B B B B B B B B B B B B B B B B B B B B Q Q Q Q Q Q Q Q y y y y y y y y y y ",
"y y y y y y y y y y Q Q Q Q Q Q Q Q B B B B B B B B B B B B B B B B B B B B B B B B B B B B Q Q Q Q Q Q Q Q y y y y y y y y y y ",
"y y y y y y y y y y Q Q Q Q Q Q Q Q B B B B B B B B B B B B B B B B B B B B B B B B B B B B Q Q Q Q Q Q Q Q y y y y y y y y y y ",
"y y y y y y y y y y Q Q Q Q Q Q Q Q B B B B B B B B B B B B B B B B B B B B B B B B B B B B Q Q Q Q Q Q Q Q y y y y y y y y y y ",
"y y y y y y y y y y Q Q Q Q Q Q Q Q B B B B B B B B B B B B B B B B B B B B B B B B B B B B Q Q Q Q Q Q Q Q y y y y y y y y y y ",
"y y y y y y y y y y Q Q Q Q Q Q Q Q B B B B B B B B B B B B B B B B B B B B B B B B B B B B Q Q Q Q Q Q Q Q y y y y y y y y y y ",
"y y y y y y y y y y Q Q Q Q Q Q Q Q B B B B B B B B B B B B B B B B B B B B B B B B B B B B Q Q Q Q Q Q Q Q y y y y y y y y y y ",
"y y y y y y y y y y Q Q Q Q Q Q Q Q B B B B B B B B B B B B B B B B B B B B B B B B B B B B Q Q Q Q Q Q Q Q y y y y y y y y y y ",
"y y y y y y y y y y Q Q Q Q Q Q Q Q B B B B B B B B B B B B B B B B B B B B B B B B B B B B Q Q Q Q Q Q Q Q y y y y y y y y y y ",
"y y y y y y y y y y Q Q Q Q Q Q Q Q B B B B B B B B B B B B B B B B B B B B B B B B B B B B Q Q Q Q Q Q Q Q y y y y y y y y y y ",
"y y y y y y y y y y Q Q Q Q Q Q Q Q Q Q Q Q Q Q Q Q Q Q Q Q Q Q Q Q Q Q Q Q Q Q Q Q Q Q Q Q Q Q Q Q Q Q Q Q y y y y y y y y y y ",
"y y y y y y y y y y Q Q Q Q Q Q Q Q Q Q Q Q Q Q Q Q Q Q Q Q Q Q Q Q Q Q Q Q Q Q Q Q Q Q Q Q Q Q Q Q Q Q Q Q y y y y y y y y y y ",
"y y y y y y y y y y Q Q Q Q Q Q Q Q Q Q Q Q Q Q Q Q Q Q Q Q Q Q Q Q Q Q Q Q Q Q Q Q Q Q Q Q Q Q Q Q Q Q Q Q y y y y y y y y y y ",
"y y y y y y y y y y Q Q Q Q Q Q Q Q Q Q Q Q Q Q Q Q Q Q Q Q Q Q Q Q Q Q Q Q Q Q Q Q Q Q Q Q Q Q Q Q Q Q Q Q y y y y y y y y y y ",
"y y y y y y y y y y Q Q Q Q Q Q Q Q Q Q Q Q Q Q Q Q Q Q Q Q Q Q Q Q Q Q Q Q Q Q Q Q Q Q Q Q Q Q Q Q Q Q Q Q y y y y y y y y y y ",
"y y y y y y y y y y Q Q Q Q Q Q Q Q Q Q Q Q Q Q Q Q Q Q Q Q Q Q Q Q Q Q Q Q Q Q Q Q Q Q Q Q Q Q Q Q Q Q Q Q y y y y y y y y y y ",
"y y y y y y y y y y Q Q Q Q Q Q Q Q Q Q Q Q Q Q Q Q Q Q Q Q Q Q Q Q Q Q Q Q Q Q Q Q Q Q Q Q Q Q Q Q Q Q Q Q y y y y y y y y y y ",
"y y y y y y y y y y Q Q Q Q Q Q Q Q Q Q Q Q Q Q Q Q Q Q Q Q Q Q Q Q Q Q Q Q Q Q Q Q Q Q Q Q Q Q Q Q Q Q Q Q y y y y y y y y y y "
};
