/* XPM */
static char *result[] = {
/* columns rows colors chars-per-pixel */
"64 64 40 1 ",
"  c #758C8E",
". c #8C8D8D",
"X c #BA7D77",
"o c #D86B60",
"O c #E06659",
"+ c #F05C4D",
"@ c #FF5342",
"# c #EF5A4C",
"$ c #DE6457",
"% c #D6685D",
"& c #B47771",
"* c #868585",
"= c #768E90",
"- c #C07670",
"; c #BA6F68",
": c #758D8F",
"> c #C8726A",
", c #F24F3E",
"< c #DF4939",
"1 c #D94737",
"2 c #CD4334",
"3 c #C26B63",
"4 c #A08886",
"5 c #977D7B",
"6 c #D16F66",
"7 c #EC4D3C",
"8 c #D06D64",
"9 c #D64636",
"0 c #819A9C",
"q c #D34535",
"w c #DC4838",
"e c #C9736C",
"r c #939595",
"t c #7A9295",
"y c #C17872",
"u c #849EA1",
"i c #CB685F",
"p c #789092",
"a c #D5665B",
"s c #D4655A",
/* pixels */
"   .XoO+@@@@@@@@@@@@@@@@@@@@@@@  @@@@@@@@@@@@@@@@@@@@@@@#$%&*   ",
" =-@@@@@@@@@@@@@@@@@@@@@@@@@@@@  @@@@@@@@@@@@@@@@@@@@@@@@@@@@;  ",
":>@@,<1122222222222222222222222  2222222222222222222222211<,@@3 ",
"4@@<222222222222222222222222222  222222222222222222222222222<@@5",
"6@72222222222222222222222222222  22222222222222222222222222227@8",
"+@92222222222222222222222222222  22222222222222222222222222229@+",
"@@22222222222222222222222222222  22222222222222222222222222222@@",
"@@22222222222222222222222222222  22222222222222222222222222222@@",
"@@22222222222222222222222222222  22222222222222222222222222222@@",
"@@22222222222222222222222222222  22222222222222222222222222222@@",
"@@22222222222222222222222222222  22222222222222222222222222222@@",
"@@22222222222222222222222222222  22222222222222222222222222222@@",
"@@22222222222222222222222222222  22222222222222222222222222222@@",
"@@22222222222222222222222222222  22222222222222222222222222222@@",
"@@22222222222222222222222222222  22222222222222222222222222222@@",
"  000000000000000000000000000000000000000000000000000000000000  ",
"  000000000000000000000000000000000000000000000000000000000000  ",
"@@2222222222222  222222222222222222222222222222  2222222222222@@",
"@@2222222222222  222222222222222222222222222222  2222222222222@@",
"@@2222222222222  222222222222222222222222222222  2222222222222@@",
"@@2222222222222  222222222222222222222222222222  2222222222222@@",
"@@2222222222222  222222222222222222222222222222  2222222222222@@",
"@@2222222222222  222222222222222222222222222222  2222222222222@@",
"@@2222222222222  222222222222222222222222222222  2222222222222@@",
"@@2222222222222  222222222222222222222222222222  2222222222222@@",
"@@2222222222222  222222222222222222222222222222  2222222222222@@",
"@@2222222222222  222222222222222222222222222222  2222222222222@@",
"@@2222222222222  222222222222222222222222222222  2222222222222@@",
"@@2222222222222  222222222222222222222222222222  2222222222222@@",
"@@2222222222222  222222222222222222222222222222  2222222222222@@",
"@@2222222222222  222222222222222222222222222222  2222222222222@@",
"  000000000000000000000000000000000000000000000000000000000000  ",
"  000000000000000000000000000000000000000000000000000000000000  ",
"@@22222222222222222222222222222  22222222222222222222222222222@@",
"@@22222222222222222222222222222  22222222222222222222222222222@@",
"@@22222222222222222222222222222  22222222222222222222222222222@@",
"@@22222222222222222222222222222  22222222222222222222222222222@@",
"@@22222222222222222222222222222  22222222222222222222222222222@@",
"@@22222222222222222222222222222  22222222222222222222222222222@@",
"@@22222222222222222222222222222  22222222222222222222222222222@@",
"@@22222222222222222222222222222  22222222222222222222222222222@@",
"@@22222222222222222222222222222  22222222222222222222222222222@@",
"@@22222222222222222222222222222  22222222222222222222222222222@@",
"@@22222222222222222222222222222  22222222222222222222222222222@@",
"@@22222222222222222222222222222  22222222222222222222222222222@@",
"@@22222222222222222222222222222  22222222222222222222222222222@@",
"@@22222222222222222222222222222  22222222222222222222222222222@@",
"  000000000000000000000000000000000000000000000000000000000000  ",
"  000000000000000000000000000000000000000000000000000000000000  ",
"@@2222222222222  222222222222222222222222222222  2222222222222@@",
"@@2222222222222  222222222222222222222222222222  2222222222222@@",
"@@2222222222222  222222222222222222222222222222  2222222222222@@",
"@@2222222222222  222222222222222222222222222222  2222222222222@@",
"@@2222222222222  222222222222222222222222222222  2222222222222@@",
"@@2222222222222  222222222222222222222222222222  2222222222222@@",
"@@2222222222222  222222222222222222222222222222  2222222222222@@",
"@@2222222222222  222222222222222222222222222222  2222222222222@@",
"@@q222222222222  222222222222222222222222222222  222222222222q@@",
"O@w222222222222  222222222222222222222222222222  222222222222w@O",
"e@,222222222222  222222222222222222222222222222  222222222222,@e",
"r@@<22222222222  222222222222222222222222222222  22222222222<@@r",
"t;@@7q222222222  222222222222222222222222222222  222222222q7@@yu",
"  i@@@@@@@@@@@@  @@@@@@@@@@@@@@@@@@@@@@@@@@@@@@  @@@@@@@@@@@@ip:",
"   5a@@@@@@@@@@  @@@@@@@@@@@@@@@@@@@@@@@@@@@@@@  @@@@@@@@@@s5   "
};
