/* XPM */
static char *result[] = {
/* columns rows colors chars-per-pixel */
"64 64 226 2 ",
"   c #758C8E",
".  c #7C9597",
"X  c #849EA1",
"o  c #819A9D",
"O  c #758D8F",
"+  c #778E90",
"@  c #7D9598",
"#  c #799093",
"$  c #7A9194",
"%  c #7B9396",
"&  c #768E90",
"*  c #829B9E",
"=  c #7C9497",
"-  c #768D8F",
";  c #7A9294",
":  c #7B9295",
">  c #778E91",
",  c #788F92",
"<  c #789092",
"1  c #788F91",
"2  c #798886",
"3  c #788381",
"4  c #737168",
"5  c #6D5E50",
"6  c #6D5E4F",
"7  c #6B5C4E",
"8  c #6E685E",
"9  c #6F6C63",
"0  c #717874",
"q  c #7A9295",
"w  c #82999B",
"e  c #747873",
"r  c #6D6358",
"t  c #694C39",
"y  c #70675C",
"u  c #767974",
"i  c #7C9092",
"p  c #80999C",
"a  c #7B8480",
"s  c #6C5545",
"d  c #60583E",
"f  c #586543",
"g  c #487E4D",
"h  c #3C9155",
"j  c #389757",
"k  c #546B45",
"l  c #5C5E40",
"z  c #6B5444",
"x  c #767E7A",
"c  c #7C9396",
"v  c #7E9799",
"b  c #7A7F7A",
"n  c #4C784A",
"m  c #30A45C",
"M  c #28B162",
"N  c #2CAA5F",
"B  c #819494",
"V  c #7B8C8D",
"C  c #7F989B",
"Z  c #736A60",
"A  c #507148",
"S  c #778F91",
"D  c #6F6152",
"F  c #6B513F",
"G  c #839C9F",
"H  c #35B56B",
"J  c #78CE9C",
"K  c #BBE6CD",
"L  c #C9EBD7",
"P  c #E4F5EB",
"I  c white",
"U  c #D6F0E1",
"Y  c #50BF7F",
"T  c #799193",
"R  c #7D9698",
"E  c #F1FAF5",
"W  c #42BA75",
"Q  c #AEE1C4",
"!  c #29B664",
"~  c #29B765",
"^  c #2BBE69",
"/  c #2ABB67",
"(  c #2ECC71",
")  c #35BC6A",
"_  c #6B5749",
"`  c #56744A",
"'  c #6D594B",
"]  c #ECCDA2",
"[  c #FFE0B1",
"{  c #A18366",
"}  c #726C63",
"|  c #AA8C6D",
" . c #8B6F55",
".. c #B49976",
"X. c #BBA07C",
"o. c #85674F",
"O. c #F5D6A9",
"+. c #E2C49A",
"@. c #8E7157",
"#. c #D9BB93",
"$. c #B49675",
"%. c #71746E",
"&. c #7D6149",
"*. c #D0B58D",
"=. c #D7BD93",
"-. c #7B5E48",
";. c #E8CCA0",
":. c #E1C59A",
">. c #E6CA9E",
",. c #FCDDAF",
"<. c #6A5343",
"1. c #FADBAD",
"2. c #725540",
"3. c #F0D2A5",
"4. c #F5D7A9",
"5. c #BD9F7C",
"6. c #765A44",
"7. c #D0B18B",
"8. c #A68B6B",
"9. c #F2D5A7",
"0. c #6C594B",
"q. c #798D8E",
"w. c #6F6357",
"e. c #C6A884",
"r. c #6D6054",
"t. c #748889",
"y. c #727C79",
"u. c #777C77",
"i. c #71665A",
"p. c #6A513F",
"a. c #5A6C47",
"s. c #449C5C",
"d. c #5C955C",
"f. c #FCCDA2",
"g. c #77A76B",
"h. c #6B5140",
"j. c #7F8F8D",
"k. c #8A8C56",
"l. c #E85543",
"z. c #ED7159",
"x. c #90B173",
"c. c #62D181",
"v. c #A38557",
"b. c #73756E",
"n. c #65543C",
"m. c #31C46D",
"M. c #CF5C42",
"N. c #E74C3C",
"B. c #39C46D",
"V. c #777A73",
"C. c #45BC6A",
"Z. c #50B467",
"A. c #DB543F",
"S. c #739C5D",
"D. c #48CE79",
"F. c #6FD285",
"G. c #E8A781",
"H. c #C46445",
"J. c #67A460",
"K. c #EB6751",
"L. c #EECC9E",
"P. c #F1DEAD",
"I. c #F39676",
"U. c #E4DDA9",
"Y. c #6E5B4D",
"T. c #81AA73",
"R. c #E34A3B",
"E. c #DA4738",
"W. c #D34536",
"Q. c #CD4335",
"!. c #FAC49B",
"~. c #76756D",
"^. c #977A5E",
"/. c #DD4839",
"(. c #F49F7D",
"). c #F7B18C",
"_. c #DB4A3B",
"`. c #813D36",
"'. c #603935",
"]. c #763C36",
"[. c #C24639",
"{. c #CE4335",
"}. c #EA5E4A",
"|. c #FDD6A9",
" X c #7D8A87",
".X c #7A8B8C",
"XX c #BA4539",
"oX c gray20",
"OX c #803B34",
"+X c #D14436",
"@X c #EE7A60",
"#X c #6F665B",
"$X c #CC755E",
"%X c #3E3433",
"&X c #8D3D34",
"*X c #AD4536",
"=X c #9B4737",
"-X c #C64335",
";X c #DE4939",
":X c #F6A885",
">X c #748484",
",X c #6A503F",
"<X c #695F52",
"1X c #363433",
"2X c #493633",
"3X c #D64637",
"4X c #F18C6F",
"5X c #D7B692",
"6X c #CFB691",
"7X c #72807E",
"8X c #5B4537",
"9X c #71726A",
"0X c #6A503E",
"qX c #4E3F36",
"wX c #433A34",
"eX c #654A38",
"rX c #3D3734",
"tX c #544236",
"yX c #5E4737",
"uX c #403934",
"iX c #393633",
"pX c #473C35",
"aX c #584437",
"sX c #717873",
"dX c #6D6459",
"fX c #6C5D4E",
/* pixels */
"      . X X X X X X X o O     + @ @ @ @ @ @ @ @ @ @ @ @ @ @ @ @ @ @ @ @ @ @ @ @ @ #       $ @ @ @ @ @ @ @ @ @ @ @ @ @ %         ",
"  & o X X X X X X X X X * O     = @ @ @ @ @ @ @ @ @ @ @ @ @ @ @ @ @ @ @ @ @ @ @ @ -     # @ @ @ @ @ @ @ @ @ @ @ @ @ @ @ ;       ",
"O o X X X X X X X X X X X o     # @ @ @ @ @ @ @ @ @ @ @ @ @ @ @ @ @ @ @ @ @ @ @ :     - = @ @ @ @ @ @ @ @ @ @ @ @ @ @ @ @ >     ",
"o X X X X X X X X X X X X X .     = @ @ @ @ @ @ @ @ @ @ @ @ @ @ @ @ @ @ @ @ @ @ +     , @ @ @ @ @ @ @ @ @ @ @ @ @ @ @ @ @ ;     ",
"X X X X X X X X X X X X X X X <   + @ @ @ @ @ @ @ @ @ @ @ @ @ @ @ @ @ @ @ @ @ $       # @ @ @ @ @ @ @ @ @ @ @ @ @ @ @ @ @ :   o ",
"X X X X X X X X X X X X X X X *     1 2 3 4 4 4 5 5 5 5 5 5 5 5 5 5 5 5 5 5 6 7 8 9 9 0 3 @ @ @ @ @ @ @ @ @ @ @ @ @ @ @ @ 1 q X ",
"X X X X X X X X X X X X X X X w e r 7 t t t t t t t t t t t t t t t t t t t t t t t t t t 5 y u i @ @ @ @ @ @ @ @ @ @ @ %   p X ",
"X X X X X X X X X X X X X X a s t t t d f g g g h j j j j j j j j j j j j j j j g g g k l t t t z x @ @ @ @ @ @ @ @ @ c -   v X ",
"X X X X X X X X X X X X X b t t d n h m M M M M M M M M M M M M M M M M M M M M M M M M N j g d t t u @ @ @ @ @ @ @ = -     < X ",
"X X X X X X X X X X X X B t t n N M M M M M M M M M M M M M M M M M M M M M M M M M M M M M M N g t t V @ @ @ @ @ = >         C ",
"* X X X X X X X X X X X Z t A M M M M M M M M M M M M M M M M M M M M M M M M M M M M M M M M M M A t y @ @ @ @ = +           O ",
"S X X X X X X X X X X X D t m M M M M M M M M M M M M M M M M M M M M M M M M M M M M M M M M M M m t 5 @ @ @ = -               ",
"  q X X X X X X X X X X F t M M M M M M M M M M M M M M M M M M M M M M M M M M M M M M M M M M M M t t @ @ % -   - $ : : : ,   ",
"    % X X X X X X X X G t t M M M M M M M M M M M M M H J K L L L L K J M M M M M M M M M M M M M M t t + -     # @ @ @ @ @ @ = ",
"c -   v X X X X X X * & t t M M M M M M M M M M M M J P I I I I I I I I U Y M M M M M M M M M M M M t t       T @ @ @ @ @ @ @ @ ",
"@ = -   R G X X X v O   t t M M M M M M M M M M M Y E I I I I I I I I I I P Y M M M M M M M M M M M t t     $ @ @ @ @ @ @ @ @ @ ",
"@ @ = >   O < <         t t M M M M M M M M M M W E I I I I I I I I I I I I U H M M M M M M M M M M t t   ; @ @ @ @ @ @ @ @ @ @ ",
"@ @ @ = -             % t t M M M M M M M M M M Q I I I I I I I I I I I I I I Q M M M M M M M M M M t t $ @ @ @ @ @ @ @ @ @ @ @ ",
"@ @ @ @ = -         , @ t t M M M M M M M M M M E I I I I I I I I I I I I I I E M M M M M M M M M M t t @ @ @ @ @ @ @ @ @ @ @ @ ",
"@ @ @ @ @ = -       : @ t t M M ! ~ ~ ~ ~ ^ ^ ^ ^ ^ ^ ^ ^ ^ ^ ^ ^ ^ ^ ^ ^ ^ ^ ^ ^ ^ ^ / ~ ~ ~ ! M M t t @ @ @ @ @ @ @ @ @ @ @ @ ",
"@ @ @ @ @ @ = -     ; @ t t ( ( ( ( ( ( ( ( ( ( ( ( ( ( ( ( ( ( ( ( ( ( ( ( ( ( ( ( ( ( ( ( ( ( ( ( t t @ @ @ @ @ @ @ @ @ @ @ @ ",
"@ @ @ @ @ @ @ c     - @ t t ( ( ( ( ( ( ( ( ( ( ( ( ( ( ( ( ( ( ( ( ( ( ( ( ( ( ( ( ( ( ( ( ( ( ( ( t t @ @ @ @ @ @ @ @ @ @ @ @ ",
"@ @ @ @ @ @ @ @ :     , t t ( ( ( ( ( ( ( ( ( ( ( ( ( ( ( ( ( ( ( ( ( ( ( ( ( ( ( ( ( ( ( ( ( ( ( ( t t @ @ @ @ @ @ @ @ @ @ @ @ ",
"@ @ @ @ @ @ @ @ @ +     t t ) ( ( ( ( ( ( ( ( ( ( ( ( ( ( ( ( ( ( ( ( ( ( ( ( ( ( ( ( ( ( ( ( ( ( ) t t @ @ @ @ @ @ @ @ @ @ @ @ ",
"@ @ @ @ @ @ @ @ @ $     _ t ` ( ( ( ( ( ( ( ( ( ( ( ( ( ( ( ( ( ( ( ( ( ( ( ( ( ( ( ( ( ( ( ( ( ( ` t ' @ @ @ @ @ @ @ @ @ @ @ @ ",
"@ @ @ @ @ @ @ @ @ :     9 t t t t t ] [ [ [ [ [ [ [ [ [ [ [ [ [ [ [ [ [ [ [ [ [ [ [ [ [ [ [ { t t t t } i @ @ @ @ @ @ @ @ @ @ @ ",
"@ @ @ @ @ @ @ @ @ ;   r t t t t t | [ [ [ [ [ [ [ [ [ [ [ [ [ [ [ [ [ [ [ [ [ [ [ [ [ [ [ [ ] t t t t t z @ @ @ @ @ @ @ @ @ @ @ ",
"@ @ @ @ @ @ @ @ @ 1 r t  ...X.t o.O.[ [ [ +.@.@.+.[ [ [ [ [ [ [ [ [ [ [ [ [ [ +.@.@.#.[ [ [ [ $.t X... .t y @ @ @ @ @ @ @ @ @ @ ",
"@ @ @ @ @ @ @ @ % %.t &.*.=.=.-.+.[ [ [ [ @.t t @.[ [ [ [ [ [ [ [ [ [ [ [ [ [ @.t t @.[ [ [ [ [ o.=.=.*.&.t u @ @ @ @ @ @ @ @ @ ",
"@ @ @ @ @ @ @ = - _ t X.=.=.=.O.[ [ [ [ [ t t t t [ [ [ [ [ [ [ [ [ [ [ [ [ [ t t t t [ [ [ [ [ O.=.=.=.X.t ' @ @ @ @ @ @ @ @ @ ",
"@ @ @ @ @ @ @ >   t t =.=.=.=.[ [ [ [ [ [ t t t t [ [ [ [ [ [ [ [ [ [ [ [ [ [ t t t t [ [ [ [ [ [ =.=.=.=.t t @ @ @ @ @ @ @ @ @ ",
"@ @ @ @ @ @ 1     t t =.=.=.=.[ [ [ [ [ [ o.t t o.[ [ [ [ [ ;.:.:.>.,.[ [ [ [ o.t t o.[ [ [ [ [ ,.=.=.=.=.t t @ @ @ @ @ @ @ @ @ ",
"@ @ @ @ @ ,       <.t X.=.=.=.1.[ [ [ [ [ +.2.2.+.[ [ [ [ 3.=.=.=.=.;.[ [ [ [ +.2.t #.[ [ [ [ [ 4.=.=.=.X.t z @ @ @ @ @ @ @ @ @ ",
"@ @ @ @ $         9 t &.*.=.=.4.[ [ [ [ [ [ [ [ [ [ [ ] 5.=.=.=.=.=.=.5.+.[ [ [ [ [ [ [ [ [ [ [ 4.=.=.*.&.t 4 @ @ @ @ @ @ @ @ @ ",
"@ @ @ ,             _ t 6.X.=.3.[ [ [ [ [ [ [ [ [ [ 7.t t 8.=.=.=.=...t t 7.[ [ [ [ [ [ [ [ [ [ 9.=.X.6.t 0.@ @ @ @ @ @ @ @ @ @ ",
"@ @ 1               q.w.t t t $.[ [ [ [ [ [ [ [ [ #.t t t t t t t t t t t t e.[ [ [ [ [ [ [ [ [ $.t t t r.t.% @ @ @ @ @ @ @ @ @ ",
"= >               $ @ i 4 ' t @.[ [ [ [ [ [ [ [ [ -.t t t t t t t t t t t t 2.[ [ [ [ [ [ [ [ [ $.t <.y.      ; @ @ @ @ @ @ @ @ ",
"-               # @ @ @ @ i t o.[ [ [ [ [ [ [ [ [ 2.t t t t t t t t t t t t 2.[ [ [ [ [ [ [ [ [ -.t u.. O       $ @ @ @ @ @ @ = ",
"              + @ @ @ @ V 5 t t +.[ [ [ [ [ [ [ [ ] $.@.t t t t t t t t @.$.] [ [ [ [ [ [ [ [ +.t t i.B p O       - : @ @ = #   ",
"            - = @ @ @ 2 p.t a.s.d.f.[ [ [ [ [ [ [ [ [ [ [ [ [ [ [ [ [ [ [ [ [ [ [ [ [ [ [ [ f.g.s.a.t h.j.o O                   ",
"            : @ @ @ @ z t a.( ( k.l.z.z.z.z.z.z.x.c.c.c.c.c.c.c.c.c.c.c.c.c.c.x.z.z.z.z.z.z.v.( ( ( a.t s X o O                 ",
"          , @ @ @ @ b.t n.m.( ( M.N.N.N.N.N.N.N.M.B.( ( ( ( ( ( ( ( ( ( ( ( B.M.N.N.N.N.N.k.( ( ( ( m.n.t V.X o O               ",
"          = @ @ @ @ 5 t s.( ( C.N.N.N.N.N.N.N.N.N.M.Z.( ( ( ( ( ( ( ( ( ( Z.M.N.N.N.N.A.S.D.c.c.( ( ( s.t D X X o O             ",
"        , @ @ @ @ @ t t m.( F.G.N.N.N.N.N.N.N.N.N.N.N.H.J.B.( ( ( ( B.J.H.N.N.N.N.N.K.L.[ [ [ [ P.F.( m.t t X X X o             ",
"        # @ @ @ @ @ t t ( F.[ I.N.N.N.N.N.N.N.N.N.N.N.N.N.N.N.N.N.N.N.N.N.N.N.N.N.N.f.[ [ [ [ [ [ [ F.( t t X X X X %           ",
"        1 @ @ @ @ @ ' t m.U.[ I.N.N.N.N.N.N.N.N.N.N.N.N.N.N.N.N.N.N.N.N.N.N.N.N.N.N.[ [ [ [ [ [ [ [ U.m.t Y.X X X X *           ",
"          % @ @ @ @ w.t T.[ [ I.N.N.N.N.N.N.N.N.N.N.N.N.R.E.W.W.W.W.E.R.N.N.N.N.N.N.[ [ [ [ [ [ [ [ [ T.t i.X X X X X           ",
"            % @ @ @ 4 t $.[ [ I.N.N.N.N.N.N.N.N.N.N.N.E.Q.Q.Q.Q.Q.Q.Q.Q.E.N.N.N.N.N.!.[ [ [ [ [ [ [ [ $.t ~.X X X X p           ",
"              % @ @ b.t ^.[ [ I.N.N.N.N.N.N.N.N.N.N./.Q.Q.Q.Q.Q.Q.Q.Q.Q.Q./.N.N.N.N.(.[ [ [ [ [ [ [ [ ^.t V.X X X X <           ",
"                ; @ 3 t o.[ [ ).N.N._.`.'.'.'.'.].[.{.Q.Q.Q.Q.Q.Q.Q.Q.Q.Q.{.R.N.N.N.}.|.[ [ [ [ [ [ [ o.t  XX X X %       & < O ",
"q                 > .Xt t ] [ !.N.XXoXoXoXoXoXoXoXoXOXQ.Q.Q.Q.Q.Q.Q.Q.Q.Q.Q.+XN.N.N.N.@X[ [ [ [ [ [ ] t t B X X .       R X X X ",
"X R                 - #Xt @.O.[ $X%XoXoXoXoXoXoXoXoXoX&X*X=X=X=X=X=X=X*X-XQ.Q.;XN.N.N.N.:X[ [ [ [ O.@.t Z X X R       v X X X X ",
"X X v                 >X,Xt @.7.<XoXoXoXoXoXoXoXoXoXoX1Xt t t t t t t t 2XOXQ.3XN.N.N.N.N.4X5X6X7.@.t h.B X v       v X X X X X ",
"X X X v                 7X<.t t oXoXoXoXoXoXoXoXoXoXoXoX8Xt b.3 3 9Xt 8XoXoXoXoXoXoXoXoXoXoXoXoXt t s j.X %       v X X X X X X ",
"X X X X .                 t.t t oXoXoXoXoXoXoXoXoXoXoXoX8Xt 3 @ @ 3 t 8XoXoXoXoXoXoXoXoXoXoXoXoXt t w X q       . X X X X X X X ",
"X X X X p                   0Xt qXoXoXoXoXoXoXoXoXoXoXwXeXt V @ @ 2 t t rXoXoXoXoXoXoXoXoXoXoXtXt 5 % O         p X X X X X X X ",
"X X X X p                   %.t t yXqXuXiXoXoXoX1XpXtXt t } @ @ @ @ y t t aXpXuXoXoXoXoXiXqXyXt t y.            p X X X X X X X ",
"X X X X .                     sX0Xt t t t t t t t t t t b.@ @ @ @ @ @ 4 t t t t t t t t t t t 0Xy.              . X X X X X X X ",
"X X X v                           %.dXp.t t t t t 5 b.i @ @ @ @ @ @ @ @ @ u fX7 t t t t t r.%.                    v X X X X X X ",
"X X v                               = @ @ @ @ @ @ @ @ @ @ @ @ @ @ @ @ @ @ @ @ +                     $ @ @ @ : -     v X X X X X ",
"X %                               : @ @ @ @ @ @ @ @ @ @ @ @ @ @ @ @ @ @ @ @ @ =                   $ @ @ @ @ @ %       R X X X X ",
"q                               , @ @ @ @ @ @ @ @ @ @ @ @ @ @ @ @ @ @ @ @ @ @ @ ;               : @ @ @ @ @ @ @ c -     q X X X ",
"          < v p p . &           c @ @ @ @ @ @ @ @ @ @ @ @ @ @ @ @ @ @ @ @ @ @ @ @ -           % @ @ @ @ @ @ @ @ @ = -     O < O ",
"        T G X X X X * O       + @ @ @ @ @ @ @ @ @ @ @ @ @ @ @ @ @ @ @ @ @ @ @ @ @ #         ; @ @ @ @ @ @ @ @ @ @ @ =           "
};
