/* XPM */
static char *result[] = {
/* columns rows colors chars-per-pixel */
"64 64 174 2 ",
"   c #333333",
".  c #3B3633",
"X  c #443B35",
"o  c #4C3B35",
"O  c #5B4537",
"+  c #544236",
"@  c #694C39",
"#  c #66543D",
"$  c #6B513E",
"%  c #60583E",
"&  c #5C5E40",
"*  c #6C5544",
"=  c #6C5B4D",
"-  c #6C5C46",
";  c #735541",
":  c #7C5542",
">  c #765944",
",  c #795E4B",
"<  c #6E5E50",
"1  c #576C46",
"2  c #487E4D",
"3  c #54744A",
"4  c #56794D",
"5  c #6E6358",
"6  c #70675C",
"7  c #71695E",
"8  c #77654B",
"9  c #6F6C63",
"0  c #726C63",
"q  c #73736C",
"w  c #727067",
"e  c #757974",
"r  c #737D7A",
"t  c #7A7F7A",
"y  c #803B34",
"u  c #9B4737",
"i  c #83513F",
"p  c #AD4536",
"a  c #BD4D3D",
"s  c #CD4335",
"d  c #C64335",
"f  c #D34536",
"g  c #DA4738",
"h  c #DD4B3B",
"j  c #DE533F",
"k  c #E74D3C",
"l  c #E84F3F",
"z  c #E1513E",
"x  c #E8503F",
"c  c #845140",
"v  c #84664E",
"b  c #86684F",
"n  c #9F774A",
"m  c #8C6E55",
"M  c #836857",
"N  c #8E7157",
"B  c #95785D",
"V  c #906E56",
"C  c #827866",
"Z  c #CF5C42",
"A  c #D65841",
"S  c #E45543",
"D  c #E85443",
"F  c #E95946",
"G  c #C46445",
"H  c #E0654D",
"J  c #E36752",
"K  c #ED7159",
"L  c #389757",
"P  c #2CAA5F",
"I  c #30A45C",
"U  c #28B162",
"Y  c #2BBE69",
"T  c #2ABB67",
"R  c #36B968",
"E  c #4F8451",
"W  c #449B5C",
"Q  c #53995E",
"!  c #42A15E",
"~  c #75817E",
"^  c #78817E",
"/  c #52A363",
"(  c #51B465",
")  c #5AB66D",
"_  c #49AE69",
"`  c #67A460",
"'  c #65B966",
"]  c #74B463",
"[  c #70B173",
"{  c #39C46D",
"}  c #32C36D",
"|  c #2ECC71",
" . c #39CB71",
".. c #55C96F",
"X. c #4CCF7A",
"o. c #45CE78",
"O. c #CA820E",
"+. c #D0850F",
"@. c #D6890F",
"#. c #D88B0F",
"$. c #DD8E10",
"%. c #E59311",
"&. c #E99611",
"*. c #EE9911",
"=. c #F39C12",
"-. c #F39F1A",
";. c #F3A01D",
":. c #F3A224",
">. c #F3A429",
",. c #F3AC3E",
"<. c #9A8269",
"1. c #A18466",
"2. c #AF9171",
"3. c #B49976",
"4. c #B79977",
"5. c #90B173",
"6. c #84B564",
"7. c #AFB764",
"8. c #B5B966",
"9. c #BCA37B",
"0. c #F3AD43",
"q. c #F3B04B",
"w. c #F3B353",
"e. c #F3B75E",
"r. c #D4AD62",
"t. c #D4A763",
"y. c #D6B965",
"u. c #D6BD68",
"i. c #C3A77C",
"p. c #D5B172",
"a. c #DCB370",
"s. c #E3BA66",
"d. c #EDB461",
"f. c #F2B963",
"g. c #F0B763",
"h. c #8BC46C",
"j. c #90C46C",
"k. c #798481",
"l. c #758C8E",
"z. c #7B8C8C",
"x. c #778786",
"c. c #778E90",
"v. c #788F92",
"b. c #7B9295",
"n. c #7D9598",
"m. c #7F989B",
"M. c #7F908B",
"N. c #62D181",
"B. c #7DD389",
"V. c #9A9E8B",
"C. c #829A9D",
"Z. c #879793",
"A. c #919B90",
"S. c #B1A286",
"D. c #849EA1",
"F. c #D0B28C",
"G. c #D7BD93",
"H. c #D9BC93",
"J. c #C6A884",
"K. c #90D58F",
"L. c #92C585",
"P. c #B7D699",
"I. c #E2C49A",
"U. c #E5CB9E",
"Y. c #EDC09A",
"T. c #C7DBA0",
"R. c #DADCA6",
"E. c #EBCDA2",
"W. c #F4D2A6",
"Q. c #F5D6A9",
"!. c #FBDCAD",
"~. c #FBD3A5",
"^. c #FDDEB0",
"/. c #FFE0B1",
/* pixels */
"l.l.l.n.D.D.D.D.D.D.D.C.l.l.l.c.n.n.n.n.n.n.n.n.n.n.n.n.m.m.m.n.n.n.m.n.n.n.n.n.n.c.l.l.l.n.n.n.n.n.n.n.n.n.n.n.n.n.n.v.l.l.l.l.",
"l.c.C.D.D.D.D.D.D.D.D.D.C.c.l.l.n.n.n.n.n.n.n.n.n.n.n.n.V.9.u.p.p.p.9.V.n.n.n.n.n.l.l.l.c.n.n.n.n.n.n.n.n.n.n.n.n.n.n.n.v.c.l.l.",
"l.C.D.D.D.D.D.D.D.D.D.D.D.m.l.l.v.n.n.n.n.n.n.n.n.A.S.p.e.w.w.w.w.w.w.g.p.S.A.n.n.l.l.l.n.n.n.n.n.n.n.n.n.n.n.n.n.n.n.n.n.c.l.l.",
"m.D.D.D.D.D.D.D.D.D.D.D.D.D.n.l.l.n.n.n.n.n.n.n.A.a.d.0.>.;.-.-.-.-.;.>.0.g.a.A.c.l.l.c.n.n.n.n.n.n.n.n.n.n.n.n.n.n.n.n.n.v.l.l.",
"D.D.D.D.D.D.D.D.D.D.D.D.D.D.D.v.l.l.b.n.n.m.m.Z.9.e.,.;.=.=.=.=.=.=.=.=.;.,.d.9.z.l.l.c.n.n.n.n.n.n.n.n.n.n.n.n.n.n.n.n.n.n.l.C.",
"D.D.D.D.D.D.D.D.D.D.D.D.D.D.D.C.l.l.c.x.r w C r.e.:.=.=.=.*.&.%.&.&.*.=.=.=.:.e.t.C 0 e ^ n.n.n.n.n.n.n.n.n.n.n.n.n.n.n.n.c.v.D.",
"D.D.D.D.D.D.D.D.D.D.D.D.D.D.D.C.e 5 = @ @ @ n d.0.=.=.=.&.$.+.+.+.+.$.&.=.=.=.0.d.n @ @ @ = 6 e v.n.n.n.n.n.n.n.n.n.n.n.n.l.C.D.",
"D.D.D.D.D.D.D.D.D.D.D.D.D.D.k.* @ @ @ % 1 E r.q.:.=.=.%.+.O.O.O.O.O.O.O.%.=.;.;.0.r.2 1 1 @ @ @ * t n.n.n.n.n.n.n.n.n.n.l.c.n.D.",
"D.D.D.D.D.D.D.D.D.D.D.D.D.~ @ @ % E L P U ' f.>.=.=.&.O.O.O.+.$.$.+.O.O.+.&.=.=.:.e.' U P L 2 % @ @ e n.n.n.n.n.n.n.n.l.l.l.c.D.",
"D.D.D.D.D.D.D.D.D.D.D.D.Z.@ @ 2 P U U U P 7.q.;.=.*.#.O.O.O.$.=.*.%.O.O.O.$.*.=.;.w.8.U U U U P 2 @ @ l.n.n.n.n.n.n.c.l.l.l.l.C.",
"C.D.D.D.D.D.D.D.D.D.D.D.7 @ 3 U U U U U U s.0.=.=.&.+.O.O.O.%.=.*.%.O.O.O.+.&.=.;.q.s.U U U U U P 3 @ 6 n.n.n.n.b.c.l.l.l.l.l.l.",
"v.D.D.D.D.D.D.D.D.D.D.D.5 @ I U U U U U U e.0.;.=.%.O.O.O.O.%.=.*.%.O.O.O.O.%.=.=.0.f.U U U U U U I @ < n.n.n.n.l.l.l.l.l.l.l.l.",
"l.n.D.D.D.D.D.D.D.D.D.D.@ @ P U U U U U T f.q.=.=.%.O.O.+.O.%.=.=.%.O.O.O.O.%.=.=.q.f.U U U U U U U @ @ n.n.v.l.c.c.v.v.v.n.c.c.",
"l.l.b.D.D.D.D.D.D.D.D.C.@ @ U U U U U U U u.q.=.=.&.+.O.+.G %.=.=.%.O.O.O.O.%.=.;.q.s.U U U U U U U @ @ c.c.c.c.v.n.n.n.n.n.n.n.",
"n.l.l.n.D.D.D.D.D.D.m.c.@ @ U U U U U U U 7.w.-.=.*.#.O.O.O.$.=.=.%.O.O.O.#.%.=.;.w.7.U U U U U U U @ @ l.l.c.v.n.n.n.n.n.n.n.n.",
"n.n.l.l.n.C.D.D.D.m.l.l.@ @ U U U U U U U ] e.;.=.=.%.O.O.O.@.&.&.#.O.O.O.%.=.=.;.e.] U U U U U U U @ @ l.c.v.n.n.n.n.n.n.n.n.n.",
"n.n.n.l.l.l.v.v.l.l.l.l.@ @ U U U U U U U U y.0.;.=.=.$.+.O.O.O.O.O.O.+.$.=.=.;.0.y.U U P U U U U U @ @ c.v.n.n.n.n.n.n.n.n.n.n.",
"n.n.n.n.l.l.l.l.l.l.l.n.@ @ U U U U U U U U 6.f.,.;.=.=.&.#.O.O.O.O.@.&.=.=.=.,.g.6.U U U U U U U U @ @ b.n.n.n.n.n.n.n.n.n.n.n.",
"n.n.n.n.n.l.l.l.l.l.c.n.@ @ U U U U U U U U ( y.e.;.=.=.=.*.%.%.%.%.&.;.=.=.:.e.y.( U U U U U U U U @ @ n.n.n.n.n.n.n.n.n.n.n.n.",
"n.n.n.n.n.n.l.l.l.l.b.n.@ @ U U U U T U T T } ' 8.e.0.;.=.=.=.=.=.=.=.=.;.,.e.8.' Y Y Y U T T U U U @ @ n.n.n.n.n.n.n.n.n.n.n.n.",
"n.n.n.n.n.n.n.l.l.l.b.n.@ @ | | | | | | | | | | ..u.e.,.:.;.=.=.=.;.;.;.0.g.u...| | | | | | | | | | @ @ b.b.n.n.n.n.n.n.n.n.n.n.",
"n.n.n.n.n.n.n.n.l.l.l.n.@ @ | | | | | | | | | | | ..h.y.e.w.q.q.0.0.q.e.s.j...| | | | | | | | | | | @ @ n.b.n.n.n.n.n.n.n.n.n.b.",
"n.n.n.n.n.n.n.n.b.l.l.c.@ @ | | | | | | | | | | | | | o.j.u.f.f.f.f.u.j. .| | | | | | | | | | | | | @ @ n.n.n.n.n.n.n.n.n.n.n.n.",
"n.n.n.n.n.n.n.n.n.c.l.l.@ @ R | | | | | | | | | | | | | | | | | | | | | | | | | | | | | | | | | | R @ @ n.n.n.n.n.n.n.n.n.n.n.n.",
"n.n.n.n.n.n.n.n.n.v.c.l.= @ 3 | | | | | | | | | | | | | | | | | | | | | | | | | | | | | | | | | | 3 @ * n.n.n.n.n.n.n.n.n.n.n.n.",
"n.n.n.n.n.n.n.n.n.v.c.x.7 @ @ @ @ 1./.^././././././././././././././././././././././././././.1.@ @ @ @ 0 v.n.n.n.n.n.n.b.n.n.n.n.",
"n.n.n.n.n.z.q q k.n.l.* @ @ @ @ @ E./././././.^././././././././././././././././././././././.E.@ @ @ @ @ * C.b.^ q q l.C.n.n.n.n.",
"n.n.n.n.k.* > M , @ ; @ N 4.4.@ 3././././.G.N N I././././././././././././././.U.N N H././././.3.@ 4.4.V @ ; * , M > * ^ n.n.n.n.",
"n.n.n.~ $ S.Y.W.!.V ; @ b H.G.v ^././././.N @ @ N /./././././././././././././.N @ @ N /././././.M H.H.v * : V !.~.Y.S.* t n.n.n.",
"n.n.n.- <.E././.^.^.E.> ; 1.H.Q./././././.@ @ @ @ /./././././././././././././.@ @ @ @ /././././.Q.H.1.; > E.^.^.^.^.E.B * n.n.n.",
"n.n.z.> I./././.^././.^.v @ H.^./././././.@ @ @ @ /./././././././././././././.@ @ @ @ /././././.^.H.@ v ^.^././././.^.I.> z.n.n.",
"n.c.< B Q.^././.^.^./././.v J.!./././././.b @ @ b /./././.!.U.I.I.U.!././././.b @ @ v /././.^.^.^.i.v /././././././.^.!.B < v.n.",
"n.z.= B W./././././././.^.I.> W././././.^.G.$ $ I././././.U.G.G.G.G.E.^./././.I.$ $ H./././././.W.$ U./././././././.^.W.B - l.n.",
"n.b.9 @ F./././././././.^.!., Q./././././././././././.I.9.G.G.G.G.G.G.9.I./././././.^./././././.Q.> /./././././././.^.F.@ 9 n.n.",
"n.n.9 $ m I./././././././.L.- Q././././././././././.F.@ @ 3.G.G.G.G.3.@ @ F././././././././././.Q.- L./././././././.I.N $ 0 n.n.",
"n.n.c.6 > 2.U./././././.K.) Q E./././././././././.J.@ @ @ @ @ @ @ @ @ @ @ @ J./././././././././.E.Q ) K./.^././.^.U.2.> 7 n.n.n.",
"n.c.l.x.5 8 [ P.T.R.R.B.X.R / E./././././././././.$ @ @ @ @ @ @ @ @ @ @ @ @ ; /././././././././.E./ { X.B.R.R.T.P.[ 8 7 b.n.n.n.",
"l.l.l.l.r = 3  .X.X.o.| | ( / W./././././././././.* @ @ @ @ @ @ @ @ @ @ @ @ $ /./././././././.^.E./ ( | | o.X.X. .3 < k.b.n.n.n.",
"l.l.l.l.l.9 @ 4 } } | | | _ / U.^.^./././././././.E.4.N @ @ @ @ @ @ @ @ N 3.E./././././././.^.^.E./ ! | | | { } 3 $ w v.n.n.v.l.",
"l.l.l.l.l.~ $ @ 1 E ! ! W E 4 W.^.!./././././././.^.^.^././././././././././././././././././.!.^.~.E E Q ! ! E 1 @ $ ~ l.l.l.l.l.",
"l.l.l.l.l.l.k.9 = $ # # # c j H x z F K K K K K 5.N.N.N.N.N.N.N.N.N.N.N.X.N.N.5.J K K K K F z S H j i # # $ $ = 9 r l.l.l.l.l.l.",
"l.l.l.l.l.c.n.b.v.w 7 = * h k k j z z k k k k k Z } | | | | | | | | | | | | o.j k k k k k j k j k k j # < 7 e C.l.l.l.l.l.l.l.l.",
"l.l.l.l.l.n.n.n.n.n.n.n.i k k k z z z z z k k k k j _ | | | | | | | | | | ( j k k k k j z z x x k k k i D.D.D.D.C.l.l.l.l.l.l.l.",
"l.l.l.l.c.n.n.n.n.n.n.n.i x j k z x x k F x k k k k k Z ` { | | | | { ` G k k k k k D F k k k k k j k i D.D.D.D.D.C.l.l.l.l.l.l.",
"l.l.l.l.v.n.n.n.n.n.n.n.i k z k x k x k k k k k k k k k k k k k k k k k k k k k k k k k k l k x k k k $ D.D.D.D.D.D.b.l.l.l.l.l.",
"l.l.l.l.c.n.n.n.n.n.n.n.i k j k k k k k k k k k k k k k k k k k k k k k k k k k k k l l k k k k k j k i C.D.D.D.D.D.C.l.l.l.l.l.",
"l.l.l.l.l.b.n.n.n.n.n.Z.i k x x k k k k F x k k k k k k k g f f f f g k k k k k k k k D k k l k k x k i C.D.D.D.D.D.D.l.l.l.l.l.",
"l.l.l.l.l.l.n.n.n.n.n.b.i k x x x x k k F x k k k k k g s s s s s s s s g k k k k k D D k k k D k D k i D.D.D.D.D.D.m.l.l.l.l.l.",
"l.l.l.l.l.l.l.n.n.n.n.n.: h k k x k x k k x k k k k g s s s s s s s s s s g k k k k x l x x k z l k h : D.D.D.D.D.D.b.l.l.l.l.l.",
"l.l.l.l.l.l.l.l.v.n.n.n.# k k k D D k x k x k k k k s s s s s s s s s f s s k k k k x k k k D D k k k $ D.D.D.D.C.n.l.l.l.l.v.l.",
"b.l.l.l.l.l.l.l.l.v.n.n.* a k k x D x k k k k k k f s s s s s s s s g f s s f k k k k k x x x x l k a * D.D.D.D.n.l.l.l.m.D.C.D.",
"D.n.l.l.l.l.l.l.l.l.l.n.b.* h k k k x F k k k k g s s d p u u u u u y p d s s g k k k k F x z k k h $ C.D.D.D.n.l.l.l.m.D.D.D.D.",
"D.D.n.l.l.l.l.l.l.l.l.l.c.* @ k k J k k k k k k g s y o @ @ @ @ @ @ @ @ o y s f k k k k k k J k k $ - D.D.D.n.l.l.l.m.D.D.D.D.D.",
"D.D.D.n.l.l.l.l.l.l.l.l.l.l.= .                         O @ q k.t 0 @ O                         . = C.D.C.n.l.l.l.m.C.D.D.D.D.D.",
"D.D.D.D.n.l.l.l.l.l.l.l.l.x.@ @                         O @ t n.n.k.@ O                         @ @ C.C.n.l.l.l.n.D.D.D.D.D.D.D.",
"D.D.D.D.m.l.l.l.l.l.l.l.l.l.= @ +                     . @ @ x.n.n.x.@ @ X                     + @ = n.l.l.l.l.l.m.D.D.D.D.D.D.D.",
"D.D.D.D.m.l.l.l.l.l.l.l.l.l.r @ @ O o           X X O @ @ 6 n.n.n.n.6 @ @ O o .         . o O @ @ ~ l.l.l.l.l.l.m.D.D.D.D.D.D.D.",
"D.D.D.D.n.l.l.l.l.l.l.l.l.l.l.r * @ @ @ @ @ @ @ @ @ @ @ w n.n.n.n.n.n.w @ @ @ @ @ @ @ @ @ @ @ $ r l.l.l.l.l.l.l.n.D.D.D.D.D.D.D.",
"D.D.D.n.l.l.l.l.l.l.l.l.l.l.l.l.l.q < @ @ @ @ @ < < e n.n.n.n.n.n.n.n.n.n.e = = @ @ @ # @ 5 q l.l.l.l.l.l.l.l.l.l.m.D.D.D.D.D.D.",
"D.D.n.l.l.l.l.l.l.l.l.l.l.l.l.l.l.c.n.n.n.n.n.n.n.n.n.n.n.n.n.n.n.n.n.n.n.n.n.v.l.l.l.l.l.l.l.l.l.l.v.n.n.n.b.c.l.l.n.D.D.D.D.D.",
"D.n.l.l.l.l.l.l.l.l.l.l.l.l.l.l.c.b.n.n.n.n.n.n.n.n.n.n.n.n.n.n.n.n.n.n.n.n.n.n.l.l.l.l.l.l.l.l.l.v.n.n.n.n.n.v.l.l.l.n.D.D.D.D.",
"b.l.l.l.l.l.l.l.l.l.l.l.l.l.l.l.c.n.n.n.n.n.n.n.n.n.n.n.n.n.n.n.n.n.n.n.n.n.n.n.v.l.l.l.l.l.l.l.v.n.n.n.n.n.n.n.n.l.l.l.b.D.D.D.",
"l.l.l.l.c.v.n.m.m.n.c.l.l.l.l.l.b.n.n.n.n.n.n.b.n.n.n.n.n.n.n.n.n.n.n.n.n.n.n.n.n.l.l.l.l.l.l.n.n.n.n.n.n.n.n.n.n.n.c.l.l.l.v.l.",
"l.l.l.l.v.D.D.D.D.D.m.l.l.l.l.l.n.n.n.n.n.n.n.n.n.n.n.n.n.n.n.n.n.n.n.n.n.n.n.n.n.v.l.l.l.l.b.n.n.n.n.n.n.n.n.n.n.n.n.l.l.l.l.l."
};
