/* XPM */
static char *result[] = {
/* columns rows colors chars-per-pixel */
"64 64 227 2 ",
"   c #758C8E",
".  c #7C9597",
"X  c #849EA1",
"o  c #819A9D",
"O  c #758D8F",
"+  c #778E90",
"@  c #7D9598",
"#  c #799093",
"$  c #7A9194",
"%  c #7B9396",
"&  c #768E90",
"*  c #829B9E",
"=  c #7C9497",
"-  c #768D8F",
";  c #7A9294",
":  c #7B9295",
">  c #778E91",
",  c #788F92",
"<  c #789092",
"1  c #788F91",
"2  c #798886",
"3  c #788381",
"4  c #737168",
"5  c #6D5E50",
"6  c #6D5E4F",
"7  c #6B5C4E",
"8  c #6E685E",
"9  c #6F6C63",
"0  c #717874",
"q  c #7A9295",
"w  c #82999B",
"e  c #747873",
"r  c #6D6358",
"t  c #694C39",
"y  c #70675C",
"u  c #767974",
"i  c #7C9092",
"p  c #80999C",
"a  c #7B8480",
"s  c #6C5545",
"d  c #60583E",
"f  c #586543",
"g  c #487E4D",
"h  c #3C9155",
"j  c #389757",
"k  c #546B45",
"l  c #5C5E40",
"z  c #6B5444",
"x  c #767E7A",
"c  c #7C9396",
"v  c #7E9799",
"b  c #7A7F7A",
"n  c #64523B",
"m  c #4C784A",
"M  c #30A45C",
"N  c #28B162",
"B  c #2CAA5F",
"V  c #819494",
"C  c #507148",
"Z  c #7B8C8D",
"A  c #7F989B",
"S  c #736A60",
"D  c #778F91",
"F  c #6F6152",
"G  c #6B513F",
"H  c #839C9F",
"J  c #35B56B",
"K  c #78CE9C",
"L  c #BBE6CD",
"P  c #C9EBD7",
"I  c #E4F5EB",
"U  c white",
"Y  c #D6F0E1",
"T  c #50BF7F",
"R  c #799193",
"E  c #7D9698",
"W  c #F1FAF5",
"Q  c #42BA75",
"!  c #AEE1C4",
"~  c #29B664",
"^  c #29B765",
"/  c #2BBE69",
"(  c #2ABB67",
")  c #2ECC71",
"_  c #35BC6A",
"`  c #6B5749",
"'  c #56744A",
"]  c #6D594B",
"[  c #ECCDA2",
"{  c #FFE0B1",
"}  c #A18366",
"|  c #726C63",
" . c #AA8C6D",
".. c #8B6F55",
"X. c #B49976",
"o. c #BBA07C",
"O. c #85674F",
"+. c #F5D6A9",
"@. c #E2C49A",
"#. c #8E7157",
"$. c #D9BB93",
"%. c #B49675",
"&. c #71746E",
"*. c #7D6149",
"=. c #D0B58D",
"-. c #D7BD93",
";. c #7B5E48",
":. c #E8CCA0",
">. c #E1C59A",
",. c #E6CA9E",
"<. c #FCDDAF",
"1. c #6A5343",
"2. c #FADBAD",
"3. c #725540",
"4. c #F0D2A5",
"5. c #F5D7A9",
"6. c #BD9F7C",
"7. c #765A44",
"8. c #D0B18B",
"9. c #A68B6B",
"0. c #F2D5A7",
"q. c #6C594B",
"w. c #798D8E",
"e. c #6F6357",
"r. c #C6A884",
"t. c #6D6054",
"y. c #748889",
"u. c #727C79",
"i. c #777C77",
"p. c #71665A",
"a. c #6A513F",
"s. c #5A6C47",
"d. c #449C5C",
"f. c #5C955C",
"g. c #FCCDA2",
"h. c #829F68",
"j. c #6B5140",
"k. c #7F8F8D",
"l. c #A38557",
"z. c #ED7159",
"x. c #90B173",
"c. c #62D181",
"v. c #E85543",
"b. c #A17C4F",
"n. c #73756E",
"m. c #65543C",
"M. c #31C46D",
"N. c #8A8C56",
"B. c #E74C3C",
"V. c #CF5C42",
"C. c #39C46D",
"Z. c #45BC6A",
"A. c #777A73",
"S. c #48CE79",
"D. c #739C5D",
"F. c #DB543F",
"G. c #50B467",
"H. c #6FD285",
"J. c #F1DEAD",
"K. c #EECC9E",
"L. c #EB6751",
"P. c #C46445",
"I. c #67A460",
"U. c #E48B6B",
"Y. c #E4DDA9",
"T. c #6E5B4D",
"R. c #81AA73",
"E. c #E34A3B",
"W. c #DA4738",
"Q. c #D34536",
"!. c #FAC49B",
"~. c #CD4335",
"^. c #76756D",
"/. c #977A5E",
"(. c #F49F7D",
"). c #DD4839",
"_. c #EE7A60",
"`. c #FDD6A9",
"'. c #EA5E4A",
"]. c #CE4335",
"[. c #C24639",
"{. c #763C36",
"}. c #603935",
"|. c #813D36",
" X c #D0483A",
".X c #F39676",
"XX c #7D8A87",
"oX c #7A8B8C",
"OX c #D14436",
"+X c #803B34",
"@X c gray20",
"#X c #BA4539",
"$X c #6F665B",
"%X c #F6A885",
"&X c #DE4939",
"*X c #C64335",
"=X c #AD4536",
"-X c #9B4737",
";X c #8D3D34",
":X c #3E3433",
">X c #CB6C57",
",X c #748484",
"<X c #6A503F",
"1X c #CFB691",
"2X c #D7B692",
"3X c #F18C6F",
"4X c #D64637",
"5X c #493633",
"6X c #363433",
"7X c #695F52",
"8X c #72807E",
"9X c #5B4537",
"0X c #71726A",
"qX c #6A503E",
"wX c #4E3F36",
"eX c #433A34",
"rX c #654A38",
"tX c #3D3734",
"yX c #544236",
"uX c #5E4737",
"iX c #403934",
"pX c #393633",
"aX c #473C35",
"sX c #584437",
"dX c #717873",
"fX c #6D6459",
"gX c #6C5D4E",
/* pixels */
"      . X X X X X X X o O     + @ @ @ @ @ @ @ @ @ @ @ @ @ @ @ @ @ @ @ @ @ @ @ @ @ #       $ @ @ @ @ @ @ @ @ @ @ @ @ @ %         ",
"  & o X X X X X X X X X * O     = @ @ @ @ @ @ @ @ @ @ @ @ @ @ @ @ @ @ @ @ @ @ @ @ -     # @ @ @ @ @ @ @ @ @ @ @ @ @ @ @ ;       ",
"O o X X X X X X X X X X X o     # @ @ @ @ @ @ @ @ @ @ @ @ @ @ @ @ @ @ @ @ @ @ @ :     - = @ @ @ @ @ @ @ @ @ @ @ @ @ @ @ @ >     ",
"o X X X X X X X X X X X X X .     = @ @ @ @ @ @ @ @ @ @ @ @ @ @ @ @ @ @ @ @ @ @ +     , @ @ @ @ @ @ @ @ @ @ @ @ @ @ @ @ @ ;     ",
"X X X X X X X X X X X X X X X <   + @ @ @ @ @ @ @ @ @ @ @ @ @ @ @ @ @ @ @ @ @ $       # @ @ @ @ @ @ @ @ @ @ @ @ @ @ @ @ @ :   o ",
"X X X X X X X X X X X X X X X *     1 2 3 4 4 4 5 5 5 5 5 5 5 5 5 5 5 5 5 5 6 7 8 9 9 0 3 @ @ @ @ @ @ @ @ @ @ @ @ @ @ @ @ 1 q X ",
"X X X X X X X X X X X X X X X w e r 7 t t t t t t t t t t t t t t t t t t t t t t t t t t 5 y u i @ @ @ @ @ @ @ @ @ @ @ %   p X ",
"X X X X X X X X X X X X X X a s t t t d f g g g h j j j j j j j j j j j j j j j g g g k l t t t z x @ @ @ @ @ @ @ @ @ c -   v X ",
"X X X X X X X X X X X X X b t t n m h M N N N N N N N N N N N N N N N N N N N N N N N N B j g d t t u @ @ @ @ @ @ @ = -     < X ",
"X X X X X X X X X X X X V t t C B N N N N N N N N N N N N N N N N N N N N N N N N N N N N N N B g t t Z @ @ @ @ @ = >         A ",
"* X X X X X X X X X X X S t C N N N N N N N N N N N N N N N N N N N N N N N N N N N N N N N N N N C t y @ @ @ @ = +           O ",
"D X X X X X X X X X X X F t M N N N N N N N N N N N N N N N N N N N N N N N N N N N N N N N N N N M t 5 @ @ @ = -               ",
"  q X X X X X X X X X X G t N N N N N N N N N N N N N N N N N N N N N N N N N N N N N N N N N N N N t t @ @ % -   - $ : : : ,   ",
"    % X X X X X X X X H t t N N N N N N N N N N N N N J K L P P P P L K N N N N N N N N N N N N N N t t + -     # @ @ @ @ @ @ = ",
"c -   v X X X X X X * & t t N N N N N N N N N N N N K I U U U U U U U U Y T N N N N N N N N N N N N t t       R @ @ @ @ @ @ @ @ ",
"@ = -   E H X X X v O   t t N N N N N N N N N N N T W U U U U U U U U U U I T N N N N N N N N N N N t t     $ @ @ @ @ @ @ @ @ @ ",
"@ @ = >   O < <         t t N N N N N N N N N N Q W U U U U U U U U U U U U Y J N N N N N N N N N N t t   ; @ @ @ @ @ @ @ @ @ @ ",
"@ @ @ = -             % t t N N N N N N N N N N ! U U U U U U U U U U U U U U ! N N N N N N N N N N t t $ @ @ @ @ @ @ @ @ @ @ @ ",
"@ @ @ @ = -         , @ t t N N N N N N N N N N W U U U U U U U U U U U U U U W N N N N N N N N N N t t @ @ @ @ @ @ @ @ @ @ @ @ ",
"@ @ @ @ @ = -       : @ t t N N ~ ^ ^ ^ ^ / / / / / / / / / / / / / / / / / / / / / / ( ^ ^ ^ ~ N N t t @ @ @ @ @ @ @ @ @ @ @ @ ",
"@ @ @ @ @ @ = -     ; @ t t ) ) ) ) ) ) ) ) ) ) ) ) ) ) ) ) ) ) ) ) ) ) ) ) ) ) ) ) ) ) ) ) ) ) ) ) t t @ @ @ @ @ @ @ @ @ @ @ @ ",
"@ @ @ @ @ @ @ c     - @ t t ) ) ) ) ) ) ) ) ) ) ) ) ) ) ) ) ) ) ) ) ) ) ) ) ) ) ) ) ) ) ) ) ) ) ) ) t t @ @ @ @ @ @ @ @ @ @ @ @ ",
"@ @ @ @ @ @ @ @ :     , t t ) ) ) ) ) ) ) ) ) ) ) ) ) ) ) ) ) ) ) ) ) ) ) ) ) ) ) ) ) ) ) ) ) ) ) ) t t @ @ @ @ @ @ @ @ @ @ @ @ ",
"@ @ @ @ @ @ @ @ @ +     t t _ ) ) ) ) ) ) ) ) ) ) ) ) ) ) ) ) ) ) ) ) ) ) ) ) ) ) ) ) ) ) ) ) ) ) _ t t @ @ @ @ @ @ @ @ @ @ @ @ ",
"@ @ @ @ @ @ @ @ @ $     ` t ' ) ) ) ) ) ) ) ) ) ) ) ) ) ) ) ) ) ) ) ) ) ) ) ) ) ) ) ) ) ) ) ) ) ) ' t ] @ @ @ @ @ @ @ @ @ @ @ @ ",
"@ @ @ @ @ @ @ @ @ :     9 t t t t t [ { { { { { { { { { { { { { { { { { { { { { { { { { { { } t t t t | i @ @ @ @ @ @ @ @ @ @ @ ",
"@ @ @ @ @ @ @ @ @ ;   r t t t t t  .{ { { { { { { { { { { { { { { { { { { { { { { { { { { { [ t t t t t z @ @ @ @ @ @ @ @ @ @ @ ",
"@ @ @ @ @ @ @ @ @ 1 r t ..X.o.t O.+.{ { { @.#.#.@.{ { { { { { { { { { { { { { @.#.#.$.{ { { { %.t o.X...t y @ @ @ @ @ @ @ @ @ @ ",
"@ @ @ @ @ @ @ @ % &.t *.=.-.-.;.@.{ { { { #.t t #.{ { { { { { { { { { { { { { #.t t #.{ { { { { O.-.-.=.*.t u @ @ @ @ @ @ @ @ @ ",
"@ @ @ @ @ @ @ = - ` t o.-.-.-.+.{ { { { { t t t t { { { { { { { { { { { { { { t t t t { { { { { +.-.-.-.o.t ] @ @ @ @ @ @ @ @ @ ",
"@ @ @ @ @ @ @ >   t t -.-.-.-.{ { { { { { t t t t { { { { { { { { { { { { { { t t t t { { { { { { -.-.-.-.t t @ @ @ @ @ @ @ @ @ ",
"@ @ @ @ @ @ 1     t t -.-.-.-.{ { { { { { O.t t O.{ { { { { :.>.>.,.<.{ { { { O.t t O.{ { { { { <.-.-.-.-.t t @ @ @ @ @ @ @ @ @ ",
"@ @ @ @ @ ,       1.t o.-.-.-.2.{ { { { { @.3.3.@.{ { { { 4.-.-.-.-.:.{ { { { @.3.t $.{ { { { { 5.-.-.-.o.t z @ @ @ @ @ @ @ @ @ ",
"@ @ @ @ $         9 t *.=.-.-.5.{ { { { { { { { { { { [ 6.-.-.-.-.-.-.6.@.{ { { { { { { { { { { 5.-.-.=.*.t 4 @ @ @ @ @ @ @ @ @ ",
"@ @ @ ,             ` t 7.o.-.4.{ { { { { { { { { { 8.t t 9.-.-.-.-.X.t t 8.{ { { { { { { { { { 0.-.o.7.t q.@ @ @ @ @ @ @ @ @ @ ",
"@ @ 1               w.e.t t t %.{ { { { { { { { { $.t t t t t t t t t t t t r.{ { { { { { { { { %.t t t t.y.% @ @ @ @ @ @ @ @ @ ",
"= >               $ @ i 4 ] t #.{ { { { { { { { { ;.t t t t t t t t t t t t 3.{ { { { { { { { { %.t 1.u.      ; @ @ @ @ @ @ @ @ ",
"-               # @ @ @ @ i t O.{ { { { { { { { { 3.t t t t t t t t t t t t 3.{ { { { { { { { { ;.t i.. O       $ @ @ @ @ @ @ = ",
"              + @ @ @ @ Z 5 t t @.{ { { { { { { { [ %.#.t t t t t t t t #.%.[ { { { { { { { { @.t t p.V p O       - : @ @ = #   ",
"            - = @ @ @ 2 a.t s.d.f.g.{ { { { { { { { { { { { { { { { { { { { { { { { { { { { g.h.d.s.t j.k.o O                   ",
"            : @ @ @ @ z t s.) ) ) l.z.z.z.z.z.z.x.c.c.c.c.c.c.c.c.c.c.c.c.c.c.x.z.z.z.z.z.z.v.b.) ) s.t s X o O                 ",
"          , @ @ @ @ n.t m.M.) ) ) ) N.B.B.B.B.B.V.C.) ) ) ) ) ) ) ) ) ) ) ) C.V.B.B.B.B.B.B.B.B.Z.) M.m.t A.X o O               ",
"          = @ @ @ @ 5 t d.) ) ) c.c.S.D.F.B.B.B.B.V.G.) ) ) ) ) ) ) ) ) ) G.V.B.B.B.B.B.B.B.B.B.D.) ) d.t F X X o O             ",
"        , @ @ @ @ @ t t M.) H.J.{ { { { K.L.B.B.B.B.B.P.I.C.) ) ) ) C.I.P.B.B.B.B.B.B.B.B.B.B.B.U.H.) M.t t X X X o             ",
"        # @ @ @ @ @ t t ) H.{ { { { { { { g.B.B.B.B.B.B.B.B.B.B.B.B.B.B.B.B.B.B.B.B.B.B.B.B.B.B.z.{ H.) t t X X X X %           ",
"        1 @ @ @ @ @ ] t M.Y.{ { { { { { { { B.B.B.B.B.B.B.B.B.B.B.B.B.B.B.B.B.B.B.B.B.B.B.B.B.B.z.{ Y.M.t T.X X X X *           ",
"          % @ @ @ @ e.t R.{ { { { { { { { { B.B.B.B.B.B.E.W.Q.Q.Q.Q.W.E.B.B.B.B.B.B.B.B.B.B.B.B.z.{ { R.t p.X X X X X           ",
"            % @ @ @ 4 t %.{ { { { { { { { !.B.B.B.B.B.W.~.~.~.~.~.~.~.~.W.B.B.B.B.B.B.B.B.B.B.B.z.{ { %.t ^.X X X X p           ",
"              % @ @ n.t /.{ { { { { { { { (.B.B.B.B.).~.~.~.~.~.~.~.~.~.~.).B.B.B.B.B.B.B.B.B.B._.{ { /.t A.X X X X <           ",
"                ; @ 3 t O.{ { { { { { { `.'.B.B.B.E.].~.~.~.~.~.~.~.~.~.~.].[.{.}.}.}.}.|. XB.B..X{ { O.t XXX X X %       & < O ",
"q                 > oXt t [ { { { { { { _.B.B.B.B.OX~.~.~.~.~.~.~.~.~.~.~.+X@X@X@X@X@X@X@X@X#XB.g.{ [ t t V X X .       E X X X ",
"X E                 - $Xt #.+.{ { { { %XB.B.B.B.&X~.~.*X=X-X-X-X-X-X-X=X;X@X@X@X@X@X@X@X@X@X:X>X{ +.#.t S X X E       v X X X X ",
"X X v                 ,X<Xt #.8.1X2X3XB.B.B.B.B.4X~.+X5Xt t t t t t t t 6X@X@X@X@X@X@X@X@X@X@X7X8.#.t j.V X v       v X X X X X ",
"X X X v                 8X1.t t @X@X@X@X@X@X@X@X@X@X@X@X9Xt n.3 3 0Xt 9X@X@X@X@X@X@X@X@X@X@X@X@Xt t s k.X %       v X X X X X X ",
"X X X X .                 y.t t @X@X@X@X@X@X@X@X@X@X@X@X9Xt 3 @ @ 3 t 9X@X@X@X@X@X@X@X@X@X@X@X@Xt t w X q       . X X X X X X X ",
"X X X X p                   qXt wX@X@X@X@X@X@X@X@X@X@XeXrXt Z @ @ 2 t t tX@X@X@X@X@X@X@X@X@X@XyXt 5 % O         p X X X X X X X ",
"X X X X p                   &.t t uXwXiXpX@X@X@X6XaXyXt t | @ @ @ @ y t t sXaXiX@X@X@X@XpXwXuXt t u.            p X X X X X X X ",
"X X X X .                     dXqXt t t t t t t t t t t n.@ @ @ @ @ @ 4 t t t t t t t t t t t qXu.              . X X X X X X X ",
"X X X v                           &.fXa.t t t t t 5 n.i @ @ @ @ @ @ @ @ @ u gX7 t t t t t t.&.                    v X X X X X X ",
"X X v                               = @ @ @ @ @ @ @ @ @ @ @ @ @ @ @ @ @ @ @ @ +                     $ @ @ @ : -     v X X X X X ",
"X %                               : @ @ @ @ @ @ @ @ @ @ @ @ @ @ @ @ @ @ @ @ @ =                   $ @ @ @ @ @ %       E X X X X ",
"q                               , @ @ @ @ @ @ @ @ @ @ @ @ @ @ @ @ @ @ @ @ @ @ @ ;               : @ @ @ @ @ @ @ c -     q X X X ",
"          < v p p . &           c @ @ @ @ @ @ @ @ @ @ @ @ @ @ @ @ @ @ @ @ @ @ @ @ -           % @ @ @ @ @ @ @ @ @ = -     O < O ",
"        R H X X X X * O       + @ @ @ @ @ @ @ @ @ @ @ @ @ @ @ @ @ @ @ @ @ @ @ @ @ #         ; @ @ @ @ @ @ @ @ @ @ @ =           "
};
