/* XPM */
static char *result[] = {
/* columns rows colors chars-per-pixel */
"64 64 211 2 ",
"   c #758C8E",
".  c #7C9597",
"X  c #849EA1",
"o  c #819A9D",
"O  c #758D8F",
"+  c #778E90",
"@  c #7D9598",
"#  c #799093",
"$  c #7A9194",
"%  c #7B9396",
"&  c #768E90",
"*  c #829B9E",
"=  c #7C9497",
"-  c #768D8F",
";  c #7A9294",
":  c #7B9295",
">  c #778E91",
",  c #788F92",
"<  c #789092",
"1  c #788F91",
"2  c #798886",
"3  c #788381",
"4  c #737168",
"5  c #6D5E50",
"6  c #6D5E4F",
"7  c #6B5C4E",
"8  c #6E685E",
"9  c #6F6C63",
"0  c #717874",
"q  c #7A9295",
"w  c #82999B",
"e  c #747873",
"r  c #6D6358",
"t  c #694C39",
"y  c #70675C",
"u  c #767974",
"i  c #7C9092",
"p  c #80999C",
"a  c #7B8480",
"s  c #6C5545",
"d  c #60583E",
"f  c #586543",
"g  c #487E4D",
"h  c #3C9155",
"j  c #389757",
"k  c #546B45",
"l  c #5C5E40",
"z  c #6B5444",
"x  c #767E7A",
"c  c #7C9396",
"v  c #7E9799",
"b  c #7A7F7A",
"n  c #4C784A",
"m  c #30A45C",
"M  c #28B162",
"N  c #2CAA5F",
"B  c #819494",
"V  c #7B8C8D",
"C  c #7F989B",
"Z  c #736A60",
"A  c #507148",
"S  c #778F91",
"D  c #6F6152",
"F  c #6B513F",
"G  c #839C9F",
"H  c #799193",
"J  c #7D9698",
"K  c #408B52",
"L  c #24A65B",
"P  c #46794A",
"I  c #64513B",
"U  c #5C5C3F",
"Y  c #60573D",
"T  c #2C9A56",
"R  c #6B5749",
"E  c #536843",
"W  c #6D594B",
"Q  c #726C63",
"!  c #8B6F55",
"~  c #B49976",
"^  c #BBA07C",
"/  c #71746E",
"(  c #7D6149",
")  c #D0B58D",
"_  c #D7BD93",
"`  c #765A44",
"'  c #6A5343",
"]  c #84684F",
"[  c #F2D5A7",
"{  c #E2C49A",
"}  c #D9BB93",
"|  c #B49675",
" . c #8E7157",
".. c #85674F",
"X. c #F5D7A9",
"o. c #EBCEA2",
"O. c #FFE0B1",
"+. c #D0B18B",
"@. c #AA8C6D",
"#. c #7B5E48",
"$. c #725540",
"%. c #A18366",
"&. c #C6A884",
"*. c #F5D6A9",
"=. c #F0D2A5",
"-. c #6C594B",
";. c #798D8E",
":. c #6F6357",
">. c #6D6054",
",. c #748889",
"<. c #727C79",
"1. c #777C77",
"2. c #71665A",
"3. c #6A513F",
"4. c #5A6C47",
"5. c #449C5C",
"6. c #5C955C",
"7. c #FCCDA2",
"8. c #77A76B",
"9. c #6B5140",
"0. c #7F8F8D",
"q. c #2ECC71",
"w. c #8A8C56",
"e. c #E85543",
"r. c #ED7159",
"t. c #90B173",
"y. c #62D181",
"u. c #A38557",
"i. c #73756E",
"p. c #65543C",
"a. c #31C46D",
"s. c #CF5C42",
"d. c #E74C3C",
"f. c #39C46D",
"g. c #777A73",
"h. c #45BC6A",
"j. c #50B467",
"k. c #DB543F",
"l. c #739C5D",
"z. c #48CE79",
"x. c #6FD285",
"c. c #E8A781",
"v. c #C46445",
"b. c #67A460",
"n. c #EB6751",
"m. c #EECC9E",
"M. c #F1DEAD",
"N. c #F39676",
"B. c #E4DDA9",
"V. c #6E5B4D",
"C. c #81AA73",
"Z. c #DD4839",
"A. c #D34536",
"S. c #DA4738",
"D. c #CD4335",
"F. c #F5C299",
"G. c #76756D",
"H. c #977A5E",
"J. c #D04435",
"K. c #E99B7A",
"L. c #F7B18C",
"P. c #DB4A3B",
"I. c #803D36",
"U. c #593733",
"Y. c #6C3933",
"T. c #BD4438",
"R. c #D35644",
"E. c #FBD6A9",
"W. c #7D8A87",
"Q. c #7A8B8C",
"!. c #ECCDA2",
"~. c #FAC49B",
"^. c #BA4539",
"/. c gray20",
"(. c #8D3F37",
"). c #E0493A",
"_. c #D84638",
"`. c #EC7960",
"'. c #6F665B",
"]. c #CC755E",
"[. c #3E3433",
"{. c #9B4238",
"}. c #BF4C3B",
"|. c #A84C3A",
" X c #DF4C3B",
".X c #F6A885",
"XX c #748484",
"oX c #6A503F",
"OX c #695F52",
"+X c #363433",
"@X c #4C3734",
"#X c #F18C6F",
"$X c #D7B692",
"%X c #CFB691",
"&X c #72807E",
"*X c #5B4537",
"=X c #71726A",
"-X c #6A503E",
";X c #4E3F36",
":X c #433A34",
">X c #654A38",
",X c #3D3734",
"<X c #544236",
"1X c #5E4737",
"2X c #403934",
"3X c #393633",
"4X c #473C35",
"5X c #584437",
"6X c #717873",
"7X c #6D6459",
"8X c #6C5D4E",
/* pixels */
"      . X X X X X X X o O     + @ @ @ @ @ @ @ @ @ @ @ @ @ @ @ @ @ @ @ @ @ @ @ @ @ #       $ @ @ @ @ @ @ @ @ @ @ @ @ @ %         ",
"  & o X X X X X X X X X * O     = @ @ @ @ @ @ @ @ @ @ @ @ @ @ @ @ @ @ @ @ @ @ @ @ -     # @ @ @ @ @ @ @ @ @ @ @ @ @ @ @ ;       ",
"O o X X X X X X X X X X X o     # @ @ @ @ @ @ @ @ @ @ @ @ @ @ @ @ @ @ @ @ @ @ @ :     - = @ @ @ @ @ @ @ @ @ @ @ @ @ @ @ @ >     ",
"o X X X X X X X X X X X X X .     = @ @ @ @ @ @ @ @ @ @ @ @ @ @ @ @ @ @ @ @ @ @ +     , @ @ @ @ @ @ @ @ @ @ @ @ @ @ @ @ @ ;     ",
"X X X X X X X X X X X X X X X <   + @ @ @ @ @ @ @ @ @ @ @ @ @ @ @ @ @ @ @ @ @ $       # @ @ @ @ @ @ @ @ @ @ @ @ @ @ @ @ @ :   o ",
"X X X X X X X X X X X X X X X *     1 2 3 4 4 4 5 5 5 5 5 5 5 5 5 5 5 5 5 5 6 7 8 9 9 0 3 @ @ @ @ @ @ @ @ @ @ @ @ @ @ @ @ 1 q X ",
"X X X X X X X X X X X X X X X w e r 7 t t t t t t t t t t t t t t t t t t t t t t t t t t 5 y u i @ @ @ @ @ @ @ @ @ @ @ %   p X ",
"X X X X X X X X X X X X X X a s t t t d f g g g h j j j j j j j j j j j j j j j g g g k l t t t z x @ @ @ @ @ @ @ @ @ c -   v X ",
"X X X X X X X X X X X X X b t t d n h m M M M M M M M M M M M M M M M M M M M M M M M M N j g d t t u @ @ @ @ @ @ @ = -     < X ",
"X X X X X X X X X X X X B t t n N M M M M M M M M M M M M M M M M M M M M M M M M M M M M M M N g t t V @ @ @ @ @ = >         C ",
"* X X X X X X X X X X X Z t A M M M M M M M M M M M M M M M M M M M M M M M M M M M M M M M M M M A t y @ @ @ @ = +           O ",
"S X X X X X X X X X X X D t m M M M M M M M M M M M M M M M M M M M M M M M M M M M M M M M M M M m t 5 @ @ @ = -               ",
"  q X X X X X X X X X X F t M M M M M M M M M M M M M M M M M M M M M M M M M M M M M M M M M M M M t t @ @ % -   - $ : : : ,   ",
"    % X X X X X X X X G t t M M M M M M M M M M M M M M M M M M M M M M M M M M M M M M M M M M M M t t + -     # @ @ @ @ @ @ = ",
"c -   v X X X X X X * & t t M M M M M M M M M M M M M M M M M M M M M M M M M M M M M M M M M M M M t t       H @ @ @ @ @ @ @ @ ",
"@ = -   J G X X X v O   t t M M M M M M M M M M M M M M M M M M M M M M M M M M M M M M M M M M M M t t     $ @ @ @ @ @ @ @ @ @ ",
"@ @ = >   O < <         t t M M M M M M M M M M M M M M M M M M M M M M M M M M M M M M M M M M M M t t   ; @ @ @ @ @ @ @ @ @ @ ",
"@ @ @ = -             % t t M M M M M M M M M M M M M M M M M M M M M M M M M M M M M M M M M M M M t t $ @ @ @ @ @ @ @ @ @ @ @ ",
"@ @ @ @ = -         , @ t t M M M M M M M M M M M M M M N K f f f f K N M M M M M M M M M M M M M M t t @ @ @ @ @ @ @ @ @ @ @ @ ",
"@ @ @ @ @ = -       : @ t t M M M M M M M M M M M M M M k t t t t t t k M M M M M M M M M M M M M M t t @ @ @ @ @ @ @ @ @ @ @ @ ",
"@ @ @ @ @ @ = -     ; @ t t L L L L L L L L L L L L L P t t t t t t t t P L L L L L L L L L L L L L t t @ @ @ @ @ @ @ @ @ @ @ @ ",
"@ @ @ @ @ @ @ c     - @ t t L L L L L L L L L L L L L I t t t t t t t t I L L L L L L L L L L L L L t t @ @ @ @ @ @ @ @ @ @ @ @ ",
"@ @ @ @ @ @ @ @ :     , t t L L L L L L L L L L L L L U t t t t t t t t Y L L L L L L L L L L L L L t t @ @ @ @ @ @ @ @ @ @ @ @ ",
"@ @ @ @ @ @ @ @ @ +     t t T L L L L L L L L L L L L L L L L L L L L L L L L L L L L L L L L L L T t t @ @ @ @ @ @ @ @ @ @ @ @ ",
"@ @ @ @ @ @ @ @ @ $     R t E L L L L L L L L L L L L L L L L L L L L L L L L L L L L L L L L L L E t W @ @ @ @ @ @ @ @ @ @ @ @ ",
"@ @ @ @ @ @ @ @ @ :     9 t t t t t t t t t t t t t t t t t t t t t t t t t t t t t t t t t t t t t t Q i @ @ @ @ @ @ @ @ @ @ @ ",
"@ @ @ @ @ @ @ @ @ ;   r t t t t t t t t t t t t t t t t t t t t t t t t t t t t t t t t t t t t t t t t z @ @ @ @ @ @ @ @ @ @ @ ",
"@ @ @ @ @ @ @ @ @ 1 r t ! ~ ^ t t t t t t t t t t t t t t t t t t t t t t t t t t t t t t t t t t ^ ~ ! t y @ @ @ @ @ @ @ @ @ @ ",
"@ @ @ @ @ @ @ @ % / t ( ) _ _ t t t t t t t t t t t t t t t t t t t t t t t t t t t t t t t t t t _ _ ) ( t u @ @ @ @ @ @ @ @ @ ",
"@ @ @ @ @ @ @ = - R t ^ _ _ _ t t t t t t t t t t t t t t t t t t t t t t t t t t t t t t t t t t _ _ _ ^ t W @ @ @ @ @ @ @ @ @ ",
"@ @ @ @ @ @ @ >   t t _ _ _ _ t t t t t t t t t t t t t t t t t t t t t t t t t t t t t t t t t t _ _ _ _ t t @ @ @ @ @ @ @ @ @ ",
"@ @ @ @ @ @ 1     t t _ _ _ _ ( t t t t t t t t t t t t t t t t t t t t t t t t t t t t t t t t ` _ _ _ _ t t @ @ @ @ @ @ @ @ @ ",
"@ @ @ @ @ ,       ' t ^ _ _ _ ] t t t t t t t t t t t t t t t t t t t t t t t t t t t t t t t t ] _ _ _ ^ t z @ @ @ @ @ @ @ @ @ ",
"@ @ @ @ $         9 t ( ) _ _ [ { } |  .t t t t t t t t t t t t t t t t t t t t t t t t ..| } { X._ _ ) ( t 4 @ @ @ @ @ @ @ @ @ ",
"@ @ @ ,             R t ` ^ _ o.O.O.O.O.O.} +.@. . .#.t t t t t t t t t t $. . .%.&.} *.O.O.O.O.=._ ^ ` t -.@ @ @ @ @ @ @ @ @ @ ",
"@ @ 1               ;.:.t t t @.O.O.O.O.O.O.O.O.O.O.O.O.O.O.O.O.O.O.O.O.O.O.O.O.O.O.O.O.O.O.O.O.| t t t >.,.% @ @ @ @ @ @ @ @ @ ",
"= >               $ @ i 4 W t  .O.O.O.O.O.O.O.O.O.O.O.O.O.O.O.O.O.O.O.O.O.O.O.O.O.O.O.O.O.O.O.O.| t ' <.      ; @ @ @ @ @ @ @ @ ",
"-               # @ @ @ @ i t ..O.O.O.O.O.O.O.O.O.O.O.O.O.O.O.O.O.O.O.O.O.O.O.O.O.O.O.O.O.O.O.O.#.t 1.. O       $ @ @ @ @ @ @ = ",
"              + @ @ @ @ V 5 t t { O.O.O.O.O.O.O.O.O.O.O.O.O.O.O.O.O.O.O.O.O.O.O.O.O.O.O.O.O.O.{ t t 2.B p O       - : @ @ = #   ",
"            - = @ @ @ 2 3.t 4.5.6.7.O.O.O.O.O.O.O.O.O.O.O.O.O.O.O.O.O.O.O.O.O.O.O.O.O.O.O.O.7.8.5.4.t 9.0.o O                   ",
"            : @ @ @ @ z t 4.q.q.w.e.r.r.r.r.r.r.t.y.y.y.y.y.y.y.y.y.y.y.y.y.y.t.r.r.r.r.r.r.u.q.q.q.4.t s X o O                 ",
"          , @ @ @ @ i.t p.a.q.q.s.d.d.d.d.d.d.d.s.f.q.q.q.q.q.q.q.q.q.q.q.q.f.s.d.d.d.d.d.w.q.q.q.q.a.p.t g.X o O               ",
"          = @ @ @ @ 5 t 5.q.q.h.d.d.d.d.d.d.d.d.d.s.j.q.q.q.q.q.q.q.q.q.q.j.s.d.d.d.d.k.l.z.y.y.q.q.q.5.t D X X o O             ",
"        , @ @ @ @ @ t t a.q.x.c.d.d.d.d.d.d.d.d.d.d.d.v.b.f.q.q.q.q.f.b.v.d.d.d.d.d.n.m.O.O.O.O.M.x.q.a.t t X X X o             ",
"        # @ @ @ @ @ t t q.x.O.N.d.d.d.d.d.d.d.d.d.d.d.d.d.d.d.d.d.d.d.d.d.d.d.d.d.d.7.O.O.O.O.O.O.O.x.q.t t X X X X %           ",
"        1 @ @ @ @ @ W t a.B.O.N.d.d.d.d.d.d.d.d.d.d.d.d.d.d.d.d.d.d.d.d.d.d.d.d.d.d.O.O.O.O.O.O.O.O.B.a.t V.X X X X *           ",
"          % @ @ @ @ :.t C.O.O.N.d.d.d.Z.A.A.A.A.A.A.d.d.d.d.d.d.d.d.d.d.d.d.A.A.A.A.O.O.O.O.O.O.O.O.O.C.t 2.X X X X X           ",
"            % @ @ @ 4 t | O.O.N.d.d.d.S.D.D.D.D.D.D.d.d.d.d.d.d.d.d.d.d.d.d.D.D.D.D.F.O.O.O.O.O.O.O.O.| t G.X X X X p           ",
"              % @ @ i.t H.O.O.N.d.d.d.Z.D.D.D.D.D.J.d.d.d.d.d.d.d.d.d.d.d.d.J.D.D.D.K.O.O.O.O.O.O.O.O.H.t g.X X X X <           ",
"                ; @ 3 t ..O.O.L.d.d.P.I.U.U.U.U.Y.T.d.d.d.d.d.d.d.d.d.d.d.d.Z.D.D.D.R.E.O.O.O.O.O.O.O...t W.X X X %       & < O ",
"q                 > Q.t t !.O.~.d.^././././././././.(.d.d.d.d.d.d.d.d.d.d.d.d.).A.A._.`.O.O.O.O.O.O.!.t t B X X .       J X X X ",
"X J                 - '.t  .*.O.].[./././././././././.{.}.|.|.|.|.|.|.}. Xd.d.d.d.d.d.d..XO.O.O.O.*. .t Z X X J       v X X X X ",
"X X v                 XXoXt  .+.OX/./././././././././.+Xt t t t t t t t @X(.d.d.d.d.d.d.d.#X$X%X+. .t 9.B X v       v X X X X X ",
"X X X v                 &X' t t /./././././././././././.*Xt i.3 3 =Xt *X/./././././././././././.t t s 0.X %       v X X X X X X ",
"X X X X .                 ,.t t /./././././././././././.*Xt 3 @ @ 3 t *X/./././././././././././.t t w X q       . X X X X X X X ",
"X X X X p                   -Xt ;X/./././././././././.:X>Xt V @ @ 2 t t ,X/./././././././././.<Xt 5 % O         p X X X X X X X ",
"X X X X p                   / t t 1X;X2X3X/././.+X4X<Xt t Q @ @ @ @ y t t 5X4X2X/./././.3X;X1Xt t <.            p X X X X X X X ",
"X X X X .                     6X-Xt t t t t t t t t t t i.@ @ @ @ @ @ 4 t t t t t t t t t t t -X<.              . X X X X X X X ",
"X X X v                           / 7X3.t t t t t 5 i.i @ @ @ @ @ @ @ @ @ u 8X7 t t t t t >./                     v X X X X X X ",
"X X v                               = @ @ @ @ @ @ @ @ @ @ @ @ @ @ @ @ @ @ @ @ +                     $ @ @ @ : -     v X X X X X ",
"X %                               : @ @ @ @ @ @ @ @ @ @ @ @ @ @ @ @ @ @ @ @ @ =                   $ @ @ @ @ @ %       J X X X X ",
"q                               , @ @ @ @ @ @ @ @ @ @ @ @ @ @ @ @ @ @ @ @ @ @ @ ;               : @ @ @ @ @ @ @ c -     q X X X ",
"          < v p p . &           c @ @ @ @ @ @ @ @ @ @ @ @ @ @ @ @ @ @ @ @ @ @ @ @ -           % @ @ @ @ @ @ @ @ @ = -     O < O ",
"        H G X X X X * O       + @ @ @ @ @ @ @ @ @ @ @ @ @ @ @ @ @ @ @ @ @ @ @ @ @ #         ; @ @ @ @ @ @ @ @ @ @ @ =           "
};
