/* XPM */
static char *result[] = {
/* columns rows colors chars-per-pixel */
"64 64 197 2 ",
"   c #758C8E",
".  c #7C9597",
"X  c #849EA1",
"o  c #819A9D",
"O  c #758D8F",
"+  c #778E90",
"@  c #7D9598",
"#  c #799093",
"$  c #7A9194",
"%  c #7B9396",
"&  c #768E90",
"*  c #829B9E",
"=  c #7C9497",
"-  c #768D8F",
";  c #7A9294",
":  c #7B9295",
">  c #778E91",
",  c #788F92",
"<  c #789092",
"1  c #788F91",
"2  c #798886",
"3  c #788381",
"4  c #737168",
"5  c #6D5E50",
"6  c #6D5E4F",
"7  c #6B5C4E",
"8  c #6E685E",
"9  c #6F6C63",
"0  c #717874",
"q  c #7A9295",
"w  c #82999B",
"e  c #747873",
"r  c #6D6358",
"t  c #694C39",
"y  c #70675C",
"u  c #767974",
"i  c #7C9092",
"p  c #80999C",
"a  c #7B8480",
"s  c #6C5545",
"d  c #60583E",
"f  c #586543",
"g  c #487E4D",
"h  c #3C9155",
"j  c #389757",
"k  c #546B45",
"l  c #5C5E40",
"z  c #6B5444",
"x  c #767E7A",
"c  c #7C9396",
"v  c #7E9799",
"b  c #7A7F7A",
"n  c #64523B",
"m  c #4C784A",
"M  c #30A45C",
"N  c #28B162",
"B  c #2CAA5F",
"V  c #819494",
"C  c #507148",
"Z  c #7B8C8D",
"A  c #7F989B",
"S  c #736A60",
"D  c #778F91",
"F  c #6F6152",
"G  c #6B513F",
"H  c #839C9F",
"J  c #799193",
"K  c #7D9698",
"L  c #408B52",
"P  c #24A65B",
"I  c #46794A",
"U  c #64513B",
"Y  c #5C5C3F",
"T  c #60573D",
"R  c #2C9A56",
"E  c #6B5749",
"W  c #536843",
"Q  c #6D594B",
"!  c #726C63",
"~  c #8B6F55",
"^  c #B49976",
"/  c #BBA07C",
"(  c #71746E",
")  c #7D6149",
"_  c #D0B58D",
"`  c #D7BD93",
"'  c #765A44",
"]  c #6A5343",
"[  c #84684F",
"{  c #F2D5A7",
"}  c #E2C49A",
"|  c #D9BB93",
" . c #B49675",
".. c #8E7157",
"X. c #85674F",
"o. c #F5D7A9",
"O. c #EBCEA2",
"+. c #FFE0B1",
"@. c #D0B18B",
"#. c #AA8C6D",
"$. c #7B5E48",
"%. c #725540",
"&. c #A18366",
"*. c #C6A884",
"=. c #F5D6A9",
"-. c #F0D2A5",
";. c #6C594B",
":. c #798D8E",
">. c #6F6357",
",. c #6D6054",
"<. c #748889",
"1. c #727C79",
"2. c #777C77",
"3. c #71665A",
"4. c #6A513F",
"5. c #5A6C47",
"6. c #449C5C",
"7. c #5C955C",
"8. c #FCCDA2",
"9. c #829F68",
"0. c #6B5140",
"q. c #7F8F8D",
"w. c #2ECC71",
"e. c #8A8C56",
"r. c #E85543",
"t. c #ED7159",
"y. c #90B173",
"u. c #62D181",
"i. c #A17C4F",
"p. c #73756E",
"a. c #65543C",
"s. c #31C46D",
"d. c #CF5C42",
"f. c #E74C3C",
"g. c #39C46D",
"h. c #45BC6A",
"j. c #777A73",
"k. c #50B467",
"l. c #739C5D",
"z. c #6FD285",
"x. c #E8A781",
"c. c #C46445",
"v. c #67A460",
"b. c #E48B6B",
"n. c #F39676",
"m. c #E4DDA9",
"M. c #6E5B4D",
"N. c #81AA73",
"B. c #DD4839",
"V. c #D34536",
"C. c #DA4738",
"Z. c #CD4335",
"A. c #76756D",
"S. c #977A5E",
"D. c #D04435",
"F. c #EE7A60",
"G. c #F7B18C",
"H. c #E54B3B",
"J. c #D14436",
"K. c #7D8A87",
"L. c #7A8B8C",
"P. c #ECCDA2",
"I. c #FAC49B",
"U. c #D84638",
"Y. c #E0493A",
"T. c #6F665B",
"R. c #E37860",
"E. c #DF4C3B",
"W. c #BF4C3B",
"Q. c #A84C3A",
"!. c #748484",
"~. c #6A503F",
"^. c #695F52",
"/. c #AE4439",
"(. c #8D3F37",
"). c #4C3734",
"_. c #BA4539",
"`. c #746153",
"'. c #72807E",
"]. c gray20",
"[. c #5B4537",
"{. c #71726A",
"}. c #6A503E",
"|. c #4E3F36",
" X c #433A34",
".X c #654A38",
"XX c #3D3734",
"oX c #544236",
"OX c #5E4737",
"+X c #403934",
"@X c #393633",
"#X c #363433",
"$X c #473C35",
"%X c #584437",
"&X c #717873",
"*X c #6D6459",
"=X c #6C5D4E",
/* pixels */
"      . X X X X X X X o O     + @ @ @ @ @ @ @ @ @ @ @ @ @ @ @ @ @ @ @ @ @ @ @ @ @ #       $ @ @ @ @ @ @ @ @ @ @ @ @ @ %         ",
"  & o X X X X X X X X X * O     = @ @ @ @ @ @ @ @ @ @ @ @ @ @ @ @ @ @ @ @ @ @ @ @ -     # @ @ @ @ @ @ @ @ @ @ @ @ @ @ @ ;       ",
"O o X X X X X X X X X X X o     # @ @ @ @ @ @ @ @ @ @ @ @ @ @ @ @ @ @ @ @ @ @ @ :     - = @ @ @ @ @ @ @ @ @ @ @ @ @ @ @ @ >     ",
"o X X X X X X X X X X X X X .     = @ @ @ @ @ @ @ @ @ @ @ @ @ @ @ @ @ @ @ @ @ @ +     , @ @ @ @ @ @ @ @ @ @ @ @ @ @ @ @ @ ;     ",
"X X X X X X X X X X X X X X X <   + @ @ @ @ @ @ @ @ @ @ @ @ @ @ @ @ @ @ @ @ @ $       # @ @ @ @ @ @ @ @ @ @ @ @ @ @ @ @ @ :   o ",
"X X X X X X X X X X X X X X X *     1 2 3 4 4 4 5 5 5 5 5 5 5 5 5 5 5 5 5 5 6 7 8 9 9 0 3 @ @ @ @ @ @ @ @ @ @ @ @ @ @ @ @ 1 q X ",
"X X X X X X X X X X X X X X X w e r 7 t t t t t t t t t t t t t t t t t t t t t t t t t t 5 y u i @ @ @ @ @ @ @ @ @ @ @ %   p X ",
"X X X X X X X X X X X X X X a s t t t d f g g g h j j j j j j j j j j j j j j j g g g k l t t t z x @ @ @ @ @ @ @ @ @ c -   v X ",
"X X X X X X X X X X X X X b t t n m h M N N N N N N N N N N N N N N N N N N N N N N N N B j g d t t u @ @ @ @ @ @ @ = -     < X ",
"X X X X X X X X X X X X V t t C B N N N N N N N N N N N N N N N N N N N N N N N N N N N N N N B g t t Z @ @ @ @ @ = >         A ",
"* X X X X X X X X X X X S t C N N N N N N N N N N N N N N N N N N N N N N N N N N N N N N N N N N C t y @ @ @ @ = +           O ",
"D X X X X X X X X X X X F t M N N N N N N N N N N N N N N N N N N N N N N N N N N N N N N N N N N M t 5 @ @ @ = -               ",
"  q X X X X X X X X X X G t N N N N N N N N N N N N N N N N N N N N N N N N N N N N N N N N N N N N t t @ @ % -   - $ : : : ,   ",
"    % X X X X X X X X H t t N N N N N N N N N N N N N N N N N N N N N N N N N N N N N N N N N N N N t t + -     # @ @ @ @ @ @ = ",
"c -   v X X X X X X * & t t N N N N N N N N N N N N N N N N N N N N N N N N N N N N N N N N N N N N t t       J @ @ @ @ @ @ @ @ ",
"@ = -   K H X X X v O   t t N N N N N N N N N N N N N N N N N N N N N N N N N N N N N N N N N N N N t t     $ @ @ @ @ @ @ @ @ @ ",
"@ @ = >   O < <         t t N N N N N N N N N N N N N N N N N N N N N N N N N N N N N N N N N N N N t t   ; @ @ @ @ @ @ @ @ @ @ ",
"@ @ @ = -             % t t N N N N N N N N N N N N N N N N N N N N N N N N N N N N N N N N N N N N t t $ @ @ @ @ @ @ @ @ @ @ @ ",
"@ @ @ @ = -         , @ t t N N N N N N N N N N N N N N B L f f f f L B N N N N N N N N N N N N N N t t @ @ @ @ @ @ @ @ @ @ @ @ ",
"@ @ @ @ @ = -       : @ t t N N N N N N N N N N N N N N k t t t t t t k N N N N N N N N N N N N N N t t @ @ @ @ @ @ @ @ @ @ @ @ ",
"@ @ @ @ @ @ = -     ; @ t t P P P P P P P P P P P P P I t t t t t t t t I P P P P P P P P P P P P P t t @ @ @ @ @ @ @ @ @ @ @ @ ",
"@ @ @ @ @ @ @ c     - @ t t P P P P P P P P P P P P P U t t t t t t t t U P P P P P P P P P P P P P t t @ @ @ @ @ @ @ @ @ @ @ @ ",
"@ @ @ @ @ @ @ @ :     , t t P P P P P P P P P P P P P Y t t t t t t t t T P P P P P P P P P P P P P t t @ @ @ @ @ @ @ @ @ @ @ @ ",
"@ @ @ @ @ @ @ @ @ +     t t R P P P P P P P P P P P P P P P P P P P P P P P P P P P P P P P P P P R t t @ @ @ @ @ @ @ @ @ @ @ @ ",
"@ @ @ @ @ @ @ @ @ $     E t W P P P P P P P P P P P P P P P P P P P P P P P P P P P P P P P P P P W t Q @ @ @ @ @ @ @ @ @ @ @ @ ",
"@ @ @ @ @ @ @ @ @ :     9 t t t t t t t t t t t t t t t t t t t t t t t t t t t t t t t t t t t t t t ! i @ @ @ @ @ @ @ @ @ @ @ ",
"@ @ @ @ @ @ @ @ @ ;   r t t t t t t t t t t t t t t t t t t t t t t t t t t t t t t t t t t t t t t t t z @ @ @ @ @ @ @ @ @ @ @ ",
"@ @ @ @ @ @ @ @ @ 1 r t ~ ^ / t t t t t t t t t t t t t t t t t t t t t t t t t t t t t t t t t t / ^ ~ t y @ @ @ @ @ @ @ @ @ @ ",
"@ @ @ @ @ @ @ @ % ( t ) _ ` ` t t t t t t t t t t t t t t t t t t t t t t t t t t t t t t t t t t ` ` _ ) t u @ @ @ @ @ @ @ @ @ ",
"@ @ @ @ @ @ @ = - E t / ` ` ` t t t t t t t t t t t t t t t t t t t t t t t t t t t t t t t t t t ` ` ` / t Q @ @ @ @ @ @ @ @ @ ",
"@ @ @ @ @ @ @ >   t t ` ` ` ` t t t t t t t t t t t t t t t t t t t t t t t t t t t t t t t t t t ` ` ` ` t t @ @ @ @ @ @ @ @ @ ",
"@ @ @ @ @ @ 1     t t ` ` ` ` ) t t t t t t t t t t t t t t t t t t t t t t t t t t t t t t t t ' ` ` ` ` t t @ @ @ @ @ @ @ @ @ ",
"@ @ @ @ @ ,       ] t / ` ` ` [ t t t t t t t t t t t t t t t t t t t t t t t t t t t t t t t t [ ` ` ` / t z @ @ @ @ @ @ @ @ @ ",
"@ @ @ @ $         9 t ) _ ` ` { } |  ...t t t t t t t t t t t t t t t t t t t t t t t t X. .| } o.` ` _ ) t 4 @ @ @ @ @ @ @ @ @ ",
"@ @ @ ,             E t ' / ` O.+.+.+.+.+.| @.#.....$.t t t t t t t t t t %.....&.*.| =.+.+.+.+.-.` / ' t ;.@ @ @ @ @ @ @ @ @ @ ",
"@ @ 1               :.>.t t t #.+.+.+.+.+.+.+.+.+.+.+.+.+.+.+.+.+.+.+.+.+.+.+.+.+.+.+.+.+.+.+.+. .t t t ,.<.% @ @ @ @ @ @ @ @ @ ",
"= >               $ @ i 4 Q t ..+.+.+.+.+.+.+.+.+.+.+.+.+.+.+.+.+.+.+.+.+.+.+.+.+.+.+.+.+.+.+.+. .t ] 1.      ; @ @ @ @ @ @ @ @ ",
"-               # @ @ @ @ i t X.+.+.+.+.+.+.+.+.+.+.+.+.+.+.+.+.+.+.+.+.+.+.+.+.+.+.+.+.+.+.+.+.$.t 2.. O       $ @ @ @ @ @ @ = ",
"              + @ @ @ @ Z 5 t t } +.+.+.+.+.+.+.+.+.+.+.+.+.+.+.+.+.+.+.+.+.+.+.+.+.+.+.+.+.+.} t t 3.V p O       - : @ @ = #   ",
"            - = @ @ @ 2 4.t 5.6.7.8.+.+.+.+.+.+.+.+.+.+.+.+.+.+.+.+.+.+.+.+.+.+.+.+.+.+.+.+.8.9.6.5.t 0.q.o O                   ",
"            : @ @ @ @ z t 5.w.w.e.r.t.t.t.t.t.t.y.u.u.u.u.u.u.u.u.u.u.u.u.u.u.y.t.t.t.t.t.t.r.i.w.w.5.t s X o O                 ",
"          , @ @ @ @ p.t a.s.w.w.d.f.f.f.f.f.f.f.d.g.w.w.w.w.w.w.w.w.w.w.w.w.g.d.f.f.f.f.f.f.f.f.h.w.s.a.t j.X o O               ",
"          = @ @ @ @ 5 t 6.w.w.h.f.f.f.f.f.f.f.f.f.d.k.w.w.w.w.w.w.w.w.w.w.k.d.f.f.f.f.f.f.f.f.f.l.w.w.6.t F X X o O             ",
"        , @ @ @ @ @ t t s.w.z.x.f.f.f.f.f.f.f.f.f.f.f.c.v.g.w.w.w.w.g.v.c.f.f.f.f.f.f.f.f.f.f.f.b.z.w.s.t t X X X o             ",
"        # @ @ @ @ @ t t w.z.+.n.f.f.f.f.f.f.f.f.f.f.f.f.f.f.f.f.f.f.f.f.f.f.f.f.f.f.f.f.f.f.f.f.t.+.z.w.t t X X X X %           ",
"        1 @ @ @ @ @ Q t s.m.+.n.f.f.f.f.f.f.f.f.f.f.f.f.f.f.f.f.f.f.f.f.f.f.f.f.f.f.f.f.f.f.f.f.t.+.m.s.t M.X X X X *           ",
"          % @ @ @ @ >.t N.+.+.n.f.f.f.B.V.V.V.V.V.V.f.f.f.f.f.f.f.f.f.f.f.f.V.V.V.V.V.V.B.f.f.f.t.+.+.N.t 3.X X X X X           ",
"            % @ @ @ 4 t  .+.+.n.f.f.f.C.Z.Z.Z.Z.Z.Z.f.f.f.f.f.f.f.f.f.f.f.f.Z.Z.Z.Z.Z.Z.C.f.f.f.t.+.+. .t A.X X X X p           ",
"              % @ @ p.t S.+.+.n.f.f.f.B.Z.Z.Z.Z.Z.D.f.f.f.f.f.f.f.f.f.f.f.f.D.Z.Z.Z.Z.Z.B.f.f.f.F.+.+.S.t j.X X X X <           ",
"                ; @ 3 t X.+.+.G.f.f.f.H.J.Z.Z.Z.Z.B.f.f.f.f.f.f.f.f.f.f.f.f.B.Z.Z.Z.Z.J.H.f.f.f.n.+.+.X.t K.X X X %       & < O ",
"q                 > L.t t P.+.I.f.f.f.f.H.U.V.V.Y.f.f.f.f.f.f.f.f.f.f.f.f.f.f.Y.V.V.U.H.f.f.f.f.8.+.P.t t V X X .       K X X X ",
"X K                 - T.t ..=.+.R.f.f.f.f.f.f.f.f.f.f.E.W.Q.Q.Q.Q.Q.Q.W.E.f.f.f.f.f.f.f.f.f.f.t.+.=...t S X X K       v X X X X ",
"X X v                 !.~.t ..@.^./.f.f.f.f.f.f.f.f.(.).t t t t t t t t ).(.f.f.f.f.f.f.f.f._.`.@...t 0.V X v       v X X X X X ",
"X X X v                 '.] t t ].].].].].].].].].].].].[.t p.3 3 {.t [.].].].].].].].].].].].].t t s q.X %       v X X X X X X ",
"X X X X .                 <.t t ].].].].].].].].].].].].[.t 3 @ @ 3 t [.].].].].].].].].].].].].t t w X q       . X X X X X X X ",
"X X X X p                   }.t |.].].].].].].].].].]. X.Xt Z @ @ 2 t t XX].].].].].].].].].].oXt 5 % O         p X X X X X X X ",
"X X X X p                   ( t t OX|.+X@X].].].#X$XoXt t ! @ @ @ @ y t t %X$X+X].].].].@X|.OXt t 1.            p X X X X X X X ",
"X X X X .                     &X}.t t t t t t t t t t t p.@ @ @ @ @ @ 4 t t t t t t t t t t t }.1.              . X X X X X X X ",
"X X X v                           ( *X4.t t t t t 5 p.i @ @ @ @ @ @ @ @ @ u =X7 t t t t t ,.(                     v X X X X X X ",
"X X v                               = @ @ @ @ @ @ @ @ @ @ @ @ @ @ @ @ @ @ @ @ +                     $ @ @ @ : -     v X X X X X ",
"X %                               : @ @ @ @ @ @ @ @ @ @ @ @ @ @ @ @ @ @ @ @ @ =                   $ @ @ @ @ @ %       K X X X X ",
"q                               , @ @ @ @ @ @ @ @ @ @ @ @ @ @ @ @ @ @ @ @ @ @ @ ;               : @ @ @ @ @ @ @ c -     q X X X ",
"          < v p p . &           c @ @ @ @ @ @ @ @ @ @ @ @ @ @ @ @ @ @ @ @ @ @ @ @ -           % @ @ @ @ @ @ @ @ @ = -     O < O ",
"        J H X X X X * O       + @ @ @ @ @ @ @ @ @ @ @ @ @ @ @ @ @ @ @ @ @ @ @ @ @ #         ; @ @ @ @ @ @ @ @ @ @ @ =           "
};
