/* XPM */
static char *result[] = {
/* columns rows colors chars-per-pixel */
"64 64 220 2 ",
"   c #758C8E",
".  c #7C9597",
"X  c #849EA1",
"o  c #819A9D",
"O  c #758D8F",
"+  c #778E90",
"@  c #7D9598",
"#  c #799093",
"$  c #7A9194",
"%  c #7B9396",
"&  c #768E90",
"*  c #829B9E",
"=  c #7C9497",
"-  c #768D8F",
";  c #7A9294",
":  c #7B9295",
">  c #778E91",
",  c #788F92",
"<  c #789092",
"1  c #788F91",
"2  c #798886",
"3  c #788381",
"4  c #767E7A",
"5  c #737168",
"6  c #716A61",
"7  c #6F6C63",
"8  c #717873",
"9  c #748484",
"0  c #7A9295",
"q  c #71736B",
"w  c #6B5444",
"e  c #694C39",
"r  c #6B5C4E",
"t  c #7B8C8D",
"y  c #80999C",
"u  c #748889",
"i  c #6D6054",
"p  c #586543",
"a  c #487E4D",
"s  c #60583E",
"d  c #6D594B",
"f  c #767974",
"g  c #7C9396",
"h  c #7E9799",
"j  c #6D6358",
"k  c #2CAA5F",
"l  c #28B162",
"z  c #30A45C",
"x  c #408B52",
"c  c #546B45",
"v  c #64523B",
"b  c #6A513F",
"n  c #7C9092",
"m  c #737E7B",
"M  c #5C5E40",
"N  c #7F989B",
"B  c #3C9155",
"V  c #778F91",
"C  c #448450",
"Z  c #839C9F",
"A  c #799193",
"S  c #60A675",
"D  c #5DC489",
"F  c #35B56B",
"G  c #507148",
"H  c #798A8B",
"J  c #D9D2CD",
"K  c white",
"L  c #AEE1C4",
"P  c #93D8B0",
"I  c #768482",
"U  c #7D9698",
"Y  c #ECE8E6",
"T  c #78CE9C",
"R  c #70675C",
"E  c #6D5E50",
"W  c #BBE6CD",
"Q  c #72807E",
"!  c #6E655A",
"~  c #5D6443",
"^  c #5A6C47",
"/  c #CAF2DB",
"(  c #527C4E",
")  c #40A45F",
"_  c #2ECC71",
"`  c #2CC56D",
"'  c #2BC16B",
"]  c #2BBE69",
"[  c #2ABC68",
"{  c #29B765",
"}  c #28B262",
"|  c #6A5343",
" . c #4F8451",
".. c #35BC6A",
"X. c #2DCA70",
"o. c #2BC06A",
"O. c #2ABB67",
"+. c #2DC86F",
"@. c #2CC36C",
"#. c #39B466",
"$. c #2CC66E",
"%. c #29B966",
"&. c #726C63",
"*. c #65543C",
"=. c #4B8C55",
"-. c #3CAC63",
";. c #31C46D",
":. c #3BA660",
">. c #6E6256",
",. c #FFE0B1",
"<. c #D7DCA5",
"1. c #CADBA1",
"2. c #B0D899",
"3. c #96D691",
"4. c #89D48D",
"5. c #62D181",
"6. c #55CF7D",
"7. c #449C5C",
"8. c #6F6357",
"9. c #6C5C4E",
"0. c #76875D",
"q. c #AA8C6D",
"w. c #C6A884",
"e. c #725540",
"r. c #E2C49A",
"t. c #ECCDA2",
"y. c #7B5E48",
"u. c #8E7157",
"i. c #B49675",
"p. c #D9BB93",
"a. c #85674F",
"s. c #6E685E",
"d. c #A18366",
"f. c #D0B18B",
"g. c #977A5E",
"h. c #F5D6A9",
"j. c #BD9F7C",
"k. c #6F6256",
"l. c #727067",
"z. c #73756E",
"x. c #6A503E",
"c. c #58C779",
"v. c #E4DDA9",
"b. c #746E65",
"n. c #3BCD75",
"m. c #9CA970",
"M. c #ED7159",
"N. c #CA8963",
"B. c #84B977",
"V. c #B95542",
"C. c #6C5545",
"Z. c #67A460",
"A. c #DB543F",
"S. c #E74C3C",
"D. c #5CAC63",
"F. c #B86C49",
"G. c #704C39",
"H. c #819494",
"J. c #968453",
"K. c #F1DEAD",
"L. c #984C3A",
"P. c #7B8480",
"I. c #739C5D",
"U. c #CF5C42",
"Y. c #E85543",
"T. c #AF4C3A",
"R. c #76756D",
"E. c #7E9459",
"W. c #AD744C",
"Q. c #50B467",
"!. c #A3D795",
"~. c #FAC49B",
"^. c #C74C3B",
"/. c #71665A",
"(. c #A84C3A",
"). c #48CE79",
"_. c #F08367",
"`. c #6F6152",
"'. c #6DC97D",
"]. c #F39676",
"[. c #6E5B4D",
"{. c #82999B",
"}. c #624838",
"|. c #A14839",
" X c #C44A3A",
".X c #6B5140",
"XX c #7F8F8D",
"oX c #654A38",
"OX c #4A3D35",
"+X c gray20",
"@X c #8D3F37",
"#X c #FDD6A9",
"$X c #BA4539",
"%X c #363433",
"&X c #514136",
"*X c #473C35",
"=X c #603935",
"-X c #F49F7D",
";X c #544236",
":X c #493634",
">X c #EE7A60",
",X c #EA5E4A",
"<X c #6B3A35",
"1X c #433A34",
"2X c #3D3734",
"3X c #984138",
"4X c #C5473A",
"5X c #3E3433",
"6X c #706A61",
"7X c #584437",
"8X c #5B4537",
"9X c #71746E",
"0X c #4E3F36",
"qX c #403934",
"wX c #6B5749",
"eX c #5E4737",
"rX c #393633",
"tX c #727C79",
"yX c #6A503F",
"uX c #7B8F91",
/* pixels */
"      . X X X X X X X o O     + @ @ @ @ @ @ @ @ @ @ @ @ @ @ @ @ @ @ @ @ @ @ @ @ @ #       $ @ @ @ @ @ @ @ @ @ @ @ @ @ %         ",
"  & o X X X X X X X X X * O     = @ @ @ @ @ @ @ @ @ @ @ @ @ @ @ @ @ @ @ @ @ @ @ @ -     # @ @ @ @ @ @ @ @ @ @ @ @ @ @ @ ;       ",
"O o X X X X X X X X X X X o     # @ @ @ @ @ @ @ @ @ @ @ @ @ @ @ @ @ @ @ @ @ @ @ :     - = @ @ @ @ @ @ @ @ @ @ @ @ @ @ @ @ >     ",
"o X X X X X X X X X X X X X .     = @ @ @ @ @ @ @ @ @ @ @ @ @ @ @ @ @ @ @ @ @ @ +     , @ @ @ @ @ @ @ @ @ @ @ @ @ @ @ @ @ ;     ",
"X X X X X X X X X X X X X X X <   + @ @ @ @ @ @ @ @ @ @ @ @ @ @ @ @ @ @ @ @ @ $       # @ @ @ @ @ @ @ @ @ @ @ @ @ @ @ @ @ :   o ",
"X X X X X X X X X X X X X X X *     1 @ @ 2 3 4 5 5 5 5 5 5 5 5 5 5 5 5 5 5 6 7 8 9   - @ @ @ @ @ @ @ @ @ @ @ @ @ @ @ @ @ 1 0 X ",
"X X X X X X X X X X X X X X X X %     q w e e e e e e e e e e e e e e e e e e e e e e r q t @ @ @ @ @ @ @ @ @ @ @ @ @ @ %   y X ",
"X X X X X X X X X X X X X X X X . u i e e e p p a a a a a a a a a a a a a a a a p s e e e e d f @ @ @ @ @ @ @ @ @ @ @ g -   h X ",
"X X X X X X X X X X X X X X X X % j e e a k l l l l l l l l l l l l l l l l l l l l z x c v e e b 5 n @ @ @ @ @ @ @ = -     < X ",
"X X X X X X X X X X X X X X X X m e e x l l l l l l l l l l l l l l l l l l l l l l l l l l x M e e d 2 @ @ @ @ @ = >         N ",
"* X X X X X X X X X X X X X X 0 7 e M l l l l l l l l l l l l l l l l l l l l l l l l l l l l l B s e e f @ @ @ = +           O ",
"V X X X X X X X X X X X X X 0   i e C l l l l l l l l l l l l l l l l l l l l l l l l l l l l l l k p e e 4 @ = -               ",
"  0 X X X X X X X X X X Z A     r e S D F l l l l l l l l l l l l l l l l l l l l l l l l l l l l l l G e b H -   - $ : : : ,   ",
"    % X X X X X X X X Z &       r e J K K L D l l l l l l l l l l l l l l l l l l l l l l l l l l l l l p e r   # @ @ @ @ @ @ = ",
"g -   h X X X X X X * &     - : b e J K K K K P l l l l l l l l l l l l l l l l l l l l l l l l l l l l z e e I @ @ @ @ @ @ @ @ ",
"@ = -   U Z X X X h O     , @ @ e e Y K K K K K T l l l l l l l l l l l l l l l l l l l l l l l l l l l l G e R @ @ @ @ @ @ @ @ ",
"@ @ = >   O < <         A @ @ @ e e K K K K K K K D l l l l l l l l l l l l l l l l l l l l l l l l l l l B e w @ @ @ @ @ @ @ @ ",
"@ @ @ = -             H 5 E e e e e K K K K K K K W l l l l l l l l l l l l l l l l l l l l l l l l l l l l e e @ @ @ @ @ @ @ @ ",
"@ @ @ @ = -       Q ! e e e e ~ ^ ^ / / / / / / / / l l l l l l l l l l l l l l l l l l l l l l l l l l l l M e 3 @ @ @ @ @ @ @ ",
"@ @ @ @ @ = -   Q e e e ( ) _ _ _ _ _ _ _ _ _ _ _ _ _ _ _ _ ` ` ' ] [ { { } l l l l l l l l l l l l l l l l p e 3 @ @ @ @ @ @ @ ",
"@ @ @ @ @ @ = - | e  ..._ _ _ _ _ _ _ _ _ _ _ _ _ _ _ _ _ _ _ _ _ _ _ _ _ _ X.` o.O.{ l l l l l l l l l l l p e 3 @ @ @ @ @ @ @ ",
"@ @ @ @ @ @ @ g e e _ _ _ _ _ _ _ _ _ _ _ _ _ _ _ _ _ _ _ _ _ _ _ _ _ _ _ _ _ _ _ _ _ _ +.@.O.{ l l l l l l e e n @ @ @ @ @ @ @ ",
"@ @ @ @ @ @ @ @ e e #._ _ _ _ _ _ _ _ _ _ _ _ _ _ _ _ _ _ _ _ _ _ _ _ _ _ _ _ _ _ _ _ _ _ _ _ _ _ $.] %.l z e b @ @ @ @ @ @ @ @ ",
"@ @ @ @ @ @ @ @ &.e *.=.=.-.-.-.-.;._ _ _ _ _ _ _ _ _ _ _ _ _ _ _ _ _ _ _ _ _ _ _ _ _ _ _ _ _ _ _ _ _ _ +.:.e E @ @ @ @ @ @ @ @ ",
"@ @ @ @ @ @ @ @ @ >.e e e e e e e e e ,.,.<.1.1.1.2.3.3.3.4.5.5.5.6._ _ _ _ _ _ _ _ _ _ _ _ _ _ _ _ _ _ _ 7.e 8.@ @ @ @ @ @ @ @ ",
"@ @ @ @ @ @ @ @ @ : Q 7 7 9.E E E e e ,.,.,.,.,.,.,.,.,.,.,.,.,.,.,.,.,.,.,.0.^ ^ ^  .=.=.=.) -.-.-.-.-.7.*.e f @ @ @ @ @ @ @ @ ",
"@ @ @ @ @ @ @ @ @ ;           + - e e ,.,.,.,.,.,.,.,.,.,.,.,.,.,.,.,.,.,.,.q.e e e e e e e e e e e e e e e e @ @ @ @ @ @ @ @ @ ",
"@ @ @ @ @ @ @ @ @ 1               e e ,.,.,.,.,.,.,.,.,.w.e e.r.,.,.,.,.,.,.t.e e e e e e e e e e e e e e e e @ @ @ @ @ @ @ @ @ ",
"@ @ @ @ @ @ @ @ %                 e e ,.,.,.,.,.,.,.,.,.y.e e u.,.,.,.,.,.,.,.i.p.,.,.,.p.a.e e e e e e e e e @ @ @ @ @ @ @ @ @ ",
"@ @ @ @ @ @ @ = -               8 e e ,.,.,.,.,.,.,.,.,.e e e e ,.,.,.,.,.,.,.,.,.,.,.,.,.t.e.e e e e e e e e @ @ @ @ @ @ @ @ @ ",
"@ @ @ @ @ @ @ >               s.e e e ,.,.,.,.,.,.,.,.,.e e e e ,.,.,.,.,.,.,.,.,.,.,.,.,.,.p.e e e e e e e e @ @ @ @ @ @ @ @ @ ",
"@ @ @ @ @ @ 1               7 e e.d.f.,.,.,.,.,.,.,.,.,.a.e e g.,.,.,.,.,.,.,.,.,.,.,.,.,.,.,.e e e e e e e e @ @ @ @ @ @ @ @ @ ",
"@ @ @ @ @ ,                 | e q.,.,.,.,.,.,.,.,.,.,.,.p.e y.h.,.,.,.,.,.,.,.,.,.,.,.,.,.,.,.e e e e e e e w @ @ @ @ @ @ @ @ @ ",
"@ @ @ @ $                   e e t.,.,.r.g.e.u.u.g.j.t.,.,.,.,.,.,.,.,.,.,.,.,.,.,.,.,.,.,.,.w.e e e e e e e E @ @ @ @ @ @ @ @ @ ",
"@ @ @ ,               - + - e e i.p.,.y.e e e e e e e f.,.,.,.,.,.,.,.,.,.,.,.,.,.,.,.,.,.t.e.e e e e e e e 8.@ @ @ @ @ @ @ @ @ ",
"@ @ 1               ; @ @ @ k.e e e e e e e e e e e e e p.,.,.,.,.,.,.,.,.,.,.,.,.,.,.,.,.,.p.d.e.e e e e e l.@ @ @ @ @ @ @ @ @ ",
"= >               $ @ @ @ @ @ f E e e e e e e e e e e e y.,.,.,.,.,.,.,.,.,.,.,.,.,.,.,.,.,.,.,.,.p.i.i.y.e 8 ; @ @ @ @ @ @ @ @ ",
"-               # @ @ @ @ @ @ @ 5 e e e e e e e e e e e e.,.,.,.,.,.,.,.,.,.,.,.,.,.,.,.,.,.,.,.,.,.,.,.a.e u   $ @ @ @ @ @ @ = ",
"              + @ @ @ @ @ @ @ @ z.e e e e e e e e e u.i.t.,.,.,.,.,.,.,.,.,.,.,.,.,.,.,.,.,.,.,.,.,.,.p.e x.      - : @ @ = #   ",
"            - = @ @ @ @ @ @ @ @ n R e *.c.v.,.,.,.,.,.,.,.,.,.,.,.,.,.,.,.,.,.,.,.,.,.,.,.,.,.,.,.,.t.e.e b.O                   ",
"            : @ @ @ @ @ @ @ @ @ @ &.e =._ n.5.5.5.5.5.5.5.5.5.m.M.M.M.M.M.N.5.5.5.5.5.5.5.5.B.M.M.M.V.e C.X o O                 ",
"          , @ @ @ @ @ @ @ @ @ @ @ w e ;._ _ _ _ _ _ _ _ _ _ Z.A.S.S.S.S.S.D._ _ _ _ _ _ _ _ _ F.S.S.S.G.e H.X o O               ",
"          = @ @ @ @ @ @ @ @ @ @ t e ~ _ _ _ _ _ _ _ _ _ _ J.S.S.S.S.S.S.S._ _ _ n.3.K.,.,.,.3.Z.S.S.S.L.e P.X X o O             ",
"        , @ @ @ @ @ @ @ @ @ @ @ 4 e  ._ _ _ _ _ _ _ _ I.U.S.S.S.S.S.S.S.S._ _ _ 1.,.,.,.,.,.,.1.Y.S.S.T.e R.X X X o             ",
"        # @ @ @ @ @ @ @ @ @ @ @ 5 e =._ _ _ _ D.E.W.S.S.S.S.S.S.S.S.S.S.S.Q._ !.,.,.,.,.,.,.,.,.~.S.S.^.e /.X X X X %           ",
"        1 @ @ @ @ @ @ @ @ @ @ @ 5 e (.S.S.S.S.S.S.S.S.S.S.S.S.S.S.S.S.S.S.J.).,.,.,.,.,.,.,.,.,.,._.S.^.e `.X X X X *           ",
"          % @ @ @ @ @ @ @ @ @ 5 w e (.S.S.S.S.S.S.S.S.S.S.S.S.S.S.S.S.S.S.A.'.,.,.,.,.,.,.,.,.,.,.].S.^.e [.{.X X X X           ",
"            % @ @ @ @ @ @ @ R e e }.|.S.S.S.S.S.S.S.S.S.S.S.S.S.S.S.S.S.S.S.N.,.,.,.,.,.,.,.,.,.,.].S. Xe e .XXXX X y           ",
"              % @ @ @ @ @ f e oXOX+X@XS.S.S.S.S.S.S.S.S.S.S.S.S.S.S.S.S.S.S.Y.#X,.,.,.,.,.,.,.,.,._.S.$X%X&Xe .X{.X <           ",
"                ; @ @ @ @ w e *X+X+X=XS.S.S.S.S.S.S.S.S.S.S.S.S.S.S.S.S.S.S.S._.#X,.,.,.,.,.,.,.-XS.S.@X+X+X;Xe R.%       & < O ",
"0                 > = @ @ e e +X+X+X:XS.S.S.S.S.S.S.S.S.S.S.S.S.S.S.S.S.S.S.S.S.Y.M.].].].].>X,XS.S.S.<X+X+X1Xe E       U X X X ",
"X U                 - % @ e e 2X+X+X+X3XS.S.S.S.S.S.S.S.S.S.S.S.S.S.S.S.S.S.S.S.S.S.S.S.S.S.S.S.S.S.4X5X+X+X1Xe i     h X X X X ",
"X X h                   1 6Xe 7X+X+X+X5X3XS.S.S.S.S.S.S.S.S.S.S.S.S.S.S.S.S.S.S.S.S.S.S.S.S.S.S.S.4X:X+X+X%X8Xe 9X  h X X X X X ",
"X X X h                   u e e *X+X+X+X+X+X+X+X+X+X0Xe e e e e e e e e e e e e e e e qX+X+X+X+X+X+X+X+X+X7Xe wX  h X X X X X X ",
"X X X X .                   9Xe e &X+X+X+X+X+X+X+X+X0Xe e e e e e e e e e e e e e e e qX+X+X+X+X+X+X+X%X7Xe x.Q . X X X X X X X ",
"X X X X y                     8 x.e eXrX+X+X+X+X+X+X7Xe f @ @ @ @ @ @ $           j e OX+X+X+X+X+X+X*XoXe x.9X  y X X X X X X X ",
"X X X X y                       Q | e e 8X*X+X+X+X0Xe b @ @ @ @ @ @ @ @ $         tXe oX1X+X+XrX*X}.e e wXQ     y X X X X X X X ",
"X X X X .                         u j yXe e e e e e e 4 @ @ @ @ @ @ @ @ @ $         wXe e e e e e e wX9X        . X X X X X X X ",
"X X X h                             - uXz.E d e e w f @ @ @ @ @ @ @ @ @ @ @ 1         s.x.e e e j tX              h X X X X X X ",
"X X h                               = @ @ @ @ @ @ @ @ @ @ @ @ @ @ @ @ @ @ @ @ +                     $ @ @ @ : -     h X X X X X ",
"X %                               : @ @ @ @ @ @ @ @ @ @ @ @ @ @ @ @ @ @ @ @ @ =                   $ @ @ @ @ @ %       U X X X X ",
"0                               , @ @ @ @ @ @ @ @ @ @ @ @ @ @ @ @ @ @ @ @ @ @ @ ;               : @ @ @ @ @ @ @ g -     0 X X X ",
"          < h y y . &           g @ @ @ @ @ @ @ @ @ @ @ @ @ @ @ @ @ @ @ @ @ @ @ @ -           % @ @ @ @ @ @ @ @ @ = -     O < O ",
"        A Z X X X X * O       + @ @ @ @ @ @ @ @ @ @ @ @ @ @ @ @ @ @ @ @ @ @ @ @ @ #         ; @ @ @ @ @ @ @ @ @ @ @ =           "
};
