/* XPM */
static char *result[] = {
/* columns rows colors chars-per-pixel */
"64 64 241 2 ",
"   c #758C8E",
".  c #7C9597",
"X  c #849EA1",
"o  c #819A9D",
"O  c #758D8F",
"+  c #778E90",
"@  c #7D9598",
"#  c #829B9D",
"$  c #8DA8AA",
"%  c #8FABAD",
"&  c #93B0B2",
"*  c #97B5B7",
"=  c #A0C0C2",
"-  c #839C9F",
";  c #7A9194",
":  c #7B9396",
">  c #768E90",
",  c #829B9E",
"<  c #7C9497",
"1  c #9EBDBE",
"2  c #95B3B5",
"3  c #88A2A4",
"4  c #7A9294",
"5  c #7E9699",
"6  c #9BBABC",
"7  c #9AB9BB",
"8  c #94B2B4",
"9  c #8EABAD",
"0  c #9EBEC0",
"q  c #88A3A5",
"w  c #778E91",
"e  c #839D9F",
"r  c #90ACAE",
"t  c #8BA7A9",
"y  c #89A4A6",
"u  c #86A1A4",
"i  c #95B3B6",
"p  c #80989B",
"a  c #7B9295",
"s  c #8DA9AB",
"d  c #9EBEBF",
"f  c #9DBCBE",
"g  c #91AEB0",
"h  c #8AA5A7",
"j  c #788F91",
"k  c #7A9295",
"l  c #80999C",
"z  c #7C9396",
"x  c #768D8F",
"c  c #7E9799",
"v  c #789092",
"b  c #7F989B",
"n  c #839491",
"m  c #818F8B",
"M  c #79786F",
"N  c #75786D",
"B  c #6C7966",
"V  c #65624C",
"C  c #5D6346",
"Z  c #576341",
"A  c #64634A",
"S  c #68624E",
"D  c #747267",
"F  c #7E8884",
"G  c #91ADAF",
"H  c #778F91",
"J  c #879E9F",
"K  c #7D837D",
"L  c #746D61",
"P  c #706254",
"I  c #694C39",
"U  c #85A0A1",
"Y  c #6C5646",
"T  c #60583E",
"R  c #586543",
"E  c #487E4D",
"W  c #3C9155",
"Q  c #389757",
"!  c #546B45",
"~  c #5C5E40",
"^  c #788F92",
"/  c #9BBABB",
"(  c #4C784A",
")  c #30A45C",
"_  c #28B162",
"`  c #2CAA5F",
"'  c #99B8B9",
"]  c #8DA9AA",
"[  c #859999",
"{  c #799193",
"}  c #9DBDBE",
"|  c #507148",
" . c #8EAAAD",
".. c #6B5240",
"X. c #64523B",
"o. c #35B56B",
"O. c #78CE9C",
"+. c #BBE6CD",
"@. c #C9EBD7",
"#. c #E4F5EB",
"$. c white",
"%. c #D6F0E1",
"&. c #50BF7F",
"*. c #70A593",
"=. c #F1FAF5",
"-. c #86A0A2",
";. c #3EA76F",
":. c #42BA75",
">. c #44A673",
",. c #82A4A1",
"<. c #26AC5F",
"1. c #AEE1C4",
"2. c #25AA5E",
"3. c #7CA49C",
"4. c #90ADB0",
"5. c #63A58A",
"6. c #2ABE69",
"7. c #5DA586",
"8. c #8DA8AB",
"9. c #44A975",
"0. c #2ECC71",
"q. c #29B664",
"w. c #29B765",
"e. c #2BBE69",
"r. c #2ABB67",
"t. c #2DC96F",
"y. c #4AA678",
"u. c #3BB472",
"i. c #3AB270",
"p. c #2ABC68",
"a. c #2BC36C",
"s. c #35BC6A",
"d. c #5E6344",
"f. c #56744A",
"g. c #4B8C55",
"h. c #ECCDA2",
"j. c #FFE0B1",
"k. c #A18366",
"l. c #4F8452",
"z. c #31C46D",
"x. c #527C4D",
"c. c #AA8C6D",
"v. c #615B3F",
"b. c #8B6F55",
"n. c #B49976",
"m. c #BBA07C",
"M. c #85674F",
"N. c #F5D6A9",
"B. c #E2C49A",
"V. c #8E7157",
"C. c #D9BB93",
"Z. c #B49675",
"A. c #7D6149",
"S. c #D0B58D",
"D. c #D7BD93",
"F. c #7B5E48",
"G. c #6F5C4E",
"H. c #E8CCA0",
"J. c #E1C59A",
"K. c #E6CA9E",
"L. c #FCDDAF",
"P. c #FADBAD",
"I. c #725540",
"U. c #F0D2A5",
"Y. c #F5D7A9",
"T. c #BD9F7C",
"R. c #765A44",
"E. c #D0B18B",
"W. c #A68B6B",
"Q. c #F2D5A7",
"!. c #56744B",
"~. c #C6A884",
"^. c #3DAD63",
"/. c #449C5C",
"(. c #596C46",
"). c #39B466",
"_. c #65543D",
"`. c #5A6C47",
"'. c #5C955C",
"]. c #FCCDA2",
"[. c #77A76B",
"{. c #A38557",
"}. c #ED7159",
"|. c #90B173",
" X c #62D181",
".X c #479458",
"XX c #65543C",
"oX c #8A8C56",
"OX c #E74C3C",
"+X c #CF5C42",
"@X c #39C46D",
"#X c #48CE79",
"$X c #739C5D",
"%X c #DB543F",
"&X c #50B467",
"*X c #6FD285",
"=X c #F1DEAD",
"-X c #EECC9E",
";X c #EB6751",
":X c #C46445",
">X c #67A460",
",X c #E4DDA9",
"<X c #81AA73",
"1X c #E34A3B",
"2X c #DA4738",
"3X c #D34536",
"4X c #FAC49B",
"5X c #CD4335",
"6X c #977A5E",
"7X c #F49F7D",
"8X c #DD4839",
"9X c #FDD6A9",
"0X c #EA5E4A",
"qX c #CE4335",
"wX c #EE7A60",
"eX c #D14436",
"rX c #F6A885",
"tX c #DE4939",
"yX c #C64335",
"uX c #AD4536",
"iX c #9B4737",
"pX c #CFB691",
"aX c #D7B692",
"sX c #F18C6F",
"dX c #D64637",
"fX c #803B34",
"gX c #493633",
"hX c gray20",
"jX c #5B4537",
"kX c #4E3F36",
"lX c #433A34",
"zX c #654A38",
"xX c #3D3734",
"cX c #544236",
"vX c #5E4737",
"bX c #403934",
"nX c #393633",
"mX c #363433",
"MX c #473C35",
"NX c #584437",
"BX c #40A45F",
/* pixels */
"      . X X X X X X X o O     + @ @ @ @ @ # $ % & * * * * = = = = = = = = * * & % -       ; @ @ @ @ @ @ @ @ @ @ @ @ @ :         ",
"  > o X X X X X X X X X , O     < @ @ & 1 = = = = = = = = = = = = = = = = = = = = = = 2 3 # @ @ @ @ @ @ @ @ @ @ @ @ @ @ 4       ",
"O o X X X X X X X X X X X o     5 & 1 = = = 6 7 * 8 8 8 8 9 9 9 9 9 9 9 9 8 8 2 7 0 = = = = * q @ @ @ @ @ @ @ @ @ @ @ @ @ w     ",
"o X X X X X X X X X X X X X e 2 = = = * r t y y y y y y y y y y y y y y y y y y y y t & 6 = = = * q @ @ @ @ @ @ @ @ @ @ @ 4     ",
"X X X X X X X X X X X X u i = = 0 * r y y y y y y y y y y y y y y y y y y y y y y y y y y t & 0 = = 2 p @ @ @ @ @ @ @ @ @ a   o ",
"X X X X X X X X X X X s d = f g y y y y y y y y y y y y y y y y y y y y y y y y y y y y y y y y & 0 = 1 h @ @ @ @ @ @ @ @ j k X ",
"X X X X X X X X X X i = = 8 h y y y y y y y y y y y y y y y y y y y y y y y y y y y y y y y y y y h 2 = = % @ @ @ @ @ @ :   l X ",
"X X X X X X X X X i = 0 r y y y y y y y y y y y y y y y y y y y y y y y y y y y y y y y y y y y y y y 8 = = $ @ @ @ @ z x   c X ",
"X X X X X X X X i = 7 t y y y y y y y y y y y y y y y y y y y y y y y y y y y y y y y y y y y y y y y y 9 0 = & @ @ < x     v X ",
"X X X X X X X i = * y y y y y y y y y y y y y y y y y y y y y y y y y y y y y y y y y y y y y y y y y y y h 6 = & < w         b ",
", X X X X X i = * y y y y y y y y y y n m M N B V C C C C Z Z Z Z Z Z Z C A A S D M M F m y y y y y y y y y y * = G           O ",
"H X X X X % = * y y y y y y y J K L P I I I I I I I I I I I I I I I I I I I I I I I I I I P L K J y y y y y y y * = U           ",
"  k X X h d * y y y y y y y F Y I I I T R E E E W Q Q Q Q Q Q Q Q Q Q Q Q Q Q Q E E E ! ~ I I I Y F y y y y y y y * 1 # a a ^   ",
"    : X / 6 y y y y y y y K I I T ( W ) _ _ _ _ _ _ _ _ _ _ _ _ _ _ _ _ _ _ _ _ _ _ _ _ ` Q E T I I K y y y y y y y 6 ' @ @ @ < ",
"z x   ] 0 t y y y y y y [ I I ( ` _ _ _ _ _ _ _ _ _ _ _ _ _ _ _ _ _ _ _ _ _ _ _ _ _ _ _ _ _ _ ` E I I [ y y y y y y t 0 $ @ @ @ ",
"@ < { } r y y y y y y y L I | _ _ _ _ _ _ _ _ _ _ _ _ _ _ _ _ _ _ _ _ _ _ _ _ _ _ _ _ _ _ _ _ _ _ | I L y y y y y y y r 1 p @ @ ",
"@ @  .7 y y y y y y y y P I ) _ _ _ _ _ _ _ _ _ _ _ _ _ _ _ _ _ _ _ _ _ _ _ _ _ _ _ _ _ _ _ _ _ _ ) I P y y y y y y y y 7 % @ @ ",
"@ @ 1 t y y y y y y y y ..X._ _ _ _ _ _ _ _ _ _ _ _ _ _ _ _ _ _ _ _ _ _ _ _ _ _ _ _ _ _ _ _ _ _ _ _ I I y y y y y y y y t 1 @ @ ",
"@ h * y y y y y y y y y I I _ _ _ _ _ _ _ _ _ _ _ _ _ o.O.+.@.@.@.@.+.O._ _ _ _ _ _ _ _ _ _ _ _ _ _ I I y y y y y y y y y * h @ ",
"@ 2 t y y y y y y y y y I I _ _ _ _ _ _ _ _ _ _ _ _ O.#.$.$.$.$.$.$.$.$.%.&._ _ _ _ _ _ _ _ _ _ _ _ I I y y y y y y y y y t 2 @ ",
"@ 7 y y y y y y y y y *.I I _ _ _ _ _ _ _ _ _ _ _ &.=.$.$.$.$.$.$.$.$.$.$.#.&._ _ _ _ _ _ _ _ _ _ _ I I *.y y y y y y y y y 7 @ ",
"-.g y y y y y y y y y ;.I I _ _ _ _ _ _ _ _ _ _ :.=.$.$.$.$.$.$.$.$.$.$.$.$.%.o._ _ _ _ _ _ _ _ _ _ I I >.y y y y y y y y y g -.",
"% h y y y y y y y y ,.<.I I _ _ _ _ _ _ _ _ _ _ 1.$.$.$.$.$.$.$.$.$.$.$.$.$.$.1._ _ _ _ _ _ _ _ _ _ I I 2.3.y y y y y y y y h % ",
"4.y y y y y y y y y 5.6.I I _ _ _ _ _ _ _ _ _ _ =.$.$.$.$.$.$.$.$.$.$.$.$.$.$.=._ _ _ _ _ _ _ _ _ _ I I 6.7.y y y y y y y y y 4.",
"8.y y y y y y y y y 9.0.I I _ _ q.w.w.w.w.e.e.e.e.e.e.e.e.e.e.e.e.e.e.e.e.e.e.e.e.e.e.r.w.w.w.q._ _ I I t.y.y y y y y y y y y 8.",
"g y y y y y y y y y u.0.I I 0.0.0.0.0.0.0.0.0.0.0.0.0.0.0.0.0.0.0.0.0.0.0.0.0.0.0.0.0.0.0.0.0.0.0.0.I I 0.i.y y y y y y y y y g ",
"9 y y y y y y y y y 6.0.I I 0.0.0.0.0.0.0.0.0.0.0.0.0.0.0.0.0.0.0.0.0.0.0.0.0.0.0.0.0.0.0.0.0.0.0.0.I I 0.p.y y y y y y y y y 9 ",
"h y y y y y y y y y a.0.I I 0.0.0.0.0.0.0.0.0.0.0.0.0.0.0.0.0.0.0.0.0.0.0.0.0.0.0.0.0.0.0.0.0.0.0.0.I I 0.a.y y y y y y y y y h ",
"y y y y y y y y y y 0.0.I I s.0.0.0.0.0.0.0.0.0.0.0.0.0.0.0.0.0.0.0.0.0.0.0.0.0.0.0.0.0.0.0.0.0.0.s.I I 0.t.y y y y y y y y y y ",
"y y y y y y y y y y 0.0.d.I f.0.0.0.0.0.0.0.0.0.0.0.0.0.0.0.0.0.0.0.0.0.0.0.0.0.0.0.0.0.0.0.0.0.0.f.I d.0.0.y y y y y y y y y y ",
"y y y y y y y y y y 0.0.g.I I I I I h.j.j.j.j.j.j.j.j.j.j.j.j.j.j.j.j.j.j.j.j.j.j.j.j.j.j.j.k.I I I I l.z.0.y y y y y y y y y y ",
"y y y y y y y y y y 0.x.I I I I I c.j.j.j.j.j.j.j.j.j.j.j.j.j.j.j.j.j.j.j.j.j.j.j.j.j.j.j.j.h.I I I I I v.0.y y y y y y y y y y ",
"y y y y y y y y y y x.I b.n.m.I M.N.j.j.j.B.V.V.B.j.j.j.j.j.j.j.j.j.j.j.j.j.j.B.V.V.C.j.j.j.j.Z.I m.n.b.I x.y y y y y y y y y y ",
"y y y y y y y y y K I A.S.D.D.F.B.j.j.j.j.V.I I V.j.j.j.j.j.j.j.j.j.j.j.j.j.j.V.I I V.j.j.j.j.j.M.D.D.S.A.I K y y y y y y y y y ",
"y y y y y y y y y G.I m.D.D.D.N.j.j.j.j.j.I I I I j.j.j.j.j.j.j.j.j.j.j.j.j.j.I I I I j.j.j.j.j.N.D.D.D.m.I G.y y y y y y y y y ",
"y y y y y y y y y I I D.D.D.D.j.j.j.j.j.j.I I I I j.j.j.j.j.j.j.j.j.j.j.j.j.j.I I I I j.j.j.j.j.j.D.D.D.D.I I y y y y y y y y y ",
"y y y y y y y y y I I D.D.D.D.j.j.j.j.j.j.M.I I M.j.j.j.j.j.H.J.J.K.L.j.j.j.j.M.I I M.j.j.j.j.j.L.D.D.D.D.I I y y y y y y y y y ",
"y y y y y y y y y Y I m.D.D.D.P.j.j.j.j.j.B.I.I.B.j.j.j.j.U.D.D.D.D.H.j.j.j.j.B.I.I C.j.j.j.j.j.Y.D.D.D.m.I Y y y y y y y y y y ",
"y y y y y y y y y M I A.S.D.D.Y.j.j.j.j.j.j.j.j.j.j.j.h.T.D.D.D.D.D.D.T.B.j.j.j.j.j.j.j.j.j.j.j.Y.D.D.S.A.I M y y y y y y y y y ",
"y y y y y y y y y y d.I R.m.D.U.j.j.j.j.j.j.j.j.j.j.E.I I W.D.D.D.D.n.I I E.j.j.j.j.j.j.j.j.j.j.Q.D.m.R.I d.y y y y y y y y y y ",
"y y y y y y y y y y z.!.I I I Z.j.j.j.j.j.j.j.j.j.C.I I I I I I I I I I I I ~.j.j.j.j.j.j.j.j.j.Z.I I I !.z.y y y y y y y y y y ",
"y y y y y y y y y y 0.z.g.d.I V.j.j.j.j.j.j.j.j.j.F.I I I I I I I I I I I I I.j.j.j.j.j.j.j.j.j.Z.I v.^.0.0.y y y y y y y y y y ",
"y y y y y y y y y y 0.0.0.z.I M.j.j.j.j.j.j.j.j.j.I.I I I I I I I I I I I I I.j.j.j.j.j.j.j.j.j.F.I /.0.0.0.y y y y y y y y y y ",
"y y y y y y y y y y 0.0.s.(.I I B.j.j.j.j.j.j.j.j.h.Z.V.I I I I I I I I V.Z.h.j.j.j.j.j.j.j.j.B.I I !.s.0.0.y y y y y y y y y y ",
"y y y y y y y y y y 0.)._.I `./.'.].j.j.j.j.j.j.j.j.j.j.j.j.j.j.j.j.j.j.j.j.j.j.j.j.j.j.j.j.].[./.`.I _.).0.y y y y y y y y y y ",
"y y y y y y y y y y 0.v.I `.0.0.0.{.}.}.}.}.}.}.|. X X X X X X X X X X X X X X|.}.}.}.}.}.}.{.0.0.0.`.I v.0.y y y y y y y y y y ",
"y y y y y y y y y y .XI XXz.0.0.0.0.oXOXOXOXOXOX+X@X0.0.0.0.0.0.0.0.0.0.0.0.@X+XOXOXOXOXOXoX0.0.0.0.z.XXI .Xy y y y y y y y y y ",
"y y y y y y y y y y (.I /.0.0.0. X X#X$X%XOXOXOXOX+X&X0.0.0.0.0.0.0.0.0.0.&X+XOXOXOXOX%X$X#X X X0.0.0./.I (.y y y y y y y y y y ",
"y y y y y y y y y y I I z.0.*X=Xj.j.j.j.-X;XOXOXOXOXOX:X>X@X0.0.0.0.@X>X:XOXOXOXOXOX;X-Xj.j.j.j.=X*X0.z.I I y y y y y y y y y y ",
"y y y y y y y y y y I I 0.*Xj.j.j.j.j.j.j.].OXOXOXOXOXOXOXOXOXOXOXOXOXOXOXOXOXOXOXOX].j.j.j.j.j.j.j.*X0.I I y y y y y y y y y y ",
"y y y y y y y y y y d.I z.,Xj.j.j.j.j.j.j.j.OXOXOXOXOXOXOXOXOXOXOXOXOXOXOXOXOXOXOXOXj.j.j.j.j.j.j.j.,Xz.I d.y y y y y y y y y y ",
"y y y y y y y y y y !.I <Xj.j.j.j.j.j.j.j.j.OXOXOXOXOXOX1X2X3X3X3X3X2X1XOXOXOXOXOXOXj.j.j.j.j.j.j.j.j.<XI !.y y y y y y y y y y ",
"y y y y y y y y y y g.I Z.j.j.j.j.j.j.j.j.4XOXOXOXOXOX2X5X5X5X5X5X5X5X5X2XOXOXOXOXOX4Xj.j.j.j.j.j.j.j.Z.I g.y y y y y y y y y y ",
"y y y y y y y y y y .XI 6Xj.j.j.j.j.j.j.j.7XOXOXOXOX8X5X5X5X5X5X5X5X5X5X5X8XOXOXOXOX7Xj.j.j.j.j.j.j.j.6XI .Xy y y y y y y y y y ",
"y y y y y y y y y y ^.I M.j.j.j.j.j.j.j.9X0XOXOXOX1XqX5X5X5X5X5X5X5X5X5X5XqX1XOXOXOX0X9Xj.j.j.j.j.j.j.M.I ^.y y y y y y y y y y ",
"y y y y y y y y y y s.I I h.j.j.j.j.j.j.wXOXOXOXOXeX5X5X5X5X5X5X5X5X5X5X5X5XeXOXOXOXOXwXj.j.j.j.j.j.h.I I s.y y y y y y y y y y ",
"y y y y y y y y y y 0.x.I V.N.j.j.j.j.rXOXOXOXOXtX5X5XyXuXiXiXiXiXiXiXuXyX5X5XtXOXOXOXOXrXj.j.j.j.N.V.I x.0.y y y y y y y y y y ",
"y y y y y y y y y y 0.s._.I V.E.pXaXsXOXOXOXOXOXdX5XfXgXI I I I I I I I gXfX5XdXOXOXOXOXOXsXaXpXE.V.I _.s.0.y y y y y y y y y y ",
"y y y y y y y y y y 0.0.).v.I I hXhXhXhXhXhXhXhXhXhXhXhXjXI .X^.^..XI jXhXhXhXhXhXhXhXhXhXhXhXhXI I v.).0.0.y y y y y y y y y y ",
"y y y y y y y y y y 0.0.0.z.I I hXhXhXhXhXhXhXhXhXhXhXhXjXI ^.0.0.^.I jXhXhXhXhXhXhXhXhXhXhXhXhXI I z.0.0.0.y y y y y y y y y y ",
"y y y y y y y y y y 0.0.0.0._.I kXhXhXhXhXhXhXhXhXhXhXlXzXI s.0.0.).I I xXhXhXhXhXhXhXhXhXhXhXcXI (.0.0.0.0.y y y y y y y y y y ",
"y y y y y y y y y y 0.0.0.0./.I I vXkXbXnXhXhXhXmXMXcXI I l.0.0.0.0.x.I I NXMXbXhXhXhXhXnXkXvXI I ^.0.0.0.0.y y y y y y y y y y ",
"y y y y y y y y y y 0.0.0.0.0.BX_.I I I I I I I I I I I .X0.0.0.0.0.0.g.I I I I I I I I I I I _.^.0.0.0.0.0.y y y y y y y y y y ",
"y y y y y y y y y y 0.0.0.0.0.0.0./.x._.I I I I I (..Xz.0.0.0.0.0.0.0.0.0./.(.(.I I I I I !./.0.0.0.0.0.0.0.y y y y y y y y y y "
};
