/* XPM */
static char *result[] = {
/* columns rows colors chars-per-pixel */
"64 64 212 2 ",
"   c #758C8E",
".  c #7C9597",
"X  c #849EA1",
"o  c #819A9D",
"O  c #758D8F",
"+  c #778E90",
"@  c #7D9598",
"#  c #799093",
"$  c #7A9194",
"%  c #7B9396",
"&  c #768E90",
"*  c #829B9E",
"=  c #7C9497",
"-  c #768D8F",
";  c #7A9294",
":  c #7B9295",
">  c #778E91",
",  c #788F92",
"<  c #789092",
"1  c #788F91",
"2  c #798886",
"3  c #788381",
"4  c #737168",
"5  c #6D5E50",
"6  c #6D5E4F",
"7  c #6B5C4E",
"8  c #6E685E",
"9  c #6F6C63",
"0  c #717874",
"q  c #7A9295",
"w  c #82999B",
"e  c #747873",
"r  c #6D6358",
"t  c #694C39",
"y  c #70675C",
"u  c #767974",
"i  c #7C9092",
"p  c #80999C",
"a  c #7B8480",
"s  c #6C5545",
"d  c #60583E",
"f  c #586543",
"g  c #487E4D",
"h  c #3C9155",
"j  c #389757",
"k  c #546B45",
"l  c #5C5E40",
"z  c #6B5444",
"x  c #767E7A",
"c  c #7C9396",
"v  c #7E9799",
"b  c #7A7F7A",
"n  c #4C784A",
"m  c #30A45C",
"M  c #28B162",
"N  c #2CAA5F",
"B  c #819494",
"V  c #7B8C8D",
"C  c #7F989B",
"Z  c #736A60",
"A  c #507148",
"S  c #778F91",
"D  c #6F6152",
"F  c #6B513F",
"G  c #64523B",
"H  c #839C9F",
"J  c #35B56B",
"K  c #78CE9C",
"L  c #BBE6CD",
"P  c #C9EBD7",
"I  c #E4F5EB",
"U  c white",
"Y  c #D6F0E1",
"T  c #50BF7F",
"R  c #799193",
"E  c #7D9698",
"W  c #F1FAF5",
"Q  c #42BA75",
"!  c #AEE1C4",
"~  c #29B664",
"^  c #29B765",
"/  c #2BBE69",
"(  c #2ABB67",
")  c #2ECC71",
"_  c #35BC6A",
"`  c #6B5749",
"'  c #56744A",
"]  c #6D594B",
"[  c #ECCDA2",
"{  c #FFE0B1",
"}  c #A18366",
"|  c #726C63",
" . c #AA8C6D",
".. c #8B6F55",
"X. c #B49976",
"o. c #BBA07C",
"O. c #85674F",
"+. c #F5D6A9",
"@. c #E2C49A",
"#. c #8E7157",
"$. c #D9BB93",
"%. c #B49675",
"&. c #71746E",
"*. c #7D6149",
"=. c #D0B58D",
"-. c #D7BD93",
";. c #7B5E48",
":. c #E8CCA0",
">. c #E1C59A",
",. c #E6CA9E",
"<. c #FCDDAF",
"1. c #6A5343",
"2. c #FADBAD",
"3. c #725540",
"4. c #F0D2A5",
"5. c #F5D7A9",
"6. c #BD9F7C",
"7. c #765A44",
"8. c #D0B18B",
"9. c #A68B6B",
"0. c #F2D5A7",
"q. c #6C594B",
"w. c #798D8E",
"e. c #6F6357",
"r. c #C6A884",
"t. c #6D6054",
"y. c #748889",
"u. c #727C79",
"i. c #777C77",
"p. c #71665A",
"a. c #6A513F",
"s. c #5A6C47",
"d. c #449C5C",
"f. c #5C955C",
"g. c #FCCDA2",
"h. c #77A76B",
"j. c #6B5140",
"k. c #7F8F8D",
"l. c #A38557",
"z. c #ED7159",
"x. c #90B173",
"c. c #62D181",
"v. c #73756E",
"b. c #65543C",
"n. c #31C46D",
"m. c #8A8C56",
"M. c #E74C3C",
"N. c #CF5C42",
"B. c #39C46D",
"V. c #777A73",
"C. c #48CE79",
"Z. c #739C5D",
"A. c #DB543F",
"S. c #50B467",
"D. c #6FD285",
"F. c #F1DEAD",
"G. c #EECC9E",
"H. c #EB6751",
"J. c #C46445",
"K. c #67A460",
"L. c #E4DDA9",
"P. c #6E5B4D",
"I. c #81AA73",
"U. c #E34A3B",
"Y. c #DA4738",
"T. c #D34536",
"R. c #FAC49B",
"E. c #CD4335",
"W. c #76756D",
"Q. c #977A5E",
"!. c #F49F7D",
"~. c #DD4839",
"^. c #FDD6A9",
"/. c #EA5E4A",
"(. c #CE4335",
"). c #7D8A87",
"_. c #7A8B8C",
"`. c #EE7A60",
"'. c #D14436",
"]. c #6F665B",
"[. c #F6A885",
"{. c #DE4939",
"}. c #C64335",
"|. c #AD4536",
" X c #9B4737",
".X c #748484",
"XX c #6A503F",
"oX c #CFB691",
"OX c #D7B692",
"+X c #F18C6F",
"@X c #D64637",
"#X c #803B34",
"$X c #493633",
"%X c #72807E",
"&X c gray20",
"*X c #5B4537",
"=X c #71726A",
"-X c #6A503E",
";X c #4E3F36",
":X c #433A34",
">X c #654A38",
",X c #3D3734",
"<X c #544236",
"1X c #5E4737",
"2X c #403934",
"3X c #393633",
"4X c #363433",
"5X c #473C35",
"6X c #584437",
"7X c #717873",
"8X c #6D6459",
"9X c #6C5D4E",
/* pixels */
"      . X X X X X X X o O     + @ @ @ @ @ @ @ @ @ @ @ @ @ @ @ @ @ @ @ @ @ @ @ @ @ #       $ @ @ @ @ @ @ @ @ @ @ @ @ @ %         ",
"  & o X X X X X X X X X * O     = @ @ @ @ @ @ @ @ @ @ @ @ @ @ @ @ @ @ @ @ @ @ @ @ -     # @ @ @ @ @ @ @ @ @ @ @ @ @ @ @ ;       ",
"O o X X X X X X X X X X X o     # @ @ @ @ @ @ @ @ @ @ @ @ @ @ @ @ @ @ @ @ @ @ @ :     - = @ @ @ @ @ @ @ @ @ @ @ @ @ @ @ @ >     ",
"o X X X X X X X X X X X X X .     = @ @ @ @ @ @ @ @ @ @ @ @ @ @ @ @ @ @ @ @ @ @ +     , @ @ @ @ @ @ @ @ @ @ @ @ @ @ @ @ @ ;     ",
"X X X X X X X X X X X X X X X <   + @ @ @ @ @ @ @ @ @ @ @ @ @ @ @ @ @ @ @ @ @ $       # @ @ @ @ @ @ @ @ @ @ @ @ @ @ @ @ @ :   o ",
"X X X X X X X X X X X X X X X *     1 2 3 4 4 4 5 5 5 5 5 5 5 5 5 5 5 5 5 5 6 7 8 9 9 0 3 @ @ @ @ @ @ @ @ @ @ @ @ @ @ @ @ 1 q X ",
"X X X X X X X X X X X X X X X w e r 7 t t t t t t t t t t t t t t t t t t t t t t t t t t 5 y u i @ @ @ @ @ @ @ @ @ @ @ %   p X ",
"X X X X X X X X X X X X X X a s t t t d f g g g h j j j j j j j j j j j j j j j g g g k l t t t z x @ @ @ @ @ @ @ @ @ c -   v X ",
"X X X X X X X X X X X X X b t t d n h m M M M M M M M M M M M M M M M M M M M M M M M M N j g d t t u @ @ @ @ @ @ @ = -     < X ",
"X X X X X X X X X X X X B t t n N M M M M M M M M M M M M M M M M M M M M M M M M M M M M M M N g t t V @ @ @ @ @ = >         C ",
"* X X X X X X X X X X X Z t A M M M M M M M M M M M M M M M M M M M M M M M M M M M M M M M M M M A t y @ @ @ @ = +           O ",
"S X X X X X X X X X X X D t m M M M M M M M M M M M M M M M M M M M M M M M M M M M M M M M M M M m t 5 @ @ @ = -               ",
"  q X X X X X X X X X X F G M M M M M M M M M M M M M M M M M M M M M M M M M M M M M M M M M M M M t t @ @ % -   - $ : : : ,   ",
"    % X X X X X X X X H t t M M M M M M M M M M M M M J K L P P P P L K M M M M M M M M M M M M M M t t + -     # @ @ @ @ @ @ = ",
"c -   v X X X X X X * & t t M M M M M M M M M M M M K I U U U U U U U U Y T M M M M M M M M M M M M t t       R @ @ @ @ @ @ @ @ ",
"@ = -   E H X X X v O   t t M M M M M M M M M M M T W U U U U U U U U U U I T M M M M M M M M M M M t t     $ @ @ @ @ @ @ @ @ @ ",
"@ @ = >   O < <         t t M M M M M M M M M M Q W U U U U U U U U U U U U Y J M M M M M M M M M M t t   ; @ @ @ @ @ @ @ @ @ @ ",
"@ @ @ = -             % t t M M M M M M M M M M ! U U U U U U U U U U U U U U ! M M M M M M M M M M t t $ @ @ @ @ @ @ @ @ @ @ @ ",
"@ @ @ @ = -         , @ t t M M M M M M M M M M W U U U U U U U U U U U U U U W M M M M M M M M M M t t @ @ @ @ @ @ @ @ @ @ @ @ ",
"@ @ @ @ @ = -       : @ t t M M ~ ^ ^ ^ ^ / / / / / / / / / / / / / / / / / / / / / / ( ^ ^ ^ ~ M M t t @ @ @ @ @ @ @ @ @ @ @ @ ",
"@ @ @ @ @ @ = -     ; @ t t ) ) ) ) ) ) ) ) ) ) ) ) ) ) ) ) ) ) ) ) ) ) ) ) ) ) ) ) ) ) ) ) ) ) ) ) t t @ @ @ @ @ @ @ @ @ @ @ @ ",
"@ @ @ @ @ @ @ c     - @ t t ) ) ) ) ) ) ) ) ) ) ) ) ) ) ) ) ) ) ) ) ) ) ) ) ) ) ) ) ) ) ) ) ) ) ) ) t t @ @ @ @ @ @ @ @ @ @ @ @ ",
"@ @ @ @ @ @ @ @ :     , t t ) ) ) ) ) ) ) ) ) ) ) ) ) ) ) ) ) ) ) ) ) ) ) ) ) ) ) ) ) ) ) ) ) ) ) ) t t @ @ @ @ @ @ @ @ @ @ @ @ ",
"@ @ @ @ @ @ @ @ @ +     t t _ ) ) ) ) ) ) ) ) ) ) ) ) ) ) ) ) ) ) ) ) ) ) ) ) ) ) ) ) ) ) ) ) ) ) _ t t @ @ @ @ @ @ @ @ @ @ @ @ ",
"@ @ @ @ @ @ @ @ @ $     ` t ' ) ) ) ) ) ) ) ) ) ) ) ) ) ) ) ) ) ) ) ) ) ) ) ) ) ) ) ) ) ) ) ) ) ) ' t ] @ @ @ @ @ @ @ @ @ @ @ @ ",
"@ @ @ @ @ @ @ @ @ :     9 t t t t t [ { { { { { { { { { { { { { { { { { { { { { { { { { { { } t t t t | i @ @ @ @ @ @ @ @ @ @ @ ",
"@ @ @ @ @ @ @ @ @ ;   r t t t t t  .{ { { { { { { { { { { { { { { { { { { { { { { { { { { { [ t t t t t z @ @ @ @ @ @ @ @ @ @ @ ",
"@ @ @ @ @ @ @ @ @ 1 r t ..X.o.t O.+.{ { { @.#.#.@.{ { { { { { { { { { { { { { @.#.#.$.{ { { { %.t o.X...t y @ @ @ @ @ @ @ @ @ @ ",
"@ @ @ @ @ @ @ @ % &.t *.=.-.-.;.@.{ { { { #.t t #.{ { { { { { { { { { { { { { #.t t #.{ { { { { O.-.-.=.*.t u @ @ @ @ @ @ @ @ @ ",
"@ @ @ @ @ @ @ = - ` t o.-.-.-.+.{ { { { { t t t t { { { { { { { { { { { { { { t t t t { { { { { +.-.-.-.o.t ] @ @ @ @ @ @ @ @ @ ",
"@ @ @ @ @ @ @ >   t t -.-.-.-.{ { { { { { t t t t { { { { { { { { { { { { { { t t t t { { { { { { -.-.-.-.t t @ @ @ @ @ @ @ @ @ ",
"@ @ @ @ @ @ 1     t t -.-.-.-.{ { { { { { O.t t O.{ { { { { :.>.>.,.<.{ { { { O.t t O.{ { { { { <.-.-.-.-.t t @ @ @ @ @ @ @ @ @ ",
"@ @ @ @ @ ,       1.t o.-.-.-.2.{ { { { { @.3.3.@.{ { { { 4.-.-.-.-.:.{ { { { @.3.t $.{ { { { { 5.-.-.-.o.t z @ @ @ @ @ @ @ @ @ ",
"@ @ @ @ $         9 t *.=.-.-.5.{ { { { { { { { { { { [ 6.-.-.-.-.-.-.6.@.{ { { { { { { { { { { 5.-.-.=.*.t 4 @ @ @ @ @ @ @ @ @ ",
"@ @ @ ,             ` t 7.o.-.4.{ { { { { { { { { { 8.t t 9.-.-.-.-.X.t t 8.{ { { { { { { { { { 0.-.o.7.t q.@ @ @ @ @ @ @ @ @ @ ",
"@ @ 1               w.e.t t t %.{ { { { { { { { { $.t t t t t t t t t t t t r.{ { { { { { { { { %.t t t t.y.% @ @ @ @ @ @ @ @ @ ",
"= >               $ @ i 4 ] t #.{ { { { { { { { { ;.t t t t t t t t t t t t 3.{ { { { { { { { { %.t 1.u.      ; @ @ @ @ @ @ @ @ ",
"-               # @ @ @ @ i t O.{ { { { { { { { { 3.t t t t t t t t t t t t 3.{ { { { { { { { { ;.t i.. O       $ @ @ @ @ @ @ = ",
"              + @ @ @ @ V 5 t t @.{ { { { { { { { [ %.#.t t t t t t t t #.%.[ { { { { { { { { @.t t p.B p O       - : @ @ = #   ",
"            - = @ @ @ 2 a.t s.d.f.g.{ { { { { { { { { { { { { { { { { { { { { { { { { { { { g.h.d.s.t j.k.o O                   ",
"            : @ @ @ @ z t s.) ) ) l.z.z.z.z.z.z.x.c.c.c.c.c.c.c.c.c.c.c.c.c.c.x.z.z.z.z.z.z.l.) ) ) s.t s X o O                 ",
"          , @ @ @ @ v.t b.n.) ) ) ) m.M.M.M.M.M.N.B.) ) ) ) ) ) ) ) ) ) ) ) B.N.M.M.M.M.M.m.) ) ) ) n.b.t V.X o O               ",
"          = @ @ @ @ 5 t d.) ) ) c.c.C.Z.A.M.M.M.M.N.S.) ) ) ) ) ) ) ) ) ) S.N.M.M.M.M.A.Z.C.c.c.) ) ) d.t D X X o O             ",
"        , @ @ @ @ @ t t n.) D.F.{ { { { G.H.M.M.M.M.M.J.K.B.) ) ) ) B.K.J.M.M.M.M.M.H.G.{ { { { F.D.) n.t t X X X o             ",
"        # @ @ @ @ @ t t ) D.{ { { { { { { g.M.M.M.M.M.M.M.M.M.M.M.M.M.M.M.M.M.M.M.M.g.{ { { { { { { D.) t t X X X X %           ",
"        1 @ @ @ @ @ ] t n.L.{ { { { { { { { M.M.M.M.M.M.M.M.M.M.M.M.M.M.M.M.M.M.M.M.{ { { { { { { { L.n.t P.X X X X *           ",
"          % @ @ @ @ e.t I.{ { { { { { { { { M.M.M.M.M.M.U.Y.T.T.T.T.Y.U.M.M.M.M.M.M.{ { { { { { { { { I.t p.X X X X X           ",
"            % @ @ @ 4 t %.{ { { { { { { { R.M.M.M.M.M.Y.E.E.E.E.E.E.E.E.Y.M.M.M.M.M.R.{ { { { { { { { %.t W.X X X X p           ",
"              % @ @ v.t Q.{ { { { { { { { !.M.M.M.M.~.E.E.E.E.E.E.E.E.E.E.~.M.M.M.M.!.{ { { { { { { { Q.t V.X X X X <           ",
"                ; @ 3 t O.{ { { { { { { ^./.M.M.M.U.(.E.E.E.E.E.E.E.E.E.E.(.U.M.M.M./.^.{ { { { { { { O.t ).X X X %       & < O ",
"q                 > _.t t [ { { { { { { `.M.M.M.M.'.E.E.E.E.E.E.E.E.E.E.E.E.'.M.M.M.M.`.{ { { { { { [ t t B X X .       E X X X ",
"X E                 - ].t #.+.{ { { { [.M.M.M.M.{.E.E.}.|. X X X X X X|.}.E.E.{.M.M.M.M.[.{ { { { +.#.t Z X X E       v X X X X ",
"X X v                 .XXXt #.8.oXOX+XM.M.M.M.M.@XE.#X$Xt t t t t t t t $X#XE.@XM.M.M.M.M.+XOXoX8.#.t j.B X v       v X X X X X ",
"X X X v                 %X1.t t &X&X&X&X&X&X&X&X&X&X&X&X*Xt v.3 3 =Xt *X&X&X&X&X&X&X&X&X&X&X&X&Xt t s k.X %       v X X X X X X ",
"X X X X .                 y.t t &X&X&X&X&X&X&X&X&X&X&X&X*Xt 3 @ @ 3 t *X&X&X&X&X&X&X&X&X&X&X&X&Xt t w X q       . X X X X X X X ",
"X X X X p                   -Xt ;X&X&X&X&X&X&X&X&X&X&X:X>Xt V @ @ 2 t t ,X&X&X&X&X&X&X&X&X&X&X<Xt 5 % O         p X X X X X X X ",
"X X X X p                   &.t t 1X;X2X3X&X&X&X4X5X<Xt t | @ @ @ @ y t t 6X5X2X&X&X&X&X3X;X1Xt t u.            p X X X X X X X ",
"X X X X .                     7X-Xt t t t t t t t t t t v.@ @ @ @ @ @ 4 t t t t t t t t t t t -Xu.              . X X X X X X X ",
"X X X v                           &.8Xa.t t t t t 5 v.i @ @ @ @ @ @ @ @ @ u 9X7 t t t t t t.&.                    v X X X X X X ",
"X X v                               = @ @ @ @ @ @ @ @ @ @ @ @ @ @ @ @ @ @ @ @ +                     $ @ @ @ : -     v X X X X X ",
"X %                               : @ @ @ @ @ @ @ @ @ @ @ @ @ @ @ @ @ @ @ @ @ =                   $ @ @ @ @ @ %       E X X X X ",
"q                               , @ @ @ @ @ @ @ @ @ @ @ @ @ @ @ @ @ @ @ @ @ @ @ ;               : @ @ @ @ @ @ @ c -     q X X X ",
"          < v p p . &           c @ @ @ @ @ @ @ @ @ @ @ @ @ @ @ @ @ @ @ @ @ @ @ @ -           % @ @ @ @ @ @ @ @ @ = -     O < O ",
"        R H X X X X * O       + @ @ @ @ @ @ @ @ @ @ @ @ @ @ @ @ @ @ @ @ @ @ @ @ @ #         ; @ @ @ @ @ @ @ @ @ @ @ =           "
};
