/* XPM */
static char *result[] = {
/* columns rows colors chars-per-pixel */
"64 64 225 2 ",
"   c #758C8E",
".  c #7C9597",
"X  c #849EA1",
"o  c #819A9D",
"O  c #758D8F",
"+  c #778E90",
"@  c #7D9598",
"#  c #799093",
"$  c #7A9194",
"%  c #7B9396",
"&  c #768E90",
"*  c #829B9E",
"=  c #7C9497",
"-  c #768D8F",
";  c #7A9294",
":  c #7B9295",
">  c #778E91",
",  c #788F92",
"<  c #789092",
"1  c #788F91",
"2  c #7B8C8D",
"3  c #767E7A",
"4  c #737168",
"5  c #726C63",
"6  c #726F67",
"7  c #6F6C63",
"8  c #717873",
"9  c #727C79",
"0  c #72807E",
"q  c #7A9295",
"w  c #748484",
"e  c #71736B",
"r  c #6D5E50",
"t  c #694C39",
"y  c #6A5343",
"u  c #80999C",
"i  c #757974",
"p  c #6B5749",
"a  c #60583E",
"s  c #586543",
"d  c #487E4D",
"f  c #6F6256",
"g  c #7C9092",
"h  c #7C9396",
"j  c #7E9799",
"k  c #82999B",
"l  c #76756D",
"z  c #6B5140",
"x  c #64523B",
"c  c #546B45",
"v  c #408B52",
"b  c #30A45C",
"n  c #28B162",
"m  c #2CAA5F",
"M  c #70665C",
"N  c #7F8F8D",
"B  c #6E5B4D",
"V  c #5C5E40",
"C  c #77827F",
"Z  c #7F989B",
"A  c #7A7F7A",
"S  c #3C9155",
"D  c #6F6D64",
"F  c #778F91",
"G  c #7B8480",
"H  c #448450",
"J  c #6B5C4E",
"K  c #819494",
"L  c #507148",
"P  c #35B56B",
"I  c #5DC489",
"U  c #60A675",
"Y  c #6D5E4F",
"T  c #6F6152",
"R  c #AEE1C4",
"E  c white",
"W  c #D9D2CD",
"Q  c #93D8B0",
"!  c #6A503E",
"~  c #799193",
"^  c #7D9698",
"/  c #839C9F",
"(  c #736A60",
")  c #78CE9C",
"_  c #ECE8E6",
"`  c #BBE6CD",
"'  c #788889",
"]  c #CAF2DB",
"[  c #5A6C47",
"{  c #5D6443",
"}  c #70675C",
"|  c #798886",
" . c #28B262",
".. c #29B765",
"X. c #2ABC68",
"o. c #2BBE69",
"O. c #2BC16B",
"+. c #2CC56D",
"@. c #2ECC71",
"#. c #40A45F",
"$. c #527C4E",
"%. c #737D7A",
"&. c #2ABB67",
"*. c #2BC06A",
"=. c #2DCA70",
"-. c #35BC6A",
";. c #4F8451",
":. c #6B5444",
">. c #7B8E90",
",. c #2CC36C",
"<. c #2DC86F",
"1. c #6A503F",
"2. c #29B966",
"3. c #2CC66E",
"4. c #39B466",
"5. c #3BA660",
"6. c #31C46D",
"7. c #3CAC63",
"8. c #4B8C55",
"9. c #65543C",
"0. c #6F6357",
"q. c #449C5C",
"w. c #55CF7D",
"e. c #62D181",
"r. c #89D48D",
"t. c #96D691",
"y. c #B0D899",
"u. c #CADBA1",
"i. c #D7DCA5",
"p. c #FFE0B1",
"a. c #767974",
"s. c #76875D",
"d. c #AA8C6D",
"f. c #ECCDA2",
"g. c #E2C49A",
"h. c #725540",
"j. c #C6A884",
"k. c #85674F",
"l. c #D9BB93",
"z. c #B49675",
"x. c #8E7157",
"c. c #7B5E48",
"v. c #71746E",
"b. c #6D6054",
"n. c #977A5E",
"m. c #F5D6A9",
"M. c #BD9F7C",
"N. c #6D6358",
"B. c #D0B18B",
"V. c #A18366",
"C. c #76807E",
"Z. c #716F66",
"A. c #777972",
"S. c #E4DDA9",
"D. c #58C779",
"F. c #B95542",
"G. c #ED7159",
"H. c #84B977",
"J. c #CA8963",
"K. c #9CA970",
"L. c #3BCD75",
"P. c #756F67",
"I. c #704C39",
"U. c #E74C3C",
"Y. c #B86C49",
"T. c #5CAC63",
"R. c #DB543F",
"E. c #67A460",
"W. c #6C5545",
"Q. c #984C3A",
"!. c #F1DEAD",
"~. c #968453",
"^. c #AF4C3A",
"/. c #E85543",
"(. c #CF5C42",
"). c #739C5D",
"_. c #C74C3B",
"`. c #FAC49B",
"'. c #A3D795",
"]. c #50B467",
"[. c #AD744C",
"{. c #7E9459",
"}. c #F08367",
"|. c #48CE79",
" X c #A84C3A",
".X c #6D594B",
"XX c #F39676",
"oX c #6DC97D",
"OX c #6A513F",
"+X c #C44A3A",
"@X c #A14839",
"#X c #624838",
"$X c #798A8B",
"%X c #514136",
"&X c #363433",
"*X c #AE4439",
"=X c #FDD6A9",
"-X c #8D3F37",
";X c gray20",
":X c #4A3D35",
">X c #654A38",
",X c #544236",
"<X c #F49F7D",
"1X c #603935",
"2X c #473C35",
"3X c #433A34",
"4X c #543734",
"5X c #EA5E4A",
"6X c #EE7A60",
"7X c #493634",
"8X c #C5473A",
"9X c #984138",
"0X c #3D3734",
"qX c #5B4537",
"wX c #3E3433",
"eX c #584437",
"rX c #403934",
"tX c #4E3F36",
"yX c #748889",
"uX c #5E4737",
"iX c #393633",
"pX c #737B76",
"aX c #788381",
"sX c #6A5443",
"dX c #6F7068",
/* pixels */
"      . X X X X X X X o O     + @ @ @ @ @ @ @ @ @ @ @ @ @ @ @ @ @ @ @ @ @ @ @ @ @ #       $ @ @ @ @ @ @ @ @ @ @ @ @ @ %         ",
"  & o X X X X X X X X X * O     = @ @ @ @ @ @ @ @ @ @ @ @ @ @ @ @ @ @ @ @ @ @ @ @ -     # @ @ @ @ @ @ @ @ @ @ @ @ @ @ @ ;       ",
"O o X X X X X X X X X X X o     # @ @ @ @ @ @ @ @ @ @ @ @ @ @ @ @ @ @ @ @ @ @ @ :     - = @ @ @ @ @ @ @ @ @ @ @ @ @ @ @ @ >     ",
"o X X X X X X X X X X X X X .     = @ @ @ @ @ @ @ @ @ @ @ @ @ @ @ @ @ @ @ @ @ @ +     , @ @ @ @ @ @ @ @ @ @ @ @ @ @ @ @ @ ;     ",
"X X X X X X X X X X X X X X X <   + @ @ @ @ @ @ @ @ @ @ @ @ @ @ @ @ @ @ @ @ @ $       # @ @ @ @ @ @ @ @ @ @ @ @ @ @ @ @ @ :   o ",
"X X X X X X X X X X X X X X X *     1 @ @ @ 2 3 4 5 4 4 4 4 4 4 4 4 4 4 4 4 6 7 8 9 0 - @ @ @ @ @ @ @ @ @ @ @ @ @ @ @ @ @ 1 q X ",
"X X X X X X X X X X X X X X X X %   w e r t t t t t t t t t t t t t t t t t t t t t t y e @ @ @ @ @ @ @ @ @ @ @ @ @ @ @ %   u X ",
"X X X X X X X X X X X X X X X X i p t t t t a s d d d d d d d d d d d d d d d d s s t t t f g @ @ @ @ @ @ @ @ @ @ @ @ h -   j X ",
"X X X X X X X X X X X X X k l z t t x c v b n n n n n n n n n n n n n n n n n n n n m d t t M @ @ @ @ @ @ @ @ @ @ @ = -     < X ",
"X X X X X X X X X X X X N B t t V v n n n n n n n n n n n n n n n n n n n n n n n n n n v t t C @ @ @ @ @ @ @ @ @ = >         Z ",
"* X X X X X X X X X X A t t a S n n n n n n n n n n n n n n n n n n n n n n n n n n n n n V t D % @ @ @ @ @ @ @ = +           O ",
"F X X X X X X X X X G t t s m n n n n n n n n n n n n n n n n n n n n n n n n n n n n n n H t J   % @ @ @ @ @ = -               ",
"  q X X X X X X X K z t L n n n n n n n n n n n n n n n n n n n n n n n n n n n n n n P I U t Y     $ @ @ @ % -   - $ : : : ,   ",
"    % X X X X X X T t s n n n n n n n n n n n n n n n n n n n n n n n n n n n n n I R E E W t r       - + -     # @ @ @ @ @ @ = ",
"h -   j X X X X N t t b n n n n n n n n n n n n n n n n n n n n n n n n n n n n Q E E E E W t !               ~ @ @ @ @ @ @ @ @ ",
"@ = -   ^ / X X ( t L n n n n n n n n n n n n n n n n n n n n n n n n n n n n ) E E E E E _ t t             $ @ @ @ @ @ @ @ @ @ ",
"@ @ = >   O < < y t S n n n n n n n n n n n n n n n n n n n n n n n n n n n I E E E E E E E t t           ; @ @ @ @ @ @ @ @ @ @ ",
"@ @ @ = -       t t n n n n n n n n n n n n n n n n n n n n n n n n n n n n ` E E E E E E E t t t t J 7 ' @ @ @ @ @ @ @ @ @ @ @ ",
"@ @ @ @ = -   9 t V n n n n n n n n n n n n n n n n n n n n n n n n n n n n ] ] ] ] ] ] ] ] [ [ { t t t t } | @ @ @ @ @ @ @ @ @ ",
"@ @ @ @ @ = - 9 t s n n n n n n n n n n n n n n n n  .....X.o.O.+.+.@.@.@.@.@.@.@.@.@.@.@.@.@.@.@.@.#.$.t t t | @ @ @ @ @ @ @ @ ",
"@ @ @ @ @ @ = %.t s n n n n n n n n n n n ..&.*.+.=.@.@.@.@.@.@.@.@.@.@.@.@.@.@.@.@.@.@.@.@.@.@.@.@.@.@.-.;.t :.@ @ @ @ @ @ @ @ ",
"@ @ @ @ @ @ @ >.t t n n n n n n ..&.,.<.@.@.@.@.@.@.@.@.@.@.@.@.@.@.@.@.@.@.@.@.@.@.@.@.@.@.@.@.@.@.@.@.@.@.t t @ @ @ @ @ @ @ @ ",
"@ @ @ @ @ @ @ @ 1.t b n 2.o.3.@.@.@.@.@.@.@.@.@.@.@.@.@.@.@.@.@.@.@.@.@.@.@.@.@.@.@.@.@.@.@.@.@.@.@.@.@.@.4.t t @ @ @ @ @ @ @ @ ",
"@ @ @ @ @ @ @ @ r t 5.<.@.@.@.@.@.@.@.@.@.@.@.@.@.@.@.@.@.@.@.@.@.@.@.@.@.@.@.@.@.@.@.@.@.@.6.7.7.7.7.8.8.9.t 5 @ @ @ @ @ @ @ @ ",
"@ @ @ @ @ @ @ @ 0.t q.@.@.@.@.@.@.@.@.@.@.@.@.@.@.@.@.@.@.@.w.e.e.e.r.t.t.t.y.u.u.u.i.p.p.t t t t t t t t t 0.@ @ @ @ @ @ @ @ @ ",
"@ @ @ @ @ @ @ @ a.t 9.q.7.7.7.7.7.#.8.8.8.;.[ [ [ s.p.p.p.p.p.p.p.p.p.p.p.p.p.p.p.p.p.p.p.t t r r r r 4 4 | @ @ @ @ @ @ @ @ @ @ ",
"@ @ @ @ @ @ @ @ @ t t t t t t t t t t t t t t t t d.p.p.p.p.p.p.p.p.p.p.p.p.p.p.p.p.p.p.p.t t @ @ @ @ @ @ @ @ @ @ @ @ @ @ @ @ @ ",
"@ @ @ @ @ @ @ @ @ t t t t t t t t t t t t t t t t f.p.p.p.p.p.p.g.h.t j.p.p.p.p.p.p.p.p.p.t t h @ @ @ @ @ @ @ @ @ @ @ @ @ @ @ @ ",
"@ @ @ @ @ @ @ @ % t t t t t t t t t k.l.p.p.p.l.z.p.p.p.p.p.p.p.x.t t c.p.p.p.p.p.p.p.p.p.t t > @ @ @ @ @ @ @ @ @ @ @ @ @ @ @ @ ",
"@ @ @ @ @ @ @ = - t t t t t t t t h.f.p.p.p.p.p.p.p.p.p.p.p.p.p.t t t t p.p.p.p.p.p.p.p.p.t t v.$ @ @ @ @ @ @ @ @ @ @ @ @ @ @ @ ",
"@ @ @ @ @ @ @ >   t t t t t t t t l.p.p.p.p.p.p.p.p.p.p.p.p.p.p.t t t t p.p.p.p.p.p.p.p.p.t t t b.% @ @ @ @ @ @ @ @ @ @ @ @ @ @ ",
"@ @ @ @ @ @ 1     t t t t t t t t p.p.p.p.p.p.p.p.p.p.p.p.p.p.p.n.t t k.p.p.p.p.p.p.p.p.p.l.j.c.t 7 % @ @ @ @ @ @ @ @ @ @ @ @ @ ",
"@ @ @ @ @ ,       y t t t t t t t p.p.p.p.p.p.p.p.p.p.p.p.p.p.p.m.c.t l.p.p.p.p.p.p.p.p.p.p.p.j.t y   h @ @ @ @ @ @ @ @ @ @ @ @ ",
"@ @ @ @ $         J t t t t t t t j.p.p.p.p.p.p.p.p.p.p.p.p.p.p.p.p.p.p.p.f.M.n.x.x.h.n.g.p.p.p.t t   - = @ @ @ @ @ @ @ @ @ @ @ ",
"@ @ @ ,           N.t t t t t t t h.f.p.p.p.p.p.p.p.p.p.p.p.p.p.p.p.p.p.B.t t t t t t t c.p.m.z.t t     - % @ @ @ @ @ @ @ @ @ @ ",
"@ @ 1             7 t t t t t h.V.l.p.p.p.p.p.p.p.p.p.p.p.p.p.p.p.p.p.l.t t t t t t t t t t t t t b.        % @ @ @ @ @ @ @ @ @ ",
"= >               C.t c.z.z.l.p.p.p.p.p.p.p.p.p.p.p.p.p.p.p.p.p.p.p.p.c.t t t t t t t t t t t J v.            ; @ @ @ @ @ @ @ @ ",
"-               # g t k.p.p.p.p.p.p.p.p.p.p.p.p.p.p.p.p.p.p.p.p.p.p.p.h.t t t t t t t t t t t Z.Z u u . O       $ @ @ @ @ @ @ = ",
"              + @ @ :.t l.p.p.p.p.p.p.p.p.p.p.p.p.p.p.p.p.p.p.p.p.p.p.f.z.x.t t t t t t t t t A.X X X X u O       - : @ @ = #   ",
"            - = @ @ 4 t h.f.p.p.p.p.p.p.p.p.p.p.p.p.p.p.p.p.p.p.p.p.p.p.p.p.p.p.p.p.S.D.9.t ( k X X X X X o O                   ",
"            : @ @ @ @ :.t F.G.G.G.H.e.e.e.e.e.e.e.e.J.G.G.G.G.G.K.e.e.e.e.e.e.e.e.e.L.@.8.t P.X X X X X X X o O                 ",
"          , @ @ @ @ 2 t I.U.U.U.Y.@.@.@.@.@.@.@.@.@.T.U.U.U.U.U.R.E.@.@.@.@.@.@.@.@.@.@.6.t W.X X X X X X X X o O               ",
"          = @ @ @ @ 3 t Q.U.U.U.E.t.p.p.p.!.t.L.@.@.@.U.U.U.U.U.U.U.~.@.@.@.@.@.@.@.@.@.@.{ t K X X X X X X X X o O             ",
"        , @ @ @ @ @ 4 t ^.U.U./.u.p.p.p.p.p.p.u.@.@.@.U.U.U.U.U.U.U.U.(.).@.@.@.@.@.@.@.@.;.t G X X X X X X X X X o             ",
"        # @ @ @ @ @ 0.t _.U.U.`.p.p.p.p.p.p.p.p.'.@.].U.U.U.U.U.U.U.U.U.U.U.[.{.T.@.@.@.@.8.t l X X X X X X X X X X %           ",
"        1 @ @ @ @ @ r t _.U.}.p.p.p.p.p.p.p.p.p.p.|.~.U.U.U.U.U.U.U.U.U.U.U.U.U.U.U.U.U.U. Xt l X X X X X X X X X X *           ",
"          % @ @ @ g .Xt _.U.XXp.p.p.p.p.p.p.p.p.p.oXR.U.U.U.U.U.U.U.U.U.U.U.U.U.U.U.U.U.U. Xt W.l X X X X X X X X X X           ",
"            % @ | OXt t +XU.XXp.p.p.p.p.p.p.p.p.p.J.U.U.U.U.U.U.U.U.U.U.U.U.U.U.U.U.U.U.U.@X#Xt t ( X X X X X X X X u           ",
"              $XOXt %X&X*XU.}.p.p.p.p.p.p.p.p.p.=X/.U.U.U.U.U.U.U.U.U.U.U.U.U.U.U.U.U.U.U.-X;X:X>Xt A X X X X X X X <           ",
"              7 t ,X;X;X-XU.U.<Xp.p.p.p.p.p.p.=X}.U.U.U.U.U.U.U.U.U.U.U.U.U.U.U.U.U.U.U.U.1X;X;X2Xt W.X X X X X X %       & < O ",
"q             J t 3X;X;X4XU.U.U.5X6XXXXXXXXXG./.U.U.U.U.U.U.U.U.U.U.U.U.U.U.U.U.U.U.U.U.U.7X;X;X;Xt t X X X X X .       ^ X X X ",
"X ^           b.t 3X;X;X;X8XU.U.U.U.U.U.U.U.U.U.U.U.U.U.U.U.U.U.U.U.U.U.U.U.U.U.U.U.U.U.9X;X;X;X0Xt t X X X X ^       j X X X X ",
"X X j         v.t qX&X;X;X7X8XU.U.U.U.U.U.U.U.U.U.U.U.U.U.U.U.U.U.U.U.U.U.U.U.U.U.U.U.9XwX;X;X;XeXt P.X X X j       j X X X X X ",
"X X X j         p t eX;X;X;X;X;X;X;X;X;XrXt t t t t t t t t t t t t t t t tX;X;X;X;X;X;X;X;X;X2Xt t k X X %       j X X X X X X ",
"X X X X .       yX! t uXiX;X;X;X;X;X;X;XrXt t t t t t t t t t t t t t t t tX;X;X;X;X;X;X;X;X%Xt t A X X q       . X X X X X X X ",
"X X X X u         v.! t >X:X;X;X;X;X;X;X:Xt } @ @ @ @ @ @ @ @ @ @ @ @ ' t eX;X;X;X;X;X;XiXuXt ! pX. % O         u X X X X X X X ",
"X X X X u           0 p t t #X2XiX;X;X3X>Xt aX@ @ @ @ @ @ @ @ @ @ @ @ @ 1.t tX;X;X;X2XqXt t y 0                 u X X X X X X X ",
"X X X X .               v.p t t t t t t t .X@ @ @ @ @ @ @ @ @ @ @ @ @ @ 3 t t t t t t t ! N.yX                  . X X X X X X X ",
"X X X j                     9 N.t t t OX5 @ @ @ @ @ @ @ @ @ @ @ @ @ @ @ @ a.sXt t p J dXyX                        j X X X X X X ",
"X X j                               = @ @ @ @ @ @ @ @ @ @ @ @ @ @ @ @ @ @ @ @ +                     $ @ @ @ : -     j X X X X X ",
"X %                               : @ @ @ @ @ @ @ @ @ @ @ @ @ @ @ @ @ @ @ @ @ =                   $ @ @ @ @ @ %       ^ X X X X ",
"q                               , @ @ @ @ @ @ @ @ @ @ @ @ @ @ @ @ @ @ @ @ @ @ @ ;               : @ @ @ @ @ @ @ h -     q X X X ",
"          < j u u . &           h @ @ @ @ @ @ @ @ @ @ @ @ @ @ @ @ @ @ @ @ @ @ @ @ -           % @ @ @ @ @ @ @ @ @ = -     O < O ",
"        ~ / X X X X * O       + @ @ @ @ @ @ @ @ @ @ @ @ @ @ @ @ @ @ @ @ @ @ @ @ @ #         ; @ @ @ @ @ @ @ @ @ @ @ =           "
};
