/* XPM */
static char *result[] = {
/* columns rows colors chars-per-pixel */
"64 64 59 1 ",
"  c #758C8E",
". c #849192",
"X c #BA7D77",
"o c #D86B60",
"O c #E06659",
"+ c #F75747",
"@ c #FF5342",
"# c #F75646",
"$ c #DE6457",
"% c #D6685D",
"& c #B47771",
"* c #868585",
"= c #768E90",
"- c #B87B75",
"; c #C26B63",
": c #758D8F",
"> c #C07670",
", c #F95140",
"< c #F14F3E",
"1 c #ED4D3D",
"2 c #E84C3C",
"3 c #E74C3C",
"4 c #F75040",
"5 c #B1736C",
"6 c #909192",
"7 c #F04E3E",
"8 c #EB4D3D",
"9 c #EE594B",
"0 c #D16F66",
"q c #F44F3F",
"w c #B0807A",
"e c #F05C4D",
"r c #D44536",
"t c #C64032",
"y c #CC4233",
"u c #C84032",
"i c #FA5140",
"p c #F34F3F",
"a c #D64636",
"s c #E64B3B",
"d c #FB5241",
"f c #CD4334",
"g c #819A9C",
"h c #D34535",
"j c #DC4838",
"k c #C9736C",
"l c #F24F3E",
"z c #939595",
"x c #DF4939",
"c c #7A9295",
"v c #BA6F68",
"b c #EC4D3C",
"n c #C17872",
"m c #849EA1",
"M c #CB685F",
"N c #789092",
"B c #977D7B",
"V c #D5665B",
"C c #D4655A",
/* pixels */
"   .XoO+@@@@@@@@@@@@@@@@@@@@@@@@@@@@@@@@@@@@@@@@@@@@@@@@#$%&*   ",
" =-+@@@@@@@@@@@@@@@@@@@@@@@@@@@@@@@@@@@@@@@@@@@@@@@@@@@@@@@@@;  ",
":>@@,<1233333333333333333333333333333333333333333333333321<4@@5 ",
"6@@7333333333333333333333333333333333333333333333333333333338@9 ",
"0@43333333333333333333333333333333333333333333333333333333333q@w",
"O@133333333333333333333333333333333333333333333333333333333331@o",
"e@8333rtttttttttttttttttttttttttttttttttttttttttttttttttty3332@e",
"@@3333uttttttttttttttttttttttttttttttttttttttttttttttttttt3333@@",
"@@3333tttttttttttttttttttttttttttttttttttttttttttttttttttt3333@@",
"@@3333tttttttttttttttttttttttttttttttttttttttttttttttttttt3333@@",
"@@3333tttttttttttttttttttttttttttttttttttttttttttttttttttt3333@@",
"@@3333tttttttttttttttttttttttttttttttttttttttttttttttttttt3333@@",
"@@3333tttttttttttttttttttttttttttttttttttttttttttttttttttt3333@@",
"@@3333tttttttttttttttttttttttttttttttttttttttttttttttttttt3333@@",
"@@3333tttttttttttttttttttttttttttttttttttttttttttttttttttt3333@@",
"@@3333tttttttttttttttttttttttttttttttttttttttttttttttttttt3333@@",
"@@3333tttttttttttttttttttttttttttttttttttttttttttttttttttt3333@@",
"@@3333tttttttttttttttttttttttttttttttttttttttttttttttttttt3333@@",
"@@3333tttttttttttttttttttttttttttttttttttttttttttttttttttt3333@@",
"@@3333tttttttttttttttttttttttttttttttttttttttttttttttttttt3333@@",
"@@3333tttttttttttttttttttttttttttttttttttttttttttttttttttt3333@@",
"@@3333tttttttttttttttttttttttttttttttttttttttttttttttttttt3333@@",
"@@3333tttttttttttttttttttttttttttttttttttttttttttttttttttt3333@@",
"@@3333tttttttttttttttttttttttttttttttttttttttttttttttttttt3333@@",
"@@3333tttttttttttttttttttttttttttttttttttttttttttttttttttt3333@@",
"@@3333tttttttttttttttttttttttttttttttttttttttttttttttttttt3333@@",
"@@3333tttttttttttttttttttttttttttttttttttttttttttttttttttt3333@@",
"@@3333tttttttttttttttttttttttttttttttttttttttttttttttttttt3333@@",
"@@3333tttttttttttttttttttttttttttttttttttttttttttttttttttt3333@@",
"@@3333tttttttttttttttttttttttttttttttttttttttttttttttttttt3333@@",
"@@3333tttttttttttttttttttttttttttttttttttttttttttttttttttt3333@@",
"@@3333tttttttttttttttttttttttttttttttttttttttttttttttttttt3333@@",
"@@3333tttttttttttttttttttttttttttttttttttttttttttttttttttt3333@@",
"@@3333tttttttttttttttttttttttttttttttttttttttttttttttttttt3333@@",
"@@333333333333333333333333333333333333333333333333333333333333@@",
"@@333333333333333333333333333333333333333333333333333333333333@@",
"@@333333333333333333333333333333333333333333333333333333333333@@",
"@@ip23333333333333333333333333333333333333333333333333333332pi@@",
"@@@@@@@@@@@@@@@@@@@@@@@@@@@@@@@@@@@@@@@@@@@@@@@@@@@@@@@@@@@@@@@@",
"@@asd@@@@@@@@@@@@@@@@@@@@@@@@@@@@@@@@@@@@@@@@@@@@@@@@@@@@@@dsa@@",
"@@fffffffffffffffffffffffffffff  fffffffffffffffffffffffffffff@@",
"@@fffffffffffffffffffffffffffff  fffffffffffffffffffffffffffff@@",
"@@fffffffffffffffffffffffffffff  fffffffffffffffffffffffffffff@@",
"@@fffffffffffffffffffffffffffff  fffffffffffffffffffffffffffff@@",
"@@fffffffffffffffffffffffffffff  fffffffffffffffffffffffffffff@@",
"@@fffffffffffffffffffffffffffff  fffffffffffffffffffffffffffff@@",
"@@fffffffffffffffffffffffffffff  fffffffffffffffffffffffffffff@@",
"@@fffffffffffffffffffffffffffff  fffffffffffffffffffffffffffff@@",
"@@fffffffffffffffffffffffffffff  fffffffffffffffffffffffffffff@@",
"  gggggggggggggggggggggggggggggggggggggggggggggggggggggggggggg  ",
"  gggggggggggggggggggggggggggggggggggggggggggggggggggggggggggg  ",
"@@fffffffffffff  ffffffffffffffffffffffffffffff  fffffffffffff@@",
"@@fffffffffffff  ffffffffffffffffffffffffffffff  fffffffffffff@@",
"@@fffffffffffff  ffffffffffffffffffffffffffffff  fffffffffffff@@",
"@@fffffffffffff  ffffffffffffffffffffffffffffff  fffffffffffff@@",
"@@fffffffffffff  ffffffffffffffffffffffffffffff  fffffffffffff@@",
"@@fffffffffffff  ffffffffffffffffffffffffffffff  fffffffffffff@@",
"@@hffffffffffff  ffffffffffffffffffffffffffffff  ffffffffffffh@@",
"O@jffffffffffff  ffffffffffffffffffffffffffffff  ffffffffffffj@O",
"k@lffffffffffff  ffffffffffffffffffffffffffffff  ffffffffffffl@k",
"z@@xfffffffffff  ffffffffffffffffffffffffffffff  fffffffffffx@@z",
"cv@@bhfffffffff  ffffffffffffffffffffffffffffff  fffffffffhb@@nm",
"  M@@@@@@@@@@@@  @@@@@@@@@@@@@@@@@@@@@@@@@@@@@@  @@@@@@@@@@@@MN:",
"   BV@@@@@@@@@@  @@@@@@@@@@@@@@@@@@@@@@@@@@@@@@  @@@@@@@@@@CB   "
};
